<svg width="150" height="112" viewBox="0 0 150 112" fill="none" xmlns="http://www.w3.org/2000/svg">
<path d="M150 98.22H0V98.295H150V98.22Z" fill="#FAFAFA"/>
<path d="M126.966 101.484H119.517V101.559H126.966V101.484Z" fill="#E0E0E0"/>
<path d="M131.685 101.445H129.168V101.52H131.685V101.445Z" fill="#E0E0E0"/>
<path d="M99.6092 101.949H84.0122V102.024H99.6092V101.949Z" fill="#E0E0E0"/>
<path d="M80.3309 102.762H78.0059V102.837H80.3309V102.762Z" fill="#E0E0E0"/>
<path d="M33.5851 100.389H29.5771V100.464H33.5851V100.389Z" fill="#E0E0E0"/>
<path d="M55.578 100.389H35.25V100.464H55.578V100.389Z" fill="#E0E0E0"/>
<path d="M38.2499 102.201H24.1079V102.276H38.2499V102.201Z" fill="#E0E0E0"/>
<path d="M71.0999 84.84H13.1729C12.7191 84.8392 12.2842 84.6584 11.9636 84.3372C11.643 84.0161 11.4629 83.5808 11.4629 83.127V1.698C11.4668 1.24681 11.6486 0.815394 11.9688 0.497466C12.289 0.179537 12.7217 0.000772916 13.1729 0H71.0999C71.5542 0 71.9899 0.180476 72.3112 0.501726C72.6324 0.822976 72.8129 1.25868 72.8129 1.713V83.127C72.8129 83.5813 72.6324 84.017 72.3112 84.3383C71.9899 84.6595 71.5542 84.84 71.0999 84.84ZM13.1729 0.0600002C12.739 0.0607949 12.3231 0.23372 12.0166 0.540818C11.7101 0.847917 11.5379 1.26409 11.5379 1.698V83.127C11.5379 83.5609 11.7101 83.9771 12.0166 84.2842C12.3231 84.5913 12.739 84.7642 13.1729 84.765H71.0999C71.5341 84.7642 71.9502 84.5914 72.2573 84.2844C72.5643 83.9774 72.7371 83.5612 72.7379 83.127V1.698C72.7371 1.26382 72.5643 0.847648 72.2573 0.540635C71.9502 0.233622 71.5341 0.0607933 71.0999 0.0600002H13.1729Z" fill="#E0E0E0"/>
<path d="M135.993 84.84H78.0631C77.609 84.8392 77.1738 84.6585 76.8527 84.3374C76.5316 84.0163 76.3509 83.5811 76.3501 83.127V1.698C76.3548 1.24653 76.5373 0.815123 76.858 0.497278C77.1786 0.179433 77.6116 0.000764487 78.0631 0H135.993C136.444 0.00156135 136.876 0.180675 137.195 0.498518C137.515 0.816362 137.696 1.24733 137.7 1.698V83.127C137.7 83.5803 137.52 84.0151 137.2 84.3362C136.881 84.6572 136.446 84.8384 135.993 84.84ZM78.0631 0.0600002C77.6289 0.0607933 77.2127 0.233622 76.9057 0.540635C76.5987 0.847648 76.4259 1.26382 76.4251 1.698V83.127C76.4259 83.5612 76.5987 83.9774 76.9057 84.2844C77.2127 84.5914 77.6289 84.7642 78.0631 84.765H135.993C136.427 84.7642 136.843 84.5914 137.15 84.2844C137.457 83.9774 137.63 83.5612 137.631 83.127V1.698C137.63 1.26382 137.457 0.847648 137.15 0.540635C136.843 0.233622 136.427 0.0607933 135.993 0.0600002H78.0631Z" fill="#E0E0E0"/>
<path d="M102.525 98.22H113.124V78.984H102.525V98.22Z" fill="#E0E0E0"/>
<path d="M125.769 78.984H113.124V98.22H125.769V78.984Z" fill="#EBEBEB"/>
<g style="mix-blend-mode:multiply" opacity="0.7">
<path d="M102.525 81.483H125.88V80.613H102.525V81.483Z" fill="#E0E0E0"/>
</g>
<path d="M101.94 80.976H113.124V76.968H101.94V80.976Z" fill="#E0E0E0"/>
<path d="M126.354 76.9709H113.124V80.9789H126.354V76.9709Z" fill="#EBEBEB"/>
<path d="M58.2181 5.69702H22.5391V48.267H58.2181V5.69702Z" fill="#E0E0E0"/>
<path d="M59.8532 5.69702H23.3042V48.267H59.8532V5.69702Z" fill="#EBEBEB"/>
<path d="M58.2181 48.267H22.5391V51.3H58.2181V48.267Z" fill="#E0E0E0"/>
<path d="M62.571 48.267H26.022V51.3H62.571V48.267Z" fill="#EBEBEB"/>
<path d="M57.5669 45.981V7.98303L25.5899 7.98303L25.5899 45.981H57.5669Z" fill="#F5F5F5"/>
<path d="M29.5142 45.981L42.9272 7.98303H49.2572L35.8472 45.981H29.5142Z" fill="#FAFAFA"/>
<path d="M26.6459 33.09C26.6026 33.0892 26.5614 33.0715 26.5311 33.0407C26.5009 33.0098 26.4839 32.9683 26.4839 32.925V9.46803C26.4839 9.42507 26.501 9.38386 26.5313 9.35348C26.5617 9.3231 26.6029 9.30603 26.6459 9.30603C26.6891 9.30602 26.7307 9.32299 26.7615 9.35329C26.7924 9.38359 26.8101 9.42479 26.8109 9.46803V32.925C26.8109 32.9688 26.7935 33.0108 26.7626 33.0417C26.7316 33.0726 26.6896 33.09 26.6459 33.09Z" fill="#EBEBEB"/>
<path d="M37.2061 45.981L50.6191 7.98303H53.0881L39.6751 45.981H37.2061Z" fill="#FAFAFA"/>
<path d="M57.564 45.981V7.98303H57.273V45.981H57.564Z" fill="#E0E0E0"/>
<path d="M60.3899 10.905H24.7139L24.5039 8.87097H60.1799L60.3899 10.905Z" fill="#E0E0E0"/>
<path d="M60.3899 12.396H24.7139L24.5039 10.359H60.1799L60.3899 12.396Z" fill="#E0E0E0"/>
<path d="M60.3899 14.184H24.7139L24.5039 12.147H60.1799L60.3899 14.184Z" fill="#E0E0E0"/>
<path d="M60.3899 16.173H24.7139L24.5039 14.139H60.1799L60.3899 16.173Z" fill="#E0E0E0"/>
<path d="M60.3899 18.558H24.7139L24.5039 16.521H60.1799L60.3899 18.558Z" fill="#E0E0E0"/>
<path d="M60.3899 21.237H24.7139L24.5039 19.203H60.1799L60.3899 21.237Z" fill="#E0E0E0"/>
<path d="M123.108 5.69702H87.4292V48.267H123.108V5.69702Z" fill="#E0E0E0"/>
<path d="M124.74 5.69702H88.1909V48.267H124.74V5.69702Z" fill="#EBEBEB"/>
<path d="M123.108 48.267H87.4292V51.3H123.108V48.267Z" fill="#E0E0E0"/>
<path d="M127.461 48.267H90.9121V51.3H127.461V48.267Z" fill="#EBEBEB"/>
<path d="M122.457 45.981V7.98303L90.48 7.98303V45.981H122.457Z" fill="#F5F5F5"/>
<path d="M94.4038 45.981L107.817 7.98303H114.147L100.734 45.981H94.4038Z" fill="#FAFAFA"/>
<path d="M91.536 33.09C91.4928 33.0892 91.4516 33.0715 91.4213 33.0407C91.391 33.0098 91.374 32.9683 91.374 32.925V9.46803C91.374 9.42507 91.3911 9.38386 91.4215 9.35348C91.4519 9.3231 91.4931 9.30603 91.536 9.30603C91.579 9.30603 91.6202 9.3231 91.6506 9.35348C91.681 9.38386 91.698 9.42507 91.698 9.46803V32.925C91.698 32.9683 91.6811 33.0098 91.6508 33.0407C91.6205 33.0715 91.5793 33.0892 91.536 33.09Z" fill="#EBEBEB"/>
<path d="M102.096 45.981L115.509 7.98303H117.975L104.565 45.981H102.096Z" fill="#FAFAFA"/>
<path d="M122.454 45.981V7.98303H122.163V45.981H122.454Z" fill="#E0E0E0"/>
<path d="M125.28 10.905H89.6041L89.3911 8.87097H125.07L125.28 10.905Z" fill="#E0E0E0"/>
<path d="M125.28 12.396H89.6041L89.3911 10.359H125.07L125.28 12.396Z" fill="#E0E0E0"/>
<path d="M125.28 14.184H89.6041L89.3911 12.147H125.07L125.28 14.184Z" fill="#E0E0E0"/>
<path d="M125.28 16.173H89.6041L89.3911 14.139H125.07L125.28 16.173Z" fill="#E0E0E0"/>
<path d="M125.28 18.558H89.6041L89.3911 16.521H125.07L125.28 18.558Z" fill="#E0E0E0"/>
<path d="M125.28 21.237H89.6041L89.3911 19.203H125.07L125.28 21.237Z" fill="#E0E0E0"/>
<path d="M95.4121 71.238H88.2871V98.22H95.4121V71.238Z" fill="#E0E0E0"/>
<path d="M94.0562 98.2201H95.4092V94.9141H92.6372L94.0562 98.2201Z" fill="#F5F5F5"/>
<path d="M26.2681 71.238H19.1431V98.22H26.2681V71.238Z" fill="#E0E0E0"/>
<path d="M95.4119 71.238H25.0859V96.402H95.4119V71.238Z" fill="#F5F5F5"/>
<path d="M60.7021 72.498V90.468H94.3621V72.498H60.7021Z" fill="#E0E0E0"/>
<path d="M26.1357 72.498V90.468H59.7957V72.498H26.1357Z" fill="#E0E0E0"/>
<path d="M94.3589 94.266V92.265H60.6989V94.266H94.3589Z" fill="#E0E0E0"/>
<path d="M59.793 94.2689V92.2679H26.133V94.2689H59.793Z" fill="#E0E0E0"/>
<path d="M54.8188 73.5719H31.1188C30.5925 73.5723 30.0717 73.4662 29.5876 73.26C29.1034 73.0537 28.6661 72.7517 28.3018 72.3719H57.6478C57.2821 72.7531 56.8427 73.0561 56.3564 73.2623C55.8701 73.4686 55.347 73.5739 54.8188 73.5719Z" fill="#F5F5F5"/>
<path d="M89.5111 73.5719H65.8111C65.2849 73.5723 64.7641 73.4662 64.2799 73.26C63.7958 73.0537 63.3584 72.7517 62.9941 72.3719H92.3401C91.9751 72.754 91.5359 73.0575 91.0494 73.2638C90.563 73.4701 90.0395 73.575 89.5111 73.5719Z" fill="#F5F5F5"/>
<path d="M26.439 98.2201H25.083V94.9141H27.855L26.439 98.2201Z" fill="#F5F5F5"/>
<g style="mix-blend-mode:multiply" opacity="0.4">
<path d="M76.6678 54.672H68.7358V71.238H76.6678V54.672Z" fill="#E0E0E0"/>
</g>
<path d="M83.3311 71.238H69.9061L68.6431 53.349H82.0651L83.3311 71.238Z" fill="#E0E0E0"/>
<path d="M84.8579 71.238H70.2869L69.0239 53.349H83.5919L84.8579 71.238Z" fill="#F5F5F5"/>
<path d="M70.9619 70.554L69.7949 54.033H82.9199L84.0899 70.554H70.9619Z" fill="#FAFAFA"/>
<path d="M74.1391 66.8551L73.4941 57.7321H79.7431L80.3881 66.8551H74.1391Z" fill="#F5F5F5"/>
<path d="M47.8049 68.301C49.7301 68.301 51.2908 66.7402 51.2908 64.815C51.2908 62.8897 49.7301 61.329 47.8049 61.329C45.8796 61.329 44.3188 62.8897 44.3188 64.815C44.3188 66.7402 45.8796 68.301 47.8049 68.301Z" fill="#EBEBEB"/>
<path d="M53.7751 69.963C55.7003 69.963 57.2611 68.4022 57.2611 66.477C57.2611 64.5517 55.7003 62.991 53.7751 62.991C51.8498 62.991 50.2891 64.5517 50.2891 66.477C50.2891 68.4022 51.8498 69.963 53.7751 69.963Z" fill="#EBEBEB"/>
<path d="M59.7071 67.1713C60.8943 66.6822 61.4603 65.3232 60.9712 64.1359C60.4821 62.9487 59.1231 62.3827 57.9359 62.8718C56.7486 63.3609 56.1826 64.7199 56.6717 65.9072C57.1609 67.0944 58.5198 67.6604 59.7071 67.1713Z" fill="#EBEBEB"/>
<path d="M53.5923 63.0802C53.7976 61.8126 52.9365 60.6187 51.6689 60.4134C50.4014 60.2081 49.2074 61.0692 49.0021 62.3367C48.7968 63.6043 49.6579 64.7983 50.9255 65.0036C52.193 65.2089 53.387 64.3477 53.5923 63.0802Z" fill="#EBEBEB"/>
<path d="M42.231 65.853C42.231 65.853 42.504 71.238 52.965 71.238C63.426 71.238 63.699 65.853 63.699 65.853H42.231Z" fill="#E0E0E0"/>
<path d="M32.5709 69.393C32.5709 69.393 29.1629 63.519 33.8909 58.842C33.8909 58.842 35.1239 59.646 35.0909 60.729C35.0579 61.812 33.7679 62.082 34.0469 62.985C34.3259 63.888 35.5469 64.785 34.7519 65.52C33.9569 66.255 34.8809 66.927 34.8269 67.842C34.7729 68.757 32.5709 69.393 32.5709 69.393Z" fill="#E0E0E0"/>
<path d="M32.8291 69.93C32.8291 69.93 34.2091 63.282 28.2481 60.33C28.2481 60.33 27.3301 61.485 27.6901 62.505C28.0501 63.525 29.3701 63.372 29.3911 64.305C29.4121 65.238 28.5211 66.477 29.5231 66.93C30.5251 67.383 29.8441 68.31 30.1831 69.159C30.5221 70.008 32.8291 69.93 32.8291 69.93Z" fill="#E0E0E0"/>
<path d="M27.6001 66.855C27.6001 66.855 27.7141 71.238 32.0581 71.238C36.4021 71.238 36.5161 66.855 36.5161 66.855H27.6001Z" fill="#EBEBEB"/>
<path d="M75 111.768C107.125 111.768 133.167 110.248 133.167 108.372C133.167 106.496 107.125 104.976 75 104.976C42.8753 104.976 16.833 106.496 16.833 108.372C16.833 110.248 42.8753 111.768 75 111.768Z" fill="#F5F5F5"/>
<path d="M54.1351 65.232C53.9573 65.2203 53.7905 65.1415 53.6687 65.0114C53.5468 64.8813 53.479 64.7097 53.479 64.5315C53.479 64.3533 53.5468 64.1817 53.6687 64.0516C53.7905 63.9215 53.9573 63.8426 54.1351 63.831C55.8511 63.831 57.2971 61.374 57.2971 58.464C57.3088 58.2861 57.3876 58.1194 57.5177 57.9975C57.6478 57.8757 57.8194 57.8079 57.9976 57.8079C58.1759 57.8079 58.3474 57.8757 58.4775 57.9975C58.6076 58.1194 58.6865 58.2861 58.6981 58.464C58.6981 62.259 56.7001 65.232 54.1351 65.232Z" fill="#B00037"/>
<path d="M64.7221 65.232C64.5442 65.2203 64.3774 65.1415 64.2556 65.0114C64.1337 64.8813 64.0659 64.7097 64.0659 64.5315C64.0659 64.3533 64.1337 64.1817 64.2556 64.0516C64.3774 63.9215 64.5442 63.8426 64.7221 63.831C66.4381 63.831 67.8841 61.374 67.8841 58.464C67.8957 58.2861 67.9746 58.1194 68.1047 57.9975C68.2347 57.8757 68.4063 57.8079 68.5846 57.8079C68.7628 57.8079 68.9344 57.8757 69.0644 57.9975C69.1945 58.1194 69.2734 58.2861 69.2851 58.464C69.3001 62.259 67.2811 65.232 64.7221 65.232Z" fill="#B00037"/>
<path d="M75.3002 65.232C75.1223 65.2204 74.9555 65.1415 74.8337 65.0114C74.7118 64.8813 74.644 64.7098 74.644 64.5315C74.644 64.3533 74.7118 64.1817 74.8337 64.0516C74.9555 63.9215 75.1223 63.8427 75.3002 63.831C77.0132 63.831 78.4622 61.374 78.4622 58.464C78.4622 58.2786 78.5358 58.1008 78.6669 57.9697C78.798 57.8387 78.9758 57.765 79.1612 57.765C79.3466 57.765 79.5244 57.8387 79.6554 57.9697C79.7865 58.1008 79.8602 58.2786 79.8602 58.464C79.8692 62.259 77.8682 65.232 75.3002 65.232Z" fill="#B00037"/>
<path d="M85.8958 65.232C85.8 65.2383 85.7039 65.2248 85.6134 65.1925C85.523 65.1601 85.4401 65.1095 85.37 65.0439C85.2999 64.9782 85.2441 64.8989 85.2059 64.8107C85.1677 64.7226 85.1479 64.6276 85.1479 64.5315C85.1479 64.4355 85.1677 64.3404 85.2059 64.2523C85.2441 64.1642 85.2999 64.0848 85.37 64.0192C85.4401 63.9535 85.523 63.9029 85.6134 63.8706C85.7039 63.8382 85.8 63.8247 85.8958 63.831C87.6088 63.831 89.0578 61.374 89.0578 58.464C89.0578 58.2786 89.1315 58.1008 89.2625 57.9697C89.3936 57.8387 89.5714 57.765 89.7568 57.765C89.9422 57.765 90.12 57.8387 90.2511 57.9697C90.3822 58.1008 90.4558 58.2786 90.4558 58.464C90.4558 62.259 88.4518 65.232 85.8958 65.232Z" fill="#B00037"/>
<path d="M96.4799 65.232C96.302 65.2203 96.1352 65.1415 96.0134 65.0114C95.8915 64.8813 95.8237 64.7097 95.8237 64.5315C95.8237 64.3533 95.8915 64.1817 96.0134 64.0516C96.1352 63.9215 96.302 63.8426 96.4799 63.831C98.1959 63.831 99.6419 61.374 99.6419 58.464C99.6535 58.2861 99.7324 58.1194 99.8625 57.9975C99.9925 57.8757 100.164 57.8079 100.342 57.8079C100.521 57.8079 100.692 57.8757 100.822 57.9975C100.952 58.1194 101.031 58.2861 101.043 58.464C101.043 62.259 99.0389 65.232 96.4799 65.232Z" fill="#B00037"/>
<path d="M107.067 65.232C106.889 65.2203 106.722 65.1415 106.6 65.0114C106.478 64.8813 106.411 64.7097 106.411 64.5315C106.411 64.3533 106.478 64.1817 106.6 64.0516C106.722 63.9215 106.889 63.8426 107.067 63.831C108.78 63.831 110.229 61.374 110.229 58.464C110.24 58.2861 110.319 58.1194 110.449 57.9975C110.579 57.8757 110.751 57.8079 110.929 57.8079C111.108 57.8079 111.279 57.8757 111.409 57.9975C111.539 58.1194 111.618 58.2861 111.63 58.464C111.63 62.259 109.626 65.232 107.067 65.232Z" fill="#B00037"/>
<g opacity="0.3">
<path opacity="0.3" d="M54.1351 65.232C53.9573 65.2203 53.7905 65.1415 53.6687 65.0114C53.5468 64.8813 53.479 64.7097 53.479 64.5315C53.479 64.3533 53.5468 64.1817 53.6687 64.0516C53.7905 63.9215 53.9573 63.8426 54.1351 63.831C55.8511 63.831 57.2971 61.374 57.2971 58.464C57.3088 58.2861 57.3876 58.1194 57.5177 57.9975C57.6478 57.8757 57.8194 57.8079 57.9976 57.8079C58.1759 57.8079 58.3474 57.8757 58.4775 57.9975C58.6076 58.1194 58.6865 58.2861 58.6981 58.464C58.6981 62.259 56.7001 65.232 54.1351 65.232Z" fill="black"/>
<path opacity="0.3" d="M64.7221 65.232C64.5442 65.2203 64.3774 65.1415 64.2556 65.0114C64.1337 64.8813 64.0659 64.7097 64.0659 64.5315C64.0659 64.3533 64.1337 64.1817 64.2556 64.0516C64.3774 63.9215 64.5442 63.8426 64.7221 63.831C66.4381 63.831 67.8841 61.374 67.8841 58.464C67.8957 58.2861 67.9746 58.1194 68.1047 57.9975C68.2347 57.8757 68.4063 57.8079 68.5846 57.8079C68.7628 57.8079 68.9344 57.8757 69.0644 57.9975C69.1945 58.1194 69.2734 58.2861 69.2851 58.464C69.3001 62.259 67.2811 65.232 64.7221 65.232Z" fill="black"/>
<path opacity="0.3" d="M75.3002 65.232C75.1223 65.2204 74.9555 65.1415 74.8337 65.0114C74.7118 64.8813 74.644 64.7098 74.644 64.5315C74.644 64.3533 74.7118 64.1817 74.8337 64.0516C74.9555 63.9215 75.1223 63.8427 75.3002 63.831C77.0132 63.831 78.4622 61.374 78.4622 58.464C78.4622 58.2786 78.5358 58.1008 78.6669 57.9697C78.798 57.8387 78.9758 57.765 79.1612 57.765C79.3466 57.765 79.5244 57.8387 79.6554 57.9697C79.7865 58.1008 79.8602 58.2786 79.8602 58.464C79.8692 62.259 77.8682 65.232 75.3002 65.232Z" fill="black"/>
<path opacity="0.3" d="M85.8963 65.232C85.8005 65.2383 85.7043 65.2248 85.6139 65.1925C85.5235 65.1601 85.4406 65.1095 85.3705 65.0439C85.3004 64.9782 85.2446 64.8989 85.2064 64.8107C85.1682 64.7226 85.1484 64.6276 85.1484 64.5315C85.1484 64.4355 85.1682 64.3404 85.2064 64.2523C85.2446 64.1642 85.3004 64.0848 85.3705 64.0192C85.4406 63.9535 85.5235 63.9029 85.6139 63.8706C85.7043 63.8382 85.8005 63.8247 85.8963 63.831C87.6093 63.831 89.0583 61.374 89.0583 58.464C89.0583 58.2786 89.1319 58.1008 89.263 57.9697C89.3941 57.8387 89.5719 57.765 89.7573 57.765C89.9427 57.765 90.1205 57.8387 90.2516 57.9697C90.3827 58.1008 90.4563 58.2786 90.4563 58.464C90.4563 62.259 88.4523 65.232 85.8963 65.232Z" fill="black"/>
<path opacity="0.3" d="M96.4803 65.232C96.3025 65.2203 96.1357 65.1415 96.0139 65.0114C95.892 64.8813 95.8242 64.7097 95.8242 64.5315C95.8242 64.3533 95.892 64.1817 96.0139 64.0516C96.1357 63.9215 96.3025 63.8426 96.4803 63.831C98.1963 63.831 99.6424 61.374 99.6424 58.464C99.654 58.2861 99.7329 58.1194 99.8629 57.9975C99.993 57.8757 100.165 57.8079 100.343 57.8079C100.521 57.8079 100.693 57.8757 100.823 57.9975C100.953 58.1194 101.032 58.2861 101.043 58.464C101.043 62.259 99.0393 65.232 96.4803 65.232Z" fill="black"/>
<path opacity="0.3" d="M107.067 65.232C106.889 65.2203 106.723 65.1415 106.601 65.0114C106.479 64.8813 106.411 64.7097 106.411 64.5315C106.411 64.3533 106.479 64.1817 106.601 64.0516C106.723 63.9215 106.889 63.8426 107.067 63.831C108.78 63.831 110.229 61.374 110.229 58.464C110.241 58.2861 110.32 58.1194 110.45 57.9975C110.58 57.8757 110.752 57.8079 110.93 57.8079C111.108 57.8079 111.28 57.8757 111.41 57.9975C111.54 58.1194 111.619 58.2861 111.63 58.464C111.63 62.259 109.626 65.232 107.067 65.232Z" fill="black"/>
</g>
<path d="M47.5021 59.181H115.656C116.57 59.1993 117.446 59.5505 118.119 60.1685C118.792 60.7866 119.217 61.6291 119.313 62.538L123.087 105.087C123.133 105.514 123.088 105.946 122.954 106.354C122.821 106.762 122.602 107.137 122.313 107.455C122.024 107.772 121.67 108.024 121.276 108.195C120.882 108.365 120.456 108.45 120.027 108.444H51.8701C50.9566 108.424 50.0816 108.073 49.4086 107.455C48.7355 106.837 48.3106 105.995 48.2131 105.087L44.4421 62.538C44.3956 62.111 44.4406 61.679 44.5738 61.2706C44.7071 60.8623 44.9256 60.4869 45.215 60.1695C45.5044 59.852 45.8579 59.5997 46.2522 59.4293C46.6465 59.2589 47.0726 59.1743 47.5021 59.181Z" fill="#B00037"/>
<path opacity="0.4" d="M47.5021 59.181H115.656C116.57 59.1993 117.446 59.5505 118.119 60.1685C118.792 60.7866 119.217 61.6291 119.313 62.538L123.087 105.087C123.133 105.514 123.088 105.946 122.954 106.354C122.821 106.762 122.602 107.137 122.313 107.455C122.024 107.772 121.67 108.024 121.276 108.195C120.882 108.365 120.456 108.45 120.027 108.444H51.8701C50.9566 108.424 50.0816 108.073 49.4086 107.455C48.7355 106.837 48.3106 105.995 48.2131 105.087L44.4421 62.538C44.3956 62.111 44.4406 61.679 44.5738 61.2706C44.7071 60.8623 44.9256 60.4869 45.215 60.1695C45.5044 59.852 45.8579 59.5997 46.2522 59.4293C46.6465 59.2589 47.0726 59.1743 47.5021 59.181Z" fill="#FAFAFA"/>
<path d="M115.089 59.181H46.932C46.0305 59.1917 45.1667 59.5443 44.5151 60.1674C43.8636 60.7906 43.4729 61.6378 43.422 62.538L41.502 105.087C41.4791 105.52 41.545 105.954 41.6955 106.361C41.8461 106.768 42.0782 107.14 42.3776 107.455C42.677 107.769 43.0374 108.019 43.4367 108.189C43.8361 108.359 44.2659 108.446 44.7 108.444H112.863C113.765 108.433 114.628 108.081 115.28 107.458C115.931 106.834 116.322 105.987 116.373 105.087L118.296 62.538C118.318 62.1038 118.252 61.6697 118.101 61.2622C117.95 60.8546 117.717 60.4823 117.416 60.168C117.116 59.8537 116.755 59.604 116.355 59.4343C115.954 59.2645 115.524 59.1783 115.089 59.181Z" fill="#B00037"/>
<path opacity="0.2" d="M115.089 59.181H46.932C46.0305 59.1917 45.1667 59.5443 44.5151 60.1674C43.8636 60.7906 43.4729 61.6378 43.422 62.538L41.502 105.087C41.4791 105.52 41.545 105.954 41.6955 106.361C41.8461 106.768 42.0782 107.14 42.3776 107.455C42.677 107.769 43.0374 108.019 43.4367 108.189C43.8361 108.359 44.2659 108.446 44.7 108.444H112.863C113.765 108.433 114.628 108.081 115.28 107.458C115.931 106.834 116.322 105.987 116.373 105.087L118.296 62.538C118.318 62.1038 118.252 61.6697 118.101 61.2622C117.95 60.8546 117.717 60.4823 117.416 60.168C117.116 59.8537 116.755 59.604 116.355 59.4343C115.954 59.2645 115.524 59.1783 115.089 59.181Z" fill="#FAFAFA"/>
<path d="M48.1828 97.2L49.7698 62.061C49.7888 61.7163 49.9383 61.3918 50.1879 61.1533C50.4376 60.9148 50.7686 60.7803 51.1138 60.777H110.763C110.929 60.776 111.094 60.8089 111.247 60.8738C111.4 60.9387 111.538 61.0342 111.653 61.1544C111.768 61.2746 111.857 61.4171 111.915 61.573C111.973 61.7289 111.998 61.8949 111.99 62.061L110.4 97.2C110.381 97.5447 110.231 97.8692 109.982 98.1077C109.732 98.3462 109.401 98.4807 109.056 98.484H49.4098C49.2435 98.485 49.0787 98.4521 48.9256 98.3872C48.7725 98.3223 48.6343 98.2268 48.5194 98.1066C48.4045 97.9864 48.3154 97.8439 48.2575 97.688C48.1996 97.5322 48.1742 97.3661 48.1828 97.2Z" fill="#B00037"/>
<path opacity="0.1" d="M48.1828 97.2L49.7698 62.061C49.7888 61.7163 49.9383 61.3918 50.1879 61.1533C50.4376 60.9148 50.7686 60.7803 51.1138 60.777H110.763C110.929 60.776 111.094 60.8089 111.247 60.8738C111.4 60.9387 111.538 61.0342 111.653 61.1544C111.768 61.2746 111.857 61.4171 111.915 61.573C111.973 61.7289 111.998 61.8949 111.99 62.061L110.4 97.2C110.381 97.5447 110.231 97.8692 109.982 98.1077C109.732 98.3462 109.401 98.4807 109.056 98.484H49.4098C49.2435 98.485 49.0787 98.4521 48.9256 98.3872C48.7725 98.3223 48.6343 98.2268 48.5194 98.1066C48.4045 97.9864 48.3154 97.8439 48.2575 97.688C48.1996 97.5322 48.1742 97.3661 48.1828 97.2Z" fill="#FAFAFA"/>
<path opacity="0.1" d="M46.4998 100.068L48.1648 63.168C48.1839 62.806 48.3405 62.4651 48.6025 62.2147C48.8646 61.9644 49.2123 61.8235 49.5748 61.821H112.215C112.389 61.8195 112.562 61.8538 112.723 61.9217C112.884 61.9897 113.029 62.0898 113.15 62.2161C113.27 62.3423 113.364 62.4918 113.424 62.6556C113.485 62.8193 113.511 62.9937 113.502 63.168L111.834 100.068C111.815 100.43 111.659 100.771 111.397 101.021C111.136 101.272 110.789 101.414 110.427 101.418H47.7808C47.6063 101.419 47.4335 101.384 47.273 101.316C47.1125 101.248 46.9677 101.147 46.8477 101.021C46.7276 100.894 46.6348 100.744 46.5749 100.58C46.5151 100.417 46.4895 100.242 46.4998 100.068Z" fill="black"/>
<path d="M44.9518 103.044L46.6888 64.554C46.7121 64.1777 46.8764 63.8239 47.1488 63.5632C47.4212 63.3024 47.7818 63.1538 48.1588 63.147H113.502C113.684 63.1455 113.865 63.1814 114.033 63.2524C114.201 63.3234 114.352 63.428 114.478 63.5598C114.604 63.6917 114.702 63.8479 114.765 64.0189C114.828 64.1899 114.856 64.372 114.846 64.554L113.1 103.044C113.077 103.42 112.912 103.774 112.64 104.035C112.367 104.296 112.007 104.444 111.63 104.451H46.2958C46.1134 104.453 45.9325 104.417 45.7644 104.347C45.5963 104.276 45.4445 104.171 45.3185 104.039C45.1925 103.907 45.0949 103.751 45.0319 103.58C44.9688 103.408 44.9415 103.226 44.9518 103.044Z" fill="#FAFAFA"/>
<path d="M107.058 65.454C106.935 65.4542 106.813 65.4293 106.701 65.3807C106.588 65.3321 106.486 65.261 106.402 65.1716C106.317 65.0822 106.252 64.9765 106.21 64.861C106.168 64.7455 106.15 64.6226 106.158 64.5C106.169 64.2593 106.272 64.0321 106.446 63.8648C106.619 63.6975 106.85 63.6028 107.091 63.6C107.214 63.5998 107.335 63.6247 107.448 63.6733C107.561 63.7218 107.663 63.793 107.747 63.8824C107.831 63.9718 107.897 64.0775 107.939 64.193C107.98 64.3085 107.998 64.4313 107.991 64.554C107.979 64.7947 107.876 65.0219 107.703 65.1892C107.53 65.3565 107.299 65.4512 107.058 65.454Z" fill="#B00037"/>
<path d="M96.471 65.454C96.3481 65.4542 96.2265 65.4293 96.1136 65.3807C96.0007 65.3321 95.899 65.261 95.8147 65.1716C95.7304 65.0822 95.6652 64.9765 95.6233 64.861C95.5814 64.7455 95.5636 64.6226 95.571 64.5C95.5824 64.2593 95.6854 64.0321 95.8588 63.8648C96.0322 63.6975 96.263 63.6028 96.504 63.6C96.6268 63.5998 96.7485 63.6247 96.8613 63.6733C96.9742 63.7218 97.0759 63.793 97.1602 63.8824C97.2445 63.9718 97.3097 64.0775 97.3516 64.193C97.3935 64.3085 97.4113 64.4313 97.404 64.554C97.3932 64.7949 97.2905 65.0226 97.1169 65.19C96.9433 65.3574 96.7121 65.4519 96.471 65.454Z" fill="#B00037"/>
<path d="M85.884 65.454C85.7612 65.4542 85.6396 65.4293 85.5267 65.3807C85.4138 65.3321 85.3121 65.261 85.2278 65.1716C85.1434 65.0822 85.0783 64.9765 85.0364 64.861C84.9945 64.7455 84.9767 64.6226 84.984 64.5C84.9962 64.2595 85.0994 64.0327 85.2727 63.8656C85.4459 63.6984 85.6763 63.6035 85.917 63.6C86.0399 63.5998 86.1615 63.6247 86.2744 63.6733C86.3873 63.7218 86.489 63.793 86.5733 63.8824C86.6576 63.9718 86.7228 64.0775 86.7647 64.193C86.8066 64.3085 86.8244 64.4313 86.817 64.554C86.8063 64.7949 86.7036 65.0226 86.53 65.19C86.3564 65.3574 86.1252 65.4519 85.884 65.454Z" fill="#B00037"/>
<path d="M75.3001 65.454C75.1772 65.4542 75.0556 65.4293 74.9427 65.3807C74.8298 65.3321 74.7281 65.261 74.6438 65.1716C74.5595 65.0822 74.4943 64.9765 74.4524 64.861C74.4105 64.7455 74.3927 64.6226 74.4001 64.5C74.413 64.2593 74.5168 64.0324 74.6906 63.8654C74.8643 63.6983 75.095 63.6034 75.3361 63.6C75.4589 63.5998 75.5806 63.6247 75.6934 63.6733C75.8063 63.7218 75.908 63.793 75.9923 63.8824C76.0767 63.9718 76.1418 64.0775 76.1837 64.193C76.2256 64.3085 76.2434 64.4313 76.2361 64.554C76.2253 64.7954 76.1221 65.0235 75.9479 65.191C75.7737 65.3585 75.5417 65.4527 75.3001 65.454Z" fill="#B00037"/>
<path d="M64.7131 65.454C64.5903 65.4542 64.4687 65.4293 64.3558 65.3807C64.2429 65.3321 64.1412 65.261 64.0569 65.1716C63.9725 65.0822 63.9074 64.9765 63.8655 64.861C63.8236 64.7455 63.8058 64.6226 63.8131 64.5C63.8246 64.2593 63.9276 64.0321 64.101 63.8648C64.2744 63.6975 64.5052 63.6028 64.7461 63.6C64.869 63.5998 64.9906 63.6247 65.1035 63.6733C65.2164 63.7218 65.3181 63.793 65.4024 63.8824C65.4867 63.9718 65.5519 64.0775 65.5938 64.193C65.6357 64.3085 65.6535 64.4313 65.6461 64.554C65.6347 64.7947 65.5317 65.0219 65.3583 65.1892C65.1849 65.3565 64.9541 65.4512 64.7131 65.454Z" fill="#B00037"/>
<path d="M54.1262 65.454C54.0034 65.4542 53.8817 65.4293 53.7689 65.3807C53.656 65.3321 53.5543 65.261 53.47 65.1716C53.3856 65.0822 53.3205 64.9765 53.2786 64.861C53.2367 64.7455 53.2189 64.6226 53.2262 64.5C53.2377 64.2593 53.3407 64.0321 53.5141 63.8648C53.6875 63.6975 53.9183 63.6028 54.1592 63.6C54.2821 63.5998 54.4037 63.6247 54.5166 63.6733C54.6295 63.7218 54.7312 63.793 54.8155 63.8824C54.8998 63.9718 54.965 64.0775 55.0069 64.193C55.0488 64.3085 55.0666 64.4313 55.0592 64.554C55.0485 64.7949 54.9457 65.0226 54.7722 65.19C54.5986 65.3574 54.3674 65.4519 54.1262 65.454Z" fill="#B00037"/>
<g opacity="0.1">
<path opacity="0.1" d="M107.058 65.454C106.935 65.4542 106.813 65.4293 106.701 65.3807C106.588 65.3321 106.486 65.261 106.402 65.1716C106.317 65.0822 106.252 64.9765 106.21 64.861C106.168 64.7455 106.15 64.6226 106.158 64.5C106.169 64.2593 106.272 64.0321 106.446 63.8648C106.619 63.6975 106.85 63.6028 107.091 63.6C107.214 63.5998 107.335 63.6247 107.448 63.6733C107.561 63.7218 107.663 63.793 107.747 63.8824C107.831 63.9718 107.897 64.0775 107.939 64.193C107.98 64.3085 107.998 64.4313 107.991 64.554C107.979 64.7947 107.876 65.0219 107.703 65.1892C107.53 65.3565 107.299 65.4512 107.058 65.454Z" fill="#FAFAFA"/>
<path opacity="0.1" d="M96.471 65.454C96.3481 65.4542 96.2265 65.4293 96.1136 65.3807C96.0007 65.3321 95.899 65.261 95.8147 65.1716C95.7304 65.0822 95.6652 64.9765 95.6233 64.861C95.5814 64.7455 95.5636 64.6226 95.571 64.5C95.5824 64.2593 95.6854 64.0321 95.8588 63.8648C96.0322 63.6975 96.263 63.6028 96.504 63.6C96.6268 63.5998 96.7485 63.6247 96.8613 63.6733C96.9742 63.7218 97.0759 63.793 97.1602 63.8824C97.2445 63.9718 97.3097 64.0775 97.3516 64.193C97.3935 64.3085 97.4113 64.4313 97.404 64.554C97.3932 64.7949 97.2905 65.0226 97.1169 65.19C96.9433 65.3574 96.7121 65.4519 96.471 65.454Z" fill="#FAFAFA"/>
<path opacity="0.1" d="M85.884 65.454C85.7612 65.4542 85.6396 65.4293 85.5267 65.3807C85.4138 65.3321 85.3121 65.261 85.2278 65.1716C85.1434 65.0822 85.0783 64.9765 85.0364 64.861C84.9945 64.7455 84.9767 64.6226 84.984 64.5C84.9962 64.2595 85.0994 64.0327 85.2727 63.8656C85.4459 63.6984 85.6763 63.6035 85.917 63.6C86.0399 63.5998 86.1615 63.6247 86.2744 63.6733C86.3873 63.7218 86.489 63.793 86.5733 63.8824C86.6576 63.9718 86.7228 64.0775 86.7647 64.193C86.8066 64.3085 86.8244 64.4313 86.817 64.554C86.8063 64.7949 86.7036 65.0226 86.53 65.19C86.3564 65.3574 86.1252 65.4519 85.884 65.454Z" fill="#FAFAFA"/>
<path opacity="0.1" d="M75.3001 65.454C75.1772 65.4542 75.0556 65.4293 74.9427 65.3807C74.8298 65.3321 74.7281 65.261 74.6438 65.1716C74.5595 65.0822 74.4943 64.9765 74.4524 64.861C74.4105 64.7455 74.3927 64.6226 74.4001 64.5C74.413 64.2593 74.5168 64.0324 74.6906 63.8654C74.8643 63.6983 75.095 63.6034 75.3361 63.6C75.4589 63.5998 75.5806 63.6247 75.6934 63.6733C75.8063 63.7218 75.908 63.793 75.9923 63.8824C76.0767 63.9718 76.1418 64.0775 76.1837 64.193C76.2256 64.3085 76.2434 64.4313 76.2361 64.554C76.2253 64.7954 76.1221 65.0235 75.9479 65.191C75.7737 65.3585 75.5417 65.4527 75.3001 65.454Z" fill="#FAFAFA"/>
<path opacity="0.1" d="M64.7131 65.454C64.5903 65.4542 64.4687 65.4293 64.3558 65.3807C64.2429 65.3321 64.1412 65.261 64.0569 65.1716C63.9725 65.0822 63.9074 64.9765 63.8655 64.861C63.8236 64.7455 63.8058 64.6226 63.8131 64.5C63.8246 64.2593 63.9276 64.0321 64.101 63.8648C64.2744 63.6975 64.5052 63.6028 64.7461 63.6C64.869 63.5998 64.9906 63.6247 65.1035 63.6733C65.2164 63.7218 65.3181 63.793 65.4024 63.8824C65.4867 63.9718 65.5519 64.0775 65.5938 64.193C65.6357 64.3085 65.6535 64.4313 65.6461 64.554C65.6347 64.7947 65.5317 65.0219 65.3583 65.1892C65.1849 65.3565 64.9541 65.4512 64.7131 65.454Z" fill="#FAFAFA"/>
<path opacity="0.1" d="M54.1262 65.454C54.0034 65.4542 53.8817 65.4293 53.7689 65.3807C53.656 65.3321 53.5543 65.261 53.47 65.1716C53.3856 65.0822 53.3205 64.9765 53.2786 64.861C53.2367 64.7455 53.2189 64.6226 53.2262 64.5C53.2377 64.2593 53.3407 64.0321 53.5141 63.8648C53.6875 63.6975 53.9183 63.6028 54.1592 63.6C54.2821 63.5998 54.4037 63.6247 54.5166 63.6733C54.6295 63.7218 54.7312 63.793 54.8155 63.8824C54.8998 63.9718 54.965 64.0775 55.0069 64.193C55.0488 64.3085 55.0666 64.4313 55.0592 64.554C55.0485 64.7949 54.9457 65.0226 54.7722 65.19C54.5986 65.3574 54.3674 65.4519 54.1262 65.454Z" fill="#FAFAFA"/>
</g>
<path d="M56.7719 68.8081H51.4469C51.3697 68.8087 51.2932 68.7933 51.2222 68.7629C51.1513 68.7324 51.0874 68.6876 51.0347 68.6312C50.982 68.5748 50.9415 68.5081 50.9159 68.4352C50.8903 68.3624 50.88 68.285 50.8859 68.2081C50.8918 68.0508 50.9569 67.9016 51.0682 67.7904C51.1794 67.6791 51.3286 67.614 51.4859 67.6081H56.8109C56.8881 67.6074 56.9646 67.6228 57.0355 67.6533C57.1065 67.6837 57.1703 67.7285 57.223 67.7849C57.2758 67.8413 57.3162 67.9081 57.3418 67.9809C57.3675 68.0537 57.3777 68.1311 57.3719 68.2081C57.3659 68.3653 57.3008 68.5145 57.1895 68.6257C57.0783 68.737 56.9291 68.8021 56.7719 68.8081Z" fill="#B00037"/>
<path d="M67.3593 68.808H62.0343C61.9571 68.8087 61.8806 68.7933 61.8096 68.7628C61.7387 68.7324 61.6748 68.6876 61.6221 68.6312C61.5694 68.5748 61.5289 68.508 61.5033 68.4352C61.4777 68.3624 61.4675 68.285 61.4733 68.208C61.4794 68.0483 61.5466 67.897 61.661 67.7854C61.7755 67.6737 61.9284 67.6102 62.0883 67.608H67.4103C67.4876 67.6074 67.5642 67.6228 67.6353 67.6533C67.7064 67.6837 67.7704 67.7285 67.8234 67.7848C67.8763 67.8411 67.9171 67.9078 67.943 67.9807C67.969 68.0535 67.9796 68.1309 67.9743 68.208C67.9681 68.3678 67.9009 68.5191 67.7865 68.6308C67.672 68.7424 67.5191 68.8059 67.3593 68.808Z" fill="#B00037"/>
<path d="M77.946 68.8081H72.621C72.5437 68.8087 72.4671 68.7933 72.396 68.7629C72.3249 68.7324 72.2609 68.6877 72.2079 68.6313C72.1549 68.575 72.1142 68.5083 72.0882 68.4354C72.0623 68.3626 72.0516 68.2852 72.057 68.2081C72.0632 68.0483 72.1304 67.897 72.2448 67.7854C72.3592 67.6737 72.5122 67.6102 72.672 67.6081H78C78.0772 67.6074 78.1537 67.6228 78.2247 67.6533C78.2956 67.6837 78.3595 67.7285 78.4122 67.7849C78.4649 67.8413 78.5054 67.9081 78.531 67.9809C78.5566 68.0537 78.5668 68.1311 78.561 68.2081C78.5556 68.3681 78.4886 68.5198 78.374 68.6316C78.2594 68.7434 78.1061 68.8066 77.946 68.8081Z" fill="#B00037"/>
<path d="M88.5302 68.8081H83.2052C83.128 68.8087 83.0515 68.7933 82.9805 68.7629C82.9096 68.7324 82.8457 68.6876 82.793 68.6312C82.7403 68.5748 82.6998 68.5081 82.6742 68.4352C82.6486 68.3624 82.6383 68.285 82.6442 68.2081C82.6501 68.0508 82.7152 67.9016 82.8265 67.7904C82.9377 67.6791 83.0869 67.614 83.2442 67.6081H88.5692C88.6464 67.6074 88.7229 67.6228 88.7938 67.6533C88.8648 67.6837 88.9286 67.7285 88.9813 67.7849C89.0341 67.8413 89.0745 67.9081 89.1001 67.9809C89.1257 68.0537 89.136 68.1311 89.1302 68.2081C89.1242 68.3653 89.0591 68.5145 88.9478 68.6257C88.8366 68.737 88.6874 68.8021 88.5302 68.8081Z" fill="#B00037"/>
<path d="M99.1171 68.8081H93.7921C93.7149 68.8087 93.6384 68.7933 93.5674 68.7629C93.4965 68.7324 93.4326 68.6876 93.3799 68.6312C93.3272 68.5748 93.2867 68.5081 93.2611 68.4352C93.2355 68.3624 93.2253 68.285 93.2311 68.2081C93.2372 68.0483 93.3044 67.897 93.4189 67.7854C93.5333 67.6737 93.6862 67.6102 93.8461 67.6081H99.1711C99.2483 67.6074 99.3248 67.6228 99.3957 67.6533C99.4667 67.6837 99.5305 67.7285 99.5833 67.7849C99.636 67.8413 99.6764 67.9081 99.7021 67.9809C99.7277 68.0537 99.7379 68.1311 99.7321 68.2081C99.7259 68.3678 99.6587 68.5191 99.5443 68.6308C99.4299 68.7424 99.2769 68.8059 99.1171 68.8081Z" fill="#B00037"/>
<path d="M109.704 68.808H104.379C104.302 68.8087 104.225 68.7933 104.154 68.7628C104.083 68.7324 104.02 68.6876 103.967 68.6312C103.914 68.5748 103.874 68.508 103.848 68.4352C103.822 68.3624 103.812 68.285 103.818 68.208C103.824 68.0483 103.891 67.897 104.006 67.7854C104.12 67.6737 104.273 67.6102 104.433 67.608H109.755C109.832 67.6074 109.909 67.6228 109.98 67.6533C110.051 67.6837 110.115 67.7285 110.168 67.7848C110.221 67.8411 110.262 67.9078 110.288 67.9807C110.314 68.0535 110.324 68.1309 110.319 68.208C110.313 68.3678 110.246 68.5191 110.131 68.6308C110.017 68.7424 109.864 68.8059 109.704 68.808Z" fill="#B00037"/>
<g opacity="0.3">
<path opacity="0.3" d="M56.7719 68.8081H51.4469C51.3697 68.8087 51.2932 68.7933 51.2222 68.7629C51.1513 68.7324 51.0874 68.6876 51.0347 68.6312C50.982 68.5748 50.9415 68.5081 50.9159 68.4352C50.8903 68.3624 50.88 68.285 50.8859 68.2081C50.8918 68.0508 50.9569 67.9016 51.0682 67.7904C51.1794 67.6791 51.3286 67.614 51.4859 67.6081H56.8109C56.8881 67.6074 56.9646 67.6228 57.0355 67.6533C57.1065 67.6837 57.1703 67.7285 57.223 67.7849C57.2758 67.8413 57.3162 67.9081 57.3418 67.9809C57.3675 68.0537 57.3777 68.1311 57.3719 68.2081C57.3659 68.3653 57.3008 68.5145 57.1895 68.6257C57.0783 68.737 56.9291 68.8021 56.7719 68.8081Z" fill="black"/>
<path opacity="0.3" d="M67.3593 68.808H62.0343C61.9571 68.8087 61.8806 68.7933 61.8096 68.7628C61.7387 68.7324 61.6748 68.6876 61.6221 68.6312C61.5694 68.5748 61.5289 68.508 61.5033 68.4352C61.4777 68.3624 61.4675 68.285 61.4733 68.208C61.4794 68.0483 61.5466 67.897 61.661 67.7854C61.7755 67.6737 61.9284 67.6102 62.0883 67.608H67.4103C67.4876 67.6074 67.5642 67.6228 67.6353 67.6533C67.7064 67.6837 67.7704 67.7285 67.8234 67.7848C67.8763 67.8411 67.9171 67.9078 67.943 67.9807C67.969 68.0535 67.9796 68.1309 67.9743 68.208C67.9681 68.3678 67.9009 68.5191 67.7865 68.6308C67.672 68.7424 67.5191 68.8059 67.3593 68.808Z" fill="black"/>
<path opacity="0.3" d="M77.946 68.8081H72.621C72.5437 68.8087 72.4671 68.7933 72.396 68.7629C72.3249 68.7324 72.2609 68.6877 72.2079 68.6313C72.1549 68.575 72.1142 68.5083 72.0882 68.4354C72.0623 68.3626 72.0516 68.2852 72.057 68.2081C72.0632 68.0483 72.1304 67.897 72.2448 67.7854C72.3592 67.6737 72.5122 67.6102 72.672 67.6081H78C78.0772 67.6074 78.1537 67.6228 78.2247 67.6533C78.2956 67.6837 78.3595 67.7285 78.4122 67.7849C78.4649 67.8413 78.5054 67.9081 78.531 67.9809C78.5566 68.0537 78.5668 68.1311 78.561 68.2081C78.5556 68.3681 78.4886 68.5198 78.374 68.6316C78.2594 68.7434 78.1061 68.8066 77.946 68.8081Z" fill="black"/>
<path opacity="0.3" d="M88.5302 68.8081H83.2052C83.128 68.8087 83.0515 68.7933 82.9805 68.7629C82.9096 68.7324 82.8457 68.6876 82.793 68.6312C82.7403 68.5748 82.6998 68.5081 82.6742 68.4352C82.6486 68.3624 82.6383 68.285 82.6442 68.2081C82.6501 68.0508 82.7152 67.9016 82.8265 67.7904C82.9377 67.6791 83.0869 67.614 83.2442 67.6081H88.5692C88.6464 67.6074 88.7229 67.6228 88.7938 67.6533C88.8648 67.6837 88.9286 67.7285 88.9813 67.7849C89.0341 67.8413 89.0745 67.9081 89.1001 67.9809C89.1257 68.0537 89.136 68.1311 89.1302 68.2081C89.1242 68.3653 89.0591 68.5145 88.9478 68.6257C88.8366 68.737 88.6874 68.8021 88.5302 68.8081Z" fill="black"/>
<path opacity="0.3" d="M99.1171 68.8081H93.7921C93.7149 68.8087 93.6384 68.7933 93.5674 68.7629C93.4965 68.7324 93.4326 68.6876 93.3799 68.6312C93.3272 68.5748 93.2867 68.5081 93.2611 68.4352C93.2355 68.3624 93.2253 68.285 93.2311 68.2081C93.2372 68.0483 93.3044 67.897 93.4189 67.7854C93.5333 67.6737 93.6862 67.6102 93.8461 67.6081H99.1711C99.2483 67.6074 99.3248 67.6228 99.3957 67.6533C99.4667 67.6837 99.5305 67.7285 99.5833 67.7849C99.636 67.8413 99.6764 67.9081 99.7021 67.9809C99.7277 68.0537 99.7379 68.1311 99.7321 68.2081C99.7259 68.3678 99.6587 68.5191 99.5443 68.6308C99.4299 68.7424 99.2769 68.8059 99.1171 68.8081Z" fill="black"/>
<path opacity="0.3" d="M109.704 68.808H104.379C104.302 68.8087 104.225 68.7933 104.154 68.7628C104.083 68.7324 104.02 68.6876 103.967 68.6312C103.914 68.5748 103.874 68.508 103.848 68.4352C103.822 68.3624 103.812 68.285 103.818 68.208C103.824 68.0483 103.891 67.897 104.006 67.7854C104.12 67.6737 104.273 67.6102 104.433 67.608H109.755C109.832 67.6074 109.909 67.6228 109.98 67.6533C110.051 67.6837 110.115 67.7285 110.168 67.7848C110.221 67.8411 110.262 67.9078 110.288 67.9807C110.314 68.0535 110.324 68.1309 110.319 68.208C110.313 68.3678 110.246 68.5191 110.131 68.6308C110.017 68.7424 109.864 68.8059 109.704 68.808Z" fill="black"/>
</g>
<path d="M57.0658 80.139H50.1298C49.9777 80.1396 49.827 80.1091 49.6871 80.0496C49.5471 79.99 49.4207 79.9025 49.3157 79.7924C49.2107 79.6823 49.1292 79.552 49.0763 79.4094C49.0234 79.2668 49.0001 79.1149 49.0078 78.963L49.3078 72.027C49.326 71.7117 49.463 71.415 49.6913 71.1968C49.9195 70.9786 50.222 70.855 50.5378 70.851H57.4738C57.6259 70.8504 57.7766 70.8808 57.9165 70.9404C58.0565 70.9999 58.1829 71.0874 58.2879 71.1975C58.3929 71.3076 58.4744 71.4379 58.5273 71.5805C58.5802 71.7231 58.6036 71.875 58.5958 72.027L58.2958 78.963C58.2769 79.278 58.1397 79.5742 57.9116 79.7923C57.6835 80.0104 57.3814 80.1342 57.0658 80.139Z" fill="#B00037"/>
<path d="M67.6529 80.139H60.7169C60.5646 80.14 60.4138 80.1099 60.2736 80.0504C60.1334 79.991 60.0069 79.9035 59.9018 79.7934C59.7967 79.6832 59.7153 79.5527 59.6625 79.4099C59.6097 79.2671 59.5867 79.115 59.5949 78.963L59.8949 72.027C59.9131 71.7117 60.0501 71.415 60.2784 71.1968C60.5066 70.9786 60.8091 70.855 61.1249 70.851H68.0699C68.2221 70.8504 68.3729 70.8808 68.513 70.9403C68.6532 70.9999 68.7797 71.0873 68.8849 71.1974C68.9902 71.3074 69.0719 71.4377 69.1252 71.5803C69.1785 71.7229 69.2022 71.8749 69.1949 72.027L68.8799 78.963C68.8624 79.278 68.726 79.5746 68.4983 79.7929C68.2705 80.0112 67.9683 80.1349 67.6529 80.139Z" fill="#B00037"/>
<path d="M78.237 80.139H71.304C71.1518 80.1396 71.001 80.1091 70.8609 80.0496C70.7208 79.99 70.5942 79.9026 70.489 79.7926C70.3837 79.6826 70.302 79.5523 70.2487 79.4096C70.1954 79.267 70.1717 79.115 70.179 78.963L70.479 72.027C70.4972 71.7117 70.6343 71.4151 70.8625 71.1968C71.0908 70.9786 71.3933 70.855 71.709 70.851H78.642C78.7943 70.8499 78.9451 70.8801 79.0853 70.9395C79.2255 70.9989 79.352 71.0864 79.4571 71.1966C79.5622 71.3067 79.6437 71.4372 79.6964 71.58C79.7492 71.7228 79.7722 71.8749 79.764 72.027L79.464 78.963C79.4459 79.2777 79.3093 79.574 79.0816 79.7921C78.854 80.0103 78.5523 80.1342 78.237 80.139Z" fill="#B00037"/>
<path d="M88.8239 80.139H81.8999C81.7475 80.14 81.5965 80.1099 81.4562 80.0505C81.3159 79.9911 81.1892 79.9036 81.0838 79.7935C80.9785 79.6834 80.8968 79.5529 80.8436 79.4101C80.7905 79.2673 80.7671 79.1151 80.7749 78.963L81.0749 72.027C81.0924 71.712 81.2287 71.4153 81.4565 71.197C81.6843 70.9787 81.9864 70.855 82.3019 70.851H89.2379C89.39 70.8504 89.5407 70.8808 89.6806 70.9404C89.8206 70.9999 89.947 71.0874 90.052 71.1975C90.157 71.3076 90.2384 71.4379 90.2914 71.5805C90.3443 71.7231 90.3676 71.875 90.3599 72.027L90.0599 78.963C90.0416 79.2792 89.9037 79.5768 89.6742 79.7951C89.4447 80.0135 89.1407 80.1364 88.8239 80.139Z" fill="#B00037"/>
<path d="M99.411 80.139H92.475C92.3229 80.1396 92.1722 80.1092 92.0323 80.0496C91.8923 79.99 91.7659 79.9025 91.6609 79.7924C91.5559 79.6824 91.4745 79.552 91.4215 79.4094C91.3686 79.2668 91.3453 79.1149 91.353 78.963L91.653 72.027C91.6712 71.7117 91.8082 71.4151 92.0365 71.1968C92.2647 70.9786 92.5672 70.855 92.883 70.851H99.816C99.9684 70.85 100.119 70.8801 100.26 70.9395C100.4 70.9989 100.527 71.0863 100.632 71.1964C100.737 71.3065 100.819 71.437 100.872 71.5798C100.925 71.7226 100.949 71.8748 100.941 72.027L100.641 78.963C100.622 79.278 100.485 79.5742 100.257 79.7923C100.029 80.0104 99.7266 80.1342 99.411 80.139Z" fill="#B00037"/>
<path d="M109.995 80.139H103.062C102.91 80.14 102.759 80.1099 102.619 80.0504C102.479 79.991 102.352 79.9035 102.247 79.7934C102.142 79.6832 102.06 79.5527 102.008 79.4099C101.955 79.2671 101.932 79.115 101.94 78.963L102.24 72.027C102.258 71.7117 102.395 71.415 102.624 71.1968C102.852 70.9786 103.154 70.855 103.47 70.851H110.403C110.555 70.8504 110.706 70.8808 110.846 70.9403C110.986 70.9999 111.113 71.0873 111.218 71.1974C111.323 71.3074 111.405 71.4377 111.458 71.5803C111.512 71.7229 111.535 71.8749 111.528 72.027L111.213 78.963C111.196 79.2764 111.061 79.5718 110.835 79.7899C110.609 80.0079 110.309 80.1326 109.995 80.139Z" fill="#B00037"/>
<g opacity="0.8">
<path opacity="0.8" d="M57.0658 80.1391H50.1298C49.9777 80.1397 49.827 80.1093 49.6871 80.0497C49.5471 79.9901 49.4207 79.9026 49.3157 79.7925C49.2107 79.6825 49.1292 79.5521 49.0763 79.4095C49.0234 79.2669 49.0001 79.115 49.0078 78.9631L49.3078 72.0271C49.326 71.7118 49.463 71.4152 49.6913 71.1969C49.9195 70.9787 50.222 70.8551 50.5378 70.8511H57.4738C57.6259 70.8505 57.7766 70.8809 57.9165 70.9405C58.0565 71.0001 58.1829 71.0876 58.2879 71.1976C58.3929 71.3077 58.4744 71.438 58.5273 71.5806C58.5802 71.7232 58.6036 71.8752 58.5958 72.0271L58.2958 78.9631C58.2769 79.2781 58.1397 79.5743 57.9116 79.7924C57.6835 80.0105 57.3814 80.1343 57.0658 80.1391Z" fill="#FAFAFA"/>
<path opacity="0.8" d="M67.6529 80.139H60.7169C60.5646 80.14 60.4138 80.1099 60.2736 80.0504C60.1334 79.991 60.0069 79.9035 59.9018 79.7934C59.7967 79.6832 59.7153 79.5527 59.6625 79.4099C59.6097 79.2671 59.5867 79.115 59.5949 78.963L59.8949 72.027C59.9131 71.7117 60.0501 71.415 60.2784 71.1968C60.5066 70.9786 60.8091 70.855 61.1249 70.851H68.0699C68.2221 70.8504 68.3729 70.8808 68.513 70.9403C68.6532 70.9999 68.7797 71.0873 68.8849 71.1974C68.9902 71.3074 69.0719 71.4377 69.1252 71.5803C69.1785 71.7229 69.2022 71.8749 69.1949 72.027L68.8799 78.963C68.8624 79.278 68.726 79.5746 68.4983 79.7929C68.2705 80.0112 67.9683 80.1349 67.6529 80.139Z" fill="#FAFAFA"/>
<path opacity="0.8" d="M78.237 80.139H71.304C71.1518 80.1396 71.001 80.1091 70.8609 80.0496C70.7208 79.99 70.5942 79.9026 70.489 79.7926C70.3837 79.6826 70.302 79.5523 70.2487 79.4096C70.1954 79.267 70.1717 79.115 70.179 78.963L70.479 72.027C70.4972 71.7117 70.6343 71.4151 70.8625 71.1968C71.0908 70.9786 71.3933 70.855 71.709 70.851H78.642C78.7943 70.8499 78.9451 70.8801 79.0853 70.9395C79.2255 70.9989 79.352 71.0864 79.4571 71.1966C79.5622 71.3067 79.6437 71.4372 79.6964 71.58C79.7492 71.7228 79.7722 71.8749 79.764 72.027L79.464 78.963C79.4459 79.2777 79.3093 79.574 79.0816 79.7921C78.854 80.0103 78.5523 80.1342 78.237 80.139Z" fill="#FAFAFA"/>
<path opacity="0.8" d="M88.8239 80.139H81.8999C81.7475 80.14 81.5965 80.1099 81.4562 80.0505C81.3159 79.9911 81.1892 79.9036 81.0838 79.7935C80.9785 79.6834 80.8968 79.5529 80.8436 79.4101C80.7905 79.2673 80.7671 79.1151 80.7749 78.963L81.0749 72.027C81.0924 71.712 81.2287 71.4153 81.4565 71.197C81.6843 70.9787 81.9864 70.855 82.3019 70.851H89.2379C89.39 70.8504 89.5407 70.8808 89.6806 70.9404C89.8206 70.9999 89.947 71.0874 90.052 71.1975C90.157 71.3076 90.2384 71.4379 90.2914 71.5805C90.3443 71.7231 90.3676 71.875 90.3599 72.027L90.0599 78.963C90.0416 79.2792 89.9037 79.5768 89.6742 79.7951C89.4447 80.0135 89.1407 80.1364 88.8239 80.139Z" fill="#FAFAFA"/>
<path opacity="0.8" d="M99.411 80.139H92.475C92.3229 80.1396 92.1722 80.1092 92.0323 80.0496C91.8923 79.99 91.7659 79.9025 91.6609 79.7924C91.5559 79.6824 91.4745 79.552 91.4215 79.4094C91.3686 79.2668 91.3453 79.1149 91.353 78.963L91.653 72.027C91.6712 71.7117 91.8082 71.4151 92.0365 71.1968C92.2647 70.9786 92.5672 70.855 92.883 70.851H99.816C99.9684 70.85 100.119 70.8801 100.26 70.9395C100.4 70.9989 100.527 71.0863 100.632 71.1964C100.737 71.3065 100.819 71.437 100.872 71.5798C100.925 71.7226 100.949 71.8748 100.941 72.027L100.641 78.963C100.622 79.278 100.485 79.5742 100.257 79.7923C100.029 80.0104 99.7266 80.1342 99.411 80.139Z" fill="#FAFAFA"/>
<path opacity="0.8" d="M109.995 80.139H103.062C102.91 80.14 102.759 80.1099 102.619 80.0504C102.479 79.991 102.352 79.9035 102.247 79.7934C102.142 79.6832 102.06 79.5527 102.008 79.4099C101.955 79.2671 101.932 79.115 101.94 78.963L102.24 72.027C102.258 71.7117 102.395 71.415 102.624 71.1968C102.852 70.9786 103.154 70.855 103.47 70.851H110.403C110.555 70.8504 110.706 70.8808 110.846 70.9403C110.986 70.9999 111.113 71.0873 111.218 71.1974C111.323 71.3074 111.405 71.4377 111.458 71.5803C111.512 71.7229 111.535 71.8749 111.528 72.027L111.213 78.963C111.196 79.2764 111.061 79.5718 110.835 79.7899C110.609 80.0079 110.309 80.1326 109.995 80.139Z" fill="#FAFAFA"/>
</g>
<path d="M56.58 90.8999H49.644C49.4918 90.9005 49.3412 90.8701 49.2012 90.8105C49.0612 90.751 48.9349 90.6635 48.8299 90.5534C48.7249 90.4433 48.6434 90.313 48.5905 90.1704C48.5375 90.0278 48.5142 89.8759 48.522 89.7239L48.822 82.7879C48.8408 82.4729 48.9781 82.1767 49.2062 81.9586C49.4343 81.7405 49.7364 81.6167 50.052 81.6119H57C57.1521 81.6113 57.3027 81.6418 57.4427 81.7013C57.5827 81.7609 57.709 81.8484 57.814 81.9585C57.919 82.0686 58.0005 82.1989 58.0535 82.3415C58.1064 82.4841 58.1297 82.636 58.122 82.7879L57.822 89.7239C57.8029 90.041 57.664 90.339 57.4333 90.5574C57.2027 90.7758 56.8976 90.8982 56.58 90.8999Z" fill="#B00037"/>
<path d="M67.1669 90.9H60.2309C60.0788 90.9006 59.9281 90.8701 59.7881 90.8106C59.6482 90.751 59.5218 90.6635 59.4168 90.5534C59.3118 90.4434 59.2303 90.313 59.1774 90.1704C59.1244 90.0278 59.1011 89.8759 59.1089 89.724L59.4089 82.788C59.4271 82.4727 59.5641 82.176 59.7924 81.9578C60.0206 81.7396 60.3231 81.616 60.6389 81.612H67.5719C67.7254 81.6109 67.8776 81.6413 68.0189 81.7014C68.1602 81.7615 68.2877 81.85 68.3935 81.9614C68.4992 82.0727 68.581 82.2046 68.6337 82.3489C68.6864 82.4931 68.7089 82.6467 68.6999 82.8L68.3999 89.724C68.3823 90.04 68.2451 90.3375 68.0161 90.5559C67.787 90.7744 67.4834 90.8974 67.1669 90.9Z" fill="#B00037"/>
<path d="M77.751 90.9H70.8179C70.6657 90.901 70.5149 90.8709 70.3747 90.8114C70.2345 90.752 70.108 90.6645 70.0029 90.5544C69.8978 90.4442 69.8163 90.3137 69.7635 90.1709C69.7108 90.0281 69.6878 89.876 69.696 89.724L69.996 82.788C70.0141 82.4727 70.1512 82.176 70.3794 81.9578C70.6077 81.7396 70.9102 81.616 71.2259 81.612H78.1589C78.3112 81.6109 78.462 81.641 78.6022 81.7005C78.7424 81.7599 78.8689 81.8474 78.974 81.9576C79.0791 82.0677 79.1606 82.1982 79.2133 82.341C79.2661 82.4838 79.2891 82.6359 79.2809 82.788L78.9809 89.724C78.9628 90.0392 78.8257 90.3359 78.5975 90.5541C78.3692 90.7723 78.0667 90.8959 77.751 90.9Z" fill="#B00037"/>
<path d="M88.3381 90.9H81.4051C81.2529 90.9006 81.1021 90.8702 80.962 90.8106C80.8218 90.7511 80.6953 90.6636 80.5901 90.5536C80.4848 90.4436 80.403 90.3133 80.3498 90.1707C80.2965 90.0281 80.2728 89.8761 80.2801 89.724L80.5801 82.788C80.5976 82.473 80.734 82.1764 80.9617 81.9581C81.1895 81.7398 81.4916 81.6161 81.8071 81.612H88.7431C88.8976 81.6092 89.0509 81.6384 89.1935 81.6978C89.3361 81.7572 89.4649 81.8455 89.5717 81.9571C89.6785 82.0687 89.761 82.2012 89.8141 82.3463C89.8672 82.4913 89.8897 82.6458 89.8801 82.8L89.5801 89.736C89.5588 90.0512 89.4188 90.3466 89.1883 90.5626C88.9578 90.7786 88.654 90.8992 88.3381 90.9Z" fill="#B00037"/>
<path d="M98.9252 90.9H91.9892C91.837 90.9006 91.6864 90.8702 91.5464 90.8106C91.4065 90.751 91.2801 90.6635 91.1751 90.5534C91.0701 90.4434 90.9886 90.3131 90.9357 90.1704C90.8827 90.0278 90.8594 89.8759 90.8672 89.724L91.1672 82.788C91.1832 82.4703 91.3195 82.1707 91.5486 81.95C91.7776 81.7293 92.0821 81.6042 92.4002 81.6H99.3362C99.4883 81.5994 99.6389 81.6298 99.7789 81.6894C99.9189 81.749 100.045 81.8365 100.15 81.9465C100.255 82.0566 100.337 82.1869 100.39 82.3295C100.443 82.4721 100.466 82.6241 100.458 82.776L100.158 89.712C100.142 90.0296 100.006 90.3293 99.7767 90.55C99.5477 90.7707 99.2432 90.8958 98.9252 90.9Z" fill="#B00037"/>
<path d="M109.5 90.8999H102.576C102.424 90.901 102.273 90.8709 102.132 90.8114C101.992 90.752 101.866 90.6645 101.761 90.5543C101.656 90.4442 101.574 90.3137 101.521 90.1709C101.469 90.0281 101.446 89.876 101.454 89.7239L101.754 82.7879C101.772 82.4727 101.909 82.176 102.137 81.9578C102.366 81.7396 102.668 81.616 102.984 81.6119H109.917C110.069 81.6114 110.22 81.6418 110.36 81.7013C110.5 81.7609 110.627 81.8483 110.732 81.9583C110.837 82.0684 110.919 82.1986 110.972 82.3413C111.025 82.4839 111.049 82.6359 111.042 82.7879L110.727 89.7239C110.709 90.0389 110.573 90.3356 110.345 90.5539C110.117 90.7722 109.815 90.8959 109.5 90.8999Z" fill="#B00037"/>
<g opacity="0.8">
<path opacity="0.8" d="M56.58 90.8999H49.644C49.4918 90.9005 49.3412 90.8701 49.2012 90.8105C49.0612 90.751 48.9349 90.6635 48.8299 90.5534C48.7249 90.4433 48.6434 90.313 48.5905 90.1704C48.5375 90.0278 48.5142 89.8759 48.522 89.7239L48.822 82.7879C48.8408 82.4729 48.9781 82.1767 49.2062 81.9586C49.4343 81.7405 49.7364 81.6167 50.052 81.6119H57C57.1521 81.6113 57.3027 81.6418 57.4427 81.7013C57.5827 81.7609 57.709 81.8484 57.814 81.9585C57.919 82.0686 58.0005 82.1989 58.0535 82.3415C58.1064 82.4841 58.1297 82.636 58.122 82.7879L57.822 89.7239C57.8029 90.041 57.664 90.339 57.4333 90.5574C57.2027 90.7758 56.8976 90.8982 56.58 90.8999Z" fill="#FAFAFA"/>
<path opacity="0.8" d="M67.1669 90.9H60.2309C60.0788 90.9006 59.9281 90.8701 59.7881 90.8106C59.6482 90.751 59.5218 90.6635 59.4168 90.5534C59.3118 90.4434 59.2303 90.313 59.1774 90.1704C59.1244 90.0278 59.1011 89.8759 59.1089 89.724L59.4089 82.788C59.4271 82.4727 59.5641 82.176 59.7924 81.9578C60.0206 81.7396 60.3231 81.616 60.6389 81.612H67.5719C67.7254 81.6109 67.8776 81.6413 68.0189 81.7014C68.1602 81.7615 68.2877 81.85 68.3935 81.9614C68.4992 82.0727 68.581 82.2046 68.6337 82.3489C68.6864 82.4931 68.7089 82.6467 68.6999 82.8L68.3999 89.724C68.3823 90.04 68.2451 90.3375 68.0161 90.5559C67.787 90.7744 67.4834 90.8974 67.1669 90.9Z" fill="#FAFAFA"/>
<path opacity="0.8" d="M77.751 90.9H70.8179C70.6657 90.901 70.5149 90.8709 70.3747 90.8114C70.2345 90.752 70.108 90.6645 70.0029 90.5544C69.8978 90.4442 69.8163 90.3137 69.7635 90.1709C69.7108 90.0281 69.6878 89.876 69.696 89.724L69.996 82.788C70.0141 82.4727 70.1512 82.176 70.3794 81.9578C70.6077 81.7396 70.9102 81.616 71.2259 81.612H78.1589C78.3112 81.6109 78.462 81.641 78.6022 81.7005C78.7424 81.7599 78.8689 81.8474 78.974 81.9576C79.0791 82.0677 79.1606 82.1982 79.2133 82.341C79.2661 82.4838 79.2891 82.6359 79.2809 82.788L78.9809 89.724C78.9628 90.0392 78.8257 90.3359 78.5975 90.5541C78.3692 90.7723 78.0667 90.8959 77.751 90.9Z" fill="#FAFAFA"/>
<path opacity="0.8" d="M88.3381 90.9H81.4051C81.2529 90.9006 81.1021 90.8702 80.962 90.8106C80.8218 90.7511 80.6953 90.6636 80.5901 90.5536C80.4848 90.4436 80.403 90.3133 80.3498 90.1707C80.2965 90.0281 80.2728 89.8761 80.2801 89.724L80.5801 82.788C80.5976 82.473 80.734 82.1764 80.9617 81.9581C81.1895 81.7398 81.4916 81.6161 81.8071 81.612H88.7431C88.8976 81.6092 89.0509 81.6384 89.1935 81.6978C89.3361 81.7572 89.4649 81.8455 89.5717 81.9571C89.6785 82.0687 89.761 82.2012 89.8141 82.3463C89.8672 82.4913 89.8897 82.6458 89.8801 82.8L89.5801 89.736C89.5588 90.0512 89.4188 90.3466 89.1883 90.5626C88.9578 90.7786 88.654 90.8992 88.3381 90.9Z" fill="#FAFAFA"/>
<path opacity="0.8" d="M98.9252 90.9H91.9892C91.837 90.9006 91.6864 90.8702 91.5464 90.8106C91.4065 90.751 91.2801 90.6635 91.1751 90.5534C91.0701 90.4434 90.9886 90.3131 90.9357 90.1704C90.8827 90.0278 90.8594 89.8759 90.8672 89.724L91.1672 82.788C91.1832 82.4703 91.3195 82.1707 91.5486 81.95C91.7776 81.7293 92.0821 81.6042 92.4002 81.6H99.3362C99.4883 81.5994 99.6389 81.6298 99.7789 81.6894C99.9189 81.749 100.045 81.8365 100.15 81.9465C100.255 82.0566 100.337 82.1869 100.39 82.3295C100.443 82.4721 100.466 82.6241 100.458 82.776L100.158 89.712C100.142 90.0296 100.006 90.3293 99.7767 90.55C99.5477 90.7707 99.2432 90.8958 98.9252 90.9Z" fill="#FAFAFA"/>
<path opacity="0.8" d="M109.5 90.8999H102.576C102.424 90.901 102.273 90.8709 102.132 90.8114C101.992 90.752 101.866 90.6645 101.761 90.5543C101.656 90.4442 101.574 90.3137 101.521 90.1709C101.469 90.0281 101.446 89.876 101.454 89.7239L101.754 82.7879C101.772 82.4727 101.909 82.176 102.137 81.9578C102.366 81.7396 102.668 81.616 102.984 81.6119H109.917C110.069 81.6114 110.22 81.6418 110.36 81.7013C110.5 81.7609 110.627 81.8483 110.732 81.9583C110.837 82.0684 110.919 82.1986 110.972 82.3413C111.025 82.4839 111.049 82.6359 111.042 82.7879L110.727 89.7239C110.709 90.0389 110.573 90.3356 110.345 90.5539C110.117 90.7722 109.815 90.8959 109.5 90.8999Z" fill="#FAFAFA"/>
</g>
<path d="M56.0998 101.658H49.1578C49.0055 101.659 48.8547 101.629 48.7145 101.569C48.5744 101.51 48.4478 101.423 48.3427 101.312C48.2376 101.202 48.1562 101.072 48.1034 100.929C48.0506 100.786 48.0276 100.634 48.0358 100.482L48.3358 93.5489C48.354 93.2337 48.491 92.937 48.7193 92.7188C48.9475 92.5006 49.25 92.377 49.5658 92.373H56.5018C56.654 92.3719 56.8049 92.402 56.9451 92.4615C57.0852 92.5209 57.2118 92.6084 57.3169 92.7186C57.422 92.8287 57.5034 92.9592 57.5562 93.102C57.609 93.2448 57.632 93.3969 57.6238 93.5489L57.3238 100.482C57.3064 100.796 57.1704 101.093 56.9433 101.311C56.7161 101.529 56.4147 101.653 56.0998 101.658Z" fill="#B00037"/>
<path d="M66.6812 101.658H59.7452C59.5929 101.659 59.4421 101.629 59.3019 101.569C59.1618 101.51 59.0352 101.423 58.9301 101.312C58.825 101.202 58.7436 101.072 58.6908 100.929C58.638 100.786 58.615 100.634 58.6232 100.482L58.9232 93.549C58.9407 93.2335 59.0775 92.9364 59.3059 92.718C59.5343 92.4997 59.8372 92.3763 60.1532 92.373H67.0862C67.2387 92.3715 67.3899 92.4013 67.5304 92.4606C67.6709 92.5198 67.7978 92.6073 67.9032 92.7175C68.0087 92.8277 68.0904 92.9583 68.1433 93.1013C68.1963 93.2443 68.2194 93.3967 68.2112 93.549L67.9112 100.482C67.8944 100.798 67.7578 101.095 67.5293 101.314C67.3007 101.532 66.9974 101.655 66.6812 101.658Z" fill="#B00037"/>
<path d="M77.2651 101.658H70.3321C70.1799 101.659 70.029 101.629 69.8888 101.569C69.7487 101.51 69.6221 101.423 69.517 101.312C69.4119 101.202 69.3305 101.072 69.2777 100.929C69.2249 100.786 69.2019 100.634 69.2101 100.482L69.5101 93.5489C69.5276 93.2334 69.6644 92.9364 69.8928 92.718C70.1212 92.4996 70.4241 92.3763 70.7401 92.3729H77.7001C77.8525 92.3719 78.0035 92.4021 78.1438 92.4615C78.2841 92.5209 78.4108 92.6083 78.5162 92.7184C78.6215 92.8285 78.7032 92.959 78.7564 93.1018C78.8095 93.2446 78.8329 93.3968 78.8251 93.5489L78.5101 100.482C78.4925 100.8 78.3535 101.099 78.1219 101.318C77.8903 101.537 77.5837 101.658 77.2651 101.658Z" fill="#B00037"/>
<path d="M87.8519 101.658H80.9189C80.7666 101.659 80.6156 101.629 80.4753 101.569C80.3349 101.51 80.2082 101.423 80.1029 101.312C79.9976 101.202 79.9158 101.072 79.8627 100.929C79.8096 100.786 79.7862 100.634 79.7939 100.482L80.0939 93.5489C80.1107 93.2337 80.2469 92.9367 80.4748 92.7182C80.7027 92.4998 81.0053 92.3763 81.3209 92.373H88.2569C88.4092 92.3719 88.56 92.402 88.7002 92.4615C88.8404 92.5209 88.9669 92.6084 89.072 92.7186C89.1771 92.8287 89.2585 92.9592 89.3113 93.102C89.3641 93.2448 89.3871 93.3969 89.3789 93.5489L89.0789 100.482C89.0615 100.797 88.9251 101.094 88.6973 101.312C88.4695 101.53 88.1674 101.654 87.8519 101.658Z" fill="#B00037"/>
<path d="M98.4391 101.658H91.5001C91.3478 101.659 91.197 101.629 91.0568 101.569C90.9166 101.51 90.7901 101.423 90.685 101.312C90.5799 101.202 90.4985 101.072 90.4457 100.929C90.3929 100.786 90.3699 100.634 90.3781 100.482L90.6781 93.5489C90.6963 93.2337 90.8333 92.937 91.0616 92.7188C91.2898 92.5006 91.5923 92.377 91.9081 92.373H98.8441C98.9963 92.3719 99.1472 92.402 99.2873 92.4615C99.4275 92.5209 99.554 92.6084 99.6591 92.7186C99.7642 92.8287 99.8457 92.9592 99.8985 93.102C99.9513 93.2448 99.9743 93.3969 99.9661 93.5489L99.6661 100.482C99.6479 100.797 99.5113 101.093 99.2837 101.311C99.0561 101.529 98.7543 101.653 98.4391 101.658Z" fill="#B00037"/>
<path d="M109.026 101.658H102.09C101.938 101.659 101.787 101.629 101.647 101.569C101.506 101.51 101.38 101.423 101.275 101.312C101.17 101.202 101.088 101.072 101.036 100.929C100.983 100.786 100.96 100.634 100.968 100.482L101.268 93.5489C101.285 93.2334 101.422 92.9364 101.651 92.718C101.879 92.4996 102.182 92.3763 102.498 92.3729H109.431C109.583 92.3719 109.734 92.4021 109.875 92.4615C110.015 92.5209 110.142 92.6083 110.247 92.7184C110.352 92.8285 110.434 92.959 110.487 93.1018C110.54 93.2446 110.564 93.3968 110.556 93.5489L110.241 100.482C110.224 100.795 110.09 101.09 109.864 101.309C109.639 101.527 109.34 101.652 109.026 101.658Z" fill="#B00037"/>
<g opacity="0.8">
<path opacity="0.8" d="M56.0998 101.658H49.1578C49.0055 101.659 48.8547 101.629 48.7145 101.57C48.5744 101.51 48.4478 101.423 48.3427 101.312C48.2376 101.202 48.1562 101.072 48.1034 100.929C48.0506 100.786 48.0276 100.634 48.0358 100.482L48.3358 93.5491C48.354 93.2338 48.491 92.9372 48.7193 92.7189C48.9475 92.5007 49.25 92.3771 49.5658 92.3731H56.5018C56.654 92.372 56.8049 92.4022 56.9451 92.4616C57.0852 92.521 57.2118 92.6085 57.3169 92.7187C57.422 92.8288 57.5034 92.9593 57.5562 93.1021C57.609 93.2449 57.632 93.397 57.6238 93.5491L57.3238 100.482C57.3064 100.797 57.1704 101.093 56.9433 101.311C56.7161 101.529 56.4147 101.653 56.0998 101.658Z" fill="#FAFAFA"/>
<path opacity="0.8" d="M66.6812 101.658H59.7452C59.5929 101.659 59.4421 101.629 59.3019 101.569C59.1618 101.51 59.0352 101.423 58.9301 101.312C58.825 101.202 58.7436 101.072 58.6908 100.929C58.638 100.786 58.615 100.634 58.6232 100.482L58.9232 93.549C58.9407 93.2335 59.0775 92.9364 59.3059 92.718C59.5343 92.4997 59.8372 92.3763 60.1532 92.373H67.0862C67.2387 92.3715 67.3899 92.4013 67.5304 92.4606C67.6709 92.5198 67.7978 92.6073 67.9032 92.7175C68.0087 92.8277 68.0904 92.9583 68.1433 93.1013C68.1963 93.2443 68.2194 93.3967 68.2112 93.549L67.9112 100.482C67.8944 100.798 67.7578 101.095 67.5293 101.314C67.3007 101.532 66.9974 101.655 66.6812 101.658Z" fill="#FAFAFA"/>
<path opacity="0.8" d="M77.2651 101.658H70.3321C70.1799 101.659 70.029 101.629 69.8888 101.569C69.7487 101.51 69.6221 101.423 69.517 101.312C69.4119 101.202 69.3305 101.072 69.2777 100.929C69.2249 100.786 69.2019 100.634 69.2101 100.482L69.5101 93.5489C69.5276 93.2334 69.6644 92.9364 69.8928 92.718C70.1212 92.4996 70.4241 92.3763 70.7401 92.3729H77.7001C77.8525 92.3719 78.0035 92.4021 78.1438 92.4615C78.2841 92.5209 78.4108 92.6083 78.5162 92.7184C78.6215 92.8285 78.7032 92.959 78.7564 93.1018C78.8095 93.2446 78.8329 93.3968 78.8251 93.5489L78.5101 100.482C78.4925 100.8 78.3535 101.099 78.1219 101.318C77.8903 101.537 77.5837 101.658 77.2651 101.658Z" fill="#FAFAFA"/>
<path opacity="0.8" d="M87.8519 101.658H80.9189C80.7666 101.659 80.6156 101.629 80.4753 101.569C80.3349 101.51 80.2082 101.423 80.1029 101.312C79.9976 101.202 79.9158 101.072 79.8627 100.929C79.8096 100.786 79.7862 100.634 79.7939 100.482L80.0939 93.5489C80.1107 93.2337 80.2469 92.9367 80.4748 92.7182C80.7027 92.4998 81.0053 92.3763 81.3209 92.373H88.2569C88.4092 92.3719 88.56 92.402 88.7002 92.4615C88.8404 92.5209 88.9669 92.6084 89.072 92.7186C89.1771 92.8287 89.2585 92.9592 89.3113 93.102C89.3641 93.2448 89.3871 93.3969 89.3789 93.5489L89.0789 100.482C89.0615 100.797 88.9251 101.094 88.6973 101.312C88.4695 101.53 88.1674 101.654 87.8519 101.658Z" fill="#FAFAFA"/>
<path opacity="0.8" d="M98.4391 101.658H91.5001C91.3478 101.659 91.197 101.629 91.0568 101.569C90.9166 101.51 90.7901 101.423 90.685 101.312C90.5799 101.202 90.4985 101.072 90.4457 100.929C90.3929 100.786 90.3699 100.634 90.3781 100.482L90.6781 93.5489C90.6963 93.2337 90.8333 92.937 91.0616 92.7188C91.2898 92.5006 91.5923 92.377 91.9081 92.373H98.8441C98.9963 92.3719 99.1472 92.402 99.2873 92.4615C99.4275 92.5209 99.554 92.6084 99.6591 92.7186C99.7642 92.8287 99.8457 92.9592 99.8985 93.102C99.9513 93.2448 99.9743 93.3969 99.9661 93.5489L99.6661 100.482C99.6479 100.797 99.5113 101.093 99.2837 101.311C99.0561 101.529 98.7543 101.653 98.4391 101.658Z" fill="#FAFAFA"/>
<path opacity="0.8" d="M109.026 101.658H102.09C101.938 101.659 101.787 101.629 101.647 101.569C101.506 101.51 101.38 101.423 101.275 101.312C101.17 101.202 101.088 101.072 101.036 100.929C100.983 100.786 100.96 100.634 100.968 100.482L101.268 93.5489C101.285 93.2334 101.422 92.9364 101.651 92.718C101.879 92.4996 102.182 92.3763 102.498 92.3729H109.431C109.583 92.3719 109.734 92.4021 109.875 92.4615C110.015 92.5209 110.142 92.6083 110.247 92.7184C110.352 92.8285 110.434 92.959 110.487 93.1018C110.54 93.2446 110.564 93.3968 110.556 93.5489L110.241 100.482C110.224 100.795 110.09 101.09 109.864 101.309C109.639 101.527 109.34 101.652 109.026 101.658Z" fill="#FAFAFA"/>
</g>
<path d="M54.1352 65.232C51.5792 65.232 49.5752 62.259 49.5752 58.464C49.5752 54.669 51.5792 51.699 54.1352 51.699C56.6912 51.699 58.6982 54.672 58.6982 58.464C58.6866 58.6418 58.6077 58.8086 58.4776 58.9305C58.3475 59.0523 58.1759 59.1201 57.9977 59.1201C57.8195 59.1201 57.6479 59.0523 57.5178 58.9305C57.3877 58.8086 57.3088 58.6418 57.2972 58.464C57.2972 55.557 55.8512 53.097 54.1352 53.097C52.4192 53.097 50.9732 55.557 50.9732 58.464C50.9732 61.371 52.4222 63.831 54.1352 63.831C54.231 63.8247 54.3272 63.8382 54.4176 63.8705C54.508 63.9029 54.5909 63.9535 54.661 64.0191C54.7311 64.0848 54.7869 64.1641 54.8251 64.2523C54.8634 64.3404 54.8831 64.4354 54.8831 64.5315C54.8831 64.6275 54.8634 64.7226 54.8251 64.8107C54.7869 64.8988 54.7311 64.9782 54.661 65.0438C54.5909 65.1095 54.508 65.1601 54.4176 65.1924C54.3272 65.2248 54.231 65.2382 54.1352 65.232Z" fill="#B00037"/>
<path d="M64.7221 65.232C62.1661 65.232 60.1621 62.259 60.1621 58.464C60.1621 54.669 62.1661 51.699 64.7221 51.699C67.2781 51.699 69.3001 54.672 69.3001 58.464C69.2885 58.6418 69.2096 58.8086 69.0795 58.9305C68.9494 59.0523 68.7779 59.1201 68.5996 59.1201C68.4214 59.1201 68.2498 59.0523 68.1197 58.9305C67.9896 58.8086 67.9108 58.6418 67.8991 58.464C67.8991 55.557 66.4531 53.097 64.7371 53.097C63.0211 53.097 61.5751 55.557 61.5751 58.464C61.5751 61.371 63.0241 63.831 64.7371 63.831C64.915 63.8426 65.0817 63.9215 65.2036 64.0516C65.3254 64.1817 65.3932 64.3532 65.3932 64.5315C65.3932 64.7097 65.3254 64.8813 65.2036 65.0114C65.0817 65.1415 64.915 65.2203 64.7371 65.232H64.7221Z" fill="#B00037"/>
<path d="M75.2998 65.232C72.7408 65.232 70.7368 62.259 70.7368 58.464C70.7368 54.669 72.7408 51.699 75.2998 51.699C77.8588 51.699 79.8598 54.672 79.8598 58.464C79.8598 58.6494 79.7862 58.8272 79.6551 58.9582C79.524 59.0893 79.3462 59.163 79.1608 59.163C78.9754 59.163 78.7976 59.0893 78.6666 58.9582C78.5355 58.8272 78.4618 58.6494 78.4618 58.464C78.4618 55.557 77.0128 53.097 75.2998 53.097C73.5868 53.097 72.1378 55.557 72.1378 58.464C72.1378 61.371 73.5868 63.831 75.2998 63.831C75.4777 63.8426 75.6445 63.9215 75.7663 64.0516C75.8882 64.1817 75.956 64.3532 75.956 64.5315C75.956 64.7097 75.8882 64.8813 75.7663 65.0114C75.6445 65.1415 75.4777 65.2203 75.2998 65.232Z" fill="#B00037"/>
<path d="M85.896 65.232C83.337 65.232 81.333 62.259 81.333 58.464C81.333 54.669 83.337 51.699 85.896 51.699C88.455 51.699 90.456 54.672 90.456 58.464C90.456 58.6494 90.3824 58.8272 90.2513 58.9582C90.1202 59.0893 89.9424 59.163 89.757 59.163C89.5716 59.163 89.3938 59.0893 89.2627 58.9582C89.1317 58.8272 89.058 58.6494 89.058 58.464C89.058 55.557 87.609 53.097 85.896 53.097C84.183 53.097 82.734 55.557 82.734 58.464C82.734 61.371 84.18 63.831 85.896 63.831C86.0739 63.8426 86.2406 63.9215 86.3625 64.0516C86.4843 64.1817 86.5521 64.3532 86.5521 64.5315C86.5521 64.7097 86.4843 64.8813 86.3625 65.0114C86.2406 65.1415 86.0739 65.2203 85.896 65.232Z" fill="#B00037"/>
<path d="M96.4799 65.232C93.9239 65.232 91.9199 62.259 91.9199 58.464C91.9199 54.669 93.9239 51.699 96.4799 51.699C99.0359 51.699 101.043 54.672 101.043 58.464C101.031 58.6418 100.952 58.8086 100.822 58.9305C100.692 59.0523 100.521 59.1201 100.342 59.1201C100.164 59.1201 99.9926 59.0523 99.8625 58.9305C99.7324 58.8086 99.6536 58.6418 99.6419 58.464C99.6419 55.557 98.1959 53.097 96.4799 53.097C94.7639 53.097 93.3179 55.557 93.3179 58.464C93.3179 61.371 94.7669 63.831 96.4799 63.831C96.5758 63.8247 96.6719 63.8382 96.7623 63.8705C96.8528 63.9029 96.9356 63.9535 97.0057 64.0191C97.0758 64.0848 97.1317 64.1641 97.1699 64.2523C97.2081 64.3404 97.2278 64.4354 97.2278 64.5315C97.2278 64.6275 97.2081 64.7226 97.1699 64.8107C97.1317 64.8988 97.0758 64.9782 97.0057 65.0438C96.9356 65.1095 96.8528 65.1601 96.7623 65.1924C96.6719 65.2248 96.5758 65.2382 96.4799 65.232Z" fill="#B00037"/>
<path d="M107.067 65.232C104.511 65.232 102.507 62.259 102.507 58.464C102.507 54.669 104.511 51.699 107.067 51.699C109.623 51.699 111.63 54.672 111.63 58.464C111.618 58.6418 111.539 58.8086 111.409 58.9305C111.279 59.0523 111.108 59.1201 110.929 59.1201C110.751 59.1201 110.58 59.0523 110.449 58.9305C110.319 58.8086 110.24 58.6418 110.229 58.464C110.229 55.557 108.78 53.097 107.067 53.097C105.354 53.097 103.905 55.557 103.905 58.464C103.905 61.371 105.354 63.831 107.067 63.831C107.245 63.8426 107.411 63.9215 107.533 64.0516C107.655 64.1817 107.723 64.3532 107.723 64.5315C107.723 64.7097 107.655 64.8813 107.533 65.0114C107.411 65.1415 107.245 65.2203 107.067 65.232Z" fill="#B00037"/>
<g opacity="0.3">
<path opacity="0.3" d="M54.1352 65.232C51.5792 65.232 49.5752 62.259 49.5752 58.464C49.5752 54.669 51.5792 51.699 54.1352 51.699C56.6912 51.699 58.6982 54.672 58.6982 58.464C58.6866 58.6418 58.6077 58.8086 58.4776 58.9305C58.3475 59.0523 58.1759 59.1201 57.9977 59.1201C57.8195 59.1201 57.6479 59.0523 57.5178 58.9305C57.3877 58.8086 57.3088 58.6418 57.2972 58.464C57.2972 55.557 55.8512 53.097 54.1352 53.097C52.4192 53.097 50.9732 55.557 50.9732 58.464C50.9732 61.371 52.4222 63.831 54.1352 63.831C54.231 63.8247 54.3272 63.8382 54.4176 63.8705C54.508 63.9029 54.5909 63.9535 54.661 64.0191C54.7311 64.0848 54.7869 64.1641 54.8251 64.2523C54.8634 64.3404 54.8831 64.4354 54.8831 64.5315C54.8831 64.6275 54.8634 64.7226 54.8251 64.8107C54.7869 64.8988 54.7311 64.9782 54.661 65.0438C54.5909 65.1095 54.508 65.1601 54.4176 65.1924C54.3272 65.2248 54.231 65.2382 54.1352 65.232Z" fill="black"/>
<path opacity="0.3" d="M64.7221 65.232C62.1661 65.232 60.1621 62.259 60.1621 58.464C60.1621 54.669 62.1661 51.699 64.7221 51.699C67.2781 51.699 69.3001 54.672 69.3001 58.464C69.2885 58.6418 69.2096 58.8086 69.0795 58.9305C68.9494 59.0523 68.7779 59.1201 68.5996 59.1201C68.4214 59.1201 68.2498 59.0523 68.1197 58.9305C67.9896 58.8086 67.9108 58.6418 67.8991 58.464C67.8991 55.557 66.4531 53.097 64.7371 53.097C63.0211 53.097 61.5751 55.557 61.5751 58.464C61.5751 61.371 63.0241 63.831 64.7371 63.831C64.915 63.8426 65.0817 63.9215 65.2036 64.0516C65.3254 64.1817 65.3932 64.3532 65.3932 64.5315C65.3932 64.7097 65.3254 64.8813 65.2036 65.0114C65.0817 65.1415 64.915 65.2203 64.7371 65.232H64.7221Z" fill="black"/>
<path opacity="0.3" d="M75.2998 65.232C72.7408 65.232 70.7368 62.259 70.7368 58.464C70.7368 54.669 72.7408 51.699 75.2998 51.699C77.8588 51.699 79.8598 54.672 79.8598 58.464C79.8598 58.6494 79.7862 58.8272 79.6551 58.9582C79.524 59.0893 79.3462 59.163 79.1608 59.163C78.9754 59.163 78.7976 59.0893 78.6666 58.9582C78.5355 58.8272 78.4618 58.6494 78.4618 58.464C78.4618 55.557 77.0128 53.097 75.2998 53.097C73.5868 53.097 72.1378 55.557 72.1378 58.464C72.1378 61.371 73.5868 63.831 75.2998 63.831C75.4777 63.8426 75.6445 63.9215 75.7663 64.0516C75.8882 64.1817 75.956 64.3532 75.956 64.5315C75.956 64.7097 75.8882 64.8813 75.7663 65.0114C75.6445 65.1415 75.4777 65.2203 75.2998 65.232Z" fill="black"/>
<path opacity="0.3" d="M85.896 65.232C83.337 65.232 81.333 62.259 81.333 58.464C81.333 54.669 83.337 51.699 85.896 51.699C88.455 51.699 90.456 54.672 90.456 58.464C90.456 58.6494 90.3824 58.8272 90.2513 58.9582C90.1202 59.0893 89.9424 59.163 89.757 59.163C89.5716 59.163 89.3938 59.0893 89.2627 58.9582C89.1317 58.8272 89.058 58.6494 89.058 58.464C89.058 55.557 87.609 53.097 85.896 53.097C84.183 53.097 82.734 55.557 82.734 58.464C82.734 61.371 84.18 63.831 85.896 63.831C86.0739 63.8426 86.2406 63.9215 86.3625 64.0516C86.4843 64.1817 86.5521 64.3532 86.5521 64.5315C86.5521 64.7097 86.4843 64.8813 86.3625 65.0114C86.2406 65.1415 86.0739 65.2203 85.896 65.232Z" fill="black"/>
<path opacity="0.3" d="M96.4799 65.232C93.9239 65.232 91.9199 62.259 91.9199 58.464C91.9199 54.669 93.9239 51.699 96.4799 51.699C99.0359 51.699 101.043 54.672 101.043 58.464C101.031 58.6418 100.952 58.8086 100.822 58.9305C100.692 59.0523 100.521 59.1201 100.342 59.1201C100.164 59.1201 99.9926 59.0523 99.8625 58.9305C99.7324 58.8086 99.6536 58.6418 99.6419 58.464C99.6419 55.557 98.1959 53.097 96.4799 53.097C94.7639 53.097 93.3179 55.557 93.3179 58.464C93.3179 61.371 94.7669 63.831 96.4799 63.831C96.5758 63.8247 96.6719 63.8382 96.7623 63.8705C96.8528 63.9029 96.9356 63.9535 97.0057 64.0191C97.0758 64.0848 97.1317 64.1641 97.1699 64.2523C97.2081 64.3404 97.2278 64.4354 97.2278 64.5315C97.2278 64.6275 97.2081 64.7226 97.1699 64.8107C97.1317 64.8988 97.0758 64.9782 97.0057 65.0438C96.9356 65.1095 96.8528 65.1601 96.7623 65.1924C96.6719 65.2248 96.5758 65.2382 96.4799 65.232Z" fill="black"/>
<path opacity="0.3" d="M107.067 65.232C104.511 65.232 102.507 62.259 102.507 58.464C102.507 54.669 104.511 51.699 107.067 51.699C109.623 51.699 111.63 54.672 111.63 58.464C111.618 58.6418 111.539 58.8086 111.409 58.9305C111.279 59.0523 111.108 59.1201 110.929 59.1201C110.751 59.1201 110.58 59.0523 110.449 58.9305C110.319 58.8086 110.24 58.6418 110.229 58.464C110.229 55.557 108.78 53.097 107.067 53.097C105.354 53.097 103.905 55.557 103.905 58.464C103.905 61.371 105.354 63.831 107.067 63.831C107.245 63.8426 107.411 63.9215 107.533 64.0516C107.655 64.1817 107.723 64.3532 107.723 64.5315C107.723 64.7097 107.655 64.8813 107.533 65.0114C107.411 65.1415 107.245 65.2203 107.067 65.232Z" fill="black"/>
</g>
<path d="M86.6041 80.526C84.1561 80.04 81.4081 80.607 80.4271 83.187C79.6381 85.263 80.6491 87.513 82.8271 88.062C84.7471 88.545 88.0591 87.954 88.7431 85.74C89.5261 83.208 86.3431 82.386 84.5581 82.236C84.0211 82.191 84.0241 83.031 84.5581 83.076C85.3711 83.145 86.3011 83.19 87.0211 83.637C88.5211 84.576 87.9031 86.082 86.6251 86.802C85.3471 87.522 83.3881 87.702 82.1251 86.904C80.7451 86.025 80.7001 84.093 81.5251 82.833C82.6081 81.168 84.5851 80.982 86.3671 81.333C86.8951 81.438 87.1201 80.628 86.5891 80.523L86.6041 80.526Z" fill="#B00037"/>
<path opacity="0.1" d="M86.6041 80.526C84.1561 80.04 81.4081 80.607 80.4271 83.187C79.6381 85.263 80.6491 87.513 82.8271 88.062C84.7471 88.545 88.0591 87.954 88.7431 85.74C89.5261 83.208 86.3431 82.386 84.5581 82.236C84.0211 82.191 84.0241 83.031 84.5581 83.076C85.3711 83.145 86.3011 83.19 87.0211 83.637C88.5211 84.576 87.9031 86.082 86.6251 86.802C85.3471 87.522 83.3881 87.702 82.1251 86.904C80.7451 86.025 80.7001 84.093 81.5251 82.833C82.6081 81.168 84.5851 80.982 86.3671 81.333C86.8951 81.438 87.1201 80.628 86.5891 80.523L86.6041 80.526Z" fill="#FAFAFA"/>
<path d="M59.5951 70.863C61.9362 73.9665 64.5463 76.8577 67.3951 79.503C67.7911 79.872 68.3881 79.278 67.9951 78.903C65.1951 76.31 62.6282 73.4761 60.3241 70.434C60.0031 70.008 59.2741 70.434 59.6011 70.857L59.5951 70.863Z" fill="#B00037"/>
<path d="M60.462 79.152C62.232 76.005 65.331 73.32 68.262 71.265C68.7 70.965 68.283 70.227 67.839 70.539C64.791 72.681 61.587 75.447 59.739 78.726C59.6883 78.8216 59.6764 78.933 59.7057 79.0371C59.7351 79.1411 59.8035 79.2299 59.8967 79.2848C59.9899 79.3397 60.1007 79.3565 60.206 79.3318C60.3113 79.3071 60.403 79.2427 60.462 79.152Z" fill="#B00037"/>
<g opacity="0.2">
<path opacity="0.2" d="M59.5951 70.863C61.9362 73.9665 64.5463 76.8577 67.3951 79.503C67.7911 79.872 68.3881 79.278 67.9951 78.903C65.1951 76.31 62.6282 73.4761 60.3241 70.434C60.0031 70.008 59.2741 70.434 59.6011 70.857L59.5951 70.863Z" fill="black"/>
<path opacity="0.2" d="M60.462 79.152C62.232 76.005 65.331 73.32 68.262 71.265C68.7 70.965 68.283 70.227 67.839 70.539C64.791 72.681 61.587 75.447 59.739 78.726C59.6883 78.8216 59.6764 78.933 59.7057 79.0371C59.7351 79.1411 59.8035 79.2299 59.8967 79.2848C59.9899 79.3397 60.1007 79.3565 60.206 79.3318C60.3113 79.3071 60.403 79.2427 60.462 79.152Z" fill="black"/>
</g>
<path d="M92.9612 73.5479H98.4362C98.5411 73.5391 98.6388 73.4911 98.71 73.4136C98.7812 73.3361 98.8207 73.2347 98.8207 73.1294C98.8207 73.0242 98.7812 72.9228 98.71 72.8453C98.6388 72.7678 98.5411 72.7198 98.4362 72.7109H92.9612C92.8563 72.7198 92.7586 72.7678 92.6874 72.8453C92.6162 72.9228 92.5767 73.0242 92.5767 73.1294C92.5767 73.2347 92.6162 73.3361 92.6874 73.4136C92.7586 73.4911 92.8563 73.5391 92.9612 73.5479Z" fill="#B00037"/>
<path d="M92.898 75.105H96.072C96.1834 75.105 96.2902 75.0608 96.369 74.982C96.4478 74.9032 96.492 74.7964 96.492 74.685C96.492 74.5736 96.4478 74.4668 96.369 74.388C96.2902 74.3093 96.1834 74.265 96.072 74.265H92.898C92.7866 74.265 92.6798 74.3093 92.601 74.388C92.5223 74.4668 92.478 74.5736 92.478 74.685C92.478 74.7964 92.5223 74.9032 92.601 74.982C92.6798 75.0608 92.7866 75.105 92.898 75.105Z" fill="#B00037"/>
<g opacity="0.1">
<path opacity="0.1" d="M92.9612 73.5479H98.4362C98.5411 73.5391 98.6388 73.4911 98.71 73.4136C98.7812 73.3361 98.8207 73.2347 98.8207 73.1294C98.8207 73.0242 98.7812 72.9228 98.71 72.8453C98.6388 72.7678 98.5411 72.7198 98.4362 72.7109H92.9612C92.8563 72.7198 92.7586 72.7678 92.6874 72.8453C92.6162 72.9228 92.5767 73.0242 92.5767 73.1294C92.5767 73.2347 92.6162 73.3361 92.6874 73.4136C92.7586 73.4911 92.8563 73.5391 92.9612 73.5479Z" fill="#FAFAFA"/>
<path opacity="0.1" d="M92.898 75.1049H96.072C96.1834 75.1049 96.2902 75.0606 96.369 74.9819C96.4478 74.9031 96.492 74.7963 96.492 74.6849C96.492 74.5735 96.4478 74.4667 96.369 74.3879C96.2902 74.3091 96.1834 74.2649 96.072 74.2649H92.898C92.7866 74.2649 92.6798 74.3091 92.601 74.3879C92.5223 74.4667 92.478 74.5735 92.478 74.6849C92.478 74.7963 92.5223 74.9031 92.601 74.9819C92.6798 75.0606 92.7866 75.1049 92.898 75.1049Z" fill="#FAFAFA"/>
</g>
<path d="M60.168 95.0399H64.863C64.9744 95.0399 65.0813 94.9957 65.16 94.9169C65.2388 94.8382 65.283 94.7313 65.283 94.6199C65.283 94.5086 65.2388 94.4017 65.16 94.323C65.0813 94.2442 64.9744 94.2 64.863 94.2H60.168C60.0567 94.2 59.9498 94.2442 59.8711 94.323C59.7923 94.4017 59.748 94.5086 59.748 94.6199C59.748 94.7313 59.7923 94.8382 59.8711 94.9169C59.9498 94.9957 60.0567 95.0399 60.168 95.0399Z" fill="#B00037"/>
<path d="M60.0001 96.843H66.0901C66.2015 96.843 66.3083 96.7988 66.3871 96.72C66.4658 96.6413 66.5101 96.5344 66.5101 96.423C66.5101 96.3117 66.4658 96.2048 66.3871 96.1261C66.3083 96.0473 66.2015 96.0031 66.0901 96.0031H60.0001C59.8887 96.0031 59.7819 96.0473 59.7031 96.1261C59.6243 96.2048 59.5801 96.3117 59.5801 96.423C59.5801 96.5344 59.6243 96.6413 59.7031 96.72C59.7819 96.7988 59.8887 96.843 60.0001 96.843Z" fill="#B00037"/>
<path d="M60.0001 98.7H63.0451C63.1565 98.7 63.2633 98.6557 63.3421 98.577C63.4208 98.4982 63.4651 98.3914 63.4651 98.28C63.4651 98.1686 63.4208 98.0618 63.3421 97.983C63.2633 97.9042 63.1565 97.86 63.0451 97.86H60.0001C59.8887 97.86 59.7819 97.9042 59.7031 97.983C59.6243 98.0618 59.5801 98.1686 59.5801 98.28C59.5801 98.3914 59.6243 98.4982 59.7031 98.577C59.7819 98.6557 59.8887 98.7 60.0001 98.7Z" fill="#B00037"/>
<g opacity="0.1">
<path opacity="0.1" d="M60.168 95.0399H64.863C64.9744 95.0399 65.0813 94.9957 65.16 94.9169C65.2388 94.8382 65.283 94.7313 65.283 94.6199C65.283 94.5086 65.2388 94.4017 65.16 94.323C65.0813 94.2442 64.9744 94.2 64.863 94.2H60.168C60.0567 94.2 59.9498 94.2442 59.8711 94.323C59.7923 94.4017 59.748 94.5086 59.748 94.6199C59.748 94.7313 59.7923 94.8382 59.8711 94.9169C59.9498 94.9957 60.0567 95.0399 60.168 95.0399Z" fill="#FAFAFA"/>
<path opacity="0.1" d="M60.0001 96.8429H66.0901C66.2015 96.8429 66.3083 96.7987 66.3871 96.7199C66.4658 96.6412 66.5101 96.5343 66.5101 96.4229C66.5101 96.3115 66.4658 96.2047 66.3871 96.1259C66.3083 96.0472 66.2015 96.0029 66.0901 96.0029H60.0001C59.8887 96.0029 59.7819 96.0472 59.7031 96.1259C59.6243 96.2047 59.5801 96.3115 59.5801 96.4229C59.5801 96.5343 59.6243 96.6412 59.7031 96.7199C59.7819 96.7987 59.8887 96.8429 60.0001 96.8429Z" fill="#FAFAFA"/>
<path opacity="0.1" d="M60.0001 98.7H63.0451C63.1565 98.7 63.2633 98.6557 63.3421 98.577C63.4208 98.4982 63.4651 98.3914 63.4651 98.28C63.4651 98.1686 63.4208 98.0618 63.3421 97.983C63.2633 97.9042 63.1565 97.86 63.0451 97.86H60.0001C59.8887 97.86 59.7819 97.9042 59.7031 97.983C59.6243 98.0618 59.5801 98.1686 59.5801 98.28C59.5801 98.3914 59.6243 98.4982 59.7031 98.577C59.7819 98.6557 59.8887 98.7 60.0001 98.7Z" fill="#FAFAFA"/>
</g>
<path d="M27.057 47.937L28.476 47.874L27.834 50.574C27.3276 50.2273 26.8661 49.8192 26.46 49.359C26.3429 49.2213 26.2848 49.043 26.2983 48.8627C26.3118 48.6825 26.3958 48.5148 26.532 48.396L27.057 47.937Z" fill="#E4897B"/>
<path d="M30.123 49.329L29.487 51.525L27.834 50.568L28.476 47.874L30.123 49.329Z" fill="#E4897B"/>
<path d="M29.843 36.2922L26.9395 36.561L33.5989 108.484L36.5025 108.216L29.843 36.2922Z" fill="#B00037"/>
<path opacity="0.3" d="M29.843 36.2922L26.9395 36.561L33.5989 108.484L36.5025 108.216L29.843 36.2922Z" fill="black"/>
<path d="M35.6516 35.753L32.748 36.0219L39.4075 107.945L42.3111 107.676L35.6516 35.753Z" fill="#B00037"/>
<path opacity="0.3" d="M35.6516 35.753L32.748 36.0219L39.4075 107.945L42.3111 107.676L35.6516 35.753Z" fill="black"/>
<path d="M32.7488 36.0225L29.8452 36.2914L36.5047 108.215L39.4083 107.946L32.7488 36.0225Z" fill="#B00037"/>
<path opacity="0.1" d="M32.7488 36.0225L29.8452 36.2914L36.5047 108.215L39.4083 107.946L32.7488 36.0225Z" fill="black"/>
<path d="M32.1359 30.993L29.5229 31.236L26.9399 36.561L35.6519 35.754L32.1359 30.993Z" fill="#B00037"/>
<g opacity="0.8">
<path opacity="0.8" d="M32.1359 30.993L29.5229 31.236L26.9399 36.561L35.6519 35.754L32.1359 30.993Z" fill="#FAFAFA"/>
</g>
<path d="M30.6299 28.953L29.5229 31.236L32.1359 30.993L30.6299 28.953Z" fill="#263238"/>
<path d="M52.584 33.0179C52.884 33.3179 53.133 33.6029 53.391 33.9179C53.649 34.2329 53.895 34.5179 54.141 34.8179C54.636 35.4179 55.098 36.0509 55.548 36.6959C56.4757 38.0074 57.2583 39.4156 57.882 40.8959C57.957 41.0879 58.026 41.2889 58.098 41.4959L58.206 41.7959C58.2655 41.9755 58.3077 42.1604 58.332 42.3479C58.3971 42.945 58.3179 43.5489 58.101 44.1089C57.7772 44.9356 57.3235 45.7053 56.757 46.3889C55.7554 47.6148 54.6022 48.7086 53.325 49.6439L52.194 48.4439C53.0841 47.3312 53.898 46.1595 54.63 44.9369C54.9507 44.4146 55.1971 43.8502 55.362 43.2599C55.4076 43.1151 55.4128 42.9605 55.377 42.8129L55.275 42.5909C55.206 42.4439 55.146 42.2909 55.071 42.1469C54.436 40.9147 53.6931 39.7411 52.851 38.6399C52.431 38.0669 51.987 37.5089 51.537 36.9509C51.312 36.6749 51.084 36.3989 50.85 36.1289L50.166 35.3399L52.584 33.0179Z" fill="#E4897B"/>
<path d="M50.3789 49.359L51.6569 51.888L52.9079 50.811L51.8819 49.014L50.3789 49.359Z" fill="#E4897B"/>
<path d="M40.7522 34.5C39.9742 35.982 39.1662 37.447 38.3282 38.895C37.9172 39.624 37.4852 40.341 37.0652 41.064L36.4202 42.144L36.2582 42.414C36.1772 42.543 36.0872 42.696 36.0062 42.798C35.9252 42.9 35.8442 43.023 35.7662 43.116C35.6882 43.209 35.6042 43.314 35.5262 43.401C34.9202 44.0612 34.2751 44.6843 33.5942 45.267C32.9372 45.828 32.2802 46.374 31.6022 46.893C30.2612 47.94 28.8842 48.915 27.4562 49.845L26.4272 48.549L29.9822 45.048C30.5642 44.448 31.1522 43.884 31.7072 43.29C32.2526 42.731 32.7664 42.1421 33.2462 41.526C33.3042 41.454 33.3552 41.385 33.3992 41.319C33.4502 41.247 33.4862 41.187 33.5222 41.127C33.5533 41.0788 33.5813 41.0287 33.6062 40.977L33.7442 40.698L34.2992 39.567C34.6802 38.82 35.0522 38.067 35.4392 37.326C36.2052 35.832 37.0052 34.355 37.8392 32.895L40.7522 34.5Z" fill="#E4897B"/>
<path d="M49.1732 24.366C49.1342 24.54 49.1972 24.705 49.3082 24.735C49.4192 24.765 49.5422 24.645 49.5812 24.471C49.6202 24.297 49.5542 24.132 49.4432 24.102C49.3322 24.072 49.2002 24.192 49.1732 24.366Z" fill="#263238"/>
<path d="M49.1791 24.702C49.273 25.2872 49.4445 25.8572 49.6891 26.397C49.551 26.4517 49.4026 26.4754 49.2544 26.4666C49.1062 26.4578 48.9617 26.4167 48.8311 26.346L49.1791 24.702Z" fill="#DE5753"/>
<path d="M49.632 23.3101C49.6106 23.3101 49.5898 23.3039 49.572 23.2921C49.4612 23.2243 49.3355 23.1846 49.2059 23.1762C49.0763 23.1679 48.9466 23.1911 48.828 23.2441C48.8021 23.2542 48.7733 23.2539 48.7475 23.2432C48.7218 23.2326 48.7012 23.2125 48.69 23.1871C48.6799 23.1611 48.6802 23.1323 48.6908 23.1066C48.7014 23.0809 48.7215 23.0603 48.747 23.0491C48.8986 22.9839 49.0638 22.9565 49.2283 22.969C49.3929 22.9816 49.552 23.0337 49.692 23.1211C49.7034 23.1286 49.7132 23.1383 49.7207 23.1497C49.7283 23.1611 49.7335 23.1739 49.736 23.1873C49.7385 23.2008 49.7383 23.2146 49.7354 23.2279C49.7325 23.2413 49.7269 23.2539 49.719 23.2651C49.7092 23.2791 49.6962 23.2905 49.6811 23.2983C49.6659 23.3062 49.6491 23.3102 49.632 23.3101Z" fill="#263238"/>
<path d="M43.1042 25.0291C43.4822 26.6431 43.9112 29.5951 42.8252 30.6721C42.8252 30.6721 43.3292 32.3071 46.3262 32.3071C49.6262 32.3071 47.8262 30.6721 47.8262 30.6721C46.0112 30.2431 46.0052 28.9081 46.2692 27.6571L43.1042 25.0291Z" fill="#E4897B"/>
<path d="M42.417 31.2331C42.159 30.7171 41.877 30.1231 42.417 29.9371C42.999 29.7331 46.23 29.5261 47.361 29.9071C47.6623 29.9877 47.9204 30.1825 48.0806 30.4502C48.2408 30.7179 48.2904 31.0374 48.219 31.3411L42.417 31.2331Z" fill="#B00037"/>
<path opacity="0.6" d="M42.417 31.2331C42.159 30.7171 41.877 30.1231 42.417 29.9371C42.999 29.7331 46.23 29.5261 47.361 29.9071C47.6623 29.9877 47.9204 30.1825 48.0806 30.4502C48.2408 30.7179 48.2904 31.0374 48.219 31.3411L42.417 31.2331Z" fill="#FAFAFA"/>
<path d="M38.0999 106.5C37.9063 106.499 37.7132 106.478 37.5239 106.437C37.5142 106.435 37.5052 106.431 37.4983 106.424C37.4913 106.417 37.4866 106.408 37.4849 106.398C37.4829 106.388 37.4838 106.377 37.4876 106.368C37.4913 106.358 37.4976 106.35 37.5059 106.344C37.5299 106.326 38.1059 105.912 38.4419 105.984C38.4782 105.99 38.5126 106.005 38.5427 106.026C38.5728 106.047 38.5978 106.075 38.6159 106.107C38.6429 106.143 38.6575 106.187 38.6575 106.231C38.6575 106.276 38.6429 106.32 38.6159 106.356C38.5439 106.473 38.3249 106.5 38.0999 106.5ZM37.6709 106.362C38.0009 106.416 38.4509 106.416 38.5409 106.293C38.5409 106.293 38.5769 106.245 38.5259 106.158C38.5149 106.139 38.4998 106.122 38.4816 106.11C38.4634 106.098 38.4427 106.089 38.4209 106.086C38.1485 106.104 37.8874 106.202 37.6709 106.368V106.362Z" fill="#FAFAFA"/>
<path d="M37.536 106.446H37.509C37.5012 106.441 37.4948 106.435 37.4905 106.427C37.4863 106.419 37.4843 106.41 37.485 106.401C37.485 106.374 37.512 105.738 37.761 105.528C37.7909 105.501 37.8261 105.481 37.8645 105.469C37.9028 105.457 37.9432 105.454 37.983 105.459C38.0234 105.459 38.0626 105.473 38.0938 105.499C38.125 105.524 38.1463 105.56 38.154 105.6C38.202 105.846 37.782 106.326 37.554 106.449L37.536 106.446ZM37.947 105.546C37.9038 105.546 37.8623 105.562 37.83 105.591C37.6828 105.793 37.6011 106.034 37.596 106.284C37.812 106.113 38.079 105.75 38.052 105.606C38.052 105.591 38.052 105.555 37.971 105.546H37.947Z" fill="#FAFAFA"/>
<path d="M51.3359 106.5C51.1085 106.5 50.8815 106.479 50.6579 106.437C50.6474 106.435 50.6377 106.43 50.6302 106.423C50.6227 106.415 50.6177 106.405 50.6159 106.395C50.6143 106.385 50.6156 106.374 50.6199 106.364C50.6242 106.355 50.6311 106.347 50.6399 106.341C50.7509 106.278 51.7289 105.717 51.9659 106.104C51.9897 106.138 52.0024 106.178 52.0024 106.219C52.0024 106.261 51.9897 106.301 51.9659 106.335C51.8999 106.467 51.6179 106.5 51.3359 106.5ZM50.8229 106.359C51.2369 106.419 51.7949 106.41 51.8909 106.275C51.8909 106.275 51.9209 106.233 51.8759 106.158C51.7439 105.945 51.1499 106.2 50.8229 106.365V106.359Z" fill="#FAFAFA"/>
<path d="M50.6671 106.446C50.6573 106.449 50.647 106.449 50.6371 106.446C50.6296 106.441 50.6237 106.433 50.62 106.425C50.6163 106.416 50.615 106.407 50.6161 106.398C50.6161 106.374 50.6521 105.78 50.9161 105.549C50.9561 105.512 51.0039 105.485 51.0558 105.47C51.1078 105.454 51.1626 105.45 51.2161 105.459C51.3631 105.474 51.4051 105.549 51.4141 105.609C51.4561 105.864 50.9551 106.329 50.6911 106.449L50.6671 106.446ZM51.1711 105.546C51.1045 105.545 51.0401 105.57 50.9911 105.615C50.8334 105.808 50.7419 106.047 50.7301 106.296C50.9941 106.134 51.3301 105.765 51.3091 105.612C51.3091 105.597 51.3091 105.558 51.2011 105.546H51.1711Z" fill="#FAFAFA"/>
<path d="M48.2432 106.392H50.4482L50.4692 101.289H48.2672L48.2432 106.392Z" fill="#E4897B"/>
<path d="M35.0098 106.392H37.2148L38.1268 101.289H35.9218L35.0098 106.392Z" fill="#E4897B"/>
<path d="M37.3622 106.137H34.8872C34.8434 106.136 34.8009 106.151 34.7673 106.18C34.7338 106.208 34.7114 106.247 34.7042 106.29L34.3442 108.249C34.3368 108.298 34.3401 108.347 34.3537 108.394C34.3674 108.442 34.3912 108.485 34.4235 108.522C34.4557 108.559 34.4957 108.589 34.5405 108.609C34.5854 108.629 34.634 108.64 34.6832 108.639C35.5472 108.624 35.9642 108.573 37.0532 108.573C37.7222 108.573 39.1052 108.645 40.0322 108.645C40.9592 108.645 41.0402 107.745 40.6592 107.646C38.9462 107.274 38.2862 106.761 37.7252 106.275C37.625 106.186 37.496 106.137 37.3622 106.137Z" fill="#263238"/>
<path d="M50.424 106.137H48.024C47.9802 106.136 47.9377 106.151 47.9041 106.18C47.8706 106.208 47.8482 106.247 47.841 106.29L47.481 108.249C47.4726 108.297 47.475 108.347 47.4879 108.394C47.5008 108.441 47.524 108.485 47.5558 108.522C47.5876 108.559 47.6273 108.589 47.6719 108.609C47.7165 108.63 47.765 108.64 47.814 108.639C48.681 108.624 49.932 108.573 51.024 108.573C52.302 108.573 53.406 108.645 54.903 108.645C55.803 108.645 56.022 107.745 55.641 107.646C53.901 107.268 52.491 107.229 50.967 106.311C50.8058 106.203 50.6177 106.143 50.424 106.137Z" fill="#263238"/>
<path d="M38.6219 31.17C36.5729 31.644 34.4219 37.275 34.4219 37.275L38.6789 40.119C39.6562 38.6371 40.513 37.0791 41.2409 35.46C42.3659 32.883 40.7129 30.687 38.6219 31.17Z" fill="#B00037"/>
<path opacity="0.7" d="M38.6219 31.17C36.5729 31.644 34.4219 37.275 34.4219 37.275L38.6789 40.119C39.6562 38.6371 40.513 37.0791 41.2409 35.46C42.3659 32.883 40.7129 30.687 38.6219 31.17Z" fill="black"/>
<path d="M40.239 34.761L38.478 39.984L38.679 40.119C38.679 40.119 39.483 38.919 40.338 37.32L40.239 34.761Z" fill="#B00037"/>
<path opacity="0.8" d="M40.239 34.761L38.478 39.984L38.679 40.119C38.679 40.119 39.483 38.919 40.338 37.32L40.239 34.761Z" fill="black"/>
<path d="M52.3711 41.016C52.3531 43.476 52.2061 46.536 51.8401 50.334H40.0501C39.8971 48.534 40.6951 39.696 38.6221 31.17C39.9188 30.9187 41.2306 30.7523 42.5491 30.672C44.2177 30.576 45.8905 30.576 47.5591 30.672C48.7098 30.7839 49.8502 30.9845 50.9701 31.272C50.9701 31.272 51.9781 32.364 52.2841 37.485C52.3441 38.508 52.3771 39.672 52.3711 41.016Z" fill="#B00037"/>
<path opacity="0.7" d="M52.3711 41.016C52.3531 43.476 52.2061 46.536 51.8401 50.334H40.0501C39.8971 48.534 40.6951 39.696 38.6221 31.17C39.9188 30.9187 41.2306 30.7523 42.5491 30.672C44.2177 30.576 45.8905 30.576 47.5591 30.672C48.7098 30.7839 49.8502 30.9845 50.9701 31.272C50.9701 31.272 51.9781 32.364 52.2841 37.485C52.3441 38.508 52.3771 39.672 52.3711 41.016Z" fill="black"/>
<path d="M52.3709 41.016C51.6569 39.714 50.3609 37.101 50.5439 35.616L52.2839 37.5C52.3439 38.508 52.3769 39.672 52.3709 41.016Z" fill="#B00037"/>
<path opacity="0.8" d="M52.3709 41.016C51.6569 39.714 50.3609 37.101 50.5439 35.616L52.2839 37.5C52.3439 38.508 52.3769 39.672 52.3709 41.016Z" fill="black"/>
<path d="M48.6601 33.276C48.4741 35.376 53.2351 40.428 53.2351 40.428L57.0511 37.32C56.0516 35.6334 54.8541 34.0723 53.4841 32.67C51.2521 30.513 48.8701 30.924 48.6601 33.276Z" fill="#B00037"/>
<path opacity="0.7" d="M48.6601 33.276C48.4741 35.376 53.2351 40.428 53.2351 40.428L57.0511 37.32C56.0516 35.6334 54.8541 34.0723 53.4841 32.67C51.2521 30.513 48.8701 30.924 48.6601 33.276Z" fill="black"/>
<path d="M50.4689 101.292L50.4569 103.92H48.2549L48.2639 101.292H50.4689Z" fill="#CE6F64"/>
<path d="M35.9222 101.292H38.1272L37.6562 103.92H35.4512L35.9222 101.292Z" fill="#CE6F64"/>
<path d="M43.5 22.5449C43.179 24.7169 42.882 25.9649 43.716 27.3449C43.9811 27.7918 44.3635 28.1577 44.8216 28.4028C45.2798 28.6479 45.7964 28.7629 46.3153 28.7354C46.8341 28.7079 47.3356 28.5389 47.7653 28.2467C48.195 27.9546 48.5366 27.5504 48.753 27.0779C49.614 25.2779 49.998 22.0259 48.105 20.6519C47.7055 20.3435 47.2319 20.1457 46.7318 20.0784C46.2316 20.0111 45.7226 20.0767 45.2558 20.2686C44.789 20.4604 44.381 20.7718 44.0728 21.1714C43.7646 21.571 43.567 22.0448 43.5 22.5449Z" fill="#E4897B"/>
<path d="M50.0249 21.516C49.3756 21.8706 48.6612 22.09 47.9249 22.161C47.3759 24.672 45.9149 27.561 43.5509 26.73C42.6509 26.43 41.7509 24.249 41.6579 22.314C41.5019 22.503 41.3969 22.749 41.3159 22.851C41.1809 21.991 41.2783 21.1107 41.5979 20.301C42.2519 18.447 42.6869 19.677 43.3979 18.552C43.8569 17.808 44.6729 17.424 46.0979 17.376C45.6989 17.583 45.6239 17.916 46.2149 17.868C46.8059 17.82 49.3289 17.682 50.7989 18.675C49.8059 18.9 50.4119 20.475 51.7379 19.635C51.2549 20.418 50.6549 21.162 50.0249 21.516Z" fill="#263238"/>
<path d="M46.2271 23.8891C46.2355 24.4414 46.4205 24.9765 46.7551 25.4161C47.2021 25.9921 47.7151 25.7161 47.8381 25.0681C47.9461 24.4921 47.8381 23.4961 47.2801 23.1481C46.7221 22.8001 46.2241 23.2291 46.2271 23.8891Z" fill="#E4897B"/>
<path d="M43.5389 18.786C43.2395 18.767 42.9493 18.6751 42.6936 18.5182C42.4379 18.3613 42.2244 18.1443 42.0719 17.886C42.0719 17.886 42.0329 19.644 43.5389 18.786Z" fill="#1E2A4C"/>
<path d="M47.655 50.334C47.655 50.334 45.807 67.176 44.676 73.485C43.44 80.385 38.676 103.413 38.676 103.413H34.626C34.626 103.413 37.5 80.952 38.1 74.1C38.745 66.675 40.062 50.322 40.062 50.322L47.655 50.334Z" fill="#B00037"/>
<path opacity="0.6" d="M47.655 50.334C47.655 50.334 45.807 67.176 44.676 73.485C43.44 80.385 38.676 103.413 38.676 103.413H34.626C34.626 103.413 37.5 80.952 38.1 74.1C38.745 66.675 40.062 50.322 40.062 50.322L47.655 50.334Z" fill="#FAFAFA"/>
<path d="M39.249 101.925C39.267 101.925 38.892 103.476 38.892 103.476H34.353L34.383 102.093L39.249 101.925Z" fill="#B00037"/>
<path opacity="0.1" d="M39.249 101.925C39.267 101.925 38.892 103.476 38.892 103.476H34.353L34.383 102.093L39.249 101.925Z" fill="#FAFAFA"/>
<path d="M46.308 56.334C43.437 56.901 44.16 67.686 44.721 73.233C45.405 69.312 46.335 61.767 46.962 56.412C46.759 56.313 46.5286 56.2856 46.308 56.334Z" fill="#B00037"/>
<path opacity="0.4" d="M46.308 56.334C43.437 56.901 44.16 67.686 44.721 73.233C45.405 69.312 46.335 61.767 46.962 56.412C46.759 56.313 46.5286 56.2856 46.308 56.334Z" fill="#FAFAFA"/>
<path d="M51.8369 50.334C51.8369 50.334 52.7789 66.81 52.7969 73.533C52.8179 80.523 51.2609 103.413 51.2609 103.413H47.5259C47.5259 103.413 46.5209 80.931 46.0889 74.067C45.6209 66.582 44.0879 50.334 44.0879 50.334H51.8369Z" fill="#B00037"/>
<path opacity="0.6" d="M51.8369 50.334C51.8369 50.334 52.7789 66.81 52.7969 73.533C52.8179 80.523 51.2609 103.413 51.2609 103.413H47.5259C47.5259 103.413 46.5209 80.931 46.0889 74.067C45.6209 66.582 44.0879 50.334 44.0879 50.334H51.8369Z" fill="#FAFAFA"/>
<path d="M52.7399 48.2159L51.6929 48.2999C51.6076 48.3071 51.525 48.3332 51.451 48.3763C51.3771 48.4194 51.3136 48.4784 51.2654 48.5491C51.2171 48.6198 51.1852 48.7003 51.172 48.7849C51.1587 48.8694 51.1645 48.9559 51.1889 49.0379L51.6209 50.4929C51.6574 50.6112 51.7218 50.7188 51.8089 50.8068C51.8959 50.8947 52.0029 50.9603 52.1207 50.998C52.2385 51.0357 52.3637 51.0444 52.4856 51.0233C52.6075 51.0023 52.7226 50.952 52.8209 50.8769C53.3617 50.3736 53.7496 49.7278 53.9399 49.0139L52.7399 48.2159Z" fill="#E4897B"/>
<path d="M50.3758 100.731C50.3658 100.73 50.3566 100.724 50.35 100.717C50.3433 100.709 50.3397 100.699 50.3398 100.689C50.7538 94.356 51.7138 79.029 51.6958 73.533C51.6958 67.908 51.0118 55.326 50.7958 51.603C50.7954 51.598 50.7961 51.593 50.7977 51.5883C50.7993 51.5835 50.8019 51.5792 50.8053 51.5755C50.8087 51.5719 50.8128 51.569 50.8173 51.567C50.8219 51.565 50.8269 51.5639 50.8318 51.564C50.8417 51.5639 50.8512 51.5676 50.8584 51.5743C50.8656 51.581 50.8701 51.5901 50.8708 51.6C51.0748 55.323 51.7438 67.905 51.7708 73.533C51.7888 79.032 50.8288 94.359 50.4148 100.695C50.4149 100.7 50.4138 100.705 50.4118 100.709C50.4099 100.714 50.4069 100.718 50.4033 100.722C50.3996 100.725 50.3953 100.728 50.3905 100.729C50.3858 100.731 50.3808 100.731 50.3758 100.731Z" fill="#B00037"/>
<path opacity="0.3" d="M50.3758 100.731C50.3658 100.73 50.3566 100.724 50.35 100.717C50.3433 100.709 50.3397 100.699 50.3398 100.689C50.7538 94.356 51.7138 79.029 51.6958 73.533C51.6958 67.908 51.0118 55.326 50.7958 51.603C50.7954 51.598 50.7961 51.593 50.7977 51.5883C50.7993 51.5835 50.8019 51.5792 50.8053 51.5755C50.8087 51.5719 50.8128 51.569 50.8173 51.567C50.8219 51.565 50.8269 51.5639 50.8318 51.564C50.8417 51.5639 50.8512 51.5676 50.8584 51.5743C50.8656 51.581 50.8701 51.5901 50.8708 51.6C51.0748 55.323 51.7438 67.905 51.7708 73.533C51.7888 79.032 50.8288 94.359 50.4148 100.695C50.4149 100.7 50.4138 100.705 50.4118 100.709C50.4099 100.714 50.4069 100.718 50.4033 100.722C50.3996 100.725 50.3953 100.728 50.3905 100.729C50.3858 100.731 50.3808 100.731 50.3758 100.731Z" fill="#FAFAFA"/>
<path d="M51.9208 101.925C51.9388 101.925 51.7708 103.476 51.7708 103.476H47.2288L47.0518 102.093L51.9208 101.925Z" fill="#B00037"/>
<path opacity="0.1" d="M51.9208 101.925C51.9388 101.925 51.7708 103.476 51.7708 103.476H47.2288L47.0518 102.093L51.9208 101.925Z" fill="#FAFAFA"/>
</svg>
