<svg width="40" height="40" viewBox="0 0 40 40" fill="none" xmlns="http://www.w3.org/2000/svg">
<path d="M12.5 37.5C13.8807 37.5 15 36.3807 15 35C15 33.6193 13.8807 32.5 12.5 32.5C11.1193 32.5 10 33.6193 10 35C10 36.3807 11.1193 37.5 12.5 37.5Z" fill="black"/>
<path d="M30 37.5C31.3807 37.5 32.5 36.3807 32.5 35C32.5 33.6193 31.3807 32.5 30 32.5C28.6193 32.5 27.5 33.6193 27.5 35C27.5 36.3807 28.6193 37.5 30 37.5Z" fill="black"/>
<path d="M35 8.75001H7.275L6.25 3.50001C6.19156 3.21342 6.03447 2.95639 5.80607 2.77367C5.57767 2.59095 5.29243 2.49411 5 2.50001H0V5.00001H3.975L8.75 29C8.80844 29.2866 8.96553 29.5436 9.19393 29.7264C9.42233 29.9091 9.70757 30.0059 10 30H32.5V27.5H11.025L10 22.5H32.5C32.789 22.5071 33.0714 22.4138 33.2993 22.236C33.5272 22.0582 33.6865 21.807 33.75 21.525L36.25 10.275C36.2919 10.0895 36.2909 9.89696 36.2471 9.71193C36.2034 9.52689 36.118 9.35428 35.9975 9.20722C35.8769 9.06017 35.7244 8.94255 35.5516 8.86332C35.3787 8.78409 35.1901 8.74534 35 8.75001ZM31.5 20H9.525L7.775 11.25H33.4375L31.5 20Z" fill="black"/>
</svg>
