<svg width="400" height="286" viewBox="0 0 400 286" fill="none" xmlns="http://www.w3.org/2000/svg">
<g clip-path="url(#clip0_405_265)">
<path d="M365.244 256.564C368.752 262.765 365.777 283.709 365.777 283.709C365.777 283.709 346.296 275.463 342.789 269.264C341.108 266.287 340.679 262.764 341.594 259.47C342.51 256.176 344.696 253.38 347.672 251.697C350.648 250.014 354.17 249.581 357.465 250.493C360.76 251.406 363.558 253.589 365.244 256.564V256.564Z" fill="#F1F1F1"/>
<path d="M366.06 283.682L365.646 283.77C361.66 264.832 347.74 251.99 347.6 251.862L347.884 251.549C348.025 251.678 362.044 264.607 366.06 283.682Z" fill="white"/>
<path d="M397.12 263.625C392.359 272.261 365.52 283.959 365.52 283.959C365.52 283.959 361.095 255.018 365.853 246.385C368.139 242.238 371.979 239.17 376.527 237.855C381.076 236.54 385.96 237.085 390.107 239.371C394.253 241.657 397.321 245.497 398.636 250.045C399.952 254.594 399.406 259.479 397.12 263.625Z" fill="#F1F1F1"/>
<path d="M365.757 284.272L365.354 283.848C384.775 265.404 389.803 239.678 389.851 239.421L390.427 239.529C390.378 239.788 385.319 265.694 365.757 284.272Z" fill="white"/>
<path d="M94.0406 198.234C90.969 198.224 87.9108 197.828 84.9378 197.057L84.3518 196.894L83.8082 196.622C64.1557 186.769 47.5759 173.754 34.5294 157.938C23.7295 144.77 15.3095 129.819 9.6479 113.757C2.87749 94.5264 -0.379736 74.2355 0.0317052 53.8524C0.0400073 53.4245 0.0470334 53.0942 0.0470334 52.8666C0.0470334 42.9582 5.54693 34.2644 14.0586 30.7178C20.5731 28.0034 79.7211 3.70898 83.9947 1.95363C92.043 -2.07909 100.629 1.28685 102.003 1.87547C105.085 3.13555 159.764 25.4998 171.58 31.1263C183.757 36.9251 187.007 47.3426 187.007 52.5837C187.007 76.3122 182.897 98.4883 174.792 118.496C168.247 134.691 158.969 149.642 147.365 162.698C124.975 187.894 102.58 196.826 102.363 196.905C99.6869 197.826 96.8708 198.276 94.0406 198.234ZM88.7738 185.188C90.7155 185.623 95.1858 186.276 98.0994 185.214C101.801 183.864 120.546 174.143 138.062 154.431C162.264 127.196 174.543 92.9591 174.561 52.6713C174.518 51.8551 173.939 46.0336 166.229 42.3627C154.642 36.845 97.8086 13.6057 97.2358 13.3715L97.0788 13.3049C95.8877 12.8058 92.0973 11.7545 89.4844 13.1238L88.9613 13.3677C88.3278 13.6278 25.5415 39.4155 18.8453 42.2055C14.1611 44.1573 12.4921 48.9924 12.4921 52.8666C12.4921 53.1497 12.4848 53.5615 12.4745 54.0938C11.9393 81.6603 18.3183 149.493 88.7738 185.188Z" fill="#3F3D56"/>
<path d="M86.5972 7.61155C86.5972 7.61155 23.2403 33.6332 16.452 36.4616C9.66379 39.29 6.26967 46.0783 6.26967 52.8665C6.26967 59.6548 1.1785 148.232 86.5972 191.059C86.5972 191.059 94.3498 193.204 100.232 191.059C106.113 188.914 180.784 152.71 180.784 52.5837C180.784 52.5837 180.784 42.4013 168.905 36.7444C157.025 31.0876 99.5902 7.61155 99.5902 7.61155C99.5902 7.61155 92.5369 4.50027 86.5972 7.61155Z" fill="#00B04D"/>
<path opacity="0.1" d="M93.3861 27.9763V166.792C93.3861 166.792 29.4634 136.023 30.0291 55.1293L93.3861 27.9763Z" fill="black"/>
<path d="M94.219 127.745L73.8564 101.563L85.6982 92.3534L95.3398 104.75L127.911 70.3666L138.803 80.6861L94.219 127.745Z" fill="white"/>
<path d="M399.512 285.201H213.447C213.318 285.201 213.194 285.15 213.102 285.058C213.01 284.967 212.959 284.842 212.959 284.713C212.959 284.583 213.01 284.459 213.102 284.368C213.194 284.276 213.318 284.225 213.447 284.225H399.512C399.641 284.225 399.766 284.276 399.857 284.368C399.949 284.459 400 284.583 400 284.713C400 284.842 399.949 284.967 399.857 285.058C399.766 285.15 399.641 285.201 399.512 285.201Z" fill="#CACACA"/>
<path d="M267.233 277.503L274.785 277.503L278.379 248.371L267.231 248.371L267.233 277.503Z" fill="#FFB8B8"/>
<path d="M265.306 275.037L280.18 275.037H280.18C282.694 275.037 285.105 276.036 286.883 277.813C288.661 279.591 289.659 282.002 289.66 284.516V284.824L265.306 284.825L265.306 275.037Z" fill="#2F2E41"/>
<path d="M292.627 277.503L300.18 277.503L303.773 248.371L292.626 248.371L292.627 277.503Z" fill="#FFB8B8"/>
<path d="M290.7 275.037L305.574 275.037H305.575C308.089 275.037 310.5 276.036 312.278 277.813C314.055 279.591 315.054 282.002 315.054 284.516V284.824L290.701 284.825L290.7 275.037Z" fill="#2F2E41"/>
<path d="M279.103 175.199L280.915 267.62L266.259 266.712L256.091 207.844L252.88 167.706L279.103 175.199Z" fill="#2F2E41"/>
<path d="M304.256 159.679L306.31 269.085L289.218 268.597L285.526 203.562L279.104 180.015L252.881 167.706L257.162 138.272L295.694 137.737L304.256 159.679Z" fill="#2F2E41"/>
<path d="M274.787 61.7443C282.026 61.7443 287.894 55.8762 287.894 48.6376C287.894 41.3989 282.026 35.5309 274.787 35.5309C267.549 35.5309 261.681 41.3989 261.681 48.6376C261.681 55.8762 267.549 61.7443 274.787 61.7443Z" fill="#FFB8B8"/>
<path d="M285.658 67.2655L287.666 70.307L293.018 85.2913L288.736 143.624L263.584 144.159L260.373 77.2637L267.099 68.8561L285.658 67.2655Z" fill="#CCCCCC"/>
<path d="M250.205 78.8694L245.924 78.3342C245.924 78.3342 244.854 78.8694 244.318 82.6155C243.783 86.3617 237.361 119.542 237.361 119.542L245.924 160.214L255.557 147.37L249.67 124.893L255.557 102.417L250.205 78.8694Z" fill="#2F2E41"/>
<path d="M304.791 78.3346H308.002L316.03 121.682L308.537 155.398L301.045 143.089L303.185 129.71L302.115 117.937L298.369 110.979L304.791 78.3346Z" fill="#2F2E41"/>
<path d="M282.532 48.6376L280.149 48.0418C280.149 48.0418 278.362 37.9139 274.192 39.1054C270.021 40.2969 259.298 41.4884 259.298 36.7224C259.298 31.9563 269.426 27.786 275.383 28.3817C281.341 28.9775 288.95 30.9539 290.873 39.7011C293.956 53.7234 284.511 57.2652 284.511 57.2652L284.669 56.7546C285.105 55.3371 285.136 53.8257 284.759 52.3913C284.381 50.9569 283.61 49.6567 282.532 48.6376Z" fill="#2F2E41"/>
<path d="M246.459 78.3343L263.584 71.3771L267.598 68.4338L279.639 121.682L285.258 66.8282L307.468 78.3343L299.975 114.725L298.905 128.64L302.116 139.878C302.116 139.878 313.354 147.905 309.608 156.468C305.862 165.031 301.581 165.566 301.581 165.566C301.581 165.566 283.385 148.441 282.315 144.159C281.245 139.878 279.639 132.386 279.639 132.386C279.639 132.386 270.541 166.636 259.838 166.101C249.135 165.566 249.135 154.327 249.135 154.327L251.811 142.554L256.092 130.245L253.951 109.909L246.459 78.3343Z" fill="#2F2E41"/>
</g>
<defs>
<clipPath id="clip0_405_265">
<rect width="400" height="285.201" fill="white"/>
</clipPath>
</defs>
</svg>
