<svg width="150" height="146" viewBox="0 0 150 146" fill="none" xmlns="http://www.w3.org/2000/svg">
<path d="M18.7265 119.432H7.40918V123.365H18.7265V119.432Z" fill="#EBEBEB"/>
<path d="M12.4101 124.392H1.09277V128.325H12.4101V124.392Z" fill="#EBEBEB"/>
<path d="M44.8017 45.7296H33.4844V49.6625H44.8017V45.7296Z" fill="#EBEBEB"/>
<path d="M38.4896 50.6888H27.1724V54.6218H38.4896V50.6888Z" fill="#EBEBEB"/>
<path d="M32.2016 45.7296H20.8843V49.6625H32.2016V45.7296Z" fill="#EBEBEB"/>
<path d="M148.896 124.392H137.579V128.325H148.896V124.392Z" fill="#EBEBEB"/>
<path d="M142.584 0.600952H131.267V4.53388H142.584V0.600952Z" fill="#EBEBEB"/>
<path d="M148.896 5.56018H137.579V9.49311H148.896V5.56018Z" fill="#EBEBEB"/>
<path d="M12.4101 0.600952H1.09277V4.53388H12.4101V0.600952Z" fill="#EBEBEB"/>
<path d="M51.1738 26.8099H0V29.0066H51.1738V26.8099Z" fill="#EBEBEB"/>
<path d="M7.44066 37.6563H5.44783L4.64648 29.0067H7.44066V37.6563Z" fill="#EBEBEB"/>
<path d="M43.7329 37.6563H45.7257L46.5271 29.0067H43.7329V37.6563Z" fill="#EBEBEB"/>
<path d="M4.64648 29.0067H7.43714V31.9837H4.92063L4.64648 29.0067Z" fill="#DBDBDB"/>
<path d="M46.5236 29.0067L46.2494 31.9837H43.7329V29.0067H46.5236Z" fill="#DBDBDB"/>
<path d="M14.7825 15.0675C12.7616 17.8054 10.6528 20.9862 10.1396 24.42C10.1396 24.4728 10.217 24.4903 10.2275 24.42C10.4604 23.4825 10.7599 22.5629 11.1238 21.668C12.4523 21.3166 13.7563 21.0038 14.4557 19.6822C15.1551 18.3607 15.0778 16.5577 14.9407 15.078C14.9337 15.0183 14.8247 15.0147 14.7825 15.0675Z" fill="#EBEBEB"/>
<path d="M11.1419 21.6609C12.0337 19.5723 13.2339 17.6293 14.7022 15.8969C14.7022 15.8969 14.7268 15.8969 14.7022 15.8969C13.777 17.0917 12.964 18.3695 12.2736 19.7138C12.9449 19.0355 13.6795 18.4274 14.3121 17.7034C14.3121 17.7034 14.3437 17.7034 14.3332 17.7245C13.7258 18.5351 13.0104 19.2588 12.2068 19.8755C11.9889 20.2832 11.7675 20.6909 11.5425 21.0951L11.7113 21.0107C11.6497 21.0447 11.5864 21.0752 11.5215 21.1021C11.416 21.2954 11.3106 21.4887 11.2016 21.682C11.184 21.7418 11.1243 21.7031 11.1419 21.6609Z" fill="#A6A6A6"/>
<path d="M11.82 20.951C12.3631 20.64 12.8813 20.2875 13.37 19.8966C13.37 19.8966 13.4052 19.8966 13.3911 19.8966C12.9167 20.3064 12.3966 20.6602 11.8411 20.951C11.8165 21.0002 11.7954 20.9651 11.82 20.951Z" fill="#A6A6A6"/>
<path d="M9.91826 24.3884C9.92071 24.3962 9.92562 24.4031 9.93226 24.408C9.9389 24.4129 9.94692 24.4155 9.95516 24.4155C9.9634 24.4155 9.97143 24.4129 9.97807 24.408C9.98471 24.4031 9.98961 24.3962 9.99207 24.3884C9.99207 23.2566 9.99207 22.1214 9.99207 20.9862C10.2803 20.3992 10.9024 20.0758 11.3347 19.6084C11.646 19.2655 11.9173 18.8881 12.1431 18.4837C12.6644 17.518 12.9825 16.4559 13.078 15.3627C13.1975 14.1536 12.7265 10.1609 12.2309 10.298C11.9638 10.3683 11.1097 12.3471 10.8813 13.0008C10.5129 14.08 10.2435 15.1906 10.0764 16.3187C9.71483 18.9936 9.66176 21.7013 9.91826 24.3884Z" fill="#EBEBEB"/>
<path d="M9.9079 19.5241C10.0219 18.0858 10.2571 16.6596 10.6108 15.2608C10.8734 13.7719 11.3705 12.3341 12.0835 11.001C12.0835 10.9764 12.1327 11.001 12.1222 11.0221C11.6083 12.0599 11.2111 13.1514 10.9377 14.2767C10.9869 14.1959 11.0502 14.1185 11.1029 14.0412C11.1556 13.9639 11.1732 14.0412 11.1556 14.0728C11.0869 14.1979 11.0056 14.3157 10.9131 14.4243C10.6495 15.4787 10.4597 16.5858 10.2945 17.6754L10.3261 17.6262C10.3261 17.6262 10.3472 17.6262 10.3261 17.6262C10.3051 17.6262 10.284 17.6965 10.2629 17.7351C10.182 18.2869 10.1047 18.8387 10.0274 19.387C11.036 18.5861 11.8285 17.5459 12.333 16.3609C11.9115 17.6348 11.0969 18.7423 10.0063 19.5241L9.94305 19.967C9.94305 19.9951 9.89033 19.988 9.89033 19.967C9.89033 19.8334 9.89033 19.7034 9.89033 19.5733C9.8873 19.5692 9.88533 19.5643 9.8846 19.5592C9.88387 19.5541 9.88439 19.5489 9.88612 19.5441C9.88785 19.5392 9.89074 19.5349 9.89454 19.5314C9.89833 19.5279 9.90292 19.5254 9.9079 19.5241Z" fill="#A6A6A6"/>
<path d="M10.3755 17.4329C11.1448 16.3413 11.8163 15.184 12.3824 13.9745C12.3824 13.9745 12.414 13.9745 12.407 13.9745C11.9575 15.2455 11.2811 16.4245 10.4106 17.454C10.407 17.4558 10.4029 17.4566 10.3989 17.4564C10.3948 17.4562 10.3909 17.455 10.3874 17.4529C10.3839 17.4508 10.381 17.4479 10.3789 17.4444C10.3769 17.4409 10.3757 17.437 10.3755 17.4329Z" fill="#A6A6A6"/>
<path d="M9.36312 21.4889C9.34949 22.2398 9.26119 22.9874 9.09951 23.7207C9.09951 23.7981 9.12412 23.8789 9.13466 23.9633C9.36472 23.1536 9.49804 22.3194 9.53182 21.4784C9.53938 21.4669 9.54341 21.4535 9.54341 21.4397C9.54341 21.426 9.53938 21.4125 9.53182 21.401C9.56314 20.2727 9.47596 19.1442 9.27173 18.034C8.92027 15.9533 8.15758 13.957 6.70602 12.4105C6.69426 12.4003 6.68032 12.3929 6.66527 12.3889C6.65021 12.3849 6.63444 12.3844 6.61917 12.3875C6.6039 12.3905 6.58953 12.397 6.57717 12.4065C6.56481 12.416 6.55478 12.4282 6.54785 12.4421C5.9609 13.9323 6.16475 15.7073 6.66384 17.1905C6.93422 17.9949 7.32146 18.7552 7.81314 19.4469C8.32628 20.1358 8.95893 20.7262 9.36312 21.4889Z" fill="#EBEBEB"/>
<path d="M6.89214 13.0957C8.32801 15.354 9.17396 17.9365 9.35241 20.6066C9.35241 20.6523 9.27861 20.6629 9.27158 20.6066C9.23994 20.3711 9.20128 20.1357 9.16262 19.9037C8.5607 19.3812 8.03117 18.7807 7.58804 18.1182C7.58804 18.1182 7.58804 18.0936 7.60913 18.1182C8.08063 18.6975 8.58649 19.248 9.12396 19.7666C9.02555 19.1832 8.90956 18.6103 8.77249 18.0444L8.66354 17.9179C8.63893 17.8898 8.68111 17.8476 8.70571 17.8757L8.73734 17.9144C8.54927 17.1405 8.31453 16.3788 8.03441 15.6333C7.65288 15.2469 7.31895 14.8162 7.03975 14.3505C7.03975 14.3505 7.03975 14.3294 7.03975 14.3505C7.2365 14.6429 7.44886 14.9245 7.67591 15.194C7.76729 15.2995 7.86922 15.4014 7.96411 15.5033C7.64808 14.695 7.27214 13.9114 6.83942 13.159C6.8113 13.0922 6.87105 13.0641 6.89214 13.0957Z" fill="#A6A6A6"/>
<path d="M7.16284 15.8477C7.6092 16.4452 8.11532 17.0146 8.52653 17.6331C8.52933 17.6369 8.53053 17.6416 8.52987 17.6462C8.52921 17.6508 8.52675 17.6549 8.52302 17.6577C8.51929 17.6605 8.5146 17.6617 8.50999 17.6611C8.50538 17.6604 8.50121 17.658 8.49842 17.6542C7.971 17.1171 7.51287 16.5161 7.13472 15.8653C7.12769 15.8442 7.16284 15.8301 7.16284 15.8477Z" fill="#A6A6A6"/>
<path d="M8.59697 17.7667L8.61455 17.7878C8.61455 17.7878 8.61455 17.8194 8.59346 17.8089V17.7878C8.59346 17.7878 8.56886 17.7667 8.59697 17.7667Z" fill="#A6A6A6"/>
<path d="M4.5274 16.8212C4.68985 18.068 5.192 19.2462 5.97896 20.2269C6.30627 20.6102 6.7096 20.9214 7.16341 21.1407C7.67304 21.3902 8.21781 21.682 8.73447 21.8893C8.97908 22.527 9.15923 23.1875 9.27222 23.8611C9.27222 23.8048 9.30737 23.7451 9.32142 23.6889C8.99104 20.7822 7.11069 18.3008 4.70313 16.7122C4.68466 16.7023 4.66392 16.6975 4.64299 16.6982C4.62206 16.6989 4.60167 16.705 4.58387 16.7161C4.56608 16.7271 4.55149 16.7426 4.54158 16.7611C4.53167 16.7795 4.52678 16.8002 4.5274 16.8212Z" fill="#EBEBEB"/>
<path d="M5.36004 17.679C5.35756 17.6753 5.35631 17.6709 5.35646 17.6665C5.35661 17.662 5.35816 17.6578 5.36089 17.6543C5.36362 17.6508 5.36738 17.6482 5.37165 17.647C5.37591 17.6457 5.38046 17.6459 5.38464 17.6474C6.70524 18.6292 7.75791 19.9272 8.44593 21.4221C8.4489 21.4299 8.44902 21.4384 8.44627 21.4463C8.44353 21.4541 8.43809 21.4608 8.43092 21.465C8.42376 21.4692 8.41534 21.4707 8.40714 21.4693C8.39895 21.4679 8.39153 21.4636 8.38618 21.4573C8.27723 21.2604 8.16124 21.0707 8.03472 20.8844C7.47518 20.7348 6.96563 20.4388 6.55855 20.0268C6.55855 20.0268 6.55855 20.0022 6.55855 20.0268C6.77225 20.2175 7.00829 20.3815 7.26148 20.5153C7.48642 20.6278 7.72542 20.6981 7.96442 20.7895C7.76057 20.4661 7.54969 20.1568 7.32826 19.8581C6.73586 19.6322 6.18032 19.3195 5.67988 18.9302C5.6623 18.9302 5.67988 18.8916 5.67988 18.9021C6.17627 19.2023 6.68774 19.4768 7.21228 19.7245C6.87949 19.2807 6.51787 18.8592 6.12976 18.4628C5.94348 18.3643 5.7572 18.2624 5.57444 18.157C5.57444 18.157 5.57444 18.1253 5.57444 18.1289C5.72378 18.1827 5.86646 18.2535 5.99971 18.3397C5.82046 18.1183 5.59904 17.8899 5.36004 17.679Z" fill="#A6A6A6"/>
<path d="M5.40586 18.6805C5.43832 18.6999 5.46891 18.7222 5.49724 18.7473C5.4638 18.7332 5.43198 18.7155 5.40234 18.6945C5.40234 18.6945 5.40586 18.6699 5.40586 18.6805Z" fill="#A6A6A6"/>
<path d="M12.2876 26.8064H7.33545L7.57796 23.5623L7.67286 22.5044H11.9045L11.9994 23.5623L12.2876 26.8064Z" fill="#DBDBDB"/>
<path d="M11.9991 23.5623H7.57764L7.67253 22.5044H11.9042L11.9991 23.5623Z" fill="#C7C7C7"/>
<path d="M12.2419 21.6364H7.33545V22.7224H12.2419V21.6364Z" fill="#DBDBDB"/>
<path d="M28.3706 26.7995V12.0343H24.6521V26.7995H28.3706Z" fill="#C7C7C7"/>
<path d="M28.3706 12.8672V11.2434H24.6521V12.8672H28.3706Z" fill="#DBDBDB"/>
<path d="M28.3706 15.5453V14.9443H24.6521V15.5453H28.3706Z" fill="#DBDBDB"/>
<path d="M28.3706 24.8628V23.239H24.6521V24.8628H28.3706Z" fill="#DBDBDB"/>
<path d="M30.9678 26.7996V9.5741H28.3704V26.7996H30.9678Z" fill="#DBDBDB"/>
<path d="M30.4409 17.8195V11.1943H28.8804V17.8195H30.4409Z" fill="#EBEBEB"/>
<path d="M49.4758 24.9324L37.2256 12.8225L35.3996 14.6697L47.6498 26.7796L49.4758 24.9324Z" fill="#C7C7C7"/>
<path d="M46.2414 22.454L41.5298 17.7964L40.4327 18.9062L45.1443 23.5638L46.2414 22.454Z" fill="#DBDBDB"/>
<path d="M35.3789 26.8029V13.7178H30.9645V26.8029H35.3789Z" fill="#A6A6A6"/>
<path d="M35.3789 25.4147V24.1951H30.9645V25.4147H35.3789Z" fill="#C7C7C7"/>
<path d="M35.3828 23.3973V22.9229H30.9684V23.3973H35.3828Z" fill="#C7C7C7"/>
<path d="M19.8271 26.8089L24.6763 15.5112L21.8761 14.3093L17.0269 25.607L19.8271 26.8089Z" fill="#A6A6A6"/>
<path d="M20.3401 25.6099L20.792 24.557L17.9918 23.3551L17.5399 24.408L20.3401 25.6099Z" fill="#C7C7C7"/>
<path d="M23.2237 18.8877L23.6758 17.8348L20.8758 16.6325L20.4237 17.6853L23.2237 18.8877Z" fill="#C7C7C7"/>
<path d="M22.7354 20.0164L22.9102 19.6095L20.1102 18.4071L19.9354 18.814L22.7354 20.0164Z" fill="#C7C7C7"/>
<path d="M104.062 92.538V144.858H135.695V92.538H104.062ZM132.82 125.548H106.934V111.928H132.82V125.548ZM132.82 108.677H106.934V95.065H132.82V108.677Z" fill="#DBDBDB"/>
<path d="M149.993 92.538H135.692V144.858H149.993V92.538Z" fill="#EBEBEB"/>
<path d="M113.085 95.0652H106.935V108.685H113.085V95.0652Z" fill="#EBEBEB"/>
<path d="M132.908 141.663H107.008V128.5H132.908V141.663ZM107.184 141.487H132.732V128.676H107.184V141.487Z" fill="#EBEBEB"/>
<path d="M122.511 132.24H117.401V134.106H122.511V132.24Z" fill="#EBEBEB"/>
<path d="M113.085 111.929H106.935V125.548H113.085V111.929Z" fill="#EBEBEB"/>
<path d="M129.281 125.548V112.99H124.954V125.548H129.281Z" fill="#A6A6A6"/>
<path d="M129.277 123.531V120.821H124.951V123.531H129.277Z" fill="#DBDBDB"/>
<path d="M129.277 118.642V117.035H124.951V118.642H129.277Z" fill="#DBDBDB"/>
<path d="M125.418 98.1757H114.48V108.685H125.418V98.1757Z" fill="#EBEBEB"/>
<path d="M129.576 98.1757H125.418V108.685H129.576V98.1757Z" fill="#C7C7C7"/>
<path d="M114.48 103.43H125.418L116.877 103.701L114.48 103.43Z" fill="#C7C7C7"/>
<path d="M125.418 107.416H114.48L123.021 107.686L125.418 107.416Z" fill="#C7C7C7"/>
<path d="M114.48 100.492H121.407L115.25 100.713L114.48 100.492Z" fill="#C7C7C7"/>
<path d="M125.418 105.869H118.491L124.648 106.091L125.418 105.869Z" fill="#C7C7C7"/>
<path d="M117.105 99.3251H124.919L123.615 99.4551L117.105 99.3251Z" fill="#C7C7C7"/>
<path d="M115.545 104.558H123.358L122.054 104.688L115.545 104.558Z" fill="#C7C7C7"/>
<path d="M120.35 101.494H125.418L126.325 101.849L120.35 101.494Z" fill="#EBEBEB"/>
<path d="M113.084 101.494H118.153L119.059 101.849L113.084 101.494Z" fill="#EBEBEB"/>
<path d="M119.591 106.217H114.519L113.616 106.572L119.591 106.217Z" fill="#EBEBEB"/>
<path d="M125.418 105.019H129.488L130.395 105.37L125.418 105.019Z" fill="#C7C7C7"/>
<path d="M126.838 103.43H129.994L129.576 103.142L126.838 103.43Z" fill="#C7C7C7"/>
<path d="M132.817 112.154H129.277V125.548H132.817V112.154Z" fill="#EBEBEB"/>
<path d="M131.049 114.796C130.903 114.796 130.76 114.753 130.639 114.672C130.517 114.591 130.423 114.476 130.367 114.341C130.311 114.206 130.296 114.058 130.325 113.914C130.353 113.771 130.424 113.64 130.527 113.536C130.63 113.433 130.761 113.363 130.905 113.334C131.048 113.306 131.196 113.321 131.331 113.376C131.466 113.432 131.581 113.527 131.662 113.648C131.743 113.77 131.787 113.912 131.787 114.058C131.787 114.254 131.709 114.442 131.571 114.58C131.432 114.719 131.244 114.796 131.049 114.796Z" fill="white"/>
<path d="M131.049 114.48C130.965 114.48 130.884 114.456 130.814 114.409C130.745 114.363 130.691 114.297 130.659 114.22C130.627 114.143 130.619 114.058 130.635 113.976C130.651 113.894 130.691 113.819 130.75 113.76C130.809 113.701 130.885 113.661 130.966 113.645C131.048 113.629 131.133 113.637 131.21 113.669C131.287 113.701 131.353 113.755 131.399 113.824C131.446 113.894 131.47 113.975 131.47 114.058C131.47 114.17 131.426 114.278 131.347 114.357C131.268 114.436 131.161 114.48 131.049 114.48Z" fill="#A6A6A6"/>
<path d="M132.82 123.436V120.178H129.281V123.436H132.82Z" fill="white"/>
<path d="M124.951 122.785H111.556V125.569H124.951V122.785Z" fill="#C7C7C7"/>
<path d="M122.307 124.177C122.306 124.031 122.349 123.888 122.43 123.766C122.51 123.644 122.626 123.549 122.76 123.493C122.895 123.436 123.044 123.421 123.187 123.449C123.33 123.478 123.462 123.548 123.566 123.651C123.669 123.754 123.74 123.885 123.769 124.028C123.798 124.172 123.783 124.32 123.727 124.455C123.672 124.59 123.577 124.706 123.456 124.787C123.334 124.868 123.191 124.912 123.045 124.912C122.85 124.912 122.663 124.835 122.525 124.697C122.386 124.559 122.308 124.372 122.307 124.177Z" fill="white"/>
<path d="M122.624 124.177C122.624 124.094 122.648 124.012 122.695 123.943C122.741 123.874 122.807 123.82 122.884 123.788C122.961 123.756 123.046 123.747 123.128 123.764C123.209 123.78 123.285 123.82 123.344 123.879C123.403 123.938 123.443 124.013 123.459 124.095C123.475 124.177 123.467 124.262 123.435 124.339C123.403 124.416 123.349 124.482 123.28 124.528C123.21 124.574 123.129 124.599 123.045 124.599C122.933 124.599 122.826 124.555 122.747 124.475C122.668 124.396 122.624 124.289 122.624 124.177Z" fill="#A6A6A6"/>
<path d="M113.664 125.566H116.922V122.782H113.664V125.566Z" fill="white"/>
<path d="M149.574 120.206C146.204 124.775 142.692 130.065 141.842 135.786C141.842 135.874 141.972 135.902 141.989 135.815C142.379 134.259 142.877 132.732 143.48 131.245C145.697 130.634 147.869 130.135 149.033 127.935C150.221 125.675 150.07 122.729 149.845 120.266C149.82 120.125 149.641 120.118 149.574 120.206Z" fill="#B00037"/>
<path d="M143.508 131.193C145.022 127.794 146.963 124.385 149.433 121.591C149.433 121.591 149.476 121.591 149.461 121.619C147.845 123.608 146.615 125.773 145.416 127.977C146.53 126.845 147.753 125.829 148.811 124.631C148.832 124.606 148.864 124.631 148.843 124.663C147.789 125.924 146.65 127.292 145.283 128.223C144.914 128.898 144.544 129.58 144.172 130.258C144.263 130.205 144.358 130.159 144.45 130.114L144.467 130.138C144.362 130.191 144.26 130.247 144.151 130.293L143.617 131.253C143.574 131.326 143.476 131.263 143.508 131.193Z" fill="#263238"/>
<path d="M144.632 130.005C145.539 129.499 146.404 128.922 147.219 128.279C147.24 128.261 147.275 128.279 147.25 128.311C146.46 128.993 145.595 129.582 144.671 130.068C144.663 130.07 144.654 130.07 144.646 130.067C144.639 130.063 144.632 130.058 144.628 130.051C144.623 130.044 144.621 130.035 144.622 130.027C144.623 130.019 144.626 130.011 144.632 130.005Z" fill="#263238"/>
<path d="M141.444 134.936C141.444 135.006 141.57 135.006 141.567 134.936C141.567 133.049 141.567 131.158 141.598 129.263C142.08 128.29 143.117 127.748 143.837 126.968C144.356 126.399 144.806 125.771 145.18 125.098C146.048 123.49 146.579 121.721 146.74 119.9C146.941 117.883 146.175 111.229 145.335 111.465C144.895 111.584 143.468 114.881 143.092 115.967C142.477 117.764 142.028 119.613 141.75 121.492C141.05 125.921 141.106 130.472 141.444 134.936Z" fill="#B00037"/>
<path d="M141.423 126.806C141.525 124.42 142.063 122.012 142.566 119.7C143.107 117.208 143.74 114.864 145.026 112.642C145.031 112.634 145.038 112.628 145.048 112.625C145.057 112.622 145.067 112.624 145.075 112.628C145.084 112.633 145.09 112.641 145.092 112.65C145.095 112.659 145.094 112.669 145.089 112.677C144.235 114.406 143.574 116.224 143.117 118.097C143.202 117.964 143.307 117.837 143.395 117.707C143.43 117.658 143.515 117.707 143.479 117.756C143.365 117.958 143.231 118.147 143.079 118.322C143.076 118.323 143.073 118.324 143.07 118.324C143.067 118.324 143.064 118.323 143.061 118.322C142.622 120.104 142.302 121.925 142.031 123.742C142.053 123.72 142.073 123.696 142.091 123.671C142.091 123.671 142.13 123.671 142.119 123.692C142.109 123.714 142.049 123.815 142.014 123.875C141.877 124.796 141.75 125.717 141.62 126.631C143.265 125.225 144.667 123.573 145.458 121.534C145.458 121.534 145.476 121.534 145.458 121.534C144.685 123.643 143.462 125.527 141.592 126.806C141.557 127.052 141.522 127.299 141.49 127.545C141.49 127.594 141.399 127.58 141.399 127.545C141.399 127.33 141.399 127.112 141.42 126.894C141.413 126.889 141.407 126.882 141.403 126.875C141.399 126.867 141.398 126.858 141.398 126.849C141.398 126.841 141.401 126.832 141.405 126.825C141.41 126.817 141.416 126.811 141.423 126.806Z" fill="#263238"/>
<path d="M142.204 123.351C143.488 121.533 144.607 119.604 145.55 117.587C145.55 117.566 145.602 117.587 145.592 117.605C144.841 119.721 143.715 121.684 142.267 123.401C142.239 123.432 142.179 123.39 142.204 123.351Z" fill="#263238"/>
<path d="M143.883 117.127C144.403 116.206 144.938 115.31 145.44 114.375C145.44 114.347 145.489 114.375 145.479 114.396C145.078 115.375 144.57 116.306 143.964 117.173C143.918 117.232 143.841 117.18 143.883 117.127Z" fill="#263238"/>
<path d="M140.168 129.485C140.144 130.734 139.997 131.979 139.729 133.2C139.75 133.333 139.767 133.467 139.789 133.607C140.172 132.258 140.395 130.869 140.453 129.467C140.464 129.448 140.47 129.426 140.47 129.404C140.47 129.382 140.464 129.36 140.453 129.341C140.506 127.463 140.367 125.584 140.038 123.735C139.455 120.269 138.179 116.948 135.764 114.351C135.744 114.333 135.72 114.321 135.695 114.315C135.669 114.308 135.643 114.307 135.617 114.313C135.591 114.318 135.567 114.33 135.546 114.346C135.525 114.362 135.509 114.383 135.497 114.407C134.52 116.885 134.861 119.84 135.69 122.315C136.143 123.654 136.788 124.919 137.606 126.072C138.439 127.228 139.497 128.212 140.168 129.485Z" fill="#B00037"/>
<path d="M136.053 115.503C138.341 119.218 139.919 123.626 140.13 128.012C140.13 128.089 140.003 128.11 139.993 128.033C139.936 127.636 139.877 127.246 139.813 126.856C138.818 125.977 137.944 124.968 137.216 123.858C137.216 123.84 137.234 123.815 137.248 123.833C138.034 124.797 138.877 125.713 139.771 126.578C139.606 125.608 139.42 124.655 139.184 123.713C139.121 123.643 139.061 123.569 139.001 123.499C138.942 123.429 139.03 123.387 139.068 123.432L139.124 123.492C138.802 122.203 138.403 120.934 137.93 119.693C137.346 118.99 136.692 118.396 136.271 117.559L136.299 117.542C136.65 118.02 136.97 118.501 137.353 118.948C137.508 119.123 137.68 119.299 137.838 119.461C137.311 118.115 136.684 116.81 135.965 115.556C135.961 115.545 135.962 115.532 135.966 115.521C135.97 115.51 135.978 115.501 135.988 115.495C135.998 115.489 136.01 115.486 136.022 115.488C136.033 115.489 136.044 115.495 136.053 115.503Z" fill="#263238"/>
<path d="M136.503 120.086C137.241 121.081 138.084 122.034 138.773 123.063C138.791 123.091 138.748 123.123 138.724 123.098C137.847 122.201 137.083 121.199 136.45 120.115C136.446 120.083 136.503 120.044 136.503 120.086Z" fill="#263238"/>
<path d="M138.889 123.292L138.921 123.323C138.942 123.344 138.921 123.38 138.889 123.358L138.858 123.327C138.833 123.306 138.868 123.271 138.889 123.292Z" fill="#263238"/>
<path d="M132.464 122.645C132.736 124.721 133.572 126.682 134.882 128.314C135.421 128.954 136.088 129.475 136.84 129.843C137.69 130.261 138.576 130.746 139.455 131.091C139.872 132.152 140.182 133.253 140.379 134.377C140.407 134.282 140.435 134.184 140.467 134.085C139.901 129.249 136.77 125.112 132.763 122.455C132.731 122.436 132.695 122.426 132.658 122.426C132.621 122.426 132.585 122.437 132.554 122.457C132.523 122.477 132.498 122.505 132.482 122.538C132.466 122.571 132.46 122.608 132.464 122.645Z" fill="#B00037"/>
<path d="M133.849 124.075C133.821 124.051 133.849 124.002 133.891 124.023C136.093 125.659 137.847 127.823 138.995 130.314C139.023 130.381 138.935 130.437 138.896 130.37C138.71 130.047 138.52 129.727 138.327 129.418C137.413 129.246 136.548 128.602 135.867 127.991C135.849 127.973 135.867 127.949 135.895 127.963C136.245 128.281 136.633 128.554 137.051 128.775C137.424 128.964 137.828 129.084 138.214 129.235C137.863 128.697 137.512 128.181 137.16 127.681C136.173 127.306 135.246 126.786 134.412 126.139C134.387 126.117 134.412 126.075 134.44 126.093C135.267 126.591 136.118 127.047 136.991 127.46C136.434 126.721 135.832 126.017 135.188 125.351C134.879 125.19 134.563 125.024 134.264 124.849C134.239 124.849 134.264 124.792 134.264 124.803C134.512 124.891 134.748 125.009 134.967 125.154C134.622 124.789 134.25 124.427 133.849 124.075Z" fill="#263238"/>
<path d="M133.937 125.748C133.989 125.782 134.04 125.818 134.088 125.857C134.105 125.857 134.088 125.889 134.07 125.882C134.013 125.857 133.959 125.827 133.909 125.791C133.881 125.773 133.909 125.727 133.937 125.748Z" fill="#263238"/>
<path d="M146.716 144.858H135.74L136.625 134.862L136.822 132.658H145.637L145.83 134.862L146.716 144.858Z" fill="#455A64"/>
<path d="M145.83 134.862H136.625L136.822 132.658H145.637L145.83 134.862Z" fill="#263238"/>
<path d="M146.161 131.115H136.295V133.298H146.161V131.115Z" fill="#455A64"/>
<path d="M46.6538 106.808C45.0968 107.728 43.5257 108.621 41.9511 109.507C40.3766 110.393 38.7879 111.264 37.2098 112.132C35.6317 113 34.0466 113.855 32.4334 114.698L30.0328 115.956C29.228 116.364 28.4266 116.786 27.6147 117.186C28.3915 116.723 29.1788 116.276 29.959 115.819L32.3174 114.484C33.892 113.598 35.4806 112.726 37.0587 111.858C38.6368 110.99 40.2219 110.14 41.8352 109.296C43.4484 108.452 45.037 107.616 46.6538 106.808Z" fill="#DBDBDB"/>
<path d="M28.9541 106.808C30.4584 107.511 31.9486 108.27 33.4318 109.022C34.915 109.774 36.3912 110.551 37.8744 111.313C39.3576 112.076 40.8162 112.87 42.2783 113.668L44.4714 114.867C45.1954 115.278 45.9265 115.679 46.647 116.097C45.8914 115.745 45.1498 115.369 44.3976 115.004L42.1658 113.883C40.6826 113.131 39.2064 112.354 37.7268 111.591C36.2471 110.828 34.785 110.034 33.3228 109.236C31.8607 108.438 30.4057 107.637 28.9541 106.808Z" fill="#DBDBDB"/>
<path d="M64.621 106.808C63.0675 107.728 61.4964 108.621 59.9218 109.507C58.3473 110.393 56.7586 111.264 55.177 112.132C53.5954 113 52.0138 113.855 50.4006 114.698L48 115.956C47.1952 116.364 46.3938 116.786 45.5854 117.186C46.3622 116.723 47.146 116.276 47.9262 115.819L50.2846 114.484C51.8592 113.598 53.4478 112.726 55.0294 111.858C56.611 110.99 58.1926 110.14 59.8059 109.296C61.4191 108.452 63.0042 107.616 64.621 106.808Z" fill="#DBDBDB"/>
<path d="M46.9277 106.808C48.432 107.511 49.9222 108.27 51.409 109.022C52.8957 109.774 54.3683 110.551 55.848 111.313C57.3277 112.076 58.7933 112.87 60.2554 113.668L62.4451 114.867C63.1726 115.278 63.9001 115.679 64.6206 116.097C63.8685 115.745 63.1234 115.369 62.3748 115.004L60.1429 113.883C58.6562 113.131 57.1836 112.354 55.7039 111.591C54.2242 110.828 52.7586 110.034 51.2965 109.236C49.8344 108.438 48.3723 107.637 46.9277 106.808Z" fill="#DBDBDB"/>
<path d="M61.3384 104.319L62.2873 110.031L68.7368 144.858H69.7771L65.0885 110.031L64.3962 104.319H61.3384Z" fill="#DBDBDB"/>
<path d="M64.3962 104.319H61.3384L62.2873 110.031H65.0885L64.3962 104.319Z" fill="#C7C7C7"/>
<path d="M41.083 144.858H42.1234L48.5728 110.031L49.5253 104.319H46.4675L45.7751 110.031L41.083 144.858Z" fill="#DBDBDB"/>
<path d="M46.4673 104.319L45.7749 110.031H48.5726L49.5251 104.319H46.4673Z" fill="#C7C7C7"/>
<path d="M21.7383 144.858H22.7786L29.2281 110.031L30.1805 104.319H27.1228L26.4304 110.031L21.7383 144.858Z" fill="#DBDBDB"/>
<path d="M26.4302 110.031H29.2279L30.1803 104.319H27.1226L26.4302 110.031Z" fill="#C7C7C7"/>
<path d="M23.3872 107.001H70.6456V102.024H52.9562L47.0094 63.7494H25.1902L23.3872 107.001Z" fill="#DBDBDB"/>
<path d="M23.3872 107.001H25.9635L27.6435 63.7494H25.1902L23.3872 107.001Z" fill="#C7C7C7"/>
<path d="M17.9139 123.137H9.47168V124.62H17.9139V123.137Z" fill="#455A64"/>
<path d="M22.4941 144.858H21.5803L14.1468 110.147L13.7215 108.168L12.3859 101.936L11.8903 99.6132L10.017 90.8932L9.36328 87.839H12.6108L13.1416 90.8932L13.4895 92.8966L13.7215 94.2322L15.0536 101.936L15.4859 104.414L22.4941 144.858Z" fill="#455A64"/>
<path d="M12.6108 87.839L13.1416 90.8932H10.017L9.36328 87.839H12.6108Z" fill="#263238"/>
<path d="M15.4857 104.414L14.1466 110.147L13.7213 108.168L12.3857 101.936L11.8901 99.613L13.4893 92.8965L13.7213 94.2321L15.0534 101.936L15.4857 104.414Z" fill="#263238"/>
<path d="M18.0766 87.839L17.4228 90.8932L15.0539 101.936L13.7219 108.168L5.85952 144.858H4.94922L12.3863 101.936L13.7219 94.2322L14.2983 90.8932L14.829 87.839H18.0766Z" fill="#455A64"/>
<path d="M18.0761 87.839L17.4224 90.8932H14.2979L14.8286 87.839H18.0761Z" fill="#263238"/>
<path d="M93.6591 123.137H85.2168V124.62H93.6591V123.137Z" fill="#455A64"/>
<path d="M98.2393 144.858H97.3254L89.8919 110.147L89.4666 108.168L88.131 101.936L87.6355 99.6132L85.7621 90.8932L85.1084 87.839H88.356L88.8867 90.8932L89.2346 92.8966L89.4666 94.2322L90.7987 101.936L91.231 104.414L98.2393 144.858Z" fill="#455A64"/>
<path d="M88.356 87.839L88.8867 90.8932H85.7621L85.1084 87.839H88.356Z" fill="#263238"/>
<path d="M91.2308 104.414L89.8917 110.147L89.4664 108.168L88.1308 101.936L87.6353 99.613L89.2344 92.8965L89.4664 94.2321L90.7985 101.936L91.2308 104.414Z" fill="#263238"/>
<path d="M93.8207 87.839L93.167 90.8932L90.7981 101.936L89.466 108.168L81.6037 144.858H80.6934L88.1304 101.936L89.466 94.2322L90.0424 90.8932L90.5731 87.839H93.8207Z" fill="#455A64"/>
<path d="M93.8208 87.839L93.167 90.8932H90.0425L90.5732 87.839H93.8208Z" fill="#263238"/>
<path d="M100.148 85.6071H3.04053V87.8389H100.148V85.6071Z" fill="#455A64"/>
<path d="M103.188 81.3439H0V85.6072H103.188V81.3439Z" fill="#37474F"/>
<path d="M8.34312 81.1329H23.4844L23.4844 66.5857H8.34312L8.34312 81.1329Z" fill="#EBEBEB"/>
<path d="M2.58973 81.1329H8.34326L8.34326 66.5857H2.58973L2.58973 81.1329Z" fill="#C7C7C7"/>
<path d="M23.4845 73.8575H8.34326L20.1667 74.2336L23.4845 73.8575Z" fill="#C7C7C7"/>
<path d="M8.34326 79.3756H23.4845L11.6611 79.7517L8.34326 79.3756Z" fill="#C7C7C7"/>
<path d="M23.4851 69.7911H13.8936L22.4202 70.0969L23.4851 69.7911Z" fill="#C7C7C7"/>
<path d="M8.34326 77.2351H17.9348L9.40821 77.5409L8.34326 77.2351Z" fill="#C7C7C7"/>
<path d="M19.8543 68.1743H9.03613L10.8392 68.3571L19.8543 68.1743Z" fill="#C7C7C7"/>
<path d="M22.0119 75.4182H11.1973L13.0003 75.601L22.0119 75.4182Z" fill="#C7C7C7"/>
<path d="M15.3623 71.1794H8.34351L7.09229 71.668L15.3623 71.1794Z" fill="#EBEBEB"/>
<path d="M25.4175 71.1794H18.3987L17.1475 71.668L25.4175 71.1794Z" fill="#DBDBDB"/>
<path d="M16.4131 77.7167H23.4284L24.6831 78.2052L16.4131 77.7167Z" fill="#DBDBDB"/>
<path d="M8.34337 76.0577H2.70933L1.45459 76.5463L8.34337 76.0577Z" fill="#C7C7C7"/>
<path d="M6.37861 73.8576H2.00635L2.58978 73.4604L6.37861 73.8576Z" fill="#C7C7C7"/>
<path d="M147.723 7.51086H70.4526V110.143H147.723V7.51086Z" fill="#B00037"/>
<g opacity="0.1">
<path opacity="0.1" d="M147.723 7.51086H70.4526V110.143H147.723V7.51086Z" fill="#020100"/>
</g>
<path d="M145.621 7.51086H68.3506V110.143H145.621V7.51086Z" fill="#B00037"/>
<path d="M141.226 11.6076L73.019 12.4767L74.1971 104.937L142.405 104.068L141.226 11.6076Z" fill="#EBEBEB"/>
<path d="M73.5728 11.3197L71.5718 103.766L139.769 105.242L141.77 12.7959L73.5728 11.3197Z" fill="#DBDBDB"/>
<path d="M140.771 12.0414H72.5576V104.509H140.771V12.0414Z" fill="white"/>
<path d="M87.7026 40.0568C85.882 40.1025 82.3497 40.1728 80.5291 40.1939C80.4904 38.0851 80.501 35.1362 80.4834 33.0134V32.8376H80.6591C82.7925 32.8587 85.7343 32.8376 87.8396 32.8798C87.815 34.7039 87.7518 38.2362 87.7026 40.0568ZM87.7026 40.0568C87.6569 38.2995 87.5936 34.7848 87.569 33.0274L87.7026 33.161C85.6676 33.1856 82.7258 33.1926 80.6732 33.2032L80.8489 33.0274C80.8489 35.1046 80.8314 38.0218 80.8068 40.0568L80.6732 39.9232C82.4305 39.9443 85.9628 40.0146 87.7026 40.0568Z" fill="#C7C7C7"/>
<path d="M91.4453 34.219C96.6084 33.98 101.814 33.98 106.977 34.219C101.81 34.4616 96.6084 34.458 91.4453 34.219Z" fill="#C7C7C7"/>
<path d="M91.4453 35.9167C104.689 35.6812 119.412 35.6882 132.666 35.9167C119.408 36.1416 104.692 36.1486 91.4453 35.9167Z" fill="#C7C7C7"/>
<path d="M81.1792 36.1696C81.4393 36.3875 81.6853 36.6125 81.9313 36.8409C82.1774 37.0694 82.4129 37.3048 82.6343 37.5438C83.1088 38.0113 83.5657 38.4928 84.0156 38.9813L83.2107 39.0341C83.8498 37.6953 84.5826 36.4034 85.4038 35.1679C85.8115 34.554 86.245 33.9542 86.7043 33.3684C87.1677 32.7766 87.6703 32.2165 88.2086 31.6919C87.9935 32.4116 87.7305 33.1161 87.4213 33.8007C87.1225 34.479 86.7921 35.1433 86.4372 35.79C85.7289 37.0871 84.9327 38.3342 84.0542 39.5226L83.6114 40.1131L83.2599 39.5753C82.8873 39.0235 82.5218 38.4682 82.1703 37.9023C82.0016 37.6141 81.8189 37.333 81.6572 37.0412C81.4955 36.7495 81.3233 36.4719 81.1792 36.1696Z" fill="#263238"/>
<path d="M87.7026 53.2649C85.882 53.3106 82.3497 53.3809 80.5291 53.402C80.4904 51.2932 80.501 48.3479 80.4834 46.2215V46.0458H80.6591C82.7925 46.0669 85.7343 46.0458 87.8396 46.0915C87.815 47.9156 87.7518 51.4443 87.7026 53.2649ZM87.7026 53.2649C87.6569 51.5076 87.5936 47.9929 87.569 46.2356L87.7026 46.3726C85.6676 46.3972 82.7258 46.4008 80.6732 46.4113L80.8489 46.2356C80.8489 48.3127 80.8314 51.2334 80.8068 53.2649L80.6732 53.1314C82.4305 53.1525 85.9628 53.2228 87.7026 53.2649Z" fill="#C7C7C7"/>
<path d="M91.4453 47.4165C96.6084 47.1775 101.814 47.174 106.977 47.4165C101.81 47.6555 96.6084 47.6555 91.4453 47.4165Z" fill="#C7C7C7"/>
<path d="M91.4453 49.1106C104.689 48.8787 119.412 48.8822 132.666 49.1106C119.408 49.3391 104.692 49.3461 91.4453 49.1106Z" fill="#C7C7C7"/>
<path d="M81.1792 49.3637C81.4393 49.5816 81.6853 49.8066 81.9313 50.035C82.1774 50.2635 82.4129 50.499 82.6343 50.738C83.1088 51.2089 83.5657 51.6904 84.0156 52.179L83.2107 52.2282C83.8513 50.897 84.5841 49.6122 85.4038 48.3831C85.8115 47.7692 86.245 47.1694 86.7043 46.5836C87.1668 45.9911 87.6694 45.4309 88.2086 44.9071C87.9936 45.6269 87.7306 46.3314 87.4213 47.0159C87.1225 47.6978 86.7921 48.3585 86.4372 49.0087C85.7288 50.3047 84.9327 51.5506 84.0542 52.7378L83.6114 53.3318L83.2599 52.7905C82.8873 52.2422 82.5218 51.6869 82.1703 51.1175C82.0016 50.8293 81.8189 50.5482 81.6572 50.2565C81.4955 49.9647 81.3233 49.666 81.1792 49.3637Z" fill="#263238"/>
<path d="M87.7026 66.4486C85.882 66.4943 82.3497 66.5646 80.5291 66.5857C80.4904 64.4769 80.501 61.528 80.4834 59.4052V59.24H80.6591C82.7925 59.2611 85.7343 59.24 87.8396 59.2822C87.815 61.1063 87.7518 64.635 87.7026 66.4591V66.4486ZM87.7026 66.4486C87.6569 64.6913 87.5936 61.1766 87.569 59.4192L87.7026 59.5528C85.6676 59.5774 82.7258 59.5844 80.6732 59.595L80.8489 59.4192C80.8489 61.4964 80.8314 64.4136 80.8068 66.4486L80.6732 66.315C82.4305 66.3361 85.9628 66.4064 87.7026 66.4486Z" fill="#C7C7C7"/>
<path d="M91.4453 60.6108C96.6084 60.3718 101.814 60.3718 106.977 60.6108C101.81 60.8498 96.6084 60.8498 91.4453 60.6108Z" fill="#C7C7C7"/>
<path d="M91.4453 62.3084C104.689 62.0729 119.412 62.0799 132.666 62.3084C119.408 62.5333 104.692 62.5404 91.4453 62.3084Z" fill="#C7C7C7"/>
<path d="M87.7026 79.6429C85.882 79.6886 82.3497 79.7589 80.5291 79.7799C80.4904 77.6711 80.501 74.7258 80.4834 72.5994V72.4237H80.6591C82.7925 72.4448 85.7343 72.4237 87.8396 72.4694C87.815 74.29 87.7518 77.8223 87.7026 79.6429ZM87.7026 79.6429C87.6569 77.8855 87.5936 74.3708 87.569 72.6135L87.7026 72.7506C85.6676 72.7752 82.7258 72.7787 80.6732 72.7892L80.8489 72.6135C80.8489 74.6907 80.8314 77.6114 80.8068 79.6429L80.6732 79.5093C82.4305 79.5304 85.9628 79.6007 87.7026 79.6429Z" fill="#C7C7C7"/>
<path d="M91.4453 73.8083C96.6084 73.5658 101.814 73.5658 106.977 73.8083C101.81 74.0473 96.6084 74.0473 91.4453 73.8083Z" fill="#C7C7C7"/>
<path d="M91.4453 75.5024C104.689 75.2704 119.412 75.2739 132.666 75.5024C119.408 75.7308 104.692 75.7379 91.4453 75.5024Z" fill="#C7C7C7"/>
<path d="M87.7026 92.8404C85.882 92.8861 82.3497 92.9528 80.5291 92.9774C80.4904 90.8686 80.501 87.9198 80.4834 85.7969V85.6212H80.6591C82.7925 85.6423 85.7343 85.6212 87.8396 85.6634C87.815 87.4875 87.7518 91.0163 87.7026 92.8404ZM87.7026 92.8404C87.6569 91.083 87.5936 87.5508 87.569 85.811L87.7026 85.9446C85.6676 85.9692 82.7258 85.9762 80.6732 85.9867L80.8489 85.811C80.8489 87.8882 80.8314 90.8054 80.8068 92.8404L80.6732 92.7068C82.4305 92.7279 85.9628 92.7982 87.7026 92.8404Z" fill="#C7C7C7"/>
<path d="M91.4453 87.006C96.6084 86.767 101.814 86.767 106.977 87.006C101.81 87.245 96.6084 87.245 91.4453 87.006Z" fill="#C7C7C7"/>
<path d="M91.4453 88.7001C104.689 88.4646 119.412 88.4717 132.666 88.7001C119.408 88.925 104.692 88.9321 91.4453 88.7001Z" fill="#C7C7C7"/>
<path d="M100.25 21.8719H99.3044V25.0351C99.3044 25.1218 99.2699 25.2049 99.2086 25.2662C99.1473 25.3275 99.0642 25.3619 98.9775 25.3619C98.8908 25.3619 98.8077 25.3275 98.7464 25.2662C98.6851 25.2049 98.6507 25.1218 98.6507 25.0351V21.8719H97.7087C97.6217 21.8709 97.5386 21.8357 97.4774 21.7739C97.4162 21.712 97.3819 21.6285 97.3819 21.5415C97.3814 21.4984 97.3895 21.4557 97.4058 21.4158C97.422 21.376 97.4461 21.3398 97.4765 21.3093C97.507 21.2789 97.5432 21.2548 97.5831 21.2385C97.6229 21.2223 97.6657 21.2141 97.7087 21.2146H100.25C100.293 21.2141 100.336 21.2223 100.375 21.2385C100.415 21.2548 100.452 21.2789 100.482 21.3093C100.512 21.3398 100.537 21.376 100.553 21.4158C100.569 21.4557 100.577 21.4984 100.577 21.5415C100.572 21.6269 100.536 21.7076 100.476 21.7684C100.415 21.8292 100.335 21.866 100.25 21.8719Z" fill="#B00037"/>
<path d="M103.115 24.3955H101.67L101.379 25.1687C101.354 25.2303 101.311 25.2831 101.256 25.3201C101.201 25.3571 101.136 25.3766 101.069 25.3761C101.031 25.3759 100.993 25.37 100.957 25.3585C100.877 25.3242 100.812 25.2613 100.776 25.182C100.739 25.1028 100.734 25.0128 100.76 24.9297L102.074 21.415C102.102 21.3539 102.146 21.3019 102.202 21.2651C102.258 21.2284 102.324 21.2085 102.391 21.2076C102.458 21.2085 102.523 21.2284 102.579 21.2651C102.635 21.3019 102.68 21.3539 102.707 21.415L104.022 24.9297C104.048 25.0128 104.042 25.1028 104.006 25.182C103.969 25.2613 103.905 25.3242 103.825 25.3585C103.788 25.37 103.75 25.3759 103.712 25.3761C103.646 25.3769 103.582 25.3574 103.527 25.3203C103.472 25.2833 103.43 25.2303 103.406 25.1687L103.115 24.3955ZM102.872 23.7417L102.391 22.4624L101.909 23.7417H102.872Z" fill="#B00037"/>
<path d="M104.601 24.3428C104.627 24.3114 104.659 24.2854 104.695 24.2662C104.73 24.2471 104.77 24.2352 104.81 24.2313C104.851 24.2274 104.892 24.2315 104.931 24.2434C104.969 24.2553 105.006 24.2747 105.037 24.3006C105.356 24.5723 105.754 24.7327 106.172 24.7575C106.438 24.7637 106.698 24.6863 106.917 24.5361C106.991 24.4909 107.052 24.4286 107.096 24.3545C107.14 24.2805 107.166 24.1969 107.17 24.1108C107.172 24.0426 107.154 23.9755 107.118 23.9175C107.072 23.8463 107.01 23.7863 106.938 23.7418C106.687 23.6004 106.412 23.5052 106.126 23.4606C105.862 23.4167 105.605 23.3388 105.36 23.2286C105.135 23.1297 104.942 22.9688 104.805 22.7647C104.715 22.6176 104.669 22.4483 104.671 22.2762C104.677 22.1045 104.723 21.9365 104.806 21.7858C104.888 21.635 105.005 21.5056 105.146 21.408C105.449 21.1999 105.808 21.0906 106.176 21.0952C106.646 21.1192 107.098 21.2845 107.473 21.5697C107.539 21.6153 107.584 21.6851 107.6 21.764C107.615 21.8429 107.598 21.9247 107.553 21.9915C107.532 22.0258 107.505 22.0556 107.472 22.0789C107.439 22.1022 107.401 22.1187 107.362 22.1272C107.323 22.1357 107.282 22.1362 107.242 22.1286C107.203 22.121 107.165 22.1054 107.132 22.0829C106.86 21.86 106.526 21.7263 106.176 21.6998C105.937 21.6963 105.704 21.7676 105.508 21.9036C105.443 21.9428 105.389 21.9972 105.349 22.0621C105.31 22.127 105.287 22.2005 105.283 22.2762C105.279 22.3354 105.294 22.3945 105.325 22.4449C105.367 22.5066 105.421 22.5592 105.483 22.5995C105.713 22.7323 105.966 22.8206 106.228 22.8596C106.512 22.909 106.788 22.9928 107.051 23.1091C107.291 23.2155 107.497 23.3872 107.645 23.6047C107.739 23.7569 107.788 23.9321 107.789 24.1108C107.783 24.2941 107.733 24.4734 107.644 24.6336C107.555 24.7938 107.429 24.9303 107.276 25.0317C106.956 25.2626 106.57 25.3857 106.176 25.3831C105.617 25.3581 105.082 25.1493 104.654 24.7892C104.621 24.7634 104.593 24.7314 104.573 24.695C104.552 24.6586 104.539 24.6185 104.534 24.577C104.53 24.5355 104.533 24.4934 104.544 24.4532C104.556 24.413 104.575 24.3755 104.601 24.3428Z" fill="#B00037"/>
<path d="M108.699 25.0492V21.5697C108.699 21.483 108.734 21.3998 108.795 21.3385C108.856 21.2772 108.939 21.2428 109.026 21.2428C109.113 21.2428 109.196 21.2772 109.257 21.3385C109.319 21.3998 109.353 21.483 109.353 21.5697V23.2778L111.279 21.3447C111.309 21.3137 111.345 21.289 111.385 21.2722C111.425 21.2553 111.468 21.2466 111.511 21.2466C111.554 21.2466 111.597 21.2553 111.637 21.2722C111.677 21.289 111.713 21.3137 111.743 21.3447C111.804 21.4065 111.838 21.4899 111.838 21.5767C111.838 21.6635 111.804 21.7468 111.743 21.8087L110.435 23.1091L111.757 24.8418C111.785 24.8746 111.806 24.9127 111.819 24.9538C111.831 24.9949 111.835 25.0381 111.831 25.0809C111.826 25.1236 111.813 25.165 111.792 25.2025C111.771 25.2399 111.742 25.2727 111.708 25.2987C111.651 25.3495 111.577 25.3771 111.5 25.3761C111.454 25.3751 111.408 25.3638 111.366 25.3432C111.324 25.3226 111.287 25.293 111.258 25.2566L109.972 23.573L109.353 24.2057V25.0492C109.353 25.1359 109.319 25.219 109.257 25.2803C109.196 25.3416 109.113 25.3761 109.026 25.3761C108.939 25.3761 108.856 25.3416 108.795 25.2803C108.734 25.219 108.699 25.1359 108.699 25.0492Z" fill="#B00037"/>
<path d="M112.763 24.3428C112.788 24.3111 112.819 24.2848 112.855 24.2654C112.89 24.246 112.929 24.234 112.97 24.2301C113.01 24.2262 113.051 24.2304 113.089 24.2425C113.128 24.2546 113.164 24.2744 113.195 24.3006C113.514 24.5718 113.912 24.7322 114.33 24.7575C114.595 24.7637 114.856 24.6863 115.075 24.5361C115.149 24.4915 115.212 24.4295 115.256 24.3553C115.301 24.2812 115.327 24.1973 115.332 24.1108C115.334 24.0421 115.314 23.9745 115.275 23.9175C115.23 23.8471 115.17 23.7872 115.1 23.7418C114.847 23.5999 114.571 23.5046 114.284 23.4606C114.02 23.4167 113.762 23.3388 113.518 23.2286C113.293 23.1304 113.102 22.9693 112.966 22.7647C112.874 22.6186 112.827 22.4489 112.829 22.2762C112.835 22.1045 112.881 21.9365 112.963 21.7858C113.046 21.635 113.162 21.5056 113.304 21.408C113.606 21.1999 113.966 21.0906 114.334 21.0952C114.804 21.1185 115.256 21.2839 115.63 21.5697C115.699 21.6163 115.745 21.6881 115.76 21.7691C115.776 21.8502 115.758 21.934 115.711 22.002C115.665 22.0701 115.593 22.1168 115.512 22.132C115.431 22.1471 115.347 22.1295 115.279 22.0829C115.007 21.86 114.673 21.7263 114.323 21.6998C114.085 21.6963 113.851 21.7676 113.655 21.9036C113.591 21.9435 113.537 21.998 113.498 22.0628C113.459 22.1276 113.436 22.2007 113.43 22.2762C113.428 22.3353 113.443 22.3938 113.472 22.4449C113.516 22.5065 113.571 22.5591 113.634 22.5995C113.863 22.7324 114.114 22.8206 114.376 22.8596C114.658 22.9095 114.933 22.9933 115.195 23.1091C115.435 23.2155 115.641 23.3872 115.789 23.6047C115.884 23.7562 115.934 23.9318 115.933 24.1108C115.927 24.2941 115.877 24.4734 115.788 24.6336C115.699 24.7938 115.572 24.9303 115.42 25.0317C115.1 25.2631 114.714 25.3862 114.32 25.3831C113.761 25.3565 113.227 25.1479 112.798 24.7892C112.766 24.7625 112.739 24.7296 112.72 24.6926C112.701 24.6555 112.689 24.615 112.686 24.5734C112.683 24.5318 112.688 24.49 112.701 24.4504C112.714 24.4108 112.735 24.3742 112.763 24.3428Z" fill="#B00037"/>
<path d="M122.997 5.6377H89.4912V15.8514H122.997V5.6377Z" fill="#C7C7C7"/>
<path d="M116.488 0.0527344H95.6953L94.7744 5.63757H117.718L116.488 0.0527344ZM106.243 4.05947C106 4.05947 105.763 3.98753 105.561 3.85275C105.36 3.71797 105.202 3.5264 105.11 3.30226C105.017 3.07812 104.992 2.83149 105.04 2.59355C105.087 2.35561 105.204 2.13704 105.375 1.9655C105.547 1.79395 105.766 1.67712 106.004 1.62979C106.241 1.58246 106.488 1.60676 106.712 1.6996C106.936 1.79244 107.128 1.94966 107.263 2.15137C107.398 2.35309 107.469 2.59025 107.469 2.83285C107.47 2.99406 107.439 3.15378 107.377 3.30281C107.316 3.45184 107.225 3.58724 107.111 3.70124C106.997 3.81523 106.862 3.90557 106.713 3.96705C106.564 4.02853 106.404 4.05994 106.243 4.05947Z" fill="#C7C7C7"/>
<path d="M117.718 5.63748H94.7744L94.9818 4.38977H117.441L117.718 5.63748Z" fill="#A6A6A6"/>
<path d="M0 144.858C48.0457 144.643 101.947 144.64 149.993 144.858C101.947 145.076 48.0457 145.072 0 144.858Z" fill="#263238"/>
<path d="M71.369 144.854C70.5115 145.135 46.0001 144.822 45.0757 144.214C44.7242 143.993 44.5591 140.419 44.4852 136.095V135.958C44.4677 135.069 44.4571 134.148 44.4536 133.22C44.4536 133.09 44.4536 132.964 44.4536 132.837L45.6381 120.121L62.0341 120.279L60.4208 132.876L60.3997 133.375L60.3013 135.983V136.25C60.3013 136.25 69.6293 140.566 70.5747 141.339C71.5202 142.113 72.2301 144.583 71.369 144.854Z" fill="#AD6359"/>
<path d="M71.369 144.854C70.5115 145.135 46.0001 144.822 45.0757 144.214C44.7242 143.993 44.5591 140.419 44.4852 136.096V135.958C44.4677 135.069 44.4571 134.148 44.4536 133.221C44.4536 133.09 44.4536 132.964 44.4536 132.837L60.4208 132.876L60.3997 133.375L60.3013 135.983V136.25C60.3013 136.25 69.6293 140.566 70.5747 141.339C71.5202 142.113 72.2301 144.583 71.369 144.854Z" fill="#EBEBEB"/>
<path d="M71.3729 144.854C70.93 144.998 64.2732 144.984 57.764 144.854C56.453 144.826 55.1526 144.798 53.8979 144.763C49.255 144.636 45.4205 144.446 45.0655 144.214C44.7105 143.982 44.5488 140.517 44.4785 136.275C44.4785 136.215 44.4785 136.155 44.4785 136.096C44.4785 136.036 44.4785 136.001 44.4785 135.955H44.4961L60.2911 135.983V136.25C60.2911 136.25 69.6226 140.566 70.568 141.336C71.5135 142.106 72.2305 144.58 71.3729 144.854Z" fill="#B00037"/>
<path d="M71.106 143.902C66.9763 143.747 50.3026 143.515 46.208 143.677C46.1729 143.677 46.1729 143.701 46.208 143.705C50.2991 143.947 66.9727 144.056 71.106 143.968C71.1939 143.968 71.1939 143.905 71.106 143.902Z" fill="#263238"/>
<path d="M62.0592 136.05C60.4389 135.727 58.4461 135.952 57.1879 137.104C57.1386 137.15 57.1879 137.217 57.2581 137.203C58.8171 136.721 60.4231 136.408 62.0487 136.268C62.0776 136.269 62.1058 136.259 62.1272 136.24C62.1487 136.22 62.1615 136.193 62.1629 136.164C62.1643 136.135 62.1541 136.107 62.1347 136.086C62.1153 136.064 62.0881 136.051 62.0592 136.05Z" fill="#263238"/>
<path d="M63.2223 136.774C61.602 136.451 59.6092 136.672 58.3544 137.828C58.3052 137.874 58.3544 137.944 58.4212 137.927C59.9813 137.445 61.5884 137.132 63.2152 136.992C63.2441 136.993 63.2722 136.982 63.2933 136.962C63.3144 136.943 63.3268 136.915 63.3277 136.886C63.3286 136.858 63.3181 136.829 63.2983 136.808C63.2785 136.787 63.2512 136.775 63.2223 136.774Z" fill="#263238"/>
<path d="M64.3889 137.495C62.7651 137.171 60.7758 137.396 59.5175 138.549C59.4683 138.595 59.5175 138.661 59.5843 138.647C61.144 138.164 62.7513 137.851 64.3783 137.712C64.4072 137.714 64.4355 137.704 64.4569 137.684C64.4783 137.665 64.4912 137.638 64.4926 137.609C64.494 137.58 64.4838 137.552 64.4644 137.53C64.4449 137.509 64.4178 137.496 64.3889 137.495Z" fill="#263238"/>
<path d="M57.7743 144.854C56.4633 144.826 55.1629 144.798 53.9081 144.763C49.2652 144.636 45.4307 144.446 45.0757 144.214C44.7207 143.982 44.5591 140.517 44.4888 136.275C44.4888 136.215 44.4888 136.155 44.4888 136.096C44.4888 136.036 44.4888 136.001 44.4888 135.955H44.5063C46.6679 137.473 54.2947 142.538 57.7743 144.854Z" fill="#263238"/>
<path d="M61.2436 136.039H43.5929C43.5929 136.039 47.1357 94.8086 46.9986 94.0881C46.8229 93.1673 45.779 88.9953 44.3907 83.544C43.9549 81.8359 43.4839 80.0083 42.9848 78.1104C41.6668 72.9824 40.2153 67.3765 38.95 62.4981C37.0485 55.1911 35.5688 51.4269 35.5688 51.4269H50.5273C50.5273 51.4269 62.8287 86.637 63.3173 93.9124C63.7496 100.26 61.2436 136.039 61.2436 136.039Z" fill="#263238"/>
<path d="M60.4592 133.027C57.7635 132.971 58.5402 132.95 55.8444 132.922C54.5229 132.922 45.8522 132.837 44.6185 133.041C44.5939 133.041 44.5939 133.09 44.6185 133.097C45.8522 133.301 54.5229 133.224 55.8444 133.21C58.5402 133.182 57.7635 133.161 60.4592 133.104C60.4695 133.104 60.4793 133.1 60.4866 133.093C60.4938 133.086 60.4979 133.076 60.4979 133.066C60.4979 133.056 60.4938 133.046 60.4866 133.038C60.4793 133.031 60.4695 133.027 60.4592 133.027Z" fill="#37474F"/>
<path d="M50.3199 91.5751C49.74 89.0234 48.8753 86.5245 48.1197 84.0185C46.5896 78.9293 45.049 73.8435 43.4979 68.7613C42.7246 66.2202 39.1362 56.7094 38.7812 55.4441C38.6371 54.931 38.5597 55.2122 38.746 55.8659C39.1186 57.1839 45.2482 76.0367 46.8017 81.2033C47.5796 83.7947 48.3587 86.3839 49.1389 88.9707C49.5329 90.2027 49.8522 91.4574 50.0949 92.7279C50.3028 94.0576 50.3547 95.407 50.2496 96.7487C50.0809 99.448 49.7681 102.147 49.522 104.832L48.7734 112.916C48.2767 118.291 47.7846 123.665 47.2972 129.038C47.2375 129.72 47.1777 130.398 47.125 131.08C47.125 131.309 47.4519 131.291 47.4765 131.08C48.0564 125.766 48.5028 120.434 48.9984 115.113C49.4939 109.792 49.9895 104.523 50.4816 99.2265C50.6081 97.898 50.7487 96.5659 50.7487 95.2304C50.7419 93.9998 50.5981 92.7738 50.3199 91.5751Z" fill="#37474F"/>
<path d="M48.8434 51.4269C47.789 59.4614 45.8313 72.6169 44.3903 83.5476C41.0127 70.3042 35.5825 51.4304 35.5825 51.4304L48.8434 51.4269Z" fill="#37474F"/>
<path d="M53.117 145.097C52.2559 145.378 27.7445 145.153 26.8201 144.552C26.4687 144.33 26.2859 140.756 26.198 136.433V136.296C26.1769 135.407 26.1629 134.489 26.1559 133.558C26.1559 133.431 26.1559 133.301 26.1559 133.175C26.0961 126.933 26.546 120.459 26.546 120.459L42.5659 120.561L42.1195 133.157V133.656L42.0282 136.264V136.531C42.0282 136.531 51.3702 140.816 52.3227 141.582C53.2752 142.348 53.9746 144.819 53.117 145.097Z" fill="#AD6359"/>
<path d="M53.1174 145.097C52.2563 145.378 27.7449 145.153 26.8205 144.552C26.4691 144.331 26.2863 140.756 26.1984 136.433V136.296C26.1773 135.407 26.1633 134.489 26.1562 133.558C26.1562 133.431 26.1562 133.301 26.1562 133.175L42.1199 133.157V133.656L42.0286 136.264V136.531C42.0286 136.531 51.3706 140.816 52.3231 141.582C53.2755 142.348 53.975 144.819 53.1174 145.097Z" fill="#EBEBEB"/>
<path d="M53.1172 145.097C52.2561 145.378 27.7447 145.153 26.8203 144.552C26.4689 144.33 26.2861 140.756 26.1982 136.433V136.296L42.0143 136.264V136.531C42.0143 136.531 51.3563 140.816 52.3088 141.582C53.2613 142.348 53.9748 144.819 53.1172 145.097Z" fill="#B00037"/>
<path d="M52.8541 144.144C48.7243 144.004 32.0507 143.835 27.956 144.011C27.9209 144.011 27.9209 144.035 27.956 144.035C32.0471 144.264 48.7208 144.299 52.8541 144.211C52.9349 144.207 52.9349 144.148 52.8541 144.144Z" fill="#263238"/>
<path d="M43.7717 136.324C42.148 136.008 40.1586 136.24 38.9039 137.378C38.8582 137.424 38.9215 137.491 38.9742 137.477C40.5319 136.987 42.1382 136.668 43.7647 136.524C43.7861 136.518 43.805 136.505 43.8186 136.488C43.8323 136.47 43.8401 136.449 43.8409 136.427C43.8417 136.404 43.8354 136.383 43.823 136.364C43.8106 136.346 43.7926 136.332 43.7717 136.324Z" fill="#263238"/>
<path d="M44.9392 137.045C43.3154 136.725 41.3261 136.957 40.0714 138.099C40.0257 138.145 40.089 138.211 40.1417 138.197C41.7008 137.717 43.3067 137.405 44.9322 137.266C44.9616 137.267 44.9901 137.256 45.0115 137.236C45.0329 137.216 45.0455 137.188 45.0464 137.159C45.0474 137.129 45.0366 137.101 45.0165 137.079C44.9964 137.058 44.9686 137.045 44.9392 137.045Z" fill="#263238"/>
<path d="M46.106 137.762C44.4822 137.442 42.4929 137.674 41.2416 138.816C41.1924 138.858 41.2416 138.928 41.3084 138.911C42.8671 138.427 44.4731 138.111 46.0989 137.969C46.1125 137.969 46.1261 137.967 46.1389 137.962C46.1516 137.958 46.1633 137.95 46.1733 137.941C46.1832 137.932 46.1913 137.921 46.1969 137.908C46.2025 137.896 46.2057 137.882 46.2061 137.869C46.2066 137.855 46.2044 137.842 46.1996 137.829C46.1948 137.816 46.1875 137.804 46.1782 137.794C46.1689 137.785 46.1578 137.776 46.1454 137.771C46.133 137.765 46.1196 137.762 46.106 137.762Z" fill="#263238"/>
<path d="M50.4393 51.4269C50.1317 55.1208 49.4691 58.7766 48.4605 62.3435C48.3305 62.8109 48.1864 63.2714 48.0317 63.7142C48.0317 63.7142 46.7102 64.3328 44.1023 65.932C44.1023 65.932 43.9336 71.6925 43.7508 78.1139C43.561 85.2944 43.3642 93.3043 43.3994 95.0019C43.5505 101.356 42.6121 136.299 42.6121 136.299L24.9648 136.377C24.9648 136.377 28.1281 97.3638 28.1281 95.023C28.0929 91.2799 28.9786 74.7433 29.6605 62.6879C30.0787 55.2579 30.4231 51.4409 30.4231 51.4409L50.4393 51.4269Z" fill="#263238"/>
<path d="M42.025 133.161C39.3293 133.119 40.1025 133.091 37.4067 133.08C36.0887 133.08 27.418 133.034 26.1843 133.245C26.1562 133.245 26.1597 133.294 26.1843 133.298C27.418 133.498 36.0887 133.382 37.4102 133.365C40.106 133.326 39.3293 133.308 42.025 133.242C42.0337 133.239 42.0414 133.234 42.0468 133.226C42.0522 133.219 42.0551 133.21 42.0551 133.201C42.0551 133.192 42.0522 133.183 42.0468 133.176C42.0414 133.169 42.0337 133.163 42.025 133.161Z" fill="#37474F"/>
<path d="M31.9202 53.989C31.5968 63.8301 31.2559 71.7698 30.8166 81.6144C30.3773 91.459 29.7833 101.36 28.9608 111.212C28.5004 116.716 28.0681 124.458 27.4741 129.952C27.4741 129.987 27.5268 130.001 27.5304 129.952C28.8132 120.185 29.5267 108.108 30.1593 98.2775C30.792 88.4469 31.2137 78.5953 31.5476 68.7542C31.7339 63.1869 31.878 59.5281 32.0432 53.9609C32.0467 53.9011 31.9237 53.9082 31.9202 53.989Z" fill="#37474F"/>
<path d="M32.5986 60.3857C33.0344 60.2732 33.4983 60.2381 33.9412 60.1678C34.2927 60.1116 34.6441 60.0483 34.9956 59.971C35.6745 59.8487 36.3179 59.5774 36.8795 59.1767C37.7581 58.4737 38.7704 55.0047 38.8934 54.7833C39.1043 54.4002 39.1675 54.7341 39.1675 54.7833C39.1675 55.1875 38.2432 58.2382 37.8847 58.8076C37.2309 59.862 36.057 60.2697 34.8866 60.4173C34.5528 60.4595 34.2153 60.4841 33.8779 60.5017C33.4524 60.5403 33.0242 60.5403 32.5986 60.5017C32.5856 60.4985 32.5741 60.491 32.5659 60.4805C32.5577 60.47 32.5532 60.457 32.5532 60.4437C32.5532 60.4304 32.5577 60.4174 32.5659 60.4069C32.5741 60.3964 32.5856 60.3889 32.5986 60.3857Z" fill="#37474F"/>
<path d="M47.9755 63.809C46.2577 64.4327 44.5972 65.2041 43.0127 66.1147C43.0009 66.1217 42.9921 66.1329 42.988 66.146C42.9838 66.1592 42.9846 66.1734 42.9903 66.1859C42.9959 66.1985 43.006 66.2086 43.0185 66.2142C43.0311 66.2199 43.0453 66.2207 43.0584 66.2166C44.7314 65.5137 46.4396 64.8107 48.0739 63.9988C48.0936 63.9831 48.1073 63.961 48.1125 63.9363C48.1178 63.9116 48.1143 63.8859 48.1027 63.8635C48.0911 63.8411 48.072 63.8234 48.0488 63.8135C48.0256 63.8035 47.9997 63.802 47.9755 63.809Z" fill="#37474F"/>
<path d="M48.4778 52.3302C48.4778 52.274 48.3724 52.2599 48.3724 52.3302C48.3732 54.1977 48.2793 56.064 48.0912 57.922C48.0139 58.7867 47.3215 63.5455 45.8243 63.1941C45.5747 63.1378 45.4482 62.8883 45.4095 62.5122C45.4145 62.0186 45.4806 61.5275 45.6064 61.0501C45.7715 60.0519 45.9051 59.0503 45.993 58.0451C46.1652 56.1675 46.144 54.2772 45.9297 52.404C45.9268 52.3936 45.9207 52.3844 45.9121 52.3779C45.9035 52.3714 45.893 52.3678 45.8822 52.3678C45.8715 52.3678 45.861 52.3714 45.8524 52.3779C45.8438 52.3844 45.8377 52.3936 45.8348 52.404C45.8796 55.0068 45.7268 57.6093 45.3779 60.189C45.1916 61.4262 44.566 63.2925 45.8629 63.4858C47.1598 63.6791 48.0385 60.551 48.2002 59.697C48.6113 57.2638 48.7047 54.7874 48.4778 52.3302Z" fill="#37474F"/>
<path d="M45.8666 63.3277C45.7264 63.6482 45.6089 63.9782 45.5152 64.3153C45.42 64.5753 45.3724 64.8503 45.3746 65.1272C45.3746 65.1799 45.4519 65.1834 45.48 65.1483C45.6367 64.9041 45.7553 64.6374 45.8315 64.3575C45.944 64.0517 46.0635 63.7495 46.183 63.4402C46.1979 63.3982 46.1955 63.3521 46.1764 63.3119C46.1573 63.2716 46.123 63.2407 46.081 63.2258C46.0391 63.2109 45.9929 63.2132 45.9527 63.2323C45.9125 63.2514 45.8816 63.2857 45.8666 63.3277Z" fill="#37474F"/>
<path d="M47.4973 32.3527C46.9806 40.2185 47.3427 48.2566 48.3514 49.7117C49.9154 51.9716 60.1818 56.8043 63.6367 57.6865C64.7684 57.9747 67.3307 50.4533 66.575 49.4586C65.8193 48.464 54.6251 44.0987 54.0662 43.5821C53.7675 43.3044 52.1437 36.8374 50.773 32.4511C49.5007 28.3741 47.6555 29.9627 47.4973 32.3527Z" fill="#AD6359"/>
<path d="M59.746 56.6743L63.113 47.2057C63.113 47.2057 55.2753 43.691 54.3474 43.1638C53.9538 42.9459 51.9047 34.9535 50.8327 31.488C50.1298 29.2105 47.9753 28.0788 47.1634 32.6127C46.6889 35.2663 46.2882 48.1055 47.9999 50.2354C49.3671 51.933 59.746 56.6743 59.746 56.6743Z" fill="#455A64"/>
<path d="M58.1923 55.4161C58.3258 54.7132 59.3591 51.8839 59.6263 51.1985C59.8934 50.5131 61.0321 47.733 61.3239 47.016C61.3239 46.9774 61.4012 46.9879 61.3836 47.016C61.1235 47.719 60.1816 50.594 59.9215 51.2934C59.6614 51.9928 58.6 54.8081 58.2274 55.4302C58.2265 55.4325 58.2251 55.4346 58.2234 55.4364C58.2217 55.4382 58.2196 55.4396 58.2173 55.4406C58.215 55.4415 58.2126 55.4421 58.2101 55.4421C58.2076 55.4421 58.2051 55.4417 58.2028 55.4407C58.2005 55.4398 58.1984 55.4384 58.1966 55.4367C58.1948 55.435 58.1934 55.4329 58.1924 55.4306C58.1915 55.4283 58.1909 55.4259 58.1909 55.4234C58.1909 55.4209 58.1913 55.4184 58.1923 55.4161Z" fill="#263238"/>
<path opacity="0.1" d="M56.4493 55.1138C53.286 53.5744 48.8646 51.3039 48.014 50.2389C46.3024 48.1055 46.6995 35.2664 47.1775 32.6128C47.5852 30.3212 48.3409 29.4812 49.0755 29.4988L56.4493 55.1138Z" fill="#020100"/>
<path d="M29.734 51.3705C29.7726 51.4338 51.2122 54.0487 51.4477 53.8695C51.5356 53.8027 52.0663 34.6407 49.8169 29.5514C48.889 27.4426 45.1248 26.339 43.023 28.5673C32.7496 39.4417 29.6848 51.2862 29.734 51.3705Z" fill="#EBEBEB"/>
<path d="M32.9412 59.4967L36.1958 68.6722L80.8578 52.8303L77.6032 43.6547L32.9412 59.4967Z" fill="#B00037"/>
<path opacity="0.2" d="M32.9412 59.4967L36.1958 68.6722L80.8578 52.8303L77.6032 43.6547L32.9412 59.4967Z" fill="#020100"/>
<g opacity="0.1">
<path opacity="0.1" d="M76.9331 45.9333C63.6406 50.7625 48.6891 56.0662 35.3228 60.695C48.6153 55.8658 63.5667 50.5622 76.9331 45.9333Z" fill="black"/>
<path opacity="0.1" d="M77.5797 47.7541C64.2871 52.5798 49.3392 57.8834 35.9834 62.5087C49.2759 57.6796 64.2274 52.3794 77.5937 47.7471L77.5797 47.7541Z" fill="black"/>
<path opacity="0.1" d="M78.2226 49.5712C64.9301 54.4003 49.9786 59.704 36.6123 64.3328C49.9048 59.5037 64.8598 54.2 78.2226 49.5712Z" fill="black"/>
<path opacity="0.1" d="M78.8623 51.3917C65.5698 56.2209 50.6183 61.5246 37.252 66.1534C50.5445 61.3242 65.4959 56.0241 78.8623 51.3917Z" fill="black"/>
</g>
<path d="M32.5213 70.0969C32.5213 70.0969 27.0489 72.7294 25.2037 67.5276C23.3585 62.3259 29.2667 60.92 29.2667 60.92L32.5213 70.0969Z" fill="#FF9ABB"/>
<path d="M29.0166 60.0266L32.8164 70.7391L35.4167 69.8168L31.6169 59.1043L29.0166 60.0266Z" fill="#A6A6A6"/>
<path d="M31.8862 59.005L35.686 69.7175L38.2863 68.7952L34.4865 58.0827L31.8862 59.005Z" fill="#A6A6A6"/>
<path d="M77.5906 43.6453L85.4178 44.7559L88.001 45.1074L86.2437 47.0369L80.8698 52.8326L79.2073 52.3757C79.2073 52.3757 80.202 51.0226 80.216 50.9945L78.5536 50.5376C78.5536 50.5376 79.5517 49.1844 79.5658 49.1563L77.9104 48.7205C77.9104 48.7205 78.9015 47.3462 78.9121 47.3146L77.2602 46.8788C77.2602 46.8788 78.2478 45.5045 78.2619 45.4729L76.6064 45.0371C76.6064 45.0371 77.58 43.6734 77.5906 43.6453Z" fill="#B00037"/>
<path opacity="0.8" d="M77.5906 43.6453L85.4178 44.7559L88.001 45.1074L86.2437 47.0369L80.8698 52.8326L79.2073 52.3757C79.2073 52.3757 80.202 51.0226 80.216 50.9945L78.5536 50.5376C78.5536 50.5376 79.5517 49.1844 79.5658 49.1563L77.9104 48.7205C77.9104 48.7205 78.9015 47.3462 78.9121 47.3146L77.2602 46.8788C77.2602 46.8788 78.2478 45.5045 78.2619 45.4729L76.6064 45.0371C76.6064 45.0371 77.58 43.6734 77.5906 43.6453Z" fill="white"/>
<path d="M85.4175 44.756L88.0008 45.1145L86.2259 47.037L85.4175 44.756Z" fill="#263238"/>
<path d="M41.1567 29.836C36.317 34.1415 29.7481 42.0706 30.0433 44.1056C30.7814 49.1984 34.5597 55.6127 36.5384 57.9851C37.6913 59.3699 45.297 53.6374 44.3305 52.3616C42.8121 50.3407 39.1955 43.9686 38.7843 43.1391C38.5629 42.6962 41.9194 36.6229 43.7471 32.4615C45.7364 27.9346 43.5186 27.7413 41.1567 29.836Z" fill="#AD6359"/>
<path d="M46.8792 56.3579C46.6051 55.7991 46.8968 55.655 47.888 56.1294C48.8791 56.6039 52.4078 59.3489 53.2619 58.0379C54.116 56.7269 49.0829 52.9346 47.3643 52.2633C45.6456 51.592 42.6616 51.1105 42.6616 51.1105C43.4841 52.0419 45.2836 54.5021 46.8792 56.3579Z" fill="#AD6359"/>
<path d="M36.4858 57.9466C38.9215 60.4913 41.8 63.8126 45.624 64.8916C46.0463 65.0241 46.5011 65.0092 46.9139 64.8495C48.622 65.3661 49.3742 64.7124 49.3742 64.7124C51.1104 64.7124 51.7923 63.9356 51.7923 63.9356C51.7923 63.9356 53.7992 64.5156 54.3545 63.3592C54.9801 62.0658 52.0348 61.5 50.6043 60.196C47.3286 57.2156 43.5047 52.0595 42.6471 51.1071L36.4858 57.9466Z" fill="#AD6359"/>
<path d="M44.9807 59.4859C45.9295 60.3742 46.9383 61.1962 47.9998 61.9462C49.2095 62.6895 50.4724 63.3427 51.7781 63.9003C51.7834 63.9009 51.7886 63.9027 51.7932 63.9056C51.7977 63.9085 51.8015 63.9124 51.8043 63.917C51.8071 63.9216 51.8088 63.9268 51.8093 63.9322C51.8098 63.9376 51.809 63.943 51.8071 63.948C51.8051 63.953 51.802 63.9576 51.798 63.9612C51.7941 63.9648 51.7893 63.9675 51.7841 63.969C51.7789 63.9705 51.7735 63.9708 51.7682 63.9699C51.7629 63.9689 51.7578 63.9668 51.7535 63.9636C49.1213 63.1406 46.7653 61.6113 44.942 59.5421C44.8999 59.4824 44.9315 59.4437 44.9807 59.4859Z" fill="#263238"/>
<path d="M42.8962 61.2047C43.8979 61.9849 45.6658 63.3486 49.3949 64.6737C49.3949 64.6737 49.3949 64.7018 49.3949 64.6983C46.9402 64.1775 44.6791 62.9836 42.8646 61.2503C42.7978 61.1976 42.8295 61.1519 42.8962 61.2047Z" fill="#263238"/>
<path d="M41.7898 62.1466C43.5472 63.4119 44.809 63.9883 46.9142 64.8389C46.9142 64.8389 46.9142 64.867 46.9142 64.86C44.4223 64.157 43.5999 63.6017 41.7477 62.1994C41.6774 62.1537 41.7231 62.0974 41.7898 62.1466Z" fill="#263238"/>
<path d="M34.4792 57.7006L44.1727 51.0614L39.2521 43.1639C40.9427 39.8284 44.0918 33.2349 44.9143 30.7535C45.8808 27.8434 44.2113 27.4884 41.73 29.4109C36.1065 33.8043 28.8416 42.2782 28.5077 44.0355C28.0297 46.5485 34.4792 57.7006 34.4792 57.7006Z" fill="#455A64"/>
<path d="M34.5951 55.2964C35.1153 54.7763 37.5931 53.0154 38.2152 52.5831C38.8373 52.1508 41.3784 50.4989 42.0357 50.0596C42.0708 50.035 42.113 50.0771 42.0778 50.1017C41.4522 50.5481 39.0236 52.4039 38.405 52.8397C37.7864 53.2755 35.2804 55.0223 34.6162 55.3281C34.5951 55.3421 34.5775 55.314 34.5951 55.2964Z" fill="#263238"/>
<path d="M43.1465 35.1434C42.1765 37.5404 40.8514 40.0077 39.7619 42.3555C39.6846 42.5242 39.442 43.0584 39.4104 43.1428C40.5 45.0759 41.8707 47.1566 43.013 49.0826L44.1869 51.0333L43.9197 51.202L44.1693 51.0051V51.0297L42.8794 49.1494C41.6563 47.3007 40.2996 45.2832 39.1855 43.3888C39.1398 43.2869 39.0765 43.2342 39.0835 43.0936C39.1714 42.7808 39.2891 42.4771 39.435 42.1868C40.5246 39.9023 41.9515 37.3471 43.136 35.1188L43.1465 35.1434Z" fill="#263238"/>
<path d="M43.2169 35.6108C43.0256 35.9851 42.7515 36.3108 42.4155 36.5633C42.6633 36.23 42.9309 35.912 43.2169 35.6108Z" fill="#263238"/>
<path d="M63.4507 54.4987C64.0376 53.4443 64.9479 54.7377 64.9479 54.7377C64.9479 54.7377 64.0904 52.5551 65.1167 51.701C66.1429 50.8469 67.1517 52.4883 67.2255 52.6008C67.1798 52.4848 66.4452 50.4568 67.5769 49.7047C68.7087 48.9525 69.51 50.7169 69.5592 50.8329C69.5592 50.7134 69.4819 49.0755 70.4625 48.7241C72.1495 48.0774 72.7435 52.6957 73.8893 53.6095L76.5359 52.9452C76.0063 53.405 75.6207 54.0079 75.4252 54.6815C75.1159 55.648 74.9156 56.2912 74.4692 56.7411C74.2749 56.9497 74.0184 57.0901 73.7379 57.1414C73.4574 57.1927 73.1678 57.1522 72.9122 57.0257C72.9122 57.0257 73.1688 58.284 72.3042 58.9026C71.8613 59.2189 70.9581 58.7901 70.9581 58.7901C70.9581 58.7901 71.1197 59.8059 70.3184 60.3085C69.6787 60.7127 68.8738 60.2206 68.8738 60.2206C68.8738 60.2206 68.5786 61.275 67.7913 61.4683C66.2097 61.862 62.1924 56.7586 63.4507 54.4987Z" fill="#AD6359"/>
<path d="M74.5181 53.5357L76.4793 52.9523H76.7112C79.3297 52.9066 81.4771 55.4828 79.6882 56.0557C78.328 56.4915 76.4547 54.9486 75.1191 55.5988L74.5181 53.5357Z" fill="#AD6359"/>
<path d="M68.7297 60.1468C68.7297 60.1468 68.7297 60.1889 68.7086 60.1749C66.9056 58.7709 65.5729 56.8511 64.8882 54.6709C64.8706 54.6006 64.9761 54.5373 65.0112 54.6111C65.9748 56.6274 67.2275 58.4923 68.7297 60.1468Z" fill="#263238"/>
<path d="M70.9652 58.8113C70.9652 58.8288 70.9652 58.857 70.93 58.8394C69.1551 57.4335 67.5489 55.1138 67.1377 52.5832C67.1377 52.4954 67.1974 52.404 67.222 52.5024C67.6157 54.1649 69.5312 57.2789 70.9652 58.8113Z" fill="#263238"/>
<path d="M69.5873 50.6466C70.0758 53.0577 71.2884 55.0716 72.8313 56.9731C72.8524 56.9977 72.8137 57.0223 72.7927 57.0082C71.7875 56.3053 70.9299 54.9838 70.3324 53.9118C69.774 52.926 69.4832 51.8112 69.4889 50.6783C69.5029 50.6185 69.5767 50.5974 69.5873 50.6466Z" fill="#263238"/>
<path d="M45.9755 27.0701C44.9211 27.4954 45.0089 28.8872 45.7295 30.6059C46.45 32.3246 47.5747 33.5371 48.731 33.4457C49.8873 33.3544 50.3196 31.72 50.4251 30.7816C50.5059 30.0435 50.2353 28.5533 48.963 27.8258C47.6906 27.0982 46.5765 26.8276 45.9755 27.0701Z" fill="#455A64"/>
<path d="M48.4396 32.7885C47.1744 32.5952 45.7087 29.7799 45.5049 28.0367C45.5049 27.9172 46.0567 26.9436 46.6928 25.7275C47.0724 24.9894 47.4801 24.16 47.7965 23.3727L52.239 26.5535C51.5632 27.4184 50.9955 28.3627 50.5485 29.3652C50.5053 29.4732 50.4724 29.585 50.45 29.6991C50.4513 29.7178 50.4513 29.7366 50.45 29.7553C50.2884 30.4196 49.6628 32.9748 48.4396 32.7885Z" fill="#AD6359"/>
<path d="M50.4497 29.7165C50.4497 29.7165 50.4497 29.7482 50.4497 29.7692C50.273 29.7249 50.1002 29.6661 49.9331 29.5935C47.1213 28.3809 47.8454 24.6202 48.1125 23.5869L49.2196 24.3812L52.2528 26.5568C51.5765 27.4215 51.0087 28.3658 50.5622 29.3686C50.5132 29.4805 50.4755 29.5971 50.4497 29.7165Z" fill="#263238"/>
<path d="M48.675 17.8477C47.6909 19.5558 47.4449 25.0809 48.4782 26.5641C49.9754 28.7116 53.0473 29.5867 55.0155 27.6466C56.9345 25.7663 57.1243 18.5577 55.9188 17.1483C54.1333 15.0746 50.1231 15.3277 48.675 17.8477Z" fill="#AD6359"/>
<path d="M53.1032 22.4905C53.1032 22.4905 53.0751 22.4905 53.0751 22.5221C53.0751 22.8947 52.9978 23.3199 52.6533 23.4254C52.6533 23.4254 52.6533 23.45 52.6533 23.4465C53.0716 23.4113 53.1594 22.8455 53.1032 22.4905Z" fill="#263238"/>
<path d="M52.7904 22.0863C52.1964 22.009 52.0875 23.2075 52.6428 23.2778C53.1981 23.3481 53.293 22.1496 52.7904 22.0863Z" fill="#263238"/>
<path d="M55.2156 22.6099C55.2156 22.6099 55.2437 22.6099 55.2402 22.645C55.198 23.0141 55.2086 23.4464 55.5319 23.5975C55.5319 23.5975 55.5319 23.6221 55.5319 23.6186C55.1242 23.5237 55.1137 22.9508 55.2156 22.6099Z" fill="#263238"/>
<path d="M55.581 22.2514C56.182 22.2514 56.1223 23.4604 55.581 23.4534C55.0398 23.4464 55.0784 22.2443 55.581 22.2514Z" fill="#263238"/>
<path d="M52.2843 21.1478C52.4483 21.1318 52.6114 21.1071 52.7729 21.074C52.9483 21.0735 53.1186 21.0154 53.2579 20.9088C53.2918 20.8637 53.3102 20.8088 53.3102 20.7524C53.3102 20.6959 53.2918 20.641 53.2579 20.596C53.1812 20.514 53.0844 20.4536 52.977 20.4209C52.8697 20.3882 52.7556 20.3844 52.6463 20.4097C52.4168 20.4293 52.2027 20.5332 52.0453 20.7014C52.0092 20.7428 51.9865 20.7942 51.9802 20.8489C51.974 20.9035 51.9846 20.9587 52.0106 21.0072C52.0365 21.0556 52.0766 21.0951 52.1255 21.1202C52.1744 21.1453 52.2298 21.1549 52.2843 21.1478Z" fill="#263238"/>
<path d="M56.182 21.2991C56.0246 21.252 55.8697 21.1968 55.718 21.1339C55.5462 21.0972 55.3909 21.0059 55.2752 20.8738C55.2501 20.8267 55.2404 20.7729 55.2473 20.72C55.2542 20.6671 55.2775 20.6176 55.3138 20.5786C55.405 20.5131 55.5118 20.4729 55.6234 20.4618C55.7351 20.4507 55.8477 20.4691 55.95 20.5153C56.1709 20.5796 56.36 20.7236 56.4807 20.9195C56.5018 20.9649 56.51 21.0152 56.5042 21.0649C56.4985 21.1147 56.479 21.1618 56.4481 21.2011C56.4171 21.2405 56.3758 21.2705 56.3289 21.2877C56.2819 21.305 56.231 21.309 56.182 21.2991Z" fill="#263238"/>
<path d="M47.3005 21.5204C47.2443 21.0107 47.0193 16.6842 47.2513 16.1359C47.4833 15.5876 47.9964 15.9426 48.0105 15.9144C48.0245 15.8863 48.1194 15.4154 48.4393 15.2853C48.5476 15.2602 48.6599 15.2576 48.7693 15.2776C48.8787 15.2975 48.9829 15.3396 49.0754 15.4013C49.0754 15.4013 49.2476 14.9163 49.5815 14.8319C49.6924 14.8171 49.8053 14.8309 49.9093 14.8722C50.0133 14.9134 50.1049 14.9806 50.1755 15.0674C50.2262 14.9393 50.3074 14.8255 50.4122 14.7361C50.517 14.6466 50.6421 14.5842 50.7765 14.5543C50.8938 14.5411 51.0123 14.5661 51.1142 14.6256C51.2162 14.6852 51.2962 14.776 51.3424 14.8846C51.3424 14.8846 51.5568 14.4312 51.8977 14.3926C52.2386 14.3539 52.4671 14.7441 52.4671 14.7441C52.5342 14.6327 52.6299 14.5414 52.7442 14.4796C52.8586 14.4178 52.9874 14.3877 53.1173 14.3926C53.2403 14.4213 53.3519 14.4862 53.4378 14.5789C53.5236 14.6716 53.5797 14.7879 53.5988 14.9128C53.6799 14.8095 53.7835 14.7261 53.9016 14.6689C54.0198 14.6117 54.1494 14.5821 54.2807 14.5824C54.6567 14.6316 54.7095 15.1201 54.7095 15.1201C54.7095 15.1201 54.9274 14.73 55.2753 14.8143C55.6233 14.8987 55.6268 15.4048 55.6268 15.4048C55.6268 15.4048 55.9431 14.9128 56.2911 15.1834C56.7023 15.5067 56.7304 18.6981 56.6425 20.0337C56.6425 20.0337 56.4949 19.046 56.1153 19.032C55.7357 19.0179 55.4792 19.8368 54.7903 19.5803C54.1014 19.3237 53.1876 18.5259 52.1683 18.568C51.1491 18.6102 50.3302 19.6224 49.7362 21.0845C49.0789 22.7329 47.4341 22.7259 47.3005 21.5204Z" fill="#263238"/>
<path d="M52.0878 24.2057C51.8014 24.1418 51.5386 23.9987 51.3295 23.7928C51.1204 23.5869 50.9733 23.3264 50.9049 23.0409C50.8366 22.7555 50.8497 22.4567 50.9428 22.1784C51.036 21.9 51.2054 21.6535 51.4318 21.4667C51.6582 21.2799 51.9324 21.1604 52.2234 21.1219C52.5143 21.0833 52.8102 21.1272 53.0774 21.2485C53.3447 21.3699 53.5725 21.5638 53.7349 21.8082C53.8974 22.0526 53.9879 22.3378 53.9963 22.6311C54.0017 22.8693 53.953 23.1055 53.854 23.3221C53.7549 23.5387 53.6079 23.73 53.4242 23.8816C53.2404 24.0332 53.0247 24.1411 52.7932 24.1972C52.5618 24.2534 52.3206 24.2563 52.0878 24.2057ZM52.7275 21.3483C52.6119 21.3242 52.494 21.3136 52.376 21.3166C52.0318 21.3306 51.7058 21.4751 51.4642 21.7206C51.2225 21.9662 51.0834 22.2945 51.0749 22.6389C51.0665 22.9833 51.1893 23.318 51.4186 23.5751C51.6479 23.8323 51.9664 23.9925 52.3096 24.0234C52.6527 24.0543 52.9947 23.9535 53.2662 23.7414C53.5377 23.5294 53.7184 23.222 53.7716 22.8816C53.8247 22.5412 53.7464 22.1934 53.5525 21.9086C53.3586 21.6238 53.0637 21.4235 52.7275 21.3483Z" fill="#B00037"/>
<path d="M55.6658 24.5607C55.0824 24.4271 54.6852 23.7101 54.7696 22.8947C54.8032 22.5056 54.9581 22.1368 55.2124 21.8403C55.3186 21.7111 55.4539 21.6089 55.6073 21.5423C55.7607 21.4757 55.9277 21.4466 56.0946 21.4572C56.2598 21.48 56.4171 21.5423 56.553 21.639C56.6888 21.7357 56.7993 21.8639 56.8749 22.0126C57.0632 22.3555 57.1394 22.7488 57.0928 23.1372C57.0014 23.9983 56.4074 24.6415 55.7678 24.5748L55.6658 24.5607ZM56.1509 21.6787H56.0735C55.9396 21.6711 55.8058 21.696 55.6835 21.751C55.5611 21.8061 55.4538 21.8897 55.3706 21.995C55.1444 22.2572 55.0077 22.5847 54.9805 22.9299C54.8996 23.675 55.2652 24.3358 55.7889 24.3814C56.3125 24.4271 56.8046 23.8753 56.8854 23.1302C56.9251 22.7859 56.8589 22.4377 56.6956 22.132C56.642 22.0223 56.5657 21.9251 56.4718 21.847C56.3779 21.7688 56.2685 21.7114 56.1509 21.6787Z" fill="#B00037"/>
<path d="M53.9256 22.8067L53.8096 22.631C54.0661 22.4588 54.639 22.2479 54.98 22.6943L54.8113 22.8208C54.509 22.4201 53.9502 22.7892 53.9256 22.8067Z" fill="#B00037"/>
<path d="M46.9354 22.4834L46.7632 22.3674C46.8159 22.2866 47.3009 21.5696 47.7719 21.5414C48.2429 21.5133 50.9808 22.0686 51.1003 22.0932L51.0581 22.3006C50.2638 22.1389 48.1269 21.7312 47.786 21.7523C47.445 21.7734 47.0654 22.2866 46.9354 22.4834Z" fill="#B00037"/>
<path d="M48.815 22.4306C48.815 22.4306 47.9679 20.4589 47.0963 20.7225C46.2247 20.9861 46.6113 23.6748 47.4478 24.2091C47.5514 24.2851 47.6695 24.3392 47.7947 24.3683C47.92 24.3973 48.0498 24.4006 48.1763 24.3779C48.3029 24.3552 48.4235 24.307 48.5309 24.2363C48.6382 24.1656 48.7301 24.0738 48.8009 23.9666L48.815 22.4306Z" fill="#AD6359"/>
<path d="M47.2301 21.4922C47.2301 21.4922 47.209 21.4922 47.2301 21.5133C47.8205 21.9104 48.0349 22.5677 48.1439 23.246C48.1204 23.1735 48.0813 23.1069 48.0294 23.051C47.9775 22.9951 47.914 22.9513 47.8434 22.9225C47.7727 22.8937 47.6967 22.8807 47.6205 22.8844C47.5443 22.888 47.4698 22.9083 47.4023 22.9438C47.3812 22.9438 47.4023 22.9824 47.4023 22.9824C47.5228 22.9693 47.6445 22.9941 47.7503 23.0533C47.8561 23.1125 47.9409 23.2032 47.9928 23.3128C48.0781 23.4961 48.1429 23.6882 48.1861 23.8857C48.2072 23.9525 48.3161 23.9419 48.3091 23.8857V23.8681C48.4883 23.0386 48.0912 21.7558 47.2301 21.4922Z" fill="#263238"/>
</svg>
