<svg width="500" height="500" viewBox="0 0 500 500" fill="none" xmlns="http://www.w3.org/2000/svg">
<path d="M78.81 210C78.81 210 63.81 274 105.56 329.81C147.31 385.62 220.05 407.27 278.56 426.39C337.07 445.51 391.81 423.44 412.35 374.29C432.89 325.14 391.4 298.68 382.25 234.49C373.1 170.3 380.4 151.82 337.72 102.94C295.04 54.06 207.44 55.24 148.22 105.41C89 155.58 78.81 210 78.81 210Z" fill="#B00037"/>
<path opacity="0.7" d="M78.81 210C78.81 210 63.81 274 105.56 329.81C147.31 385.62 220.05 407.27 278.56 426.39C337.07 445.51 391.81 423.44 412.35 374.29C432.89 325.14 391.4 298.68 382.25 234.49C373.1 170.3 380.4 151.82 337.72 102.94C295.04 54.06 207.44 55.24 148.22 105.41C89 155.58 78.81 210 78.81 210Z" fill="white"/>
<path d="M408.9 258.53C408.9 258.53 408.9 254.35 403.04 248.53C397.18 242.71 393.43 239.33 393.43 239.33C393.43 239.33 390.5 248.94 395.93 254.8C399.942 258.918 404.29 262.695 408.93 266.09L408.9 258.53Z" fill="#B00037"/>
<path d="M400.4 284.65C400.4 284.65 400.4 280.47 394.55 274.65C388.7 268.83 384.93 265.45 384.93 265.45C384.93 265.45 382 275 387.44 280.89C391.45 285.01 395.799 288.787 400.44 292.18L400.4 284.65Z" fill="#B00037"/>
<path d="M408.53 265.66C408.53 265.66 408.97 261.5 415.41 256.29C421.85 251.08 426 248.16 426 248.16C426 248.16 427.89 258.04 421.87 263.28C417.461 266.955 412.751 270.253 407.79 273.14L408.53 265.66Z" fill="#B00037"/>
<path d="M398.27 296.5C398.27 296.5 399.14 292.41 406.09 287.91C413.04 283.41 417.43 280.91 417.43 280.91C417.43 280.91 418.27 290.91 411.73 295.52C406.97 298.705 401.952 301.488 396.73 303.84L398.27 296.5Z" fill="#B00037"/>
<path d="M400.2 330.13C400.2 330.13 400.2 325.95 406.05 320.13C411.9 314.31 415.67 310.93 415.67 310.93C415.67 310.93 418.6 320.55 413.16 326.41C409.147 330.527 404.799 334.304 400.16 337.7L400.2 330.13Z" fill="#B00037"/>
<path d="M400.1 338.34C400.1 338.34 400.69 334.2 395.73 327.57C390.77 320.94 387.52 317.1 387.52 317.1C387.52 317.1 383.25 326.2 387.8 332.77C391.174 337.409 394.93 341.758 399.03 345.77L400.1 338.34Z" fill="#B00037"/>
<path d="M394.33 362.66C394.33 362.66 394.33 358.48 400.18 352.66C406.03 346.84 409.8 343.46 409.8 343.46C409.8 343.46 412.73 353.08 407.29 358.93C403.28 363.051 398.932 366.827 394.29 370.22L394.33 362.66Z" fill="#B00037"/>
<path d="M398.23 384.72C398.23 384.72 397.18 380.67 401.36 373.53C405.54 366.39 408.36 362.19 408.36 362.19C408.36 362.19 413.63 370.75 409.85 377.8C407.028 382.797 403.79 387.547 400.17 392L398.23 384.72Z" fill="#B00037"/>
<path d="M409.43 257.46C409.135 261.819 408.601 266.159 407.83 270.46C405.51 282.41 399.73 290.13 397.41 300.93C395.09 311.73 401.74 325.64 399.96 339.52C398.18 353.4 392.78 361.1 394.33 370.36C395.88 379.62 404 404.68 404 404.68" stroke="#263238" stroke-width="0.5" stroke-linecap="round" stroke-linejoin="round"/>
<path d="M408.47 268.44L414.78 263.59" stroke="#263238" stroke-width="0.5" stroke-linecap="round" stroke-linejoin="round"/>
<path d="M408.77 262.86L406.13 258.16" stroke="#263238" stroke-width="0.5" stroke-linecap="round" stroke-linejoin="round"/>
<path d="M397.76 300.42C397.76 300.42 403.04 296.42 408.47 292.5" stroke="#263238" stroke-width="0.5" stroke-linecap="round" stroke-linejoin="round"/>
<path d="M400.4 292.18C400.4 292.18 396 283.55 391.01 277.83" stroke="#263238" stroke-width="0.5" stroke-linecap="round" stroke-linejoin="round"/>
<path d="M400.4 336.08C403.418 330.534 407.224 325.454 411.7 321" stroke="#263238" stroke-width="0.5" stroke-linecap="round" stroke-linejoin="round"/>
<path d="M399.38 342C397.772 338.228 395.856 334.596 393.65 331.14C390.57 326.59 390.13 326 390.13 326" stroke="#263238" stroke-width="0.5" stroke-linecap="round" stroke-linejoin="round"/>
<path d="M394.33 370.35C395.663 367.026 397.251 363.81 399.08 360.73C400.908 357.872 402.972 355.173 405.25 352.66" stroke="#263238" stroke-width="0.5" stroke-linecap="round" stroke-linejoin="round"/>
<path d="M400.14 392C399.833 388.828 400.379 385.631 401.72 382.74C403.92 378.48 406.42 372.91 407.45 370.74" stroke="#263238" stroke-width="0.5" stroke-linecap="round" stroke-linejoin="round"/>
<path d="M370.56 314.4C370.56 314.4 370.11 311.78 373.14 307.47C376.17 303.16 378.14 300.66 378.14 300.66C378.14 300.66 381.02 306.37 378.25 310.66C376.194 313.68 373.886 316.52 371.35 319.15L370.56 314.4Z" fill="#B00037"/>
<path d="M378.72 329.86C378.72 329.86 378.27 327.23 381.31 322.93C384.35 318.63 386.31 316.11 386.31 316.11C386.31 316.11 389.19 321.83 386.41 326.11C384.351 329.127 382.043 331.967 379.51 334.6L378.72 329.86Z" fill="#B00037"/>
<path d="M371.56 318.83C371.56 318.83 370.84 316.27 366.23 313.7C361.62 311.13 358.74 309.75 358.74 309.75C358.74 309.75 358.63 316.15 362.97 318.75C366.137 320.577 369.452 322.136 372.88 323.41L371.56 318.83Z" fill="#B00037"/>
<path d="M381.35 337.06C381.35 337.06 380.35 334.59 375.51 332.52C370.67 330.45 367.64 329.37 367.64 329.37C367.64 329.37 368.2 335.75 372.8 337.91C376.14 339.395 379.599 340.596 383.14 341.5L381.35 337.06Z" fill="#B00037"/>
<path d="M383.79 358.35C383.79 358.35 383.34 355.73 379.03 352.69C374.72 349.65 372.03 347.97 372.03 347.97C372.03 347.97 371.24 354.32 375.28 357.4C378.237 359.547 381.368 361.444 384.64 363.07L383.79 358.35Z" fill="#B00037"/>
<path d="M384.74 363.49C384.74 363.49 383.92 360.96 386.31 356.26C388.7 351.56 390.31 348.8 390.31 348.8C390.31 348.8 393.97 354.05 391.83 358.66C390.22 361.942 388.337 365.083 386.2 368.05L384.74 363.49Z" fill="#B00037"/>
<path d="M392.09 384.64C392.09 384.64 392.39 382 396.52 378.72C400.65 375.44 403.27 373.6 403.27 373.6C403.27 373.6 404.42 379.9 400.56 383.2C397.739 385.515 394.729 387.589 391.56 389.4L392.09 384.64Z" fill="#B00037"/>
<path d="M391 378.12C391 378.12 390.55 375.5 386.24 372.46C381.93 369.42 379.24 367.73 379.24 367.73C379.24 367.73 378.45 374.08 382.5 377.17C385.452 379.318 388.58 381.215 391.85 382.84L391 378.12Z" fill="#B00037"/>
<path d="M391 392.37C391 392.37 391.22 389.72 387.82 385.69C384.42 381.66 382.22 379.34 382.22 379.34C382.22 379.34 379.85 385.28 382.98 389.34C385.295 392.166 387.84 394.795 390.59 397.2L391 392.37Z" fill="#B00037"/>
<path d="M370.11 313.79C370.768 316.499 371.576 319.17 372.53 321.79C375.28 329.03 379.74 333.24 382.37 339.79C385 346.34 382.37 355.79 384.95 364.27C387.53 372.75 391.8 377.02 391.84 383C391.88 388.98 389.52 405.57 389.52 405.57" stroke="#263238" stroke-width="0.5" stroke-linecap="round" stroke-linejoin="round"/>
<path d="M371.9 320.56L367.42 318.21" stroke="#263238" stroke-width="0.5" stroke-linecap="round" stroke-linejoin="round"/>
<path d="M371.11 317.1L372.26 313.87" stroke="#263238" stroke-width="0.5" stroke-linecap="round" stroke-linejoin="round"/>
<path d="M382.09 339.46C382.09 339.46 378.35 337.55 374.51 335.65" stroke="#263238" stroke-width="0.5" stroke-linecap="round" stroke-linejoin="round"/>
<path d="M379.54 334.58C380.638 331.108 382.089 327.757 383.87 324.58" stroke="#263238" stroke-width="0.5" stroke-linecap="round" stroke-linejoin="round"/>
<path d="M384.31 362.11C381.814 358.952 378.874 356.173 375.58 353.86" stroke="#263238" stroke-width="0.5" stroke-linecap="round" stroke-linejoin="round"/>
<path d="M385.59 365.68C386.184 363.14 386.99 360.655 388 358.25C389.44 355.06 389.65 354.64 389.65 354.64" stroke="#263238" stroke-width="0.5" stroke-linecap="round" stroke-linejoin="round"/>
<path d="M391.63 387.47C393.09 385.668 394.703 383.995 396.45 382.47C397.566 381.65 398.612 380.74 399.58 379.75" stroke="#263238" stroke-width="0.5" stroke-linecap="round" stroke-linejoin="round"/>
<path d="M391.84 382.94C390.65 381 389.313 379.155 387.84 377.42C386.383 375.829 384.797 374.361 383.1 373.03" stroke="#263238" stroke-width="0.5" stroke-linecap="round" stroke-linejoin="round"/>
<path d="M390.54 397.15C390.39 395.125 389.7 393.177 388.54 391.51C386.7 389.08 384.54 385.85 383.65 384.59" stroke="#263238" stroke-width="0.5" stroke-linecap="round" stroke-linejoin="round"/>
<path d="M377.56 402.62H415.86V431.32C415.86 432.116 415.544 432.879 414.981 433.441C414.419 434.004 413.656 434.32 412.86 434.32H380.6C379.804 434.32 379.041 434.004 378.479 433.441C377.916 432.879 377.6 432.116 377.6 431.32V402.62H377.56Z" fill="#263238"/>
<path d="M415.52 407.61H377.52C376.724 407.61 375.961 407.294 375.399 406.731C374.836 406.169 374.52 405.406 374.52 404.61C374.52 403.814 374.836 403.051 375.399 402.489C375.961 401.926 376.724 401.61 377.52 401.61H415.52C416.316 401.61 417.079 401.926 417.641 402.489C418.204 403.051 418.52 403.814 418.52 404.61C418.52 405.406 418.204 406.169 417.641 406.731C417.079 407.294 416.316 407.61 415.52 407.61Z" fill="#263238"/>
<path d="M342.67 140.67C361.448 140.67 376.67 125.448 376.67 106.67C376.67 87.8924 361.448 72.67 342.67 72.67C323.892 72.67 308.67 87.8924 308.67 106.67C308.67 125.448 323.892 140.67 342.67 140.67Z" fill="#263238"/>
<path d="M342.67 136.16C358.957 136.16 372.16 122.957 372.16 106.67C372.16 90.3832 358.957 77.1801 342.67 77.1801C326.383 77.1801 313.18 90.3832 313.18 106.67C313.18 122.957 326.383 136.16 342.67 136.16Z" fill="white"/>
<path d="M323.54 112.09L342.67 106.67V79.91" stroke="#263238" stroke-width="2" stroke-miterlimit="10"/>
<path d="M177.7 258.67H140.37L91.5 127.51H128.83L177.7 258.67Z" fill="#263238"/>
<path opacity="0.2" d="M177.7 258.67H140.37L91.5 127.51H128.83L177.7 258.67Z" fill="white"/>
<path d="M118.86 159.55H109.26C108.605 159.511 107.976 159.286 107.444 158.902C106.913 158.517 106.502 157.989 106.26 157.38L102.55 147.43C102.421 147.202 102.357 146.944 102.363 146.682C102.369 146.421 102.446 146.166 102.585 145.944C102.725 145.723 102.922 145.543 103.155 145.424C103.388 145.306 103.649 145.252 103.91 145.27H113.51C114.163 145.311 114.791 145.535 115.322 145.917C115.852 146.299 116.264 146.824 116.51 147.43L120.22 157.38C120.66 158.58 120.06 159.55 118.86 159.55Z" fill="#263238"/>
<path d="M131.3 134.14H93.97L91.5 127.51H128.83L131.3 134.14Z" fill="#263238"/>
<path d="M106.73 135.23L107.8 138.11" stroke="#263238" stroke-linecap="round" stroke-linejoin="round"/>
<path d="M108.17 135.23L109.24 138.11" stroke="#263238" stroke-linecap="round" stroke-linejoin="round"/>
<path d="M109.6 135.23L110.68 138.11" stroke="#263238" stroke-linecap="round" stroke-linejoin="round"/>
<path d="M111.04 135.23L112.11 138.11" stroke="#263238" stroke-linecap="round" stroke-linejoin="round"/>
<path d="M112.48 135.23L113.55 138.11" stroke="#263238" stroke-linecap="round" stroke-linejoin="round"/>
<path d="M113.92 135.23L114.99 138.11" stroke="#263238" stroke-linecap="round" stroke-linejoin="round"/>
<path d="M115.36 135.23L116.43 138.11" stroke="#263238" stroke-linecap="round" stroke-linejoin="round"/>
<path d="M116.8 135.23L117.87 138.11" stroke="#263238" stroke-linecap="round" stroke-linejoin="round"/>
<path d="M118.23 135.23L119.31 138.11" stroke="#263238" stroke-linecap="round" stroke-linejoin="round"/>
<path d="M119.67 135.23L120.74 138.11" stroke="#263238" stroke-linecap="round" stroke-linejoin="round"/>
<path d="M115.75 153.31L106.75 147.58C106.666 147.514 106.565 147.473 106.459 147.462C106.352 147.452 106.245 147.472 106.15 147.52C106.073 147.578 106.021 147.663 106.005 147.757C105.988 147.852 106.008 147.949 106.06 148.03L110.2 156.96C110.254 157.073 110.332 157.172 110.429 157.252C110.526 157.331 110.639 157.389 110.76 157.42H110.9C110.974 157.426 111.048 157.406 111.11 157.364C111.172 157.323 111.218 157.261 111.24 157.19L112.24 154.25H115.84C115.887 154.254 115.934 154.249 115.978 154.233C116.022 154.218 116.063 154.193 116.097 154.161C116.131 154.129 116.158 154.09 116.175 154.047C116.193 154.003 116.202 153.957 116.2 153.91C116.181 153.781 116.129 153.658 116.051 153.553C115.972 153.448 115.869 153.365 115.75 153.31V153.31Z" fill="white"/>
<path d="M115.57 153.71L106.53 147.98L110.67 156.91L111.7 153.75L115.57 153.71Z" fill="#263238"/>
<path d="M132.46 153.71L123.42 147.98L127.57 156.91L128.59 153.75L132.46 153.71Z" fill="white"/>
<path d="M137.09 158.79L136.28 156.95L135.21 158.5L137.09 158.79Z" fill="white"/>
<path d="M158.93 217.41L158.12 215.57L157.05 217.12L158.93 217.41Z" fill="white"/>
<path d="M165.64 235.4L164.82 233.56L163.76 235.1L165.64 235.4Z" fill="white"/>
<path d="M172.51 253.84L171.69 252L170.63 253.55L172.51 253.84Z" fill="white"/>
<path d="M134.02 196.64L133.2 194.8L132.14 196.34L134.02 196.64Z" fill="white"/>
<path d="M141.76 217.41L140.94 215.57L139.88 217.12L141.76 217.41Z" fill="white"/>
<path d="M148.46 235.4L147.65 233.56L146.58 235.1L148.46 235.4Z" fill="white"/>
<path d="M155.34 253.84L154.52 252L153.46 253.55L155.34 253.84Z" fill="white"/>
<path d="M115.75 178.53L117.32 179.54L121.64 170.53L120.07 169.51L115.75 178.53Z" fill="white"/>
<path d="M117.69 169.7C115.4 167.92 115.24 167.56 115.8 165.54C114.62 167.16 114.27 167.19 111.8 165.87C114.09 167.66 114.25 168.02 113.69 170.04C114.83 168.42 115.18 168.39 117.69 169.7Z" fill="white"/>
<path d="M125.23 170.67C123.82 169.57 123.72 169.35 124.06 168.1C123.33 169.1 123.12 169.1 121.57 168.31C122.98 169.41 123.08 169.63 122.73 170.88C123.46 169.88 123.68 169.86 125.23 170.67Z" fill="white"/>
<path d="M124.8 174.91C123.8 174.12 123.72 173.97 123.97 173.08C123.45 173.79 123.29 173.8 122.19 173.22C123.19 174.01 123.26 174.17 123.02 175.06C123.54 174.34 123.69 174.33 124.8 174.91Z" fill="white"/>
<path d="M147.46 214.88L148.43 215.57L152.75 206.55L151.78 205.86L147.46 214.88Z" fill="white"/>
<path d="M143.84 176.2L135.87 171.15L139.52 179.03L140.43 176.24L143.84 176.2Z" fill="white"/>
<path d="M137.84 176.67C134.92 176.67 131.9 174.94 131.11 172.82C130.32 170.7 132.06 169 135 169C137.94 169 140.94 170.73 141.73 172.84C142.52 174.95 140.77 176.67 137.84 176.67ZM135.15 169.44C132.48 169.44 130.88 170.96 131.57 172.82C132.26 174.68 135 176.2 137.67 176.2C140.34 176.2 141.95 174.69 141.25 172.82C140.55 170.95 137.82 169.44 135.15 169.44Z" fill="white"/>
<path d="M134.33 175.9C133.939 175.872 133.563 175.734 133.247 175.502C132.93 175.27 132.685 174.954 132.54 174.59C132.462 174.452 132.423 174.296 132.427 174.138C132.431 173.98 132.477 173.826 132.561 173.692C132.645 173.557 132.763 173.448 132.904 173.376C133.045 173.304 133.202 173.271 133.36 173.28C133.751 173.308 134.127 173.446 134.443 173.678C134.76 173.91 135.005 174.226 135.15 174.59C135.228 174.728 135.267 174.884 135.263 175.042C135.259 175.2 135.213 175.354 135.129 175.489C135.045 175.623 134.927 175.732 134.786 175.804C134.645 175.876 134.488 175.91 134.33 175.9ZM133.53 173.75C133.428 173.742 133.326 173.761 133.234 173.807C133.142 173.853 133.065 173.923 133.01 174.009C132.956 174.096 132.926 174.196 132.924 174.298C132.922 174.401 132.948 174.502 133 174.59C133.093 174.827 133.251 175.033 133.456 175.184C133.662 175.334 133.906 175.423 134.16 175.44C134.62 175.44 134.86 175.06 134.69 174.59C134.594 174.356 134.434 174.153 134.23 174.005C134.025 173.857 133.782 173.768 133.53 173.75V173.75Z" fill="white"/>
<path d="M134.46 177.27L134.14 176.83C134.375 176.77 134.587 176.644 134.752 176.467C134.917 176.29 135.028 176.068 135.07 175.83C135.083 175.429 134.964 175.036 134.73 174.71L135.11 174.55C135.418 174.981 135.576 175.501 135.56 176.03C135.514 176.32 135.386 176.591 135.191 176.811C134.996 177.03 134.743 177.19 134.46 177.27Z" fill="white"/>
<path d="M129.46 190.27L123.89 186.22L122.71 188.1L128.28 192.15L129.46 190.27Z" fill="white"/>
<path d="M120.54 195.52L121.45 196.18L123.45 192.94C123.342 192.847 123.267 192.723 123.234 192.584C123.202 192.446 123.214 192.301 123.27 192.17C123.42 191.92 123.83 191.92 124.17 192.17C124.323 192.256 124.441 192.394 124.503 192.558C124.565 192.723 124.568 192.904 124.51 193.07C124.421 193.172 124.299 193.239 124.165 193.259C124.031 193.279 123.895 193.251 123.78 193.18L121.78 196.42L122.63 197.04L127.63 195.63L127.94 192.63L122.45 188.63L120 190L120.54 195.52Z" fill="white"/>
<path d="M115.28 182.79H147.41" stroke="#263238" stroke-linecap="round" stroke-linejoin="round"/>
<path d="M143.22 186.22L142.04 188.1L147.61 192.15L148.79 190.27L143.22 186.22Z" fill="white"/>
<path d="M139.28 190L139.87 195.51L140.78 196.17L142.78 192.93C142.672 192.837 142.597 192.713 142.564 192.574C142.532 192.436 142.544 192.291 142.6 192.16C142.75 191.91 143.16 191.91 143.5 192.16C143.653 192.246 143.771 192.384 143.833 192.548C143.896 192.713 143.898 192.894 143.84 193.06C143.751 193.162 143.629 193.229 143.495 193.249C143.362 193.269 143.225 193.241 143.11 193.17L141.11 196.41L141.96 197.03L146.96 195.62L147.27 192.62L141.78 188.62L139.28 190Z" fill="white"/>
<path d="M137.9 191.63C137.96 191.24 138.01 190.82 138.05 190.35C138.095 189.9 138.048 189.445 137.913 189.014C137.777 188.583 137.555 188.183 137.26 187.84C136.609 187.113 135.762 186.588 134.82 186.33C134.67 186.33 134.55 186.33 134.57 186.51C134.585 186.586 134.621 186.657 134.674 186.714C134.727 186.77 134.795 186.811 134.87 186.83C135.635 187.053 136.326 187.478 136.87 188.06C137.108 188.345 137.286 188.676 137.395 189.031C137.503 189.387 137.539 189.76 137.5 190.13C137.5 190.59 137.4 191.01 137.35 191.39C137.08 193.39 136.92 194.59 140.24 196.58C140.293 196.618 140.355 196.639 140.42 196.64C140.455 196.642 140.49 196.633 140.52 196.615C140.55 196.598 140.575 196.571 140.59 196.54C140.602 196.466 140.59 196.39 140.556 196.324C140.522 196.257 140.467 196.203 140.4 196.17C137.53 194.44 137.64 193.62 137.9 191.63Z" fill="white"/>
<path d="M123.68 205L123.88 205.52C124.165 206.323 124.499 207.108 124.88 207.87L125.81 207.64C125.55 207.12 125.32 206.586 125.12 206.04H129.12L132.44 214.96H130.95L131.34 215.96H135.34L134.95 214.96H133.47L130.13 206H134L134.69 207.88H135.74L134.85 205.48L134.65 204.96L123.68 205Z" fill="white"/>
<path opacity="0.44" d="M144.56 229.72C145.42 232.02 143.56 233.88 140.36 233.88C137.16 233.88 133.92 232.02 133.07 229.72C132.22 227.42 134.07 225.57 137.27 225.57C140.47 225.57 143.71 227.43 144.56 229.72Z" fill="white"/>
<path d="M144.56 229.72C145.42 232.02 143.56 233.88 140.36 233.88C137.16 233.88 133.92 232.02 133.07 229.72C132.22 227.42 134.07 225.57 137.27 225.57C140.47 225.57 143.71 227.43 144.56 229.72Z" stroke="white" stroke-miterlimit="10"/>
<path d="M156.39 229.84L160.16 222.99C160.215 222.914 160.285 222.849 160.366 222.8C160.447 222.752 160.537 222.72 160.63 222.707C160.724 222.694 160.819 222.7 160.91 222.724C161.001 222.749 161.086 222.792 161.16 222.85V222.85C161.379 222.942 161.564 223.1 161.688 223.303C161.812 223.506 161.868 223.743 161.85 223.98L159.85 231.55L156.39 229.84Z" fill="white"/>
<path d="M155.77 230.42C157.25 230.22 160.15 231.49 160.23 233.42C160.217 233.631 160.149 233.835 160.031 234.011C159.913 234.187 159.751 234.328 159.56 234.42C158.238 235.016 156.785 235.264 155.34 235.14C155.527 234.995 155.665 234.798 155.739 234.573C155.812 234.348 155.816 234.107 155.75 233.88C155.55 233.328 155.32 232.787 155.06 232.26C154.79 231.49 154.93 230.46 155.77 230.4" fill="white"/>
<path d="M147.92 245.45C147.609 244.735 147.145 244.096 146.56 243.58L145.42 245.39C146.094 245.972 146.63 246.696 146.99 247.51C147.318 248.234 147.699 248.932 148.13 249.6L149.24 247.82C148.733 247.07 148.291 246.277 147.92 245.45V245.45Z" fill="white"/>
<path d="M146.61 247.54C146.291 246.827 145.824 246.19 145.24 245.67L144.1 247.49C144.776 248.072 145.315 248.796 145.68 249.61C146.004 250.334 146.382 251.033 146.81 251.7L147.93 249.92C147.415 249.17 146.973 248.374 146.61 247.54V247.54Z" fill="white"/>
<path d="M148.31 245.42C148.634 246.144 149.012 246.842 149.44 247.51L151.08 244.89L147.41 242.21L146.73 243.29C147.403 243.879 147.942 244.605 148.31 245.42V245.42Z" fill="white"/>
<path d="M145.29 249.64C144.979 248.925 144.515 248.286 143.93 247.77L142.93 249.29L143.1 252.74C143.107 252.801 143.127 252.86 143.158 252.914C143.189 252.967 143.23 253.014 143.28 253.05C143.33 253.087 143.387 253.113 143.447 253.126C143.507 253.14 143.569 253.141 143.63 253.13L146.55 251.98C146.064 251.238 145.642 250.455 145.29 249.64V249.64ZM144 252L143.91 250.16L145.58 251.38L144 252Z" fill="white"/>
<path d="M159.7 247.08L158.45 249.08L164.91 253.79L166.16 251.79L166.55 252.08L169.55 247.37L162.3 242.09L159.35 246.8L159.7 247.08ZM164.48 252.65L159.59 249.08L160.48 247.65L165.38 251.22L164.48 252.65Z" fill="white"/>
<path d="M98.71 129.27L98.95 129.9L98.05 131L99.77 132.1L100 132.74L97.3 131L98.71 129.27Z" fill="white"/>
<path d="M96.45 129.27L96.69 129.9L95.79 131L97.51 132.1L97.75 132.74L95.04 131L96.45 129.27Z" fill="white"/>
<path d="M250 206.17H172.79L149.19 140.33H226.4L250 206.17Z" fill="#263238"/>
<path d="M244.52 202.58H175.69L154.67 143.93H223.5L244.52 202.58Z" fill="#B00037"/>
<path d="M231.43 166.07L220.05 157.69L211.06 181.03L187.75 174.45L175.69 202.58H244.52L231.43 166.07Z" fill="white"/>
<path d="M184 156.49C182.4 152.03 177.49 148.41 173 148.41C168.51 148.41 166.22 152.03 167.82 156.49C169.42 160.95 174.33 164.57 178.82 164.57C183.31 164.57 185.61 161 184 156.49Z" fill="white"/>
<path d="M258 194.84H180.79L157.19 129H234.4L258 194.84Z" fill="#263238"/>
<path d="M252.52 191.25H183.69L162.67 132.59H231.5L252.52 191.25Z" fill="#B00037"/>
<path d="M239.43 154.74L228.05 146.36L219.06 169.7L195.75 163.12L183.69 191.25H252.52L239.43 154.74Z" fill="white"/>
<path d="M192 145.16C190.4 140.7 185.49 137.08 181 137.08C176.51 137.08 174.22 140.7 175.82 145.16C177.42 149.62 182.33 153.24 186.82 153.24C191.31 153.24 193.61 149.62 192 145.16Z" fill="white"/>
<path d="M258.35 118.67L260.2 123.17H259.67C259.387 122.564 259.035 121.994 258.62 121.47C258.173 120.96 257.625 120.548 257.01 120.26C256.359 119.986 255.657 119.853 254.95 119.87H252.24L257.61 134.54C257.833 135.358 258.24 136.114 258.8 136.75C259.335 137.161 259.996 137.373 260.67 137.35H261.34L261.53 137.87H253.39L253.2 137.35H253.88C254.69 137.35 255.17 137.1 255.33 136.61C255.356 135.894 255.205 135.183 254.89 134.54L249.52 119.87H247.22C246.6 119.836 245.978 119.904 245.38 120.07C245.168 120.161 244.979 120.298 244.827 120.471C244.675 120.644 244.563 120.848 244.5 121.07C244.341 121.755 244.386 122.471 244.63 123.13H244.09L242.67 118.63L258.35 118.67Z" fill="black"/>
<path d="M270.04 127.72H275.91" stroke="#263238" stroke-width="0.5" stroke-miterlimit="10"/>
<path d="M275.72 143.28H246.16L235.21 113.34H264.77L275.72 143.28Z" stroke="#263238" stroke-width="0.5" stroke-miterlimit="10"/>
<path d="M241.95 128.82H239.73L238.92 126.61H241.14L241.95 128.82Z" fill="white" stroke="#263238" stroke-width="0.5" stroke-miterlimit="10"/>
<path d="M271.55 128.82H269.33L268.52 126.61H270.74L271.55 128.82Z" fill="white" stroke="#263238" stroke-width="0.5" stroke-miterlimit="10"/>
<path d="M236.75 114.61H234.54L233.73 112.4H235.94L236.75 114.61Z" fill="white" stroke="#263238" stroke-width="0.5" stroke-miterlimit="10"/>
<path d="M266.35 114.61H264.14L263.33 112.4H265.54L266.35 114.61Z" fill="white" stroke="#263238" stroke-width="0.5" stroke-miterlimit="10"/>
<path d="M251.56 114.61H249.35L248.54 112.4H250.75L251.56 114.61Z" fill="white" stroke="#263238" stroke-width="0.5" stroke-miterlimit="10"/>
<path d="M247.58 144.21H245.36L244.55 142H246.77L247.58 144.21Z" fill="white" stroke="#263238" stroke-width="0.5" stroke-miterlimit="10"/>
<path d="M277.18 144.21H274.96L274.15 142H276.37L277.18 144.21Z" fill="white" stroke="#263238" stroke-width="0.5" stroke-miterlimit="10"/>
<path d="M261.11 143.81L263.26 149.69" stroke="#263238" stroke-width="0.5" stroke-miterlimit="10"/>
<path d="M262.39 144.21H260.17L259.36 142H261.58L262.39 144.21Z" fill="white" stroke="#263238" stroke-width="0.5" stroke-miterlimit="10"/>
<path d="M264.8 150.8H262.58L261.77 148.58H263.99L264.8 150.8Z" fill="#263238"/>
<path d="M244.39 137.67H269.22" stroke="#263238" stroke-width="0.5" stroke-miterlimit="10"/>
<path d="M277.08 127.72C276.953 127.395 276.736 127.112 276.454 126.905C276.173 126.698 275.838 126.575 275.49 126.55C275.349 126.541 275.208 126.571 275.082 126.635C274.956 126.7 274.85 126.797 274.774 126.916C274.699 127.036 274.656 127.173 274.652 127.315C274.648 127.456 274.682 127.596 274.75 127.72C274.878 128.044 275.095 128.325 275.377 128.531C275.658 128.736 275.992 128.857 276.34 128.88C276.481 128.891 276.622 128.863 276.748 128.8C276.875 128.737 276.982 128.641 277.058 128.522C277.134 128.403 277.176 128.265 277.18 128.124C277.184 127.983 277.149 127.843 277.08 127.72V127.72Z" fill="#263238"/>
<path opacity="0.2" d="M140.03 286.49L166.82 309.45L141.29 434.36H143.02L171.42 311.74L197.44 333.56L160.7 434.21L163 433.83L201.65 335.86L309.19 433.83H374.63L298.09 283.81L140.03 286.49Z" fill="black"/>
<path d="M143.02 434.36H141.29L138.7 284.35H145.61L143.02 434.36Z" fill="#263238" stroke="#263238" stroke-linecap="round" stroke-linejoin="round"/>
<path d="M291.88 434.36H290.15L287.56 284.35H294.47L291.88 434.36Z" fill="#263238" stroke="#263238" stroke-linecap="round" stroke-linejoin="round"/>
<path d="M302.42 282.03H136.06V285.92H302.42V282.03Z" fill="white" stroke="#263238" stroke-linecap="round" stroke-linejoin="round"/>
<path d="M98.5 362.57L95.5 368.95C95.5 368.95 99.2 372.95 100.88 372.95C102.56 372.95 103.23 371.27 105.25 370.59C107.27 369.91 110.62 363.54 110.62 363.54C110.62 363.54 108.62 360.18 106.62 359.84C104.62 359.5 101.62 358.5 99.9 358.16C98.18 357.82 98.5 362.57 98.5 362.57Z" fill="white" stroke="#263238" stroke-linecap="round" stroke-linejoin="round"/>
<path d="M98.5 362.57L100.5 365.93V368.93C100.5 368.93 102.5 369.93 103.19 368.93C103.88 367.93 106.89 364.56 106.89 364.56L105.54 361.56" stroke="#263238" stroke-linecap="round" stroke-linejoin="round"/>
<path d="M100.51 368.95L96.8199 368.28" stroke="#263238" stroke-linecap="round" stroke-linejoin="round"/>
<path d="M156.4 423L149.61 425C149.61 425 149.02 430.44 150.13 431.7C151.24 432.96 152.95 432.36 154.78 433.43C156.61 434.5 163.63 432.8 163.63 432.8C163.63 432.8 164.83 429.07 163.75 427.34C162.67 425.61 161.43 422.66 160.57 421.18C159.71 419.7 156.4 423 156.4 423Z" fill="white" stroke="#263238" stroke-linecap="round" stroke-linejoin="round"/>
<path d="M156.4 423L155.21 426.74L152.94 428.74C152.94 428.74 153.51 430.92 154.71 430.74C155.91 430.56 160.44 430.63 160.44 430.63L161.82 427.63" stroke="#263238" stroke-linecap="round" stroke-linejoin="round"/>
<path d="M152.94 428.75L151 425.53" stroke="#263238" stroke-linecap="round" stroke-linejoin="round"/>
<path d="M87.7399 361.22C87.7399 361.22 82.0299 364.92 83.0399 366.94C84.0499 368.96 84.7199 370.3 85.7299 370.94C86.7399 371.58 89.7299 372.62 90.7299 371.94C91.7299 371.26 94.0899 369.59 94.4199 366.94C94.7499 364.29 95.7699 363.94 94.7599 362.57C93.7499 361.2 87.7399 361.22 87.7399 361.22Z" fill="white" stroke="#263238" stroke-linecap="round" stroke-linejoin="round"/>
<path d="M83 366.94L87 369.63L90.36 369.29L91.7 365.59C91.7 365.06 91.4893 364.551 91.1142 364.176C90.7391 363.801 90.2304 363.59 89.7 363.59C88.6113 363.545 87.5438 363.901 86.7 364.59L87.38 366.59" stroke="#263238" stroke-linecap="round" stroke-linejoin="round"/>
<path d="M112.61 356.52C112.61 356.52 107.61 361.22 108.24 364.58C108.87 367.94 115.3 370.63 115.3 370.63L123.03 366.27L120.67 360.27L115.67 357.58L112.61 356.52Z" fill="white" stroke="#263238" stroke-linecap="round" stroke-linejoin="round"/>
<path d="M108.24 364.58L113.62 366.6L119.67 364.58L117.31 359.21" stroke="#263238" stroke-linecap="round" stroke-linejoin="round"/>
<path d="M112.61 356.52L112.27 363.58L116.31 364.92" stroke="#263238" stroke-linecap="round" stroke-linejoin="round"/>
<path d="M127.73 419.69C127.73 419.69 122.73 424.4 123.36 427.76C123.99 431.12 130.42 433.81 130.42 433.81L138.15 429.44L135.8 423.39L130.75 420.7L127.73 419.69Z" fill="white" stroke="#263238" stroke-linecap="round" stroke-linejoin="round"/>
<path d="M123.36 427.76L128.74 429.77L134.79 427.76L132.44 422.38" stroke="#263238" stroke-linecap="round" stroke-linejoin="round"/>
<path d="M127.73 419.69L127.39 426.75L131.43 428.1" stroke="#263238" stroke-linecap="round" stroke-linejoin="round"/>
<path d="M94.13 351.48C94.13 351.48 89.13 356.18 89.76 359.54C90.39 362.9 96.82 365.54 96.82 365.54L104.54 361.17L102.19 355.17L97.19 352.48L94.13 351.48Z" fill="white" stroke="#263238" stroke-linecap="round" stroke-linejoin="round"/>
<path d="M89.76 359.54L95.14 361.56L101.18 359.54L98.83 354.17" stroke="#263238" stroke-linecap="round" stroke-linejoin="round"/>
<path d="M94.1299 351.48L93.7899 358.54L97.8199 359.88" stroke="#263238" stroke-linecap="round" stroke-linejoin="round"/>
<path d="M122.32 434.36H82.44L76.46 368.25H128.3L122.32 434.36Z" fill="#263238" stroke="#263238" stroke-linecap="round" stroke-linejoin="round"/>
<path d="M95.8099 423.39C95.8099 423.39 90.0899 427.09 91.0999 429.1C92.1099 431.11 92.7799 432.46 93.7899 433.1C94.7999 433.74 97.7899 434.78 98.7899 434.1C99.7899 433.42 102.15 431.75 102.49 429.1C102.83 426.45 103.83 426.1 102.82 424.73C101.81 423.36 95.8099 423.39 95.8099 423.39Z" fill="white" stroke="#263238" stroke-linecap="round" stroke-linejoin="round"/>
<path d="M91.1 429.1L95.1 431.79L98.46 431.46L99.8 427.76C99.8 427.23 99.5893 426.721 99.2142 426.346C98.8391 425.971 98.3304 425.76 97.8 425.76C96.7107 425.711 95.642 426.067 94.8 426.76L95.47 428.76" stroke="#263238" stroke-linecap="round" stroke-linejoin="round"/>
<path d="M201.54 236.32C201.612 236.772 201.543 237.236 201.343 237.648C201.143 238.06 200.821 238.401 200.421 238.625C200.021 238.848 199.563 238.944 199.107 238.899C198.651 238.854 198.22 238.67 197.872 238.372C197.523 238.075 197.275 237.677 197.16 237.234C197.044 236.791 197.068 236.322 197.227 235.893C197.386 235.463 197.672 235.093 198.049 234.831C198.425 234.569 198.872 234.429 199.33 234.43C199.873 234.391 200.409 234.568 200.823 234.922C201.236 235.275 201.494 235.778 201.54 236.32V236.32Z" fill="#808080" stroke="#263238" stroke-linecap="round" stroke-linejoin="round"/>
<path d="M203.67 242.08C203.742 242.532 203.673 242.996 203.473 243.408C203.273 243.82 202.951 244.161 202.551 244.385C202.151 244.608 201.693 244.704 201.237 244.659C200.781 244.614 200.35 244.43 200.002 244.132C199.654 243.835 199.405 243.437 199.29 242.994C199.174 242.551 199.198 242.082 199.357 241.653C199.516 241.223 199.802 240.853 200.179 240.591C200.555 240.329 201.002 240.189 201.46 240.19C202.003 240.151 202.539 240.328 202.953 240.682C203.366 241.035 203.624 241.538 203.67 242.08V242.08Z" fill="#808080" stroke="#263238" stroke-linecap="round" stroke-linejoin="round"/>
<path d="M205.79 247.84C205.862 248.292 205.793 248.756 205.593 249.168C205.393 249.58 205.071 249.921 204.671 250.145C204.271 250.368 203.813 250.464 203.357 250.419C202.901 250.374 202.47 250.19 202.122 249.892C201.773 249.595 201.525 249.197 201.41 248.754C201.294 248.311 201.318 247.842 201.477 247.413C201.636 246.983 201.922 246.613 202.299 246.351C202.675 246.089 203.122 245.949 203.58 245.95C204.123 245.911 204.659 246.088 205.073 246.442C205.486 246.795 205.744 247.298 205.79 247.84Z" fill="#808080" stroke="#263238" stroke-linecap="round" stroke-linejoin="round"/>
<path d="M207.92 253.6C207.992 254.052 207.923 254.515 207.723 254.927C207.524 255.339 207.203 255.68 206.803 255.904C206.404 256.128 205.946 256.224 205.491 256.179C205.035 256.135 204.604 255.952 204.255 255.656C203.907 255.359 203.658 254.963 203.541 254.52C203.425 254.077 203.447 253.61 203.604 253.18C203.761 252.75 204.047 252.379 204.421 252.116C204.796 251.853 205.242 251.712 205.7 251.71C206.244 251.671 206.781 251.847 207.197 252.201C207.612 252.554 207.872 253.057 207.92 253.6V253.6Z" fill="#808080" stroke="#263238" stroke-linecap="round" stroke-linejoin="round"/>
<path d="M177.96 281.66H162.82L160.54 256.55H180.24L177.96 281.66Z" fill="#263238" stroke="#263238" stroke-linecap="round" stroke-linejoin="round"/>
<path d="M179.49 264.81L162.09 273.67L162.82 281.66H170.92L178.78 272.63L179.49 264.81Z" fill="#B00037" stroke="#263238" stroke-linecap="round" stroke-linejoin="round"/>
<path d="M181.99 253.55H158.79V259.01H181.99V253.55Z" fill="#B00037" stroke="#263238" stroke-linecap="round" stroke-linejoin="round"/>
<path d="M222.78 282H195.53C195.061 282.025 194.591 281.955 194.15 281.792C193.709 281.63 193.305 281.38 192.964 281.056C192.623 280.733 192.351 280.344 192.166 279.912C191.98 279.48 191.884 279.015 191.884 278.545C191.884 278.075 191.98 277.61 192.166 277.178C192.351 276.746 192.623 276.357 192.964 276.034C193.305 275.71 193.709 275.46 194.15 275.298C194.591 275.135 195.061 275.065 195.53 275.09H222.78C223.249 275.065 223.719 275.135 224.16 275.298C224.601 275.46 225.005 275.71 225.346 276.034C225.687 276.357 225.959 276.746 226.145 277.178C226.33 277.61 226.426 278.075 226.426 278.545C226.426 279.015 226.33 279.48 226.145 279.912C225.959 280.344 225.687 280.733 225.346 281.056C225.005 281.38 224.601 281.63 224.16 281.792C223.719 281.955 223.249 282.025 222.78 282V282Z" fill="#263238" stroke="#263238" stroke-linecap="round" stroke-linejoin="round"/>
<path d="M295.26 282.03H211.37L191.36 227.57H275.25L295.26 282.03Z" fill="#263238" stroke="#263238" stroke-linecap="round" stroke-linejoin="round"/>
<path d="M289.94 276.37H218.3L201.22 229.87H272.85L289.94 276.37Z" fill="#808080" stroke="#263238" stroke-linecap="round" stroke-linejoin="round"/>
<path d="M304 301.48C302.055 304.341 299.852 307.019 297.42 309.48C289.742 316.417 283.14 324.458 277.83 333.34C270.31 346.09 265.07 359.12 260.09 370.4C255.11 381.68 246.09 402.5 241.58 408.84C237.07 415.18 234.02 418.57 234.02 418.57C234.02 418.57 226.57 418.74 217.75 417.96C208.93 417.18 205.28 415.59 205.17 417.89C205.06 420.19 211.17 426.5 215.51 427.6C219.85 428.7 225.51 430.38 226.83 431.69C228.15 433 229.83 434.5 232.05 433.54C234.27 432.58 240.88 423.33 248.27 416.96C255.66 410.59 264.48 404.28 272.46 389.43C280.44 374.58 280.86 366.09 286.46 360.51C292.06 354.93 297.96 346.18 305.1 341.57C312.24 336.96 333.55 328.42 340.36 319.57C347.17 310.72 343.62 299.89 337.07 296.02C330.52 292.15 309.14 290.75 304 301.48Z" fill="#263238" stroke="#263238" stroke-linecap="round" stroke-linejoin="round"/>
<path d="M246.86 399.48C245.321 402.721 243.56 405.851 241.59 408.85C237.03 415.18 234.03 418.58 234.03 418.58C234.03 418.58 226.58 418.75 217.76 417.97C208.94 417.19 205.29 415.6 205.18 417.9C205.07 420.2 211.18 426.51 215.52 427.61C219.86 428.71 225.52 430.39 226.84 431.7C228.16 433.01 229.84 434.51 232.06 433.55C234.28 432.59 240.89 423.34 248.28 416.97C251.72 413.97 255.47 411.04 259.28 407.24C254.433 406.01 250.09 403.297 246.86 399.48V399.48Z" fill="white" stroke="#263238" stroke-linecap="round" stroke-linejoin="round"/>
<path d="M232.06 433.55C233.254 432.752 234.316 431.774 235.21 430.65C229.21 429.46 226.15 426.45 223.41 425.65C220.909 424.912 218.517 423.843 216.3 422.47L219.3 418.06L217.78 417.93C208.96 417.15 205.31 415.56 205.2 417.86C205.09 420.16 211.2 426.47 215.54 427.57C219.88 428.67 225.54 430.35 226.86 431.66C228.18 432.97 229.89 434.51 232.06 433.55Z" fill="#B00037" stroke="#263238" stroke-linecap="round" stroke-linejoin="round"/>
<path d="M242.43 329.64C243.595 334.652 245.316 339.519 247.56 344.15C251.1 351.23 258.89 358.66 264.56 362.91C270.23 367.16 288.45 383.44 297.48 396.36C298.61 397.98 294.29 403.44 288.98 408.22C283.67 413 281.37 414.77 284.2 415.65C287.03 416.53 293.76 416.18 300.49 410.52C307.22 404.86 311.64 401.14 313.76 396.52C314.82 394.22 308.98 391.38 305.44 388.38C301.9 385.38 288.8 365.55 284.73 356.38C280.66 347.21 270.4 334.08 262.79 329.48" fill="#263238"/>
<path d="M242.43 329.64C243.595 334.652 245.316 339.519 247.56 344.15C251.1 351.23 258.89 358.66 264.56 362.91C270.23 367.16 288.45 383.44 297.48 396.36C298.61 397.98 294.29 403.44 288.98 408.22C283.67 413 281.37 414.77 284.2 415.65C287.03 416.53 293.76 416.18 300.49 410.52C307.22 404.86 311.64 401.14 313.76 396.52C314.82 394.22 308.98 391.38 305.44 388.38C301.9 385.38 288.8 365.55 284.73 356.38C280.66 347.21 270.4 334.08 262.79 329.48" stroke="#263238" stroke-linecap="round" stroke-linejoin="round"/>
<path d="M313.75 396.54C314.81 394.24 308.97 391.4 305.43 388.4C302.43 385.87 292.72 371.45 287.28 361.46L275.28 372.1C282.77 379.03 291.92 388.34 297.52 396.36C298.65 397.98 294.33 403.44 289.02 408.22C283.71 413 281.41 414.77 284.24 415.65C287.07 416.53 293.8 416.18 300.53 410.52C307.26 404.86 311.63 401.14 313.75 396.54Z" fill="white" stroke="#263238" stroke-linecap="round" stroke-linejoin="round"/>
<path d="M310.11 391.84C309.16 393.26 307.92 395.19 306.49 397.6C303.13 403.26 293.93 410.52 292.69 409.28C291.944 408.437 291.318 407.495 290.83 406.48C290.23 407.06 289.61 407.65 288.97 408.22C283.66 413 281.36 414.77 284.19 415.65C287.02 416.53 293.75 416.18 300.48 410.52C307.21 404.86 311.63 401.14 313.75 396.52C314.39 395.14 312.49 393.55 310.11 391.84Z" fill="#B00037" stroke="#263238" stroke-linecap="round" stroke-linejoin="round"/>
<path d="M358.17 408.04H298V410.87H358.17V408.04Z" fill="white" stroke="#263238" stroke-linecap="round" stroke-linejoin="round"/>
<path d="M303.48 332.12L293 432.78C292.989 432.893 293.001 433.007 293.037 433.115C293.073 433.222 293.131 433.321 293.207 433.405C293.283 433.489 293.377 433.556 293.48 433.602C293.584 433.647 293.697 433.671 293.81 433.67V433.67C294.004 433.67 294.191 433.6 294.338 433.473C294.485 433.347 294.581 433.172 294.61 432.98L310.26 332.12H303.48Z" fill="white" stroke="#263238" stroke-linecap="round" stroke-linejoin="round"/>
<path d="M351.62 332.12L362.15 432.78C362.163 432.892 362.152 433.006 362.117 433.114C362.083 433.222 362.026 433.321 361.95 433.405C361.874 433.489 361.782 433.556 361.678 433.602C361.575 433.647 361.463 433.671 361.35 433.67V433.67C361.156 433.672 360.967 433.603 360.82 433.476C360.673 433.349 360.577 433.173 360.55 432.98L344.9 332.12H351.62Z" fill="white" stroke="#263238" stroke-linecap="round" stroke-linejoin="round"/>
<path d="M332.51 332.12L333 432.86C332.997 433.074 332.911 433.279 332.76 433.43C332.609 433.581 332.404 433.667 332.19 433.67C331.983 433.67 331.784 433.59 331.635 433.446C331.485 433.303 331.398 433.107 331.39 432.9L325.76 332.12H332.51Z" fill="white" stroke="#263238" stroke-linecap="round" stroke-linejoin="round"/>
<path d="M354.97 316.9H299.25C296.505 316.9 294.28 319.125 294.28 321.87V328.21C294.28 330.955 296.505 333.18 299.25 333.18H354.97C357.715 333.18 359.94 330.955 359.94 328.21V321.87C359.94 319.125 357.715 316.9 354.97 316.9Z" fill="#B00037"/>
<path opacity="0.2" d="M355 316.9H300.52L298.9 320.3C298.9 320.3 349.18 321.18 349.18 324.08C349.18 326.98 350.05 330.77 340.18 330.77C332.18 330.77 305.33 331.15 295.39 331.29C295.787 331.788 296.276 332.205 296.83 332.52L299.75 333.18H355C356.326 333.18 357.598 332.653 358.536 331.715C359.473 330.778 360 329.506 360 328.18V321.84C359.984 320.524 359.45 319.268 358.514 318.343C357.579 317.418 356.316 316.9 355 316.9Z" fill="black"/>
<path d="M354.97 316.9H299.25C296.505 316.9 294.28 319.125 294.28 321.87V328.21C294.28 330.955 296.505 333.18 299.25 333.18H354.97C357.715 333.18 359.94 330.955 359.94 328.21V321.87C359.94 319.125 357.715 316.9 354.97 316.9Z" stroke="#263238" stroke-linecap="round" stroke-linejoin="round"/>
<path d="M243.84 336C242.6 331.93 237.47 323.79 262.07 306.8C275.07 297.8 303.31 290.87 303.31 290.87L305.96 287.87C305.96 287.87 313.57 295.87 328.44 295.31C343.31 294.75 352.51 288.23 354.28 288.76C356.05 289.29 356.22 293.89 355.52 302.56C354.82 311.23 353.92 315.66 347.02 317.78C340.12 319.9 324.9 320.61 313.93 320.44C308.488 320.424 303.051 320.127 297.64 319.55C297.64 319.55 274.11 334.42 259.42 335.48" fill="#263238"/>
<path d="M243.84 336C242.6 331.93 237.47 323.79 262.07 306.8C275.07 297.8 303.31 290.87 303.31 290.87L305.96 287.87C305.96 287.87 313.57 295.87 328.44 295.31C343.31 294.75 352.51 288.23 354.28 288.76C356.05 289.29 356.22 293.89 355.52 302.56C354.82 311.23 353.92 315.66 347.02 317.78C340.12 319.9 324.9 320.61 313.93 320.44C308.488 320.424 303.051 320.127 297.64 319.55C297.64 319.55 274.11 334.42 259.42 335.48" stroke="#263238" stroke-linecap="round" stroke-linejoin="round"/>
<path d="M298.35 238.5C297.28 238.83 264.9 245.22 262.07 244.69C259.24 244.16 251.81 237.79 249.15 237.96C246.49 238.13 241.15 239.03 240.66 240.44C240.17 241.85 241.9 246.64 241.9 246.64C241.9 246.64 240.13 249.29 241.01 250.53C241.89 251.77 247.01 248.76 247.01 248.76C247.01 248.76 252.85 253.01 255.5 252.12C258.15 251.23 260.99 250.18 260.99 250.18C260.99 250.18 302.58 252.65 303.11 252.83C303.64 253.01 308.77 254.07 309.3 246.64C309.83 239.21 304.55 236.55 298.35 238.5Z" fill="white" stroke="#263238" stroke-linecap="round" stroke-linejoin="round"/>
<path d="M241.9 246.64L249.15 240.62" stroke="#263238" stroke-linecap="round" stroke-linejoin="round"/>
<path d="M244.55 243.98L248.44 231.77L250.04 232.12L248.09 240.97L244.55 243.98Z" fill="#263238"/>
<path d="M273 251.42C273 251.42 230 263.27 223.1 262.42C216.2 261.57 214.1 258.52 212.48 258.52C210.86 258.52 206.48 260.65 204.48 260.47C202.48 260.29 200.24 259.76 200.24 261C200.24 262.24 202.01 264.19 203.07 264.19C204.13 264.19 208.38 264.01 208.38 264.01C208.38 264.01 200.06 266.49 199.7 268.08C199.624 268.453 199.623 268.837 199.699 269.21C199.775 269.584 199.925 269.938 200.14 270.251C200.356 270.565 200.633 270.832 200.954 271.036C201.275 271.24 201.634 271.378 202.01 271.44C202.856 271.593 203.648 271.961 204.31 272.51C204.669 273.9 205.268 275.216 206.08 276.4C207.14 277.64 210.32 278.17 213.86 277.46C217.4 276.75 223.6 273.57 225.01 272.68C226.42 271.79 269.43 267.9 272.62 267.2C275.81 266.5 279.7 266.49 280.94 264.36C282.18 262.23 273 251.42 273 251.42Z" fill="white"/>
<path d="M221 271C213.61 271 215.25 263.61 212.79 264.85C210.64 265.92 202.25 266.99 199.87 269.7C200.062 270.147 200.36 270.541 200.738 270.848C201.116 271.155 201.563 271.365 202.04 271.46C202.886 271.613 203.678 271.981 204.34 272.53C204.699 273.92 205.298 275.236 206.11 276.42C207.17 277.66 210.35 278.19 213.89 277.48C217.43 276.77 223.63 273.59 225.04 272.7C226.45 271.81 269.46 267.92 272.65 267.22C275.22 266.64 278.26 266.53 279.98 265.39L280.98 264.39L276.41 259.93C276.41 259.93 228.42 271 221 271Z" fill="#B00037"/>
<path opacity="0.5" d="M221 271C213.61 271 215.25 263.61 212.79 264.85C210.64 265.92 202.25 266.99 199.87 269.7C200.062 270.147 200.36 270.541 200.738 270.848C201.116 271.155 201.563 271.365 202.04 271.46C202.886 271.613 203.678 271.981 204.34 272.53C204.699 273.92 205.298 275.236 206.11 276.42C207.17 277.66 210.35 278.19 213.89 277.48C217.43 276.77 223.63 273.59 225.04 272.7C226.45 271.81 269.46 267.92 272.65 267.22C275.22 266.64 278.26 266.53 279.98 265.39L280.98 264.39L276.41 259.93C276.41 259.93 228.42 271 221 271Z" fill="white"/>
<path d="M273 251.42C273 251.42 230 263.27 223.1 262.42C216.2 261.57 214.1 258.52 212.48 258.52C210.86 258.52 206.48 260.65 204.48 260.47C202.48 260.29 200.24 259.76 200.24 261C200.24 262.24 202.01 264.19 203.07 264.19C204.13 264.19 208.38 264.01 208.38 264.01C208.38 264.01 200.06 266.49 199.7 268.08C199.624 268.453 199.623 268.837 199.699 269.21C199.775 269.584 199.925 269.938 200.14 270.251C200.356 270.565 200.633 270.832 200.954 271.036C201.275 271.24 201.634 271.378 202.01 271.44C202.856 271.593 203.648 271.961 204.31 272.51C204.669 273.9 205.268 275.216 206.08 276.4C207.14 277.64 210.32 278.17 213.86 277.46C217.4 276.75 223.6 273.57 225.01 272.68C226.42 271.79 269.43 267.9 272.62 267.2C275.81 266.5 279.7 266.49 280.94 264.36C282.18 262.23 273 251.42 273 251.42Z" stroke="#263238" stroke-linecap="round" stroke-linejoin="round"/>
<path d="M309.32 208.06C309.32 208.06 305.43 218.67 300.48 225.75C295.53 232.83 293.4 240.27 296.58 248.23C297.427 250.508 298.772 252.568 300.518 254.258C302.264 255.949 304.366 257.227 306.67 258C306.67 258 304.19 281.36 304.9 287.56C305.61 293.76 315.16 301.01 329.5 301.56C343.84 302.11 356.22 296.96 356.22 292C356.22 287.04 346.14 260.68 346.14 255.19C346.14 249.7 347.02 232.54 342.24 217.19C337.46 201.84 320.65 196.73 309.32 208.06Z" fill="#B00037"/>
<path opacity="0.2" d="M342.24 217.08C339.67 208.79 333.6 203.53 326.78 202.21C323.49 202.94 314.5 205.04 312.26 205.57C311.213 206.317 310.229 207.15 309.32 208.06C309.32 208.06 305.43 218.67 300.48 225.75C297.15 230.5 295.11 235.41 295.08 240.52C308.14 243.61 328.08 248.64 326.08 249.2C323.21 250.02 310.9 243.45 314.59 247.56C318.28 251.67 337.99 270.56 332.24 268.9C326.49 267.24 313.77 253.71 317.06 260.28C320.35 266.85 329.37 277.52 326.5 277.52C323.63 277.52 308.44 262.33 313.77 271.36C319.1 280.39 343.32 294.76 335.52 296.81C331.02 297.99 321.47 297.68 315.93 298.61C320.231 300.395 324.824 301.375 329.48 301.5C343.81 302.03 356.2 296.9 356.2 291.94C356.2 286.98 346.12 260.62 346.12 255.13C346.12 249.64 347 232.48 342.24 217.08Z" fill="black"/>
<path d="M309.32 208.06C309.32 208.06 305.43 218.67 300.48 225.75C295.53 232.83 293.4 240.27 296.58 248.23C297.427 250.508 298.772 252.568 300.518 254.258C302.264 255.949 304.366 257.227 306.67 258C306.67 258 304.19 281.36 304.9 287.56C305.61 293.76 315.16 301.01 329.5 301.56C343.84 302.11 356.22 296.96 356.22 292C356.22 287.04 346.14 260.68 346.14 255.19C346.14 249.7 347.02 232.54 342.24 217.19C337.46 201.84 320.65 196.73 309.32 208.06Z" stroke="#263238" stroke-linecap="round" stroke-linejoin="round"/>
<path d="M311.5 251C311.5 251 324.5 272 343.5 278" stroke="#263238" stroke-linecap="round" stroke-linejoin="round"/>
<path d="M310 254.5C310 254.5 315 271 328 279" stroke="#263238" stroke-linecap="round" stroke-linejoin="round"/>
<path d="M312.68 241.28C312.68 241.28 324.43 236.16 329.25 232.85" stroke="#263238" stroke-linecap="round" stroke-linejoin="round"/>
<path d="M307.86 242.49C307.86 242.49 312.08 243.39 322.92 242.49" stroke="#263238" stroke-linecap="round" stroke-linejoin="round"/>
<path d="M308.26 210.71C305.531 212.45 303.034 214.53 300.83 216.9C296.76 221.15 277.11 250.9 277.11 250.9C277.11 250.9 282.95 263.12 284.72 263.47C286.49 263.82 317.29 237.47 320.12 234.27C322.95 231.07 324.72 225.27 323.84 222.76" fill="#B00037"/>
<path opacity="0.2" d="M320.12 234.25C322.95 231.06 324.72 225.25 323.84 222.74L316.84 217.34L314.6 219.65C314.6 219.65 314.45 228.71 306.39 233.6C298.33 238.49 294.9 238.53 293.67 244.68C292.44 250.83 296.54 252.48 291.62 253.3C286.7 254.12 283.41 254.53 283.41 257.82C283.442 259.449 283.566 261.075 283.78 262.69C284.014 263.024 284.336 263.287 284.71 263.45C286.49 263.8 317.29 237.43 320.12 234.25Z" fill="black"/>
<path d="M308.26 210.71C305.531 212.45 303.034 214.53 300.83 216.9C296.76 221.15 277.11 250.9 277.11 250.9C277.11 250.9 282.95 263.12 284.72 263.47C286.49 263.82 317.29 237.47 320.12 234.27C322.95 231.07 324.72 225.27 323.84 222.76" stroke="#263238" stroke-linecap="round" stroke-linejoin="round"/>
<path d="M270.39 252.65C270.39 252.65 275.88 265.75 277.11 267.17C278.34 268.59 284.9 267.7 287.02 266.1C289.14 264.5 288.79 261.33 288.79 261.33C288.79 261.33 280.65 246.99 279.79 246.33C278.93 245.67 278.55 247.22 274.79 248.46C271.03 249.7 269.68 250.18 270.39 252.65Z" fill="white" stroke="#263238" stroke-linecap="round" stroke-linejoin="round"/>
<path d="M279.24 174.61C279.24 174.61 278.88 179.74 279.77 181.33C280.66 182.92 283.13 184.52 283.13 186.64C283.13 188.76 281.36 191.64 281.89 193.19C282.42 194.74 285.26 194.96 285.26 194.96C285.26 194.96 290.56 201.51 292.16 203.81C293.76 206.11 294.46 205.22 296.94 204.52C299.42 203.82 304.72 199.21 307.73 195.67C310.74 192.13 305.73 181.33 299.24 174.08C292.75 166.83 282.95 167 280.83 169.08C278.71 171.16 279.24 174.61 279.24 174.61Z" fill="white"/>
<path d="M293.27 169.65C292.45 173.65 291.63 180.52 294.09 185.17C297.79 192.17 300.66 195.84 298.61 201.59C298.24 202.59 297.86 203.51 297.49 204.31C300.13 203.18 304.93 198.96 307.73 195.67C310.73 192.13 305.73 181.33 299.24 174.08C297.565 172.22 295.536 170.714 293.27 169.65V169.65Z" fill="#B00037"/>
<path opacity="0.5" d="M293.27 169.65C292.45 173.65 291.63 180.52 294.09 185.17C297.79 192.17 300.66 195.84 298.61 201.59C298.24 202.59 297.86 203.51 297.49 204.31C300.13 203.18 304.93 198.96 307.73 195.67C310.73 192.13 305.73 181.33 299.24 174.08C297.565 172.22 295.536 170.714 293.27 169.65V169.65Z" fill="white"/>
<path d="M283.13 182.22C283.13 182.22 283.13 179.56 286.32 181.33" stroke="#263238" stroke-linecap="round" stroke-linejoin="round"/>
<path d="M285.4 184.68L285.82 187.13C285.82 187.13 287.76 187.8 289.19 185.27" stroke="#263238" stroke-linecap="round" stroke-linejoin="round"/>
<path d="M279.24 174.61C279.24 174.61 278.88 179.74 279.77 181.33C280.66 182.92 283.13 184.52 283.13 186.64C283.13 188.76 281.36 191.64 281.89 193.19C282.42 194.74 285.26 194.96 285.26 194.96C285.26 194.96 290.56 201.51 292.16 203.81C293.76 206.11 294.46 205.22 296.94 204.52C299.42 203.82 304.72 199.21 307.73 195.67C310.74 192.13 305.73 181.33 299.24 174.08C292.75 166.83 282.95 167 280.83 169.08C278.71 171.16 279.24 174.61 279.24 174.61Z" stroke="#263238" stroke-linecap="round" stroke-linejoin="round"/>
<path d="M273.75 166.82V167.53L273.43 176.2L282.98 177.44L285.11 173.72V177.79C288.057 177.543 291.021 177.967 293.78 179.03C298.38 180.8 304.22 193.37 303.87 198.5C303.52 203.63 299.09 204.69 299.62 212.5C300.15 220.31 312 228.05 321 223.1C330 218.15 331.45 211.77 335.16 213.01C338.87 214.25 344.54 221.86 348.08 211.06C351.62 200.26 350.03 193.37 341.71 184.52C333.39 175.67 326.85 176.38 325.78 169.3C324.71 162.22 322.42 152.66 314.78 147.3C307.14 141.94 296.2 141.64 286.78 145.71C277.36 149.78 273.75 162.22 273.75 166.82Z" fill="#263238"/>
<path d="M279.07 170.88C279.007 170.889 278.943 170.889 278.88 170.88C277.88 170.65 277.72 168.88 277.62 164.58C277.62 163.46 277.57 162.31 277.5 161.39C277.5 161.3 277.5 161.22 277.5 161.16C276.65 162.16 274.85 166.41 273.5 170.16L272.56 169.82C276.18 159.74 277.36 159.89 277.74 159.95C278.43 160.04 278.5 160.95 278.53 161.29C278.6 162.23 278.63 163.4 278.65 164.52C278.65 166.3 278.76 169.22 279.13 169.83C279.614 169.333 279.994 168.745 280.25 168.1C281.25 166.02 282.25 165.1 283.17 165.1C284.35 165.1 284.97 166.72 285.41 167.87C285.516 168.154 285.64 168.431 285.78 168.7C286.22 168.82 287.78 167.23 288.61 166.37L289.34 165.63C289.508 165.411 289.722 165.233 289.968 165.108C290.214 164.984 290.485 164.916 290.76 164.91C291.32 165 291.59 165.52 291.88 166.06C292.145 166.644 292.53 167.165 293.01 167.59C293.33 167.84 293.49 167.8 293.56 167.79C294.28 167.61 295.15 165.67 296.16 163.43C296.39 162.9 296.64 162.35 296.91 161.77C297.18 161.19 297.69 160.22 298.43 160.29C299.36 160.36 299.79 161.82 300.43 164.03C300.821 165.794 301.496 167.483 302.43 169.03C302.66 169.31 302.97 169.63 303.26 169.6C304.04 169.47 304.9 167.16 305.42 165.78C305.65 165.09 305.938 164.421 306.28 163.78C306.356 163.619 306.476 163.482 306.627 163.387C306.777 163.291 306.952 163.24 307.13 163.24C307.87 163.24 308.38 164.24 309.07 165.6C309.59 166.6 310.3 168.01 310.89 168.24C311.01 168.29 311.05 168.24 311.08 168.24C311.47 168.04 311.8 166.75 312.08 165.72C312.316 164.561 312.727 163.445 313.3 162.41C313.448 162.167 313.645 161.959 313.88 161.798C314.114 161.638 314.38 161.53 314.66 161.48C315.97 161.27 317.43 162.4 318.4 163.16C318.35 162.65 318.24 161.95 318.15 161.34C317.65 158.01 317.51 156.4 318.34 155.94C318.73 155.73 319.19 155.85 319.71 156.31C320.61 157.161 321.464 158.059 322.27 159C324.1 161.06 326.88 164.16 328 163.86C328.31 163.78 328.48 163.3 328.56 162.92L329.56 163.12C329.35 164.12 328.92 164.66 328.28 164.83C326.67 165.25 324.48 162.96 321.54 159.67C320.743 158.734 319.895 157.843 319 157C318.928 156.93 318.847 156.87 318.76 156.82C318.691 158.265 318.802 159.713 319.09 161.13C319.45 163.48 319.52 164.13 319.09 164.4C318.991 164.465 318.874 164.5 318.755 164.5C318.636 164.5 318.52 164.465 318.42 164.4C318.25 164.28 318.03 164.12 317.79 163.92C317 163.31 315.68 162.3 314.79 162.43C314.646 162.456 314.51 162.514 314.391 162.598C314.271 162.683 314.172 162.793 314.1 162.92C313.596 163.862 313.232 164.873 313.02 165.92C312.63 167.4 312.3 168.68 311.51 169.08C311.354 169.153 311.183 169.191 311.01 169.191C310.837 169.191 310.667 169.153 310.51 169.08C309.57 168.71 308.86 167.31 308.17 165.97C307.897 165.348 307.562 164.755 307.17 164.2V164.2C306.86 164.801 306.599 165.427 306.39 166.07C305.65 168.07 304.81 170.31 303.44 170.52C303.088 170.543 302.737 170.467 302.426 170.301C302.115 170.135 301.857 169.885 301.68 169.58C300.661 167.946 299.927 166.15 299.51 164.27C299.29 163.216 298.905 162.204 298.37 161.27C298.17 161.552 297.999 161.854 297.86 162.17C297.59 162.74 297.34 163.3 297.11 163.82C295.86 166.61 295.03 168.45 293.83 168.74C293.581 168.79 293.323 168.781 293.079 168.713C292.834 168.645 292.608 168.521 292.42 168.35C291.834 167.842 291.363 167.215 291.04 166.51C290.937 166.282 290.802 166.07 290.64 165.88C290.64 165.88 290.48 165.88 290.09 166.31L289.37 167.05C287.71 168.75 286.65 169.77 285.74 169.7C285.588 169.686 285.442 169.637 285.312 169.557C285.182 169.477 285.072 169.369 284.99 169.24C284.802 168.923 284.644 168.588 284.52 168.24C284.24 167.5 283.7 166.13 283.16 166.11C283 166.11 282.33 166.26 281.16 168.55C280.3 170.18 279.69 170.88 279.07 170.88Z" fill="#575757"/>
<path d="M299 211.06C299 211.06 301.48 201.83 304 204.76C306.52 207.69 308.27 208.59 308.5 206.11C308.73 203.63 308.5 200.03 310.98 203.41C313.46 206.79 319.53 210.16 319.98 204.98C320.43 199.8 321.11 192.82 324.04 196.43C326.97 200.04 329.44 202.73 329.67 200.7C329.9 198.67 331.92 197.1 332.82 199.35C333.72 201.6 334.4 203.86 335.07 198.68C335.74 193.5 332.59 187.87 335.97 189.22C339.35 190.57 340.97 195.07 340.97 192.6C340.97 190.13 336.91 187.19 340.52 188.09C344.13 188.99 344.57 191.25 345.02 189.9C345.47 188.55 343.02 185.39 346.15 185.39" stroke="#575757" stroke-miterlimit="10"/>
<path d="M273.75 166.82V167.53L273.43 176.2L282.98 177.44L285.11 173.72V177.79C288.057 177.543 291.021 177.967 293.78 179.03C298.38 180.8 304.22 193.37 303.87 198.5C303.52 203.63 299.09 204.69 299.62 212.5C300.15 220.31 312 228.05 321 223.1C330 218.15 331.45 211.77 335.16 213.01C338.87 214.25 344.54 221.86 348.08 211.06C351.62 200.26 350.03 193.37 341.71 184.52C333.39 175.67 326.85 176.38 325.78 169.3C324.71 162.22 322.42 152.66 314.78 147.3C307.14 141.94 296.2 141.64 286.78 145.71C277.36 149.78 273.75 162.22 273.75 166.82Z" stroke="#263238" stroke-linecap="round" stroke-linejoin="round"/>
<path d="M67.23 434.36H433.17" stroke="#263238" stroke-miterlimit="10"/>
</svg>
