<svg width="101" height="118" viewBox="0 0 101 118" fill="none" xmlns="http://www.w3.org/2000/svg">
<path d="M13.1583 41.0773C17.4361 41.0773 20.9039 36.3564 20.9039 30.5329C20.9039 24.7094 17.4361 19.9885 13.1583 19.9885C8.88045 19.9885 5.4126 24.7094 5.4126 30.5329C5.4126 36.3564 8.88045 41.0773 13.1583 41.0773Z" fill="white" stroke="#2E353A" stroke-linecap="round" stroke-linejoin="round"/>
<path d="M12.5816 40.03C16.8594 40.03 20.3273 35.3091 20.3273 29.4856C20.3273 23.6621 16.8594 18.9412 12.5816 18.9412C8.30379 18.9412 4.83594 23.6621 4.83594 29.4856C4.83594 35.3091 8.30379 40.03 12.5816 40.03Z" fill="white" stroke="#2E353A" stroke-linecap="round" stroke-linejoin="round"/>
<path d="M12.5817 38.9825C16.4346 38.9825 19.558 34.7305 19.558 29.4855C19.558 24.2405 16.4346 19.9885 12.5817 19.9885C8.72884 19.9885 5.60547 24.2405 5.60547 29.4855C5.60547 34.7305 8.72884 38.9825 12.5817 38.9825Z" fill="#2E353A" stroke="#2E353A" stroke-linecap="round" stroke-linejoin="round"/>
<path d="M11.7631 22.346C11.7631 22.346 10.9936 19.726 9.64774 17.8938C8.30184 16.0615 2.81505 14.8798 2.81505 14.8798C3.70104 16.0431 4.50673 17.3147 5.22197 18.6786C6.47142 21.036 10.6056 26.4074 10.6056 26.4074C10.6056 26.4074 8.58672 24.05 6.7563 23.7874C4.92587 23.5248 0.309432 24.8348 0.0267927 24.8348C-0.255847 24.8348 1.75852 25.8822 3.20312 26.7983C4.64772 27.7144 10.2265 28.5023 10.2265 28.5023C10.2265 28.5023 7.8218 29.4184 6.18878 30.2062C4.55575 30.9941 3.00796 36.7533 3.00796 36.7533C3.00796 36.7533 5.12551 34.1333 6.9537 33.4798C8.78188 32.8263 11.3795 31.6476 11.3795 31.6476C11.3795 31.6476 9.7442 34.1363 9.36062 35.8403C8.97703 37.5442 9.26416 41.4713 9.26416 41.4713C9.26416 41.4713 10.13 37.8069 11.1888 36.3625C12.2476 34.9181 13.3983 32.4476 13.3983 32.4476C13.9313 33.6302 14.4136 34.8537 14.8429 36.1121C15.6123 38.3382 16.0924 41.6087 16.0924 41.6087C16.0924 41.6087 17.3441 37.9443 17.2476 36.1121C17.1511 34.2799 15.7088 31.0032 15.7088 31.0032C15.7088 31.0032 16.6711 30.0871 18.1135 30.8719C19.5558 31.6567 22.0592 34.9333 22.0592 34.9333C22.0592 34.9333 21.4805 30.6093 20.5181 28.9084C19.5558 27.2075 15.4194 26.6792 15.4194 26.6792C15.4194 26.6792 17.7299 24.847 19.1722 24.4531C20.6146 24.0592 22.537 24.9783 22.537 24.9783C22.537 24.9783 20.3252 20.7856 18.5935 20.523C16.8618 20.2604 14.2642 23.9187 14.2642 23.9187L15.0358 18.6786C15.2265 17.3685 14.8429 14.098 14.8429 14.098C14.8429 14.098 13.7841 14.8828 12.5325 17.3716C12.1661 18.0884 11.9093 18.8981 11.7771 19.7526C11.645 20.6071 11.6402 21.489 11.7631 22.346Z" fill="#B00037"/>
<path opacity="0.5" d="M11.7631 22.346C11.7631 22.346 10.9936 19.726 9.64774 17.8938C8.30184 16.0615 2.81505 14.8798 2.81505 14.8798C3.70104 16.0431 4.50673 17.3147 5.22197 18.6786C6.47142 21.036 10.6056 26.4074 10.6056 26.4074C10.6056 26.4074 8.58672 24.05 6.7563 23.7874C4.92587 23.5248 0.309432 24.8348 0.0267927 24.8348C-0.255847 24.8348 1.75852 25.8822 3.20312 26.7983C4.64772 27.7144 10.2265 28.5023 10.2265 28.5023C10.2265 28.5023 7.8218 29.4184 6.18878 30.2062C4.55575 30.9941 3.00796 36.7533 3.00796 36.7533C3.00796 36.7533 5.12551 34.1333 6.9537 33.4798C8.78188 32.8263 11.3795 31.6476 11.3795 31.6476C11.3795 31.6476 9.7442 34.1363 9.36062 35.8403C8.97703 37.5442 9.26416 41.4713 9.26416 41.4713C9.26416 41.4713 10.13 37.8069 11.1888 36.3625C12.2476 34.9181 13.3983 32.4476 13.3983 32.4476C13.9313 33.6302 14.4136 34.8537 14.8429 36.1121C15.6123 38.3382 16.0924 41.6087 16.0924 41.6087C16.0924 41.6087 17.3441 37.9443 17.2476 36.1121C17.1511 34.2799 15.7088 31.0032 15.7088 31.0032C15.7088 31.0032 16.6711 30.0871 18.1135 30.8719C19.5558 31.6567 22.0592 34.9333 22.0592 34.9333C22.0592 34.9333 21.4805 30.6093 20.5181 28.9084C19.5558 27.2075 15.4194 26.6792 15.4194 26.6792C15.4194 26.6792 17.7299 24.847 19.1722 24.4531C20.6146 24.0592 22.537 24.9783 22.537 24.9783C22.537 24.9783 20.3252 20.7856 18.5935 20.523C16.8618 20.2604 14.2642 23.9187 14.2642 23.9187L15.0358 18.6786C15.2265 17.3685 14.8429 14.098 14.8429 14.098C14.8429 14.098 13.7841 14.8828 12.5325 17.3716C12.1661 18.0884 11.9093 18.8981 11.7771 19.7526C11.645 20.6071 11.6402 21.489 11.7631 22.346Z" fill="black"/>
<path d="M13.6587 18.3579C13.726 17.9823 13.8 17.6067 13.883 17.2372" stroke="#2E353A" stroke-width="0.5" stroke-linecap="round" stroke-linejoin="round"/>
<path d="M7.23193 18.3579C8.1292 19.2526 9.25079 20.4955 9.8385 21.5612C10.8973 23.5248 13.0148 27.7175 13.0148 27.7175C12.9542 24.9014 13.1181 22.0847 13.5038 19.3168" stroke="#2E353A" stroke-width="0.5" stroke-linecap="round" stroke-linejoin="round"/>
<path d="M5.89502 17.1058C5.89502 17.1058 6.1754 17.3501 6.59485 17.7441" stroke="#2E353A" stroke-width="0.5" stroke-linecap="round" stroke-linejoin="round"/>
<path d="M13.0146 27.7175C13.0146 27.7175 16.671 22.74 18.2098 22.346C19.7487 21.9521 21.0968 23.5248 21.0968 23.5248" stroke="#2E353A" stroke-width="0.5" stroke-linecap="round" stroke-linejoin="round"/>
<path d="M6.48059 31.8796C5.5833 32.6492 5.50928 33.1011 5.50928 33.1011" stroke="#2E353A" stroke-width="0.5" stroke-linecap="round" stroke-linejoin="round"/>
<path d="M21.0007 32.3011C21.0007 32.3011 20.4242 30.3345 18.4031 29.4184C16.382 28.5023 13.2101 28.371 13.2101 28.371C13.2101 28.371 8.75745 30.3559 7.12891 31.3911" stroke="#2E353A" stroke-width="0.5" stroke-linecap="round" stroke-linejoin="round"/>
<path d="M11.2627 27.6228C12.3394 28.0503 13.2075 28.371 13.2075 28.371" stroke="#2E353A" stroke-width="0.5" stroke-linecap="round" stroke-linejoin="round"/>
<path d="M4.48633 25.2959C5.53164 25.3814 6.87754 25.5768 7.62676 26.0135C8.2369 26.3708 9.43924 26.8869 10.5743 27.348" stroke="#2E353A" stroke-width="0.5" stroke-linecap="round" stroke-linejoin="round"/>
<path d="M3.00781 25.2288C3.00781 25.2288 3.35997 25.2288 3.87811 25.2562" stroke="#2E353A" stroke-width="0.5" stroke-linecap="round" stroke-linejoin="round"/>
<path d="M13.0149 29.1558C13.0149 29.1558 10.3231 34.6524 10.128 35.9686C10.0124 36.745 9.94781 37.5339 9.93506 38.326" stroke="#2E353A" stroke-width="0.5" stroke-linecap="round" stroke-linejoin="round"/>
<path d="M14.2124 30.8872C14.7306 31.8033 15.3519 33.0248 15.6121 34.002C15.915 35.1942 16.1402 36.4204 16.2851 37.6664" stroke="#2E353A" stroke-width="0.5" stroke-linecap="round" stroke-linejoin="round"/>
<path d="M13.3984 29.5497C13.3984 29.5497 13.6227 29.8734 13.9121 30.3711" stroke="#2E353A" stroke-width="0.5" stroke-linecap="round" stroke-linejoin="round"/>
<path d="M10.5405 23.4759C10.5405 23.4759 10.0448 20.7275 10.3521 18.1777C10.6594 15.6279 14.6141 10.3053 14.6141 10.3053C14.3943 11.9536 14.2855 13.6259 14.2889 15.3011C14.2889 18.2083 13.2234 25.8547 13.2234 25.8547C13.2234 25.8547 13.8537 22.3368 15.2265 20.6634C16.5993 18.99 20.9129 16.3883 21.1462 16.1653C21.3795 15.9424 20.1884 18.3915 19.41 20.2848C18.6316 22.178 14.4302 27.2563 14.4302 27.2563C14.4302 27.2563 16.7765 26.0898 18.441 25.4241C20.1054 24.7584 23.8246 28.2213 23.8246 28.2213C23.8246 28.2213 20.9825 27.7755 19.2171 28.6946C17.4517 29.6138 14.8362 30.7192 14.8362 30.7192C14.8362 30.7192 17.2319 31.4429 18.2727 32.5209C19.3136 33.5989 20.7671 37.0281 20.7671 37.0281C20.7671 37.0281 18.4926 34.7348 17.0143 34.405C15.5361 34.0752 13.5329 32.9728 13.5329 32.9728C13.6089 34.3561 13.7422 35.7325 13.9322 37.0953C14.262 39.5169 15.2781 42.5584 15.2781 42.5584C15.2781 42.5584 12.6917 40.5735 11.9829 39.0069C11.274 37.4404 11.0452 33.6355 11.0452 33.6355C11.0452 33.6355 9.86983 33.6538 9.02639 35.4372C8.18296 37.2205 7.5616 41.8682 7.5616 41.8682C7.5616 41.8682 6.17981 37.8985 6.23141 35.7609C6.283 33.6233 9.41895 29.9039 9.41895 29.9039C9.41895 29.9039 6.75855 30.249 5.41713 31.0735C4.07572 31.8979 2.90479 34.1729 2.90479 34.1729C2.90479 34.1729 2.90478 29.0122 4.20134 27.4243C5.49789 25.8364 9.17893 26.7525 9.17893 26.7525L6.30767 23.1094C5.58986 22.1933 4.49968 19.2312 4.49968 19.2312C4.49968 19.2312 5.69753 19.0297 7.77919 20.0588C8.38426 20.3472 8.94054 20.7983 9.41492 21.3854C9.8893 21.9724 10.2721 22.6833 10.5405 23.4759Z" fill="#B00037"/>
<path d="M7.2923 21.7414C7.06798 21.488 6.85713 21.2437 6.63281 21.0055" stroke="#2E353A" stroke-width="0.5" stroke-linecap="round" stroke-linejoin="round"/>
<path d="M12.5121 16.6387C12.1645 18.08 11.7764 19.9764 11.7674 21.3078C11.7495 23.7507 11.8257 28.829 11.8257 28.829C10.6679 26.4941 9.32683 24.3377 7.82617 22.3979" stroke="#2E353A" stroke-width="0.5" stroke-linecap="round" stroke-linejoin="round"/>
<path d="M13.0641 14.5591C13.0641 14.5591 12.9385 14.9805 12.7681 15.6309" stroke="#2E353A" stroke-width="0.5" stroke-linecap="round" stroke-linejoin="round"/>
<path d="M11.8261 28.8289C11.8261 28.8289 6.7229 27.6899 5.30522 28.5938C3.88754 29.4977 3.46582 31.8368 3.46582 31.8368" stroke="#2E353A" stroke-width="0.5" stroke-linecap="round" stroke-linejoin="round"/>
<path d="M18.9189 27.0212C19.971 26.9418 20.2222 27.2319 20.2222 27.2319" stroke="#2E353A" stroke-width="0.5" stroke-linecap="round" stroke-linejoin="round"/>
<path d="M7.30351 38.8939C7.30351 38.8939 6.93115 36.8388 8.17835 34.4905C9.42555 32.1422 11.9514 29.516 11.9514 29.516C11.9514 29.516 16.4175 27.5892 18.1829 27.1403" stroke="#2E353A" stroke-width="0.5" stroke-linecap="round" stroke-linejoin="round"/>
<path d="M13.2098 27.3633C12.5189 28.5634 11.9536 29.5161 11.9536 29.5161" stroke="#2E353A" stroke-width="0.5" stroke-linecap="round" stroke-linejoin="round"/>
<path d="M17.7162 20.0924C16.9042 21.0085 15.8948 22.23 15.4731 23.1675C15.1299 23.9431 14.374 25.3051 13.6494 26.5907" stroke="#2E353A" stroke-width="0.5" stroke-linecap="round" stroke-linejoin="round"/>
<path d="M18.8873 18.8618C18.8873 18.8618 18.6024 19.1428 18.1919 19.5764" stroke="#2E353A" stroke-width="0.5" stroke-linecap="round" stroke-linejoin="round"/>
<path d="M12.4429 30.0046C12.4429 30.0046 16.9898 32.3316 17.7054 33.2446C18.1321 33.7833 18.5225 34.373 18.8718 35.0066" stroke="#2E353A" stroke-width="0.5" stroke-linecap="round" stroke-linejoin="round"/>
<path d="M12.2116 32.356C12.1802 33.5102 12.1959 34.9913 12.409 35.999C12.6735 37.2097 13.0165 38.3859 13.4341 39.5138" stroke="#2E353A" stroke-width="0.5" stroke-linecap="round" stroke-linejoin="round"/>
<path d="M12.2992 30.6154C12.2992 30.6154 12.2633 31.049 12.2363 31.6903" stroke="#2E353A" stroke-width="0.5" stroke-linecap="round" stroke-linejoin="round"/>
<path d="M25.5092 37.4646H76.3551C76.9899 37.4646 77.5986 37.8079 78.0475 38.4189C78.4964 39.03 78.7485 39.8587 78.7485 40.7229V85.6122C78.7485 86.0801 78.6808 86.5435 78.5493 86.9759C78.4177 87.4083 78.2249 87.8011 77.9818 88.132C77.7387 88.463 77.4501 88.7255 77.1325 88.9046C76.8149 89.0836 76.4745 89.1758 76.1308 89.1758H25.7335C25.3897 89.1758 25.0493 89.0836 24.7317 88.9046C24.4141 88.7255 24.1255 88.463 23.8825 88.132C23.6394 87.8011 23.4465 87.4083 23.315 86.9759C23.1834 86.5435 23.1157 86.0801 23.1157 85.6122V40.7229C23.1157 39.8587 23.3679 39.03 23.8168 38.4189C24.2656 37.8079 24.8744 37.4646 25.5092 37.4646Z" fill="white" stroke="#2E353A" stroke-linecap="round" stroke-linejoin="round"/>
<path d="M44.1187 42.5552H40.9873V45.3554H44.1187V42.5552Z" fill="#2E353A"/>
<path d="M33.9725 59.83H31.0654V63.757H33.9725V59.83Z" fill="#2E353A"/>
<path d="M46.8173 46.0272H43.8877V49.9543H46.8173V46.0272Z" fill="#2E353A"/>
<path d="M40.4913 42.5552H37.3599V45.3554H40.4913V42.5552Z" fill="#2E353A"/>
<path d="M50.2401 46.0272H47.3105V49.9543H50.2401V46.0272Z" fill="#2E353A"/>
<path d="M47.7433 42.5552H44.6118V45.3554H47.7433V42.5552Z" fill="#2E353A"/>
<path d="M32.2162 55.2279H26.707V59.155H32.2162V55.2279Z" fill="#2E353A"/>
<path d="M39.9687 46.0272H37.0391V49.9543H39.9687V46.0272Z" fill="#2E353A"/>
<path d="M30.572 59.83H26.707V63.757H30.572V59.83Z" fill="#2E353A"/>
<path d="M51.3707 42.5552H48.2393V45.3554H51.3707V42.5552Z" fill="#2E353A"/>
<path d="M33.12 46.0272H30.1904V49.9543H33.12V46.0272Z" fill="#2E353A"/>
<path d="M33.2389 42.5552H30.1074V45.3554H33.2389V42.5552Z" fill="#2E353A"/>
<path d="M36.8663 42.5552H33.7349V45.3554H36.8663V42.5552Z" fill="#2E353A"/>
<path d="M36.5433 46.0272H33.6138V49.9543H36.5433V46.0272Z" fill="#2E353A"/>
<path d="M43.3915 46.0272H40.4619V49.9543H43.3915V46.0272Z" fill="#2E353A"/>
<path d="M65.8771 42.5552H62.7456V45.3554H65.8771V42.5552Z" fill="#2E353A"/>
<path d="M69.5021 42.5552H66.3706V45.3554H69.5021V42.5552Z" fill="#2E353A"/>
<path d="M67.3622 46.0272H64.4326V49.9543H67.3622V46.0272Z" fill="#2E353A"/>
<path d="M70.7875 46.0272H67.8579V49.9543H70.7875V46.0272Z" fill="#2E353A"/>
<path d="M76.2047 59.83H71.8911V63.757H76.2047V59.83Z" fill="#2E353A"/>
<path d="M73.1295 42.5552H69.998V45.3554H73.1295V42.5552Z" fill="#2E353A"/>
<path d="M29.6972 46.0272H26.707V49.9543H29.6972V46.0272Z" fill="#2E353A"/>
<path d="M54.9977 42.5552H51.8662V45.3554H54.9977V42.5552Z" fill="#2E353A"/>
<path d="M58.6227 42.5552H55.4912V45.3554H58.6227V42.5552Z" fill="#2E353A"/>
<path d="M57.0907 46.0272H54.1611V49.9543H57.0907V46.0272Z" fill="#2E353A"/>
<path d="M63.9394 46.0272H61.0098V49.9543H63.9394V46.0272Z" fill="#2E353A"/>
<path d="M53.6654 46.0272H50.7358V49.9543H53.6654V46.0272Z" fill="#2E353A"/>
<path d="M60.514 46.0272H57.5845V49.9543H60.514V46.0272Z" fill="#2E353A"/>
<path d="M62.2501 42.5552H59.1187V45.3554H62.2501V42.5552Z" fill="#2E353A"/>
<path d="M57.7885 59.83H54.8813V63.757H57.7885V59.83Z" fill="#2E353A"/>
<path d="M73.0419 55.2279H70.1348V59.155H73.0419V55.2279Z" fill="#2E353A"/>
<path d="M69.6391 55.2279H66.7319V59.155H69.6391V55.2279Z" fill="#2E353A"/>
<path d="M71.3954 59.83H68.4883V63.757H71.3954V59.83Z" fill="#2E353A"/>
<path d="M67.9951 59.83H65.0879V63.757H67.9951V59.83Z" fill="#2E353A"/>
<path d="M61.1889 59.83H58.2817V63.757H61.1889V59.83Z" fill="#2E353A"/>
<path d="M64.5917 59.83H61.6846V63.757H64.5917V59.83Z" fill="#2E353A"/>
<path d="M66.2363 55.2279H63.3291V59.155H66.2363V55.2279Z" fill="#2E353A"/>
<path d="M62.8353 55.2279H59.9282V59.155H62.8353V55.2279Z" fill="#2E353A"/>
<path d="M76.2069 42.5552H73.625V45.3554H76.2069V42.5552Z" fill="#2E353A"/>
<path d="M29.6142 42.5552H26.707V45.3554H29.6142V42.5552Z" fill="#2E353A"/>
<path d="M76.207 64.4287H26.707V68.5115H76.207V64.4287Z" fill="#2E353A"/>
<path d="M76.205 46.0272H71.2812V49.9543H76.205V46.0272Z" fill="#2E353A"/>
<path d="M76.205 55.2279H73.5356V59.155H76.205V55.2279Z" fill="#2E353A"/>
<path d="M72.7145 54.5256H72.2187V50.6292H69.3116V54.5256H68.8181V50.6292H65.9109V54.5256H65.4152V50.6292H62.508V54.5256H62.0123V50.6292H59.1051V54.5256H58.6116V50.6292H55.7045V54.5256H55.2088V50.6292H52.3016V54.5256H51.8059V50.6292H48.8987V54.5256H48.4052V50.6292H45.4981V54.5256H45.0023V50.6292H42.0952V54.5256H41.5994V50.6292H38.6923V54.5256H38.1988V50.6292H35.2916V54.5256H34.7959V50.6292H31.8888V54.5256H31.393V50.6292H26.707V54.5562H76.2048V50.6292H72.7145V54.5256Z" fill="#2E353A"/>
<path d="M49.226 55.2279H46.3188V59.155H49.226V55.2279Z" fill="#2E353A"/>
<path d="M59.4326 55.2279H56.5254V59.155H59.4326V55.2279Z" fill="#2E353A"/>
<path d="M42.4227 55.2279H39.5156V59.155H42.4227V55.2279Z" fill="#2E353A"/>
<path d="M44.1791 59.83H41.272V63.757H44.1791V59.83Z" fill="#2E353A"/>
<path d="M45.8232 55.2279H42.916V59.155H45.8232V55.2279Z" fill="#2E353A"/>
<path d="M39.02 55.2279H36.1128V59.155H39.02V55.2279Z" fill="#2E353A"/>
<path d="M37.3754 59.83H34.4683V63.757H37.3754V59.83Z" fill="#2E353A"/>
<path d="M40.7763 59.83H37.8691V63.757H40.7763V59.83Z" fill="#2E353A"/>
<path d="M52.6293 55.2279H49.7222V59.155H52.6293V55.2279Z" fill="#2E353A"/>
<path d="M54.3856 59.83H51.4785V63.757H54.3856V59.83Z" fill="#2E353A"/>
<path d="M56.0297 55.2279H53.1226V59.155H56.0297V55.2279Z" fill="#2E353A"/>
<path d="M47.582 59.83H44.6748V63.757H47.582V59.83Z" fill="#2E353A"/>
<path d="M50.9824 59.83H48.0752V63.757H50.9824V59.83Z" fill="#2E353A"/>
<path d="M35.6171 55.2279H32.71V59.155H35.6171V55.2279Z" fill="#2E353A"/>
<path d="M81.9251 9.37073H19.6413C19.3358 9.37105 19.0345 9.467 18.7607 9.65114C18.4868 9.83528 18.2477 10.1027 18.0619 10.4327C17.8761 10.7627 17.7485 11.1465 17.689 11.5543C17.6295 11.9621 17.6397 12.3831 17.7189 12.7848L22.2725 35.8646C22.386 36.4407 22.6358 36.9498 22.9834 37.313C23.3309 37.6763 23.7567 37.8734 24.1949 37.8739H30.552V39.471H71.3082V37.883H77.3648C77.8029 37.8826 78.2287 37.6855 78.5763 37.3222C78.9238 36.959 79.1737 36.4498 79.2872 35.8737L83.8408 12.7939C83.921 12.3925 83.9322 11.9713 83.8737 11.5629C83.8151 11.1546 83.6884 10.7701 83.5032 10.4391C83.318 10.1082 83.0793 9.83967 82.8057 9.65441C82.532 9.46914 82.2307 9.37208 81.9251 9.37073Z" fill="#2E353A" stroke="#2E353A" stroke-linecap="round" stroke-linejoin="round"/>
<path d="M74.8816 35.8371H26.6848L21.8643 12.2229H79.7L74.8816 35.8371Z" fill="#B00037" stroke="#2E353A" stroke-linecap="round" stroke-linejoin="round"/>
<path d="M29.8834 25.4728V25.7781H29.0332V25.4728H29.8834Z" fill="#2E353A"/>
<path d="M30.9423 25.4728V25.7781H30.0898V25.4728H30.9423Z" fill="#2E353A"/>
<path d="M32.0009 25.4728V25.7781H31.1553V25.4728H32.0009Z" fill="#2E353A"/>
<path d="M33.0572 25.4728V25.7781H32.207V25.4728H33.0572Z" fill="#2E353A"/>
<path d="M34.1161 25.4728V25.7781H33.2637V25.4728H34.1161Z" fill="#2E353A"/>
<path d="M35.1751 25.4728V25.7781H34.3228V25.4728H35.1751Z" fill="#2E353A"/>
<path d="M36.2315 25.4728V25.7781H35.3813V25.4728H36.2315Z" fill="#2E353A"/>
<path d="M37.279 27.0821L36.3413 23.6803H36.5656L37.5033 27.0821H37.279Z" fill="#2E353A"/>
<path d="M29.0264 20.5198V20.8251H28.1763V20.5198H29.0264Z" fill="#2E353A"/>
<path d="M30.0855 20.5198V20.8251H29.2354V20.5198H30.0855Z" fill="#2E353A"/>
<path d="M31.1551 20.5198V20.8251H30.3027V20.5198H31.1551Z" fill="#2E353A"/>
<path d="M32.203 20.5198V20.8251H31.3506V20.5198H32.203Z" fill="#2E353A"/>
<path d="M33.2593 20.5198V20.8251H32.4092V20.5198H33.2593Z" fill="#2E353A"/>
<path d="M35.0492 20.5198V20.8251H34.1968V20.5198H35.0492Z" fill="#2E353A"/>
<path d="M36.106 20.5198V20.8251H35.2559V20.5198H36.106Z" fill="#2E353A"/>
<path d="M37.1646 20.5198V20.8251H36.3145V20.5198H37.1646Z" fill="#2E353A"/>
<path d="M38.2234 20.5198V20.8251H37.3711V20.5198H38.2234Z" fill="#2E353A"/>
<path d="M39.2798 20.5198V20.8251H38.4297V20.5198H39.2798Z" fill="#2E353A"/>
<path d="M40.339 20.5198V20.8251H39.4888V20.5198H40.339Z" fill="#2E353A"/>
<path d="M41.3973 20.5198V20.8251H40.5449V20.5198H41.3973Z" fill="#2E353A"/>
<path d="M43.1851 20.5198V20.8251H42.335V20.5198H43.1851Z" fill="#2E353A"/>
<path d="M44.244 20.5198V20.8251H43.3916V20.5198H44.244Z" fill="#2E353A"/>
<path d="M45.3031 20.5198V20.8251H44.4507V20.5198H45.3031Z" fill="#2E353A"/>
<path d="M47.0816 20.5198V20.8251H46.2314V20.5198H47.0816Z" fill="#2E353A"/>
<path d="M48.1496 20.5198V20.8251H47.3062V20.5198H48.1496Z" fill="#2E353A"/>
<path d="M49.2083 20.5198V20.8251H48.356V20.5198H49.2083Z" fill="#2E353A"/>
<path d="M53.1876 20.5198V20.8251H52.3374V20.5198H53.1876Z" fill="#2E353A"/>
<path d="M54.2464 20.5198V20.8251H53.394V20.5198H54.2464Z" fill="#2E353A"/>
<path d="M55.305 20.5198V20.8251H54.4526V20.5198H55.305Z" fill="#2E353A"/>
<path d="M56.3619 20.5198V20.8251H55.5117V20.5198H56.3619Z" fill="#2E353A"/>
<path d="M57.4208 20.5198V20.8251H56.5684V20.5198H57.4208Z" fill="#2E353A"/>
<path d="M59.2086 20.5198V20.8251H58.3584V20.5198H59.2086Z" fill="#2E353A"/>
<path d="M60.2668 20.5198V20.8251H59.4189V20.5198H60.2668Z" fill="#2E353A"/>
<path d="M61.326 20.5198V20.8251H60.4736V20.5198H61.326Z" fill="#2E353A"/>
<path d="M63.1138 20.5198V20.8251H62.2637V20.5198H63.1138Z" fill="#2E353A"/>
<path d="M64.9037 20.5198V20.8251H64.0513V20.5198H64.9037Z" fill="#2E353A"/>
<path d="M79.0897 70.7072L76.6895 83.3128L78.9596 84.2198L79.0897 70.7072Z" fill="white" stroke="#2E353A" stroke-linecap="round" stroke-linejoin="round"/>
<path d="M80.1664 57.3839C79.8956 56.8174 79.7967 56.1299 79.8905 55.4662C80.0139 54.2233 81.1153 53.9393 81.1153 53.9393C81.1153 53.9393 81.3553 53.692 82.2369 54.147C83.1185 54.602 89.9355 55.8601 94.2917 56.6632C98.6479 57.4663 100.059 56.9472 99.9983 58.984C99.9378 61.0208 96.1154 79.3002 96.0571 79.8743C95.9987 80.4484 80.1664 57.3839 80.1664 57.3839Z" fill="white" stroke="#2E353A" stroke-miterlimit="10"/>
<path d="M98.4896 60.7663L80.1646 57.3845L77.2034 87.1212L95.5285 90.5029L98.4896 60.7663Z" fill="white" stroke="#2E353A" stroke-linecap="round" stroke-linejoin="round"/>
<path d="M95.0835 66.6978L96.149 66.8962" stroke="#2E353A" stroke-width="0.5" stroke-linecap="round" stroke-linejoin="round"/>
<path d="M88.4102 65.467L94.2401 66.545" stroke="#2E353A" stroke-width="0.5" stroke-linecap="round" stroke-linejoin="round"/>
<path d="M81.3438 64.1631L87.5663 65.3113" stroke="#2E353A" stroke-width="0.5" stroke-linecap="round" stroke-linejoin="round"/>
<path d="M93.4146 69.0826L95.8865 69.5407" stroke="#2E353A" stroke-width="0.5" stroke-linecap="round" stroke-linejoin="round"/>
<path d="M81.0815 66.8076L90.8865 68.6154" stroke="#2E353A" stroke-width="0.5" stroke-linecap="round" stroke-linejoin="round"/>
<path d="M86.0566 70.4171L95.6237 72.1822" stroke="#2E353A" stroke-width="0.5" stroke-linecap="round" stroke-linejoin="round"/>
<path d="M80.8169 69.4491L85.0721 70.2369" stroke="#2E353A" stroke-width="0.5" stroke-linecap="round" stroke-linejoin="round"/>
<path d="M89.2354 73.6968L95.3593 74.8266" stroke="#2E353A" stroke-width="0.5" stroke-linecap="round" stroke-linejoin="round"/>
<path d="M84.0381 72.7349L88.5334 73.5655" stroke="#2E353A" stroke-width="0.5" stroke-linecap="round" stroke-linejoin="round"/>
<path d="M80.5542 72.0935L83.2639 72.5943" stroke="#2E353A" stroke-width="0.5" stroke-linecap="round" stroke-linejoin="round"/>
<path d="M92.9053 77.0649L95.0969 77.468" stroke="#2E353A" stroke-width="0.5" stroke-linecap="round" stroke-linejoin="round"/>
<path d="M80.292 74.738L91.4316 76.7932" stroke="#2E353A" stroke-width="0.5" stroke-linecap="round" stroke-linejoin="round"/>
<path d="M88.6387 78.9674L94.8343 80.1125" stroke="#2E353A" stroke-width="0.5" stroke-linecap="round" stroke-linejoin="round"/>
<path d="M80.0273 77.3795L87.5846 78.7751" stroke="#2E353A" stroke-width="0.5" stroke-linecap="round" stroke-linejoin="round"/>
<path d="M90.5522 82.015L94.5698 82.754" stroke="#2E353A" stroke-width="0.5" stroke-linecap="round" stroke-linejoin="round"/>
<path d="M82.4048 80.5095L89.5695 81.8318" stroke="#2E353A" stroke-width="0.5" stroke-linecap="round" stroke-linejoin="round"/>
<path d="M79.7646 80.0239L81.5615 80.3537" stroke="#2E353A" stroke-width="0.5" stroke-linecap="round" stroke-linejoin="round"/>
<path d="M98.4907 60.7674C98.4907 60.7674 98.8048 56.6205 99.9264 58.2878" stroke="#2E353A" stroke-linecap="round" stroke-linejoin="round"/>
<path d="M92.2771 92.7121L92.2569 95.3474L91.1286 93.1793L86.5996 72.4417L87.7481 71.9745L92.2771 92.7121Z" fill="white" stroke="#2E353A" stroke-linecap="round" stroke-linejoin="round"/>
<path d="M87.2985 72.8607L86.6719 73.1095L91.1219 93.8795L91.7485 93.6306L87.2985 72.8607Z" fill="#B00037" stroke="#2E353A" stroke-width="0.5" stroke-linecap="round" stroke-linejoin="round"/>
<path d="M92.2771 92.7183L91.1309 93.1824L92.2569 95.3475L92.2771 92.7183Z" stroke="#2E353A" stroke-linecap="round" stroke-linejoin="round"/>
<path d="M91.6938 94.2633L92.2569 95.3474L92.2681 94.0312L91.6938 94.2633Z" fill="#2E353A" stroke="#2E353A" stroke-linecap="round" stroke-linejoin="round"/>
<path d="M86.6673 69.8858C86.5153 69.948 86.3876 70.0895 86.3119 70.2795C86.2363 70.4694 86.2189 70.6923 86.2635 70.8996L86.6 72.4417L87.7485 71.9776L87.412 70.4355C87.3663 70.2286 87.2624 70.0547 87.1228 69.9517C86.9833 69.8487 86.8196 69.8251 86.6673 69.8858Z" fill="white" stroke="#2E353A" stroke-linecap="round" stroke-linejoin="round"/>
<path d="M86.6673 69.8858C86.5153 69.948 86.3876 70.0895 86.3119 70.2795C86.2363 70.4694 86.2189 70.6923 86.2635 70.8996L86.425 71.6356L87.5713 71.1714L87.412 70.4355C87.3663 70.2286 87.2624 70.0547 87.1229 69.9517C86.9833 69.8487 86.8196 69.8251 86.6673 69.8858Z" fill="#2E353A" stroke="#2E353A" stroke-linecap="round" stroke-linejoin="round"/>
<path d="M30.1796 57.6372C30.0361 57.912 29.8947 58.1991 29.7534 58.5014" stroke="white" stroke-linecap="round" stroke-linejoin="round"/>
<path d="M32.5259 53.9606C31.9009 54.7493 31.3226 55.6039 30.7964 56.5165" stroke="white" stroke-linecap="round" stroke-linejoin="round"/>
<path d="M29.9796 55.5822C29.3667 56.7524 28.8114 57.9765 28.3174 59.2466" stroke="white" stroke-linecap="round" stroke-linejoin="round"/>
<path d="M45.8007 62.2971C45.6594 62.572 45.5158 62.859 45.3745 63.1583" stroke="white" stroke-linecap="round" stroke-linejoin="round"/>
<path d="M48.1472 58.6206C47.5233 59.4099 46.9458 60.2645 46.4199 61.1765" stroke="white" stroke-linecap="round" stroke-linejoin="round"/>
<path d="M45.6036 60.236C44.9911 61.4129 44.4358 62.6431 43.9414 63.9187" stroke="white" stroke-linecap="round" stroke-linejoin="round"/>
<path d="M68.1923 54.7393C67.9882 54.55 67.7729 54.3607 67.5508 54.1714" stroke="white" stroke-linecap="round" stroke-linejoin="round"/>
<path d="M70.9289 57.8785C70.3389 57.0421 69.7022 56.2692 69.0244 55.5669" stroke="white" stroke-linecap="round" stroke-linejoin="round"/>
<path d="M69.6999 54.4339C68.827 53.6178 67.9158 52.8803 66.9722 52.2261" stroke="white" stroke-linecap="round" stroke-linejoin="round"/>
<path d="M45.1189 73.6721C45.0023 74.8203 44.8273 76.4204 44.6523 77.3701" stroke="#2E353A" stroke-linecap="round" stroke-linejoin="round"/>
<path d="M45.2488 72.2766C45.2488 72.2766 45.2309 72.4934 45.1973 72.8446" stroke="#2E353A" stroke-linecap="round" stroke-linejoin="round"/>
<path d="M45.848 75.5349C45.603 76.6472 45.3033 77.7358 44.9507 78.7932" stroke="#2E353A" stroke-linecap="round" stroke-linejoin="round"/>
<path d="M57.064 77.1626C57.064 77.1626 57.2143 79.8101 58.2596 81.2362" stroke="#2E353A" stroke-linecap="round" stroke-linejoin="round"/>
<path d="M56.9136 79.8101C56.9136 79.8101 57.3622 81.6423 58.2595 82.4576" stroke="#2E353A" stroke-linecap="round" stroke-linejoin="round"/>
<g style="mix-blend-mode:multiply">
<path d="M26.4443 93.9609C26.4443 93.9609 27.4403 92.8707 27.4403 83.4989C27.4403 74.1272 28.5866 67.2808 29.9998 64.279C31.413 61.2772 32.7342 60.0741 33.3533 60.0741C33.9724 60.0741 33.5283 61.1551 32.6467 62.7155C31.7651 64.2759 30.9711 65.1188 30.6166 67.0426C30.2622 68.9664 30.2645 71.3666 30.7064 71.1254C31.1483 70.8841 31.8526 66.0807 32.4695 64.279C33.0864 62.4773 34.5893 60.1932 35.4708 59.1122C36.3524 58.0312 38.295 54.7881 39.1766 55.6279C40.0581 56.4677 39.531 57.6708 39.0016 58.1502C38.4722 58.6297 36.3524 61.5093 35.3834 63.3171C34.4143 65.1249 33.7952 69.684 34.3246 69.8031C34.854 69.9222 36.4421 63.198 37.3237 61.7567C38.2053 60.3153 41.736 56.3486 42.5301 56.2295C43.3242 56.1104 43.4139 57.7899 42.7073 58.6327C42.0007 59.4755 39.6185 63.0759 38.8244 65.2379C38.0303 67.3999 37.6759 71.3666 38.3757 70.4047C39.0756 69.4428 40.2286 65.4791 41.1999 64.1569C42.1712 62.8346 45.0828 58.6327 45.7894 59.1122C46.496 59.5916 46.3188 60.7947 45.7019 61.6345C45.0851 62.4743 42.7006 67.0426 42.0837 69.4428C41.4668 71.843 40.758 78.5733 41.1124 77.6145C41.4668 76.6556 42.6131 71.727 43.23 69.6749C43.8468 67.6228 45.0828 66.6731 45.26 67.632C45.4372 68.5908 45.0828 69.0733 44.6409 71.2384C44.199 73.4034 44.1923 79.178 42.8778 82.4088C41.5633 85.6396 36.2874 92.5531 35.583 94.9533C35.0728 96.6065 34.4636 98.1998 33.7615 99.7171" fill="#B00037"/>
</g>
<g style="mix-blend-mode:multiply">
<path d="M75.4688 94.7731C75.4688 94.7731 74.4482 92.8707 74.4482 83.4989C74.4482 74.1271 73.2997 67.2808 71.8887 64.279C70.4778 61.2772 69.1521 60.0741 68.5352 60.0741C67.9183 60.0741 68.358 61.1551 69.2418 62.7155C70.1256 64.2759 70.9174 65.1188 71.2606 67.0426C71.6038 68.9664 71.6151 71.3666 71.1731 71.1254C70.7312 70.8841 70.0269 66.0807 69.4078 64.279C68.7887 62.4773 67.2902 60.1932 66.4087 59.1122C65.5271 58.0311 63.5845 54.7881 62.7007 55.6279C61.8169 56.4677 62.3485 57.6708 62.8779 58.1502C63.4073 58.6297 65.5249 61.5093 66.4961 63.3171C67.4674 65.1249 68.0843 69.684 67.5549 69.8031C67.0255 69.9222 65.4441 63.198 64.5625 61.7628C63.681 60.3275 60.148 56.3547 59.3539 56.2356C58.5598 56.1165 58.4723 57.796 59.1789 58.6388C59.8855 59.4817 62.2678 63.0819 63.0619 65.244C63.8559 67.406 64.2081 71.3727 63.5105 70.4108C62.8129 69.4489 61.6576 65.4852 60.6886 64.163C59.7195 62.8407 56.8057 58.6388 56.0991 59.1183C55.3925 59.5977 55.5697 60.8008 56.1866 61.6406C56.8034 62.4804 59.1879 67.0487 59.8048 69.4489C60.4217 71.8491 61.1282 78.5794 60.7761 77.6206C60.4239 76.6617 59.2754 71.7331 58.6585 69.681C58.0416 67.6289 56.8057 66.6792 56.6285 67.6381C56.4512 68.5969 56.8057 69.0794 57.2453 71.2445C57.685 73.4095 57.694 79.1841 59.0107 82.4149C60.3274 85.6457 65.4531 91.9515 66.1597 94.3548C66.8663 96.758 68.1449 100.545 68.1449 100.545" fill="#B00037"/>
</g>
<path d="M26.1079 96.2695C26.1079 96.2695 27.4314 90.385 27.4314 81.001C27.4314 71.617 28.5776 64.7829 29.9908 61.7811C31.404 58.7793 32.7253 57.5761 33.3444 57.5761C33.9635 57.5761 33.5193 58.6572 32.6378 60.2176C31.7562 61.778 30.9621 62.6208 30.6077 64.5416C30.2533 66.4624 30.2555 68.8687 30.6974 68.6275C31.1393 68.3862 31.8437 63.5828 32.4606 61.7811C33.0774 59.9794 34.5804 57.6952 35.4619 56.6142C36.3435 55.5332 38.2861 52.2902 39.1676 53.13C40.0492 53.9697 39.5221 55.1729 38.9927 55.6523C38.4633 56.1318 36.3435 59.0114 35.3744 60.8192C34.4054 62.627 33.7863 67.1861 34.3157 67.3052C34.8451 67.4243 36.4332 60.7001 37.3148 59.2557C38.1964 57.8113 41.7271 53.8506 42.5212 53.7315C43.3153 53.6125 43.405 55.292 42.6984 56.1348C41.9918 56.9776 39.6095 60.5779 38.8155 62.7399C38.0214 64.902 37.667 68.8687 38.3668 67.9068C39.0667 66.9449 40.2197 62.9812 41.191 61.6589C42.1623 60.3367 45.0739 56.1348 45.7805 56.6142C46.4871 57.0937 46.3099 58.2968 45.693 59.1366C45.0762 59.9763 42.6917 64.5416 42.0748 66.9449C41.4579 69.3481 40.7491 76.0754 41.1035 75.1135C41.4579 74.1516 42.6042 69.229 43.2211 67.1739C43.8379 65.1188 45.0739 64.1691 45.2511 65.131C45.4283 66.0929 45.0739 66.5723 44.632 68.7343C44.1901 70.8963 44.1834 76.6739 42.8689 79.9078C41.5544 83.1417 36.4265 91.921 35.7199 94.3243C35.0133 96.7275 33.4251 102.013 33.4251 102.013" fill="white"/>
<path d="M26.1079 96.2695C26.1079 96.2695 27.4314 90.385 27.4314 81.001C27.4314 71.617 28.5776 64.7829 29.9908 61.7811C31.404 58.7793 32.7253 57.5761 33.3444 57.5761C33.9635 57.5761 33.5193 58.6572 32.6378 60.2176C31.7562 61.778 30.9621 62.6208 30.6077 64.5416C30.2533 66.4624 30.2555 68.8687 30.6974 68.6275C31.1393 68.3862 31.8437 63.5828 32.4606 61.7811C33.0774 59.9794 34.5804 57.6952 35.4619 56.6142C36.3435 55.5332 38.2861 52.2902 39.1676 53.13C40.0492 53.9697 39.5221 55.1729 38.9927 55.6523C38.4633 56.1318 36.3435 59.0114 35.3744 60.8192C34.4054 62.627 33.7863 67.1861 34.3157 67.3052C34.8451 67.4243 36.4332 60.7001 37.3148 59.2557C38.1964 57.8113 41.7271 53.8506 42.5212 53.7315C43.3153 53.6125 43.405 55.292 42.6984 56.1348C41.9918 56.9776 39.6095 60.5779 38.8155 62.7399C38.0214 64.902 37.667 68.8687 38.3668 67.9068C39.0667 66.9449 40.2197 62.9812 41.191 61.6589C42.1623 60.3367 45.0739 56.1348 45.7805 56.6142C46.4871 57.0937 46.3099 58.2968 45.693 59.1366C45.0762 59.9763 42.6917 64.5416 42.0748 66.9449C41.4579 69.3481 40.7491 76.0754 41.1035 75.1135C41.4579 74.1516 42.6042 69.229 43.2211 67.1739C43.8379 65.1188 45.0739 64.1691 45.2511 65.131C45.4283 66.0929 45.0739 66.5723 44.632 68.7343C44.1901 70.8963 44.1834 76.6739 42.8689 79.9078C41.5544 83.1417 36.4265 91.921 35.7199 94.3243C35.0133 96.7275 33.4251 102.013 33.4251 102.013" stroke="#2E353A" stroke-linecap="round" stroke-linejoin="round"/>
<path d="M75.7697 96.2695C75.7697 96.2695 74.4462 90.385 74.4462 81.001C74.4462 71.617 73.2977 64.7829 71.8867 61.7811C70.4758 58.7793 69.15 57.5761 68.5332 57.5761C67.9163 57.5761 68.356 58.6572 69.2398 60.2176C70.1236 61.778 70.9154 62.6208 71.2586 64.5416C71.6018 66.4624 71.6131 68.8687 71.1711 68.6275C70.7292 68.3862 70.0249 63.5828 69.4058 61.7811C68.7866 59.9794 67.2882 57.6952 66.4066 56.6142C65.5251 55.5332 63.5825 52.2902 62.6987 53.13C61.8149 53.9697 62.3465 55.1729 62.8759 55.6523C63.4053 56.1318 65.5228 59.0114 66.4941 60.8192C67.4654 62.627 68.0823 67.1861 67.5529 67.3052C67.0235 67.4243 65.4353 60.7001 64.5538 59.2557C63.6722 57.8113 60.1392 53.8506 59.3451 53.7315C58.551 53.6125 58.4636 55.292 59.1702 56.1348C59.8768 56.9776 62.259 60.5779 63.0531 62.7399C63.8472 64.902 64.1994 68.8687 63.5017 67.9068C62.8041 66.9449 61.6489 62.9812 60.6798 61.6589C59.7108 60.3367 56.7969 56.1348 56.0903 56.6142C55.3837 57.0937 55.5609 58.2968 56.1778 59.1366C56.7946 59.9763 59.1791 64.5416 59.796 66.9449C60.4129 69.3481 61.1195 76.0754 60.7673 75.1135C60.4151 74.1516 59.2666 69.229 58.6497 67.1739C58.0329 65.1188 56.7969 64.1691 56.6197 65.131C56.4425 66.0929 56.7969 66.5723 57.2365 68.7343C57.6762 70.8963 57.6852 76.6739 59.0019 79.9078C60.3187 83.1417 65.4443 91.921 66.1509 94.3243C66.8575 96.7275 68.4457 102.013 68.4457 102.013" fill="white"/>
<path d="M75.7697 96.2695C75.7697 96.2695 74.4462 90.385 74.4462 81.001C74.4462 71.617 73.2977 64.7829 71.8867 61.7811C70.4758 58.7793 69.15 57.5761 68.5332 57.5761C67.9163 57.5761 68.356 58.6572 69.2398 60.2176C70.1236 61.778 70.9154 62.6208 71.2586 64.5416C71.6018 66.4624 71.6131 68.8687 71.1711 68.6275C70.7292 68.3862 70.0249 63.5828 69.4058 61.7811C68.7866 59.9794 67.2882 57.6952 66.4066 56.6142C65.5251 55.5332 63.5825 52.2902 62.6987 53.13C61.8149 53.9697 62.3465 55.1729 62.8759 55.6523C63.4053 56.1318 65.5228 59.0114 66.4941 60.8192C67.4654 62.627 68.0823 67.1861 67.5529 67.3052C67.0235 67.4243 65.4353 60.7001 64.5538 59.2557C63.6722 57.8113 60.1392 53.8506 59.3451 53.7315C58.551 53.6125 58.4636 55.292 59.1702 56.1348C59.8768 56.9776 62.259 60.5779 63.0531 62.7399C63.8472 64.902 64.1994 68.8687 63.5017 67.9068C62.8041 66.9449 61.6489 62.9812 60.6798 61.6589C59.7108 60.3367 56.7969 56.1348 56.0903 56.6142C55.3837 57.0937 55.5609 58.2968 56.1778 59.1366C56.7946 59.9763 59.1791 64.5416 59.796 66.9449C60.4129 69.3481 61.1195 76.0754 60.7673 75.1135C60.4151 74.1516 59.2666 69.229 58.6497 67.1739C58.0329 65.1188 56.7969 64.1691 56.6197 65.131C56.4425 66.0929 56.7969 66.5723 57.2365 68.7343C57.6762 70.8963 57.6852 76.6739 59.0019 79.9078C60.3187 83.1417 65.4443 91.921 66.1509 94.3243C66.8575 96.7275 68.4457 102.013 68.4457 102.013" stroke="#2E353A" stroke-linecap="round" stroke-linejoin="round"/>
<path d="M20.5225 114.592H33.9815C34.1564 113.676 34.3763 112.649 34.6544 111.538C35.7132 107.22 39.1407 101.821 39.1407 101.821C36.6842 98.8758 33.7975 96.6716 30.6705 95.3534C25.5113 93.1913 21.7338 93.8265 21.7338 93.8265C22.4292 97.7295 22.5056 101.789 21.9581 105.736C21.2851 110.182 20.8365 112.995 20.5225 114.592Z" fill="#2E353A" stroke="#2E353A" stroke-linecap="round" stroke-linejoin="round"/>
<path d="M67.8084 114.592H81.7923C81.3437 113.01 80.3746 109.574 79.4056 106.139C78.0821 101.461 78.6115 95.164 78.0821 95.164C77.5527 95.164 71.6061 94.6235 68.6989 95.8816C65.7918 97.1398 62.4854 100.74 62.4854 100.74C63.9821 103.108 65.2688 105.707 66.3189 108.484C66.9939 110.431 67.494 112.482 67.8084 114.592Z" fill="#2E353A" stroke="#2E353A" stroke-linecap="round" stroke-linejoin="round"/>
<path d="M28.93 97.5521C28.8335 97.0329 27.3979 97.8147 27.3979 97.8147C27.3979 97.8147 27.8779 95.3412 27.113 95.3412C26.3481 95.3412 26.2516 97.1734 26.2516 97.1734C26.2516 97.1734 24.816 96.3947 24.816 97.5643C24.816 98.7338 25.7716 98.7125 25.7716 98.7125C25.7716 98.7125 24.6231 100.667 25.4845 101.055C26.3458 101.442 26.9178 100.013 26.9178 100.013C26.9178 100.013 27.4921 101.317 28.2638 100.795C29.0354 100.273 28.4544 99.1033 28.4544 99.1033C28.4544 99.1033 29.0242 98.0742 28.93 97.5521ZM27.0165 99.5064C26.9443 99.4846 26.8781 99.4354 26.8256 99.3645C26.773 99.2937 26.7362 99.204 26.7195 99.106C26.7027 99.0079 26.7066 98.9054 26.7308 98.8102C26.7549 98.715 26.7984 98.6311 26.856 98.5681C26.9137 98.505 26.9833 98.4654 27.0568 98.4539C27.1303 98.4424 27.2046 98.4593 27.2714 98.5028C27.3381 98.5463 27.3944 98.6146 27.4338 98.6998C27.4733 98.7849 27.4943 98.8836 27.4943 98.9842C27.4782 99.1375 27.4198 99.2767 27.3311 99.3737C27.2424 99.4706 27.13 99.5181 27.0165 99.5064ZM31.0341 112.149C30.9376 111.63 29.502 112.411 29.502 112.411C29.502 112.411 29.982 109.938 29.2149 109.938C28.4477 109.938 28.3557 111.77 28.3557 111.77C28.3557 111.77 26.9201 110.988 26.9201 112.158C26.9201 113.327 27.8779 113.33 27.8779 113.33C27.8779 113.33 26.7294 115.285 27.5908 115.676C28.4522 116.067 29.0242 114.631 29.0242 114.631C29.0242 114.631 29.5984 115.935 30.3701 115.413C31.1417 114.891 30.5608 113.721 30.5608 113.721C30.5608 113.721 31.1283 112.656 31.0341 112.149ZM29.1206 114.103C29.0484 114.081 28.9822 114.032 28.9297 113.961C28.8771 113.89 28.8403 113.801 28.8236 113.703C28.8068 113.605 28.8107 113.502 28.8349 113.407C28.859 113.312 28.9025 113.228 28.9601 113.165C29.0178 113.102 29.0874 113.062 29.1609 113.051C29.2344 113.039 29.3087 113.056 29.3755 113.099C29.4422 113.143 29.4985 113.211 29.5379 113.296C29.5774 113.382 29.5984 113.48 29.5984 113.581C29.5822 113.733 29.5235 113.871 29.4344 113.965C29.3454 114.06 29.2329 114.104 29.1206 114.088V114.103ZM22.6154 114.103C22.519 113.581 21.0856 114.363 21.0856 114.363C21.0856 114.363 21.5634 111.889 20.7985 111.889C20.0336 111.889 19.9371 113.721 19.9371 113.721C19.9371 113.721 18.5015 112.94 18.5015 114.112C18.5015 115.285 19.4593 115.285 19.4593 115.285C19.4593 115.285 18.3108 117.236 19.1722 117.627C20.0336 118.018 20.6056 116.586 20.6056 116.586C20.6056 116.586 21.1798 117.887 21.9515 117.367C22.7231 116.848 22.1444 115.676 22.1444 115.676C22.1444 115.676 22.7119 114.607 22.6177 114.088L22.6154 114.103ZM20.702 116.054C20.6297 116.032 20.5635 115.983 20.5109 115.912C20.4583 115.841 20.4215 115.751 20.4048 115.653C20.3881 115.555 20.3922 115.452 20.4165 115.357C20.4409 115.262 20.4845 115.178 20.5424 115.115C20.6003 115.052 20.67 115.013 20.7437 115.002C20.8173 114.99 20.8917 115.008 20.9583 115.052C21.025 115.096 21.0812 115.164 21.1204 115.25C21.1596 115.336 21.1802 115.434 21.1798 115.535C21.1631 115.686 21.1044 115.823 21.0159 115.916C20.9274 116.01 20.8159 116.054 20.7043 116.039L20.702 116.054ZM33.0395 103.946H34.0915C34.8564 103.946 35.3342 105.119 35.3342 105.119C33.7102 105.754 33.0417 103.931 33.0417 103.931L33.0395 103.946ZM31.9874 114.103H33.0395C33.8044 114.103 34.2822 115.276 34.2822 115.276C32.6581 115.911 31.9897 114.088 31.9897 114.088L31.9874 114.103ZM22.8084 112.149H23.8604C24.6253 112.149 25.1031 113.321 25.1031 113.321C23.4768 113.956 22.8084 112.149 22.8084 112.149ZM27.8936 102.96L28.5083 104.124C28.9569 104.973 28.5329 106.182 28.5329 106.182C27.196 104.75 27.8936 102.945 27.8936 102.945V102.96ZM22.6311 106.851L23.1112 105.577C23.4634 104.661 24.4459 104.606 24.4459 104.606C24.1161 106.872 22.6311 106.851 22.6311 106.851Z" fill="white"/>
<path d="M73.975 100.026C73.8785 99.5064 72.4429 100.288 72.4429 100.288C72.4429 100.288 72.9229 97.8147 72.158 97.8147C71.3931 97.8147 71.2966 99.6469 71.2966 99.6469C71.2966 99.6469 69.861 98.8682 69.861 100.038C69.861 101.207 70.8188 101.21 70.8188 101.21C70.8188 101.21 69.6703 103.165 70.5317 103.556C71.3931 103.947 71.9651 102.511 71.9651 102.511C71.9651 102.511 72.5393 103.815 73.311 103.293C74.0826 102.771 73.5016 101.601 73.5016 101.601C73.5016 101.601 74.0692 100.545 73.975 100.026ZM72.0615 101.98C71.9893 101.958 71.9231 101.909 71.8706 101.838C71.818 101.767 71.7812 101.678 71.7644 101.579C71.7477 101.481 71.7516 101.379 71.7757 101.284C71.7999 101.189 71.8433 101.105 71.901 101.042C71.9587 100.979 72.0283 100.939 72.1018 100.927C72.1752 100.916 72.2496 100.933 72.3163 100.976C72.383 101.02 72.4394 101.088 72.4788 101.173C72.5183 101.258 72.5392 101.357 72.5393 101.458C72.5258 101.613 72.4681 101.754 72.3788 101.852C72.2895 101.949 72.1755 101.995 72.0615 101.98ZM78.468 110.182C78.3738 109.66 76.9382 110.442 76.9382 110.442C76.9382 110.442 77.416 107.968 76.6511 107.968C75.8861 107.968 75.7919 109.8 75.7919 109.8C75.7919 109.8 74.3563 109.019 74.3563 110.191C74.3563 111.364 75.3119 111.364 75.3119 111.364C75.3119 111.364 74.1656 113.315 75.027 113.706C75.8884 114.097 76.4604 112.665 76.4604 112.665C76.4604 112.665 77.0346 113.966 77.8063 113.447C78.578 112.927 77.997 111.755 77.997 111.755C77.997 111.755 78.5645 110.701 78.468 110.182ZM76.5568 112.149C76.4846 112.127 76.4183 112.078 76.3657 112.007C76.3131 111.936 76.2763 111.846 76.2596 111.748C76.2429 111.649 76.247 111.547 76.2713 111.451C76.2957 111.356 76.3393 111.272 76.3972 111.209C76.4551 111.147 76.5249 111.107 76.5985 111.096C76.6721 111.085 76.7465 111.102 76.8132 111.146C76.8798 111.19 76.936 111.259 76.9752 111.344C77.0144 111.43 77.035 111.529 77.0346 111.63C77.0206 111.784 76.9627 111.925 76.8734 112.022C76.7841 112.119 76.6705 112.164 76.5568 112.149ZM73.6878 114.103C73.5914 113.581 72.158 114.363 72.158 114.363C72.158 114.363 72.6358 111.889 71.8709 111.889C71.1059 111.889 71.0095 113.721 71.0095 113.721C71.0095 113.721 69.5738 112.94 69.5738 114.112C69.5738 115.285 70.5317 115.285 70.5317 115.285C70.5317 115.285 69.3832 117.236 70.2445 117.627C71.1059 118.018 71.6779 116.586 71.6779 116.586C71.6779 116.586 72.2522 117.887 73.0238 117.367C73.7955 116.848 73.2168 115.676 73.2168 115.676C73.2168 115.676 73.7753 114.607 73.6878 114.088V114.103ZM71.7744 116.054C71.7021 116.033 71.6358 115.983 71.5832 115.912C71.5306 115.841 71.4939 115.751 71.4772 115.653C71.4605 115.555 71.4645 115.452 71.4889 115.357C71.5132 115.262 71.5569 115.178 71.6148 115.115C71.6727 115.052 71.7424 115.013 71.816 115.002C71.8896 114.99 71.9641 115.008 72.0307 115.052C72.0974 115.096 72.1536 115.164 72.1927 115.25C72.2319 115.336 72.2525 115.434 72.2522 115.535C72.2355 115.687 72.1765 115.824 72.0875 115.918C71.9985 116.011 71.8864 116.055 71.7744 116.039V116.054ZM78.0867 106.42H79.1387C79.9037 106.42 80.3815 107.593 80.3815 107.593C78.7552 108.228 78.0867 106.405 78.0867 106.405V106.42ZM66.8013 113.828H67.8533C68.6182 113.828 69.096 114.998 69.096 114.998C67.4697 115.651 66.8013 113.828 66.8013 113.828ZM72.9386 105.431L73.5532 106.594C74.0019 107.443 73.5779 108.652 73.5779 108.652C72.241 107.223 72.9386 105.431 72.9386 105.431ZM79.1589 112.711L79.7713 113.874C80.22 114.72 79.796 115.932 79.796 115.932C78.4591 114.512 79.1589 112.711 79.1589 112.711ZM67.6671 109.324L68.1472 108.051C68.4994 107.135 69.4931 107.08 69.4931 107.08C69.1611 109.345 67.6649 109.324 67.6649 109.324H67.6671Z" fill="white"/>
</svg>
