<svg width="51" height="50" viewBox="0 0 51 50" fill="none" xmlns="http://www.w3.org/2000/svg">
<path d="M25.1555 12.1779C18.0563 12.1779 12.3301 17.9002 12.3301 24.9944C12.3301 32.0887 18.0563 37.8109 25.1555 37.8109C32.2547 37.8109 37.9809 32.0887 37.9809 24.9944C37.9809 17.9002 32.2547 12.1779 25.1555 12.1779ZM25.1555 33.3268C20.5678 33.3268 16.8173 29.5901 16.8173 24.9944C16.8173 20.3988 20.5567 16.662 25.1555 16.662C29.7544 16.662 33.4937 20.3988 33.4937 24.9944C33.4937 29.5901 29.7432 33.3268 25.1555 33.3268ZM41.497 11.6537C41.497 13.3157 40.1576 14.6431 38.5056 14.6431C36.8424 14.6431 35.5141 13.3045 35.5141 11.6537C35.5141 10.0028 36.8535 8.66425 38.5056 8.66425C40.1576 8.66425 41.497 10.0028 41.497 11.6537ZM49.9915 14.6877C49.8017 10.6832 48.8864 7.13608 45.9508 4.21361C43.0263 1.29113 39.4767 0.376464 35.4694 0.175683C31.3394 -0.0585611 18.9605 -0.0585611 14.8304 0.175683C10.8344 0.36531 7.28477 1.27998 4.3491 4.20245C1.41344 7.12493 0.509294 10.6721 0.308374 14.6765C0.0739666 18.8037 0.0739666 31.174 0.308374 35.3012C0.498132 39.3056 1.41344 42.8528 4.3491 45.7752C7.28477 48.6977 10.8232 49.6124 14.8304 49.8132C18.9605 50.0474 31.3394 50.0474 35.4694 49.8132C39.4767 49.6235 43.0263 48.7089 45.9508 45.7752C48.8753 42.8528 49.7906 39.3056 49.9915 35.3012C50.2259 31.174 50.2259 18.8148 49.9915 14.6877ZM44.6559 39.7295C43.7853 41.9158 42.0998 43.6001 39.9008 44.4813C36.608 45.7864 28.7944 45.4852 25.1555 45.4852C21.5166 45.4852 13.6919 45.7752 10.4102 44.4813C8.2224 43.6113 6.5369 41.9269 5.65509 39.7295C4.3491 36.4389 4.65048 28.6308 4.65048 24.9944C4.65048 21.3581 4.36027 13.5388 5.65509 10.2593C6.52574 8.07306 8.21124 6.38873 10.4102 5.50753C13.7031 4.20245 21.5166 4.50362 25.1555 4.50362C28.7944 4.50362 36.6191 4.21361 39.9008 5.50753C42.0886 6.37758 43.7741 8.06191 44.6559 10.2593C45.9619 13.5499 45.6605 21.3581 45.6605 24.9944C45.6605 28.6308 45.9619 36.4501 44.6559 39.7295Z" fill="#F8F8F8"/>
</svg>
