<svg width="350" height="319" viewBox="0 0 350 319" fill="none" xmlns="http://www.w3.org/2000/svg">
<path d="M258.097 136.822C258.916 146.93 260.659 157.031 258.44 167.174C257.481 171.57 256.585 175.98 255.64 180.376C254.842 180.81 254.737 181.685 254.429 182.406C249.788 193.431 244.377 203.994 236.229 212.961C234.367 215.019 232.61 217.161 230.804 219.261L230.391 219.772C226.03 221.872 223.349 225.988 219.527 228.781C213.621 233.105 207.099 236.518 200.179 238.903C199.521 239.127 198.632 239.547 198.24 238.903C196.903 236.628 195.293 238.028 193.739 238.406C190.491 239.183 188.734 240.982 187.565 244.391C186.165 248.507 182.714 251.657 180.124 255.213C169.512 269.787 168.714 271.943 167.524 289.667C164.171 288.603 161.833 286.09 159.229 284.067C150.038 276.969 141.351 269.332 134.603 259.749C134.064 258.986 133.819 257.383 132.503 257.922C131.355 258.391 132.118 259.791 131.992 260.771C131.95 261.58 131.95 262.391 131.992 263.2C131.992 263.382 131.782 263.557 131.467 264.068C125.517 258.881 119.315 254.149 114.772 247.569C110.152 240.884 106.715 233.807 105.854 225.645C105.658 223.839 104.636 223.398 103.012 223.363C95.7602 223.188 88.7462 221.865 82.1942 218.617C73.0102 214.067 65.0512 208.005 59.0942 199.528C58.7022 198.968 58.0442 198.464 58.3942 197.715C58.7442 196.966 59.5281 197.225 60.2211 197.281C66.3706 197.686 72.5423 197.611 78.6802 197.057C80.0802 196.952 81.8372 197.204 82.2852 195.657C82.6842 194.292 80.7732 194.257 80.0032 193.48C78.6032 192.08 77.2031 190.771 75.5161 189.196C77.1378 188.431 78.9698 188.234 80.7171 188.636C83.7901 189.175 86.5341 187.614 89.5231 187.775C91.1121 187.859 91.0492 186.375 91.1612 185.199C91.6162 180.817 90.4611 176.631 89.4321 172.48C84.8401 153.503 86.8351 135.163 94.3321 117.271C95.2771 115.024 96.0122 112.693 96.8452 110.404C98.1192 109.879 98.0001 108.78 97.9581 107.709C99.4701 107.443 99.7711 106.001 100.408 104.993C105.399 96.9401 111.683 89.7646 119.007 83.7552C123.97 79.7092 129.689 76.9162 134.876 73.2552L136.78 72.4782C137.205 72.5891 137.655 72.551 138.055 72.3701C138.455 72.1891 138.781 71.8765 138.978 71.4842C144.886 70.3572 150.486 68.1172 156.478 67.1022C172.984 64.3022 188.755 66.6682 204.148 72.8142C206.948 73.9202 209.811 74.7952 212.359 76.4262L228.788 88.0742C232.986 92.5122 236.958 97.1592 240.688 101.997C241.43 102.963 242.214 103.222 243.362 102.564C245.637 101.262 244.398 99.4772 244.153 97.9512C242.459 107.709 248.696 114.436 253.68 121.667C254.184 127.008 256.172 131.908 258.097 136.822ZM213.157 229.684C217.279 227.244 220.827 223.945 223.559 220.01C223.867 219.954 224.259 219.912 224.021 219.485C223.958 219.38 223.461 219.527 223.16 219.555C221.858 220.199 220.612 220.528 219.611 219.037C218.484 217.364 220.311 217.189 220.969 216.489C221.963 215.362 223.321 214.515 223.069 212.716C223.505 212.572 223.914 212.356 224.28 212.079C233.198 202.279 239.582 190.778 244.006 178.479C247.156 169.736 248.962 160.496 248.206 150.829C247.282 138.929 243.551 128.093 237.748 117.929C229.992 104.377 218.708 94.2762 204.792 87.3462C201.901 85.9112 199.689 82.8312 195.972 83.1462C194.082 80.1362 190.764 80.4582 187.908 79.7092C184.359 78.4842 180.656 78.6802 176.988 78.4352C164.927 77.6162 153.321 79.1912 142.464 84.8262C137.851 86.2822 134.12 89.2572 130.242 91.9662C129.814 92.3053 129.491 92.7594 129.311 93.2752C131.537 95.6342 128.989 96.6982 127.911 97.7272C118.972 106.057 112.833 116.06 108.668 127.526C104.839 138.026 104.09 148.75 105.231 159.726C105.413 161.504 105.665 163.73 108.5 163.051C112.091 162.19 115.78 161.861 119.308 160.559C128.926 156.996 136.808 151.249 142.534 142.695C143.591 141.624 144.634 140.553 145.705 139.461C150.535 134.407 155.722 129.78 162.218 126.973C165.641 125.489 169.365 124.236 172.795 126.728C174.419 127.904 175.336 127.778 176.624 126.56C177.548 125.692 178.724 125.069 179.648 124.215C184.436 119.861 190.057 116.396 193.872 111.006C195.804 111.055 196.728 109.494 197.715 108.325C199.409 106.316 201.215 106.176 203.574 106.925C209.342 108.822 213.563 114.842 213.878 121.702C214.235 129.521 211.82 136.542 208.103 143.276C207.27 144.781 205.219 146.545 206.703 148.26C208.383 150.185 211.015 149.45 213.283 148.904C214.749 148.514 216.118 147.823 217.301 146.874C219.82 144.995 222.074 142.784 224 140.301C225.239 138.684 226.275 138.369 227.836 140.182C232.407 145.481 233.436 151.312 230.692 157.682C227.283 165.592 220.675 170.59 213.99 175.497C212.128 176.862 209.643 177.555 208.39 179.592C201.894 190.456 199.346 201.614 206.472 213.283C206.727 213.731 206.878 214.231 206.912 214.745C206.946 215.259 206.862 215.774 206.668 216.251C206.164 217.77 205.128 216.671 204.344 216.685C202.37 216.685 200.389 216.65 198.415 216.685C196.924 216.685 196.511 217.28 196.805 218.911C197.148 220.829 198.415 222.019 199.297 223.524C199.535 223.93 197.68 224.77 199.241 225.281C199.941 225.505 200.739 224.847 201.117 224.035C205.128 225.89 208.915 220.64 213.101 223.706C213.892 224.287 215.978 221.893 216.685 223.706C217.238 225.106 214.949 225.806 214.06 226.954C213.703 227.409 213.283 227.808 212.891 228.235C209.307 229.544 206.507 232.057 203.511 234.304C207.382 234.017 210.182 231.672 213.157 229.684ZM111.72 226.282C113.015 234.577 117.082 241.528 122.311 247.898C122.955 248.675 123.655 249.935 124.719 249.613C126.063 249.221 125.594 247.688 125.699 246.617C126.196 241.57 127.932 237.034 131.117 232.295C132.076 236.075 131.943 239.414 133.462 242.319C133.056 243.656 133.651 244.783 134.106 245.98C137.732 255.668 143.731 263.76 151.326 270.585C159.726 278.124 158.662 278.803 162.526 267.519C165.249 259.525 165.327 250.866 162.75 242.823C162.449 241.843 161.728 240.667 162.75 239.932C163.772 239.197 164.787 240.023 165.662 240.555C167.815 241.751 169.501 243.638 170.45 245.91C170.821 246.848 170.982 248.269 172.158 248.311C173.516 248.36 173.81 246.911 174.258 245.861C176.694 240.541 178.038 234.927 179.018 229.173C179.816 224.476 179.018 219.674 180.25 215.04C182.203 220.738 186.256 224.581 191.31 227.5C192.248 228.039 193.41 229.299 194.369 228.382C195.328 227.465 193.998 226.317 193.55 225.337C190.75 219.324 189.546 213.087 190.995 206.15C191.695 206.486 191.898 207.207 192.346 207.697C193.746 209.16 195.44 210.91 197.393 209.986C199.346 209.062 197.855 206.878 197.631 205.31C196.399 196.812 195.86 188.237 199.465 180.271C201.047 176.771 201.936 174.475 198.289 172.228C198.191 172.165 198.289 171.808 198.289 171.437C198.949 171.275 199.621 171.167 200.298 171.115C207.053 171.073 212.709 168.231 217.679 163.996C221.802 160.496 225.19 156.345 226.079 150.752C226.275 149.541 226.534 147.952 225.211 147.252C223.888 146.552 223.286 148.176 222.544 148.904C218.988 152.369 214.928 154.609 209.832 154.504C201.565 154.385 199.332 150.962 202.748 143.423C204.519 139.51 206.465 135.681 207.746 131.565C208.39 131.096 208.754 130.529 208.327 129.724C208.418 129.297 208.516 128.877 208.607 128.45C210.07 126.679 209.538 124.901 208.334 123.375C206.78 121.401 204.554 121.156 202.321 121.898C199.465 122.843 197.309 122.738 196.511 119.238C196.119 117.516 195.111 118.111 194.215 118.86C189.315 123.102 184.541 127.512 179.116 131.124C178.598 131.467 177.828 131.915 178.241 132.755C178.654 133.595 179.438 133.455 180.341 133.322C182.224 133.014 183.477 130.795 185.64 131.523C185.767 131.804 185.797 132.119 185.726 132.419C185.655 132.719 185.487 132.987 185.248 133.182C181.706 137.074 179.648 142.709 173.264 143.255C172.912 143.244 172.564 143.341 172.269 143.534C171.973 143.727 171.744 144.006 171.612 144.333C167.181 145.922 163.912 149.121 160.762 152.404C159.873 151.249 160.685 150.234 160.951 149.135C161.707 145.964 162.351 142.772 160.804 139.629C162.988 137.809 166.208 138.292 168.301 136.248C169.498 135.079 170.793 133.882 169.862 132.048C168.931 130.214 167.223 130.984 165.858 131.446C159.866 133.504 155.26 137.494 151.221 142.233C148.736 143.633 147.091 145.908 145.418 148.064C139.307 155.932 131.299 161.042 122.087 164.458C116.55 166.589 110.674 167.704 104.741 167.748C103.957 167.748 102.963 167.552 102.641 168.483C102.567 168.759 102.558 169.048 102.615 169.327C102.672 169.607 102.794 169.869 102.97 170.093C105.644 172.739 108.15 175.693 111.594 177.31C122.094 182.35 133.042 183.939 144.361 180.264C146.412 179.564 147.42 179.452 147.553 182.238C147.903 189.546 151.368 195.181 157.395 199.388C160.524 201.572 164.136 202.573 168.378 204.211C160.153 205.352 153.804 203.511 148.47 198.212C147.028 196.812 146.041 194.852 144.095 193.942C142.807 192.241 143.801 189 140.518 188.643C140.071 188.574 139.618 188.553 139.167 188.58C128.982 190.183 118.867 191.128 109.242 186.053C108.883 185.865 108.48 185.778 108.076 185.801C107.671 185.825 107.281 185.958 106.946 186.186C101.815 188.937 96.5371 191.289 90.6991 192.115C90.1391 192.199 89.4882 192.409 89.4042 193.06C89.4023 193.356 89.4991 193.644 89.6791 193.878C89.8591 194.113 90.1121 194.281 90.3981 194.355C92.0151 195.055 93.6672 195.636 95.7462 196.455C87.7382 201.523 79.2331 201.929 70.7071 201.922C70.7911 203.476 71.6802 203.938 72.3382 204.547C82.4392 213.99 94.1501 218.89 108.157 217.224C110.257 216.979 111.048 217.637 111.076 219.849C111.104 222.061 110.6 224.238 111.72 226.282Z" fill="#0C0E0C"/>
<path d="M202.182 42.2937C204.828 42.0767 207.292 42.5737 208.111 40.0817C209.259 36.5817 211.023 33.1167 210.372 29.2947C209.98 26.9987 207.628 26.9427 205.892 26.6347C203.925 26.2847 204.296 28.2797 204.002 29.3017C202.021 36.0987 200.173 42.9377 198.283 49.7697C197.625 52.1427 196.379 54.5787 199.2 56.7697C195.756 56.548 192.394 55.6212 189.323 54.0467C193.159 53.7667 193.117 50.7987 193.796 48.3557C195.602 41.8667 197.296 35.3357 199.249 28.8957C199.949 26.7047 200.159 24.9617 197.849 23.3447C203.162 24.2617 208.559 24.5277 212.689 28.0137C216.399 31.1427 214.726 40.1167 210.015 43.0287C208.349 44.0577 208.062 44.6387 209.021 46.3397C210.288 48.5867 209.812 51.0927 209.189 53.4797C208.832 54.8797 208.545 56.2027 209.287 57.5327C209.77 58.3937 210.526 59.1567 211.464 59.0657C212.64 58.9537 212.045 57.7567 212.164 57.0707C212.92 52.7307 215.104 48.9997 217.302 45.3387C219.864 41.0617 223.679 40.1657 228.089 42.4057C232.184 44.5057 233.794 48.2857 232.058 52.6607C230.832 55.8003 229.343 58.8305 227.606 61.7187C224.239 67.2557 216.735 67.1507 213.2 61.6347C212.5 60.5007 212.5 59.0447 210.19 60.1227C208.342 60.9767 204.989 57.4067 204.765 54.7607C204.669 53.2564 204.785 51.7461 205.108 50.2737C206.032 45.7587 205.99 45.4857 202.182 42.2937ZM215.748 59.3877C215.531 61.8027 216.518 63.0277 218.219 63.5877C220.165 64.2107 221.719 63.3007 222.587 61.6277C224.799 57.4277 226.976 53.2277 228.943 48.8947C229.825 46.9767 229.587 44.9187 227.41 43.8057C225.037 42.5947 223.266 43.8057 222.202 45.7797C220.053 49.7487 218.142 53.8437 216.168 57.9037C215.968 58.3795 215.827 58.8779 215.748 59.3877Z" fill="#0C0E0C"/>
<path d="M238.497 57.8899C236.082 60.8649 233.702 63.8609 231.238 66.7939C230.027 68.2429 229.775 69.6429 231.399 71.2879C228.41 71.0359 227.199 68.8029 225.148 67.3259C229.019 68.2149 230.23 65.2749 231.938 63.1609C234.199 60.3609 236.383 57.4839 238.588 54.6349C239.045 54.1136 239.453 53.5512 239.806 52.9549C240.282 52.0379 238.637 49.1399 241.507 50.6099C243.264 51.5059 246.407 52.3809 244.944 55.9089C243.453 59.5559 242.207 63.3009 240.87 67.0109C240.653 67.6199 240.023 68.2009 240.87 69.1599C244.195 66.7659 247.702 64.5049 250.873 61.8519C253.029 60.0529 254.653 60.0319 256.417 62.0829C257.285 63.0909 258.937 63.3499 259.315 65.3799C256.515 64.2249 255.353 66.0799 254.023 67.8159C251.496 71.1479 248.864 74.4029 246.232 77.6509C245.371 78.7149 243.999 79.6249 245.182 81.1509C246.365 82.6769 247.737 81.8509 249.004 81.3259C254.282 79.2259 259.504 77.0279 264.824 74.9349C265.909 74.5009 267.113 73.2479 268.261 74.6409C269.283 75.8729 267.953 76.8109 267.421 77.7069C264.53 82.6069 261.555 87.4509 258.538 92.2739C257.544 93.8559 256.473 95.3469 257.39 97.5449C254.52 95.5149 252.644 92.8829 250.313 89.9639C252.413 89.5089 253.813 92.2249 255.122 89.8029C256.228 87.8079 255.759 86.2189 254.247 84.8119C253.008 83.6639 252.287 81.7109 249.753 82.7819C247.366 83.7899 248.598 85.3509 248.353 87.1219C245.156 83.4722 241.567 80.1858 237.65 77.3219C244.867 76.5519 245.56 69.7269 249.851 66.4649L248.962 65.4289C245.959 67.6199 243.005 69.8949 239.925 71.9739C238.273 73.0939 236.348 75.9009 234.934 74.8229C232.946 73.3179 235.515 70.9309 236.047 68.9429C236.943 65.5899 238.238 62.3419 239.365 59.0519C239.827 58.5409 240.065 57.9459 239.491 57.4349C239.085 57.1269 238.7 57.4349 238.497 57.8899ZM262.731 77.7489L254.849 80.8499C254.149 81.1229 253.54 81.5499 254.149 82.3479C255.01 83.5449 255.717 85.1829 257.152 85.4979C258.349 85.7639 258.713 84.0979 259.308 83.2089C260.281 81.6899 261.198 80.1639 262.731 77.7209V77.7489Z" fill="#0C0E0C"/>
<path d="M230.853 219.268C232.659 217.168 234.416 215.019 236.278 212.968C244.398 204.001 249.809 193.438 254.478 182.413C254.786 181.713 254.891 180.817 255.689 180.383C256.356 186.335 256.12 192.353 254.989 198.233C253.967 203.574 249.851 206.493 245.889 209.503C242.718 212.439 240.37 216.153 239.078 220.276C238.315 220.612 237.678 221.074 237.727 222.019L237.027 223.167L234.836 222.985L233.877 221.977C233.877 221.081 233.394 220.871 232.61 221.186C232.358 220.969 232.113 220.745 231.91 220.528C231.847 219.821 231.322 219.59 230.853 219.268Z" fill="#DB1C23"/>
<path d="M150.563 32.1022C154.651 30.5832 158.606 30.4922 162.463 30.2612C165.816 30.0652 168.224 31.9412 169.141 35.2312C170.333 39.3611 170.706 43.6841 170.24 47.9572C169.848 51.3872 167.524 53.2982 164.255 53.7952C160.986 54.2922 157.815 54.4182 154.595 54.7122C154.042 54.7682 153.405 55.0832 153.097 54.3692C152.789 53.6552 153.314 53.3682 153.909 53.1652C155.624 52.5842 155.169 51.1492 155.064 49.9452C154.644 45.1012 154.098 40.2642 153.727 35.4132C153.608 33.4812 152.488 32.6272 150.563 32.1022ZM158.417 34.6572C158.879 39.5922 159.264 44.4572 159.817 49.2522C159.964 50.4842 159.117 52.5632 161.658 52.5772C163.87 52.5772 165.977 51.7232 166.026 49.5182C166.18 44.3291 165.653 39.1422 164.458 34.0902C163.856 31.6332 161.462 31.9342 159.502 32.0882C157.542 32.2422 158.634 33.8032 158.417 34.6572Z" fill="#0C0E0C"/>
<path d="M134.89 73.2899C129.703 76.9299 123.984 79.7229 119.021 83.7899C111.697 89.7992 105.413 96.9747 100.422 105.028C99.7852 106.036 99.4842 107.478 97.9722 107.744C100.226 100.618 102.06 93.3729 105.861 86.7439C107.702 83.5379 110.908 83.5799 113.491 82.2009C116.991 80.3389 120.491 78.5959 122.773 75.2009C123.081 74.7459 123.683 73.9829 123.935 74.0599C127.701 75.1939 131.124 71.6169 134.89 73.2899Z" fill="#04AC4D"/>
<path d="M134.372 60.8022C130.984 61.1942 128.772 59.1642 127.463 56.2662C126.005 53.1022 124.806 49.8247 123.879 46.4662C122.605 41.7412 124.67 38.3602 129.374 36.7152C133.651 35.2102 137.529 36.7152 139.454 40.9782C140.787 43.9604 141.889 47.04 142.751 50.1902C144.466 56.2592 140.924 60.7532 134.372 60.8022ZM130.872 38.1782C128.436 38.2202 126.749 40.1522 127.526 42.7002C128.982 47.4392 130.753 52.0872 132.531 56.7002C133.392 58.9542 135.387 59.5002 137.431 58.6462C139.342 57.8692 140.133 56.1682 139.398 54.0752C137.837 49.6092 136.276 45.1432 134.624 40.7122C134.379 39.9268 133.874 39.2482 133.192 38.7877C132.511 38.3272 131.692 38.1123 130.872 38.1782Z" fill="#0C0E0C"/>
<path d="M63.3223 75.39L69.4473 68.075C68.7473 72.275 72.2963 73.493 74.5223 75.404C80.3113 80.388 86.2473 85.204 92.1273 90.104C95.9283 84.364 95.9283 84.364 93.8353 78.603C96.5373 79.716 98.1962 81.816 100.191 83.44C100.597 83.769 100.667 84.378 100.191 84.574C94.5912 86.723 92.8552 92.645 88.7043 96.187C88.4794 96.291 88.245 96.3731 88.0043 96.432C88.9563 92.54 85.9672 91.182 83.7062 89.299C78.8903 85.288 74.0673 81.284 69.3143 77.203C67.6483 75.768 66.0453 74.676 63.7143 76.349L63.3223 75.39Z" fill="#0C0E0C"/>
<path d="M116.753 58.8418C119.728 55.0408 118.622 49.5248 114.835 47.2708C113.022 46.1998 111.503 47.0188 110.04 48.0828C108.451 49.2448 109.97 50.1829 110.411 50.9949C112.399 54.6699 114.52 58.2609 116.599 61.8869C118.678 65.5129 118.636 65.4359 122.794 66.2759L112.847 71.9599C116.396 66.1429 111.916 63.3359 110.047 60.0599C108.178 56.7839 107.905 51.6599 101.465 51.4779C106.022 48.6779 109.662 45.7869 114.163 44.6739C118.006 43.7289 121.485 46.6829 122.507 51.2049C123.27 54.7819 121.38 57.5468 116.753 58.8418Z" fill="#0C0E0C"/>
<path d="M83.6777 66.6331C85.7738 63.8229 88.4531 61.4994 91.5317 59.8222C89.6137 62.6222 91.4687 64.2182 92.9807 65.9612C95.6407 69.0271 98.5107 71.9671 100.744 75.3201C102.564 78.0501 104.398 76.4121 106.071 75.9081C107.982 75.3201 108.346 73.5071 108.01 71.6102C107.614 69.7848 106.723 68.1038 105.434 66.7522C103.404 64.3722 101.392 61.9735 99.3997 59.5562C98.1117 57.9882 97.0127 56.0562 94.2337 58.1562C95.4587 55.3982 97.2297 54.0332 100.331 52.4722C98.2307 55.4612 99.3717 57.0642 100.919 58.7722C103.338 61.4328 105.614 64.2205 107.737 67.1232C110.579 71.0291 110.467 74.3891 107.737 76.7691C103.446 80.4861 100.037 80.5911 96.2357 76.7691C93.7017 74.2211 91.4687 71.3791 89.1657 68.6211C87.7797 66.9901 86.5687 65.1841 83.6777 66.6331Z" fill="#0C0E0C"/>
<path d="M181.867 53.7738C178.836 53.7738 176.127 53.7738 173.418 53.7738C172.879 53.7738 172.186 53.8578 172.018 53.0738C171.85 52.2898 172.424 52.0728 173.026 51.9608C174.797 51.6458 174.643 50.2458 174.706 48.9928C174.944 44.5898 175.098 40.1798 175.406 35.7838C175.553 33.6138 175.504 31.6538 173.103 30.1838H181.832C182.336 30.1838 182.833 30.4148 182.749 30.9398C182.701 31.1497 182.604 31.3451 182.465 31.5096C182.326 31.674 182.15 31.8027 181.951 31.8848C180.019 32.2068 180.096 33.6488 180.033 35.0628C179.844 39.2628 179.599 43.3998 179.445 47.5718C179.305 51.3518 179.347 51.3518 181.867 53.7738Z" fill="#0C0E0C"/>
<path d="M228.782 88.0879L212.353 76.4399C217.904 74.3889 218.17 74.4939 220.753 79.4149C221.824 81.4239 222.622 83.4609 225.653 83.5659C228.005 83.6499 228.096 86.3169 228.782 88.0879Z" fill="#DB1C23"/>
<path d="M198.982 253.386C197.134 253.057 198.044 251.559 197.848 250.586C197.596 249.347 197.295 248.745 196.224 249.991C195.23 253.155 195.839 256.291 196.224 259.448C197.309 258.048 198.324 256.648 196.924 255.01C198.135 254.576 199.619 253.897 199.654 256.018C199.689 258.139 200.571 260.729 197.61 261.569C195.699 262.108 194.943 260.603 194.67 258.993C194.143 256.147 194.169 253.226 194.747 250.39C195.013 249.214 195.552 248.129 196.896 247.996C198.24 247.863 198.996 248.696 199.269 249.984L198.982 253.386Z" fill="#0C0E0C"/>
<path d="M258.097 136.822C256.172 131.922 254.184 127.022 253.673 121.681C257.173 122.892 257.775 126.042 258.272 129.01C258.718 131.601 258.658 134.253 258.097 136.822Z" fill="#DB1C23"/>
<path d="M212.086 261.289C209.482 261.548 208.348 261.338 208.439 258.258C208.495 256.319 211.323 255.129 209.496 253.057C208.096 252.609 208.796 255.514 207.158 254.576C206.962 254.464 206.871 253.932 206.934 253.645C206.991 253.122 207.227 252.634 207.602 252.264C207.977 251.894 208.468 251.665 208.992 251.615C209.516 251.52 210.057 251.632 210.5 251.929C210.943 252.225 211.253 252.683 211.365 253.204C212.1 255.773 211.127 258.51 212.086 261.289Z" fill="#0C0E0C"/>
<path d="M216.762 248.465C213.262 249.634 216.762 252.119 215.362 254.268C214.235 255.983 215.138 259.035 214.417 261.506C213.892 257.348 212.562 253.246 213.85 249.06C214.186 248.017 215.257 247.59 216.762 248.465Z" fill="#0C0E0C"/>
<path d="M202.74 253.246C202.614 256.137 202.488 258.846 202.369 261.646H201.116C201.116 258.762 201.032 255.878 201.116 253.008C201.179 251.496 202.516 252.364 203.307 252.126C204.098 251.888 204.959 251.622 205.295 252.742C205.519 253.477 205.995 254.52 205.106 254.912C203.664 255.507 204.497 253.008 202.74 253.246Z" fill="#0C0E0C"/>
<path d="M230.356 251.832C232.456 253.19 231.672 254.954 231.756 256.459C231.84 257.964 231.756 259.595 231.756 261.408C230.986 260.47 228.074 262.864 228.851 259.091C229.068 258.02 227.745 258.118 226.814 258.762C228.522 258.874 230.006 255.913 230.356 251.832Z" fill="#0C0E0C"/>
<path d="M221.473 260.386C220.829 257.257 220.598 255.024 221.732 252.847C221.855 252.519 222.068 252.233 222.347 252.021C222.626 251.809 222.959 251.68 223.307 251.65C224.336 251.608 224.07 252.658 224.546 253.05C224.805 253.267 225.127 253.75 224.728 253.75C219.912 253.554 223.545 257.509 222.131 258.958C221.866 259.412 221.646 259.89 221.473 260.386Z" fill="#0C0E0C"/>
<path d="M218.679 261.527C217.629 258.489 217.896 255.409 218.47 252.315C219.765 255.29 219.246 258.419 218.679 261.527Z" fill="#0C0E0C"/>
<path d="M196.847 254.996C198.247 256.641 197.267 258.027 196.147 259.434C195.797 256.277 195.188 253.134 196.147 249.977C196.644 251.622 196.021 253.4 196.847 254.996Z" fill="#A0A194"/>
<path d="M245.847 209.496C246.505 209.972 248.234 209.23 247.877 210.595C247.52 211.96 246.953 213.787 245 214.452C244.734 212.541 246.708 211.253 245.868 209.475L245.847 209.496Z" fill="#A0A194"/>
<path d="M138.992 71.4978C138.795 71.8901 138.469 72.2027 138.069 72.3836C137.669 72.5646 137.219 72.6027 136.794 72.4918C137.032 71.7568 137.053 70.7138 137.557 70.3918C138.061 70.0698 138.747 70.7628 138.992 71.4978Z" fill="#04AC4D"/>
<path d="M97.9727 107.702C98.0147 108.773 98.1337 109.872 96.8597 110.397C96.7681 109.888 96.8242 109.364 97.0215 108.886C97.2188 108.408 97.5489 107.997 97.9727 107.702Z" fill="#04AC4D"/>
<path d="M234.78 222.957L236.971 223.139C236.958 223.302 236.91 223.46 236.829 223.602C236.748 223.744 236.637 223.867 236.503 223.961C236.369 224.055 236.217 224.119 236.055 224.147C235.894 224.176 235.729 224.169 235.571 224.126C234.927 224.021 234.731 223.566 234.78 222.957Z" fill="#A0A194"/>
<path d="M198.982 253.386L199.297 249.97C200.088 251.195 200.648 252.392 198.982 253.386Z" fill="#A0A194"/>
<path d="M230.853 219.268C231.322 219.562 231.847 219.821 231.819 220.5C231.541 220.568 231.248 220.535 230.991 220.407C230.735 220.278 230.532 220.063 230.419 219.8L230.853 219.268Z" fill="#A0A194"/>
<path d="M237.686 221.991C237.686 221.046 238.274 220.591 239.037 220.248C239.066 220.654 238.944 221.056 238.694 221.378C238.445 221.699 238.086 221.918 237.686 221.991Z" fill="#A0A194"/>
<path d="M232.547 221.158C233.331 220.843 233.786 221.053 233.814 221.949C233.072 222.208 232.603 222.019 232.547 221.158Z" fill="#A0A194"/>
<path d="M195.944 83.146C199.668 82.852 201.88 85.946 204.771 87.346C218.687 94.276 229.971 104.377 237.727 117.929C243.53 128.072 247.261 138.929 248.185 150.829C248.941 160.496 247.135 169.729 243.985 178.479C239.561 190.778 233.177 202.279 224.259 212.079C223.893 212.356 223.484 212.571 223.048 212.716L220.395 211.631C217.805 208.957 221.06 206.773 221.487 203.931C219.387 205.38 217.287 205.744 216.496 207.844L215.859 208.194H215.957C212.625 209.335 209.258 210.427 209.293 214.921C209.293 215.208 208.936 215.495 208.747 215.775C208.446 216.608 208.131 218.162 207.851 218.155C204.96 218.099 205.226 220.619 204.351 222.173C203.889 223.853 202.041 223.118 201.138 224.028C200.76 224.84 199.941 225.498 199.262 225.274C197.701 224.763 199.556 223.923 199.318 223.517C198.436 222.012 197.169 220.822 196.826 218.904C196.532 217.273 196.945 216.699 198.436 216.678C200.41 216.678 202.391 216.727 204.365 216.678C205.149 216.678 206.185 217.763 206.689 216.244C206.883 215.767 206.967 215.252 206.933 214.737C206.899 214.223 206.748 213.724 206.493 213.276C199.367 201.607 201.915 190.449 208.411 179.585C209.629 177.548 212.114 176.855 214.011 175.49C220.696 170.59 227.311 165.585 230.713 157.675C233.464 151.319 232.428 145.488 227.857 140.175C226.296 138.362 225.26 138.677 224.021 140.294C222.095 142.777 219.841 144.988 217.322 146.867C216.138 147.816 214.77 148.507 213.304 148.897C211.036 149.443 208.404 150.178 206.724 148.253C205.226 146.538 207.277 144.753 208.124 143.269C211.841 136.535 214.256 129.514 213.899 121.695C213.584 114.835 209.363 108.815 203.595 106.918C201.264 106.155 199.395 106.295 197.736 108.318C196.749 109.487 195.825 111.048 193.893 110.999C194.159 108.367 196.518 106.799 196.623 103.719C196.861 96.852 195.349 90.2231 194.971 83.4681L195.944 83.146Z" fill="#DB1C23"/>
<path d="M160.818 139.671C162.372 142.814 161.721 146.006 160.965 149.177C160.699 150.276 159.887 151.277 160.776 152.446C157.703 156.044 156.219 160.328 155.407 164.906C155.246 165.795 154.707 166.803 155.75 167.412C156.639 167.937 157.234 167.104 157.85 166.6C163.849 161.539 170.513 157.584 178.094 155.526C182.294 154.385 186.62 153.174 191.184 154.28C184.247 158.879 178.017 163.982 173.628 171.01C169.239 178.038 167.447 185.57 169.022 193.781C170.513 191.233 171.325 188.377 172.9 186.032C174.629 183.463 175.357 179.942 178.85 178.794C179.102 180.047 178.255 180.978 177.835 182.014C175.483 187.796 175.833 193.466 178.472 199.038C178.934 199.997 179.172 201.397 180.81 200.991C180.957 201.831 181.209 203.343 179.921 202.685C177.758 201.593 178.143 202.93 178.136 204.05C178.185 207.813 178.913 211.536 180.285 215.04C179.039 219.674 179.851 224.476 179.053 229.173C178.073 234.927 176.729 240.541 174.293 245.861C173.824 246.89 173.53 248.36 172.193 248.311C171.017 248.269 170.856 246.848 170.485 245.91C169.536 243.637 167.85 241.751 165.697 240.555C164.822 240.023 163.695 239.267 162.785 239.932C161.875 240.597 162.498 241.843 162.785 242.823C165.362 250.866 165.284 259.524 162.561 267.519C158.683 278.803 159.761 278.124 151.361 270.585C143.766 263.76 137.767 255.668 134.141 245.98C133.686 244.783 133.091 243.656 133.497 242.319C134.694 241.976 135.457 242.711 136.248 243.411C139.048 245.875 142.352 246.547 145.929 246.477C147.063 246.477 148.029 246.351 148.253 244.986C151.326 245.749 154.035 247.786 157.423 247.744C157.22 246.344 156.226 245.693 155.323 244.944C151.759 241.965 148.713 238.417 146.307 234.444C143.178 229.117 140.623 223.58 141.365 217.126C142.45 217.189 142.765 218.197 143.465 218.771C145.656 220.633 147.749 222.628 150.801 223.146C151.984 223.342 152.201 222.894 152.383 221.998C161.945 226.637 169.108 228.037 173.873 226.198C168.203 224.693 162.673 223.013 158.655 217.973C163.044 219.268 167.328 219.912 171.759 218.736C171.388 217.259 170.436 217.336 169.694 217.175C164.659 216.171 159.884 214.14 155.669 211.209C151.453 208.277 147.888 204.508 145.194 200.137C144.564 199.15 143.92 198.149 142.492 198.366C141.379 196.329 145.187 196.07 144.074 194.026C146.02 194.936 147.007 196.826 148.449 198.296C153.783 203.616 160.132 205.436 168.357 204.295C164.115 202.657 160.503 201.656 157.374 199.472C151.347 195.272 147.882 189.63 147.532 182.322C147.399 179.522 146.391 179.676 144.34 180.348C133.021 184.023 122.108 182.448 111.573 177.394C108.129 175.749 105.623 172.823 102.949 170.177C102.773 169.953 102.651 169.69 102.594 169.411C102.537 169.131 102.546 168.842 102.62 168.567C102.97 167.636 103.964 167.832 104.72 167.832C110.653 167.787 116.529 166.673 122.066 164.542C131.278 161.126 139.286 156.016 145.397 148.148C147.07 145.992 148.715 143.71 151.2 142.317C154.763 142.59 157.808 141.19 160.818 139.671ZM138.341 178.29C141.739 176.638 144.6 174.058 146.594 170.849C148.694 167.671 148.659 167.65 151.312 170.191C152.383 165.291 151.823 160.713 150.465 156.114C149.611 153.202 148.554 153.202 146.601 155.309C139.289 163.28 129.536 168.596 118.874 170.422C116.277 170.891 113.554 170.66 110.901 170.856C109.837 170.933 108.283 170.212 107.856 171.661C107.478 172.949 109.081 173.117 109.851 173.677C114.394 176.967 119.546 177.737 124.978 177.177C129.616 176.65 134.019 174.856 137.704 171.99C138.306 171.549 139.02 170.681 139.804 171.29C140.588 171.899 140.161 172.795 139.909 173.572C139.51 174.909 139.055 176.19 138.341 178.29Z" fill="#A0A194"/>
<path d="M194.908 83.454C195.286 90.2091 196.798 96.8381 196.56 103.705C196.455 106.757 194.096 108.353 193.83 110.985C190.015 116.375 184.394 119.84 179.606 124.194C178.661 125.048 177.506 125.671 176.582 126.539C175.294 127.757 174.377 127.883 172.753 126.707C169.323 124.215 165.599 125.468 162.176 126.952C155.68 129.752 150.493 134.386 145.663 139.44C144.62 140.532 143.563 141.603 142.492 142.674C141.561 139.79 142.422 136.941 142.898 134.162C144.004 127.694 144.298 121.359 142.842 114.842C141.491 109.318 141.073 103.606 141.603 97.9441C142.065 93.6181 142.303 89.2081 142.443 84.8191C153.3 79.1841 164.906 77.6091 176.967 78.4281C180.635 78.6731 184.338 78.4771 187.887 79.7021C186.893 80.4441 185.948 81.207 187.992 81.746C190.288 82.348 192.598 82.887 194.908 83.454Z" fill="#FDFDFD"/>
<path d="M180.271 215.04C178.899 211.536 178.171 207.813 178.122 204.05C178.122 202.93 177.744 201.593 179.907 202.685C181.195 203.343 180.943 201.831 180.796 200.991L180.964 192.752C181.573 192.381 181.874 191.961 181.167 191.387L181.51 190.141L182.973 190.001C183.176 190.701 183.386 191.401 183.596 192.101C182.805 192.885 183.169 193.326 184.044 193.62C184.847 195.02 185.65 196.42 186.452 197.82C186.711 199.08 187.593 200.2 188.699 199.507C190.057 198.66 189.539 197.218 188.496 196.133C188.419 195.699 188.349 195.265 188.272 194.831C188.825 193.55 189.028 192.318 187.859 191.24C187.233 187.883 187.233 184.44 187.859 181.083C188.93 180.173 188.804 179.067 188.391 177.912L188.58 176.736C189.77 175.04 190.448 173.038 190.533 170.968L191.471 168.392C192.871 168.434 192.668 166.901 193.445 166.292C193.816 166.019 194.145 165.592 193.718 165.193C193.617 165.099 193.496 165.03 193.363 164.991C193.231 164.952 193.091 164.945 192.955 164.969C192.819 164.993 192.691 165.049 192.581 165.132C192.47 165.214 192.38 165.322 192.318 165.445C192.003 165.9 191.765 166.411 191.485 166.894C191.148 166.874 190.809 166.927 190.493 167.047C190.177 167.168 189.89 167.354 189.651 167.594C185.318 170.639 182.112 174.741 178.857 178.794C175.357 179.942 174.657 183.463 172.907 186.032C171.332 188.377 170.52 191.233 169.029 193.781C167.454 185.57 169.253 178.024 173.635 171.01C178.017 163.996 184.254 158.879 191.191 154.28C186.627 153.174 182.294 154.385 178.101 155.526C170.52 157.584 163.856 161.539 157.857 166.6C157.255 167.104 156.66 167.937 155.757 167.412C154.721 166.803 155.253 165.795 155.414 164.906C156.226 160.328 157.71 156.044 160.783 152.446C163.961 149.163 167.202 145.964 171.633 144.375C174.566 144.886 177.632 143.402 180.474 144.795C182.966 146.013 183.743 144.795 184.282 142.639C186.193 135.009 190.624 129.115 197.057 124.733C202.72 120.883 207.508 122.5 208.649 128.492C208.558 128.919 208.46 129.339 208.369 129.766C208.187 129.821 208.021 129.92 207.886 130.053C207.751 130.187 207.65 130.352 207.593 130.533C207.536 130.715 207.524 130.907 207.558 131.094C207.592 131.281 207.671 131.457 207.788 131.607C206.507 135.723 204.561 139.552 202.79 143.465C199.374 151.004 201.607 154.427 209.874 154.546C214.97 154.623 219.03 152.383 222.586 148.946C223.328 148.246 223.86 146.58 225.253 147.294C226.646 148.008 226.317 149.569 226.121 150.794C225.204 156.394 221.816 160.524 217.721 164.038C212.751 168.238 207.095 171.115 200.34 171.157C199.663 171.209 198.991 171.317 198.331 171.479C198.331 171.85 198.247 172.179 198.331 172.27C201.978 174.517 201.089 176.834 199.507 180.313C195.902 188.279 196.441 196.854 197.673 205.352C197.897 206.92 199.43 209.09 197.435 210.028C195.44 210.966 193.753 209.202 192.388 207.739C191.94 207.249 191.744 206.528 191.037 206.192C189.588 213.129 190.792 219.366 193.592 225.379C194.04 226.359 195.405 227.479 194.411 228.424C193.417 229.369 192.311 228.081 191.352 227.542C186.277 224.581 182.224 220.738 180.271 215.04Z" fill="#E7E7E2"/>
<path d="M142.443 84.8191C142.317 89.2081 142.065 93.6181 141.603 97.9441C141.073 103.606 141.492 109.318 142.842 114.842C144.319 121.359 144.004 127.694 142.898 134.162C142.422 136.962 141.561 139.762 142.492 142.674C136.745 151.228 128.884 156.975 119.266 160.538C115.766 161.84 112.049 162.169 108.458 163.03C105.623 163.73 105.371 161.483 105.189 159.705C104.048 148.743 104.797 138.005 108.626 127.505C112.791 116.039 118.93 106.036 127.869 97.7061C128.968 96.6771 131.516 95.6061 129.269 93.2541C129.449 92.7382 129.772 92.2842 130.2 91.9451C134.099 89.2501 137.83 86.2751 142.443 84.8191Z" fill="#04AC4D"/>
<path d="M111.72 226.282C110.6 224.238 111.104 221.984 111.076 219.849C111.048 217.714 110.25 216.979 108.157 217.224C94.1573 218.883 82.4393 213.962 72.3243 204.582C71.6663 203.973 70.7774 203.511 70.6934 201.957C79.2194 201.957 87.7243 201.558 95.7323 196.49C93.6323 195.692 92.0013 195.09 90.3843 194.39C90.0983 194.315 89.8453 194.147 89.6653 193.913C89.4853 193.678 89.3885 193.39 89.3903 193.095C89.4743 192.444 90.0904 192.234 90.6854 192.15C96.5234 191.324 101.801 188.972 106.932 186.221C107.267 185.992 107.657 185.859 108.062 185.836C108.466 185.812 108.87 185.9 109.228 186.088C118.846 191.163 128.968 190.218 139.153 188.615C139.605 188.587 140.058 188.608 140.504 188.678C138.453 191.898 136.927 195.538 133.434 197.617C132.909 196.511 134.834 196.007 133.896 194.446C125.832 197.897 117.796 195.972 109.536 192.962C113.106 200.802 122.717 204.337 129.668 199.962L133.434 197.589C131.768 203.448 129.234 209.069 129.178 215.355C129.178 216.846 127.932 216.097 127.337 215.306C126.112 213.682 125.818 211.694 125.237 209.818C125.034 209.174 124.978 208.327 124.124 208.222C123.27 208.117 123.004 208.922 122.675 209.51C119.459 215.226 118.156 221.822 118.958 228.333C119.056 229.173 120.12 230.181 118.958 230.79C117.999 231.287 117.411 230.006 116.585 229.649C114.73 228.893 114.45 225.841 111.72 226.282Z" fill="#A0A194"/>
<path d="M111.72 226.282C114.45 225.841 114.73 228.893 116.62 229.691C117.446 230.048 118.02 231.329 118.993 230.832C120.155 230.223 119.091 229.215 118.993 228.375C118.172 221.871 119.452 215.276 122.647 209.552C122.976 208.95 123.249 208.152 124.096 208.264C124.943 208.376 125.006 209.216 125.209 209.86C125.79 211.736 126.084 213.724 127.309 215.348C127.904 216.139 129.136 216.888 129.15 215.397C129.213 209.097 131.74 203.497 133.406 197.631C136.906 195.531 138.425 191.912 140.476 188.692C143.759 189.049 142.765 192.29 144.053 193.991C145.166 196.035 141.358 196.294 142.471 198.331C142.114 207.739 144.718 215.915 152.341 221.991C152.187 222.887 151.942 223.335 150.759 223.139C147.707 222.621 145.614 220.626 143.423 218.764C142.723 218.19 142.415 217.182 141.323 217.119C141.239 215.978 141.162 214.837 141.085 213.703C141.904 213.157 142.156 212.121 141.274 211.925C140.063 211.652 139.636 212.737 139.874 213.92C139.405 214.977 138.887 216.02 138.474 217.098C135.548 224.616 134.799 231.952 140.294 238.798C142.45 241.472 145.418 243.103 148.176 245C147.966 246.4 146.986 246.47 145.852 246.491C142.275 246.561 138.943 245.889 136.171 243.425C135.38 242.725 134.617 242.025 133.42 242.333C131.901 239.428 132.02 236.089 131.075 232.309C127.89 237.048 126.175 241.584 125.657 246.631C125.552 247.702 126.021 249.235 124.677 249.627C123.613 249.949 122.913 248.689 122.269 247.912C117.082 241.528 113.015 234.577 111.72 226.282Z" fill="#E7E7E2"/>
<path d="M208.642 128.492C207.501 122.5 202.713 120.883 197.05 124.733C190.617 129.115 186.186 135.009 184.275 142.639C183.736 144.781 182.959 146.013 180.467 144.795C177.625 143.395 174.559 144.886 171.626 144.375C171.758 144.048 171.987 143.769 172.283 143.576C172.578 143.383 172.926 143.286 173.278 143.297C179.648 142.751 181.72 137.116 185.262 133.224C185.501 133.029 185.669 132.761 185.74 132.461C185.811 132.161 185.781 131.846 185.654 131.565C183.491 130.865 182.238 133.056 180.355 133.364C179.473 133.511 178.717 133.7 178.255 132.797C177.793 131.894 178.612 131.509 179.13 131.166C184.555 127.554 189.322 123.144 194.229 118.902C195.09 118.153 196.133 117.558 196.525 119.28C197.323 122.78 199.479 122.885 202.335 121.94C204.568 121.198 206.794 121.443 208.348 123.417C209.573 124.943 210.105 126.721 208.642 128.492Z" fill="#A0A194"/>
<path d="M201.125 224C202.028 223.09 203.875 223.825 204.337 222.145C210.694 220.164 214.684 214.585 220.396 211.645L223.049 212.73C223.322 214.529 221.964 215.376 220.949 216.503C220.326 217.203 218.464 217.378 219.591 219.051C220.592 220.542 221.838 220.213 223.14 219.569C223.256 219.734 223.39 219.887 223.539 220.024C220.806 223.958 217.258 227.258 213.137 229.698C213.053 229.201 212.969 228.704 212.878 228.207C213.27 227.78 213.69 227.381 214.047 226.926C214.936 225.792 217.225 225.071 216.672 223.678C215.972 221.872 213.872 224.266 213.088 223.678C208.922 220.605 205.136 225.89 201.125 224Z" fill="#E7E7E2"/>
<path d="M160.818 139.671C157.808 141.218 154.763 142.618 151.235 142.289C155.274 137.55 159.88 133.56 165.872 131.502C167.272 131.04 168.917 130.235 169.876 132.104C170.835 133.973 169.512 135.121 168.315 136.304C166.222 138.334 163.002 137.851 160.818 139.671Z" fill="#E7E7E2"/>
<path d="M212.899 228.193C212.99 228.69 213.074 229.187 213.158 229.684C210.183 231.672 207.383 234.017 203.519 234.262C206.515 232.015 209.315 229.502 212.899 228.193Z" fill="#A0A194"/>
<path d="M194.908 83.4538C192.598 82.8868 190.288 82.3478 187.992 81.7458C185.948 81.2068 186.893 80.4438 187.887 79.7018C190.743 80.4508 194.061 80.1288 195.944 83.1458L194.908 83.4538Z" fill="#A0A194"/>
<path d="M207.781 131.607C207.664 131.458 207.585 131.282 207.551 131.095C207.517 130.907 207.529 130.715 207.586 130.533C207.643 130.352 207.744 130.187 207.879 130.054C208.014 129.92 208.18 129.821 208.362 129.766C208.789 130.571 208.425 131.138 207.781 131.607Z" fill="#A0A194"/>
<path d="M223.161 219.59C223.462 219.59 223.959 219.415 224.022 219.52C224.267 219.947 223.868 219.989 223.56 220.045C223.411 219.908 223.277 219.755 223.161 219.59Z" fill="#E7E7E2"/>
<path d="M215.747 59.3879C215.825 58.8733 215.966 58.3702 216.167 57.8899C218.141 53.8299 220.052 49.7349 222.201 45.7659C223.265 43.7989 225.001 42.5809 227.409 43.7919C229.586 44.9049 229.824 46.9629 228.942 48.8809C226.975 53.1999 224.798 57.4209 222.586 61.6139C221.704 63.2869 220.164 64.1969 218.218 63.5739C216.496 63.0279 215.509 61.8029 215.747 59.3879Z" fill="#FDFDFD"/>
<path d="M262.731 77.7211C261.198 80.1641 260.281 81.7041 259.287 83.1811C258.692 84.0841 258.328 85.7361 257.131 85.4701C255.731 85.1551 254.989 83.5171 254.128 82.3201C253.54 81.5011 254.163 81.0951 254.828 80.8221L262.731 77.7211Z" fill="#E7E7E2"/>
<path d="M238.497 57.8901C238.7 57.4631 239.085 57.1901 239.463 57.4771C240.065 57.9881 239.799 58.5831 239.337 59.0941L238.497 57.8901Z" fill="#FDFDFD"/>
<path d="M158.417 34.6572C158.634 33.8032 157.507 32.2422 159.502 32.0812C161.497 31.9202 163.856 31.6262 164.458 34.0832C165.658 39.1275 166.193 44.3072 166.047 49.4902C165.998 51.6952 163.891 52.5632 161.679 52.5492C159.103 52.5492 159.985 50.4492 159.838 49.2242C159.264 44.4292 158.879 39.5922 158.417 34.6572Z" fill="#FDFDFD"/>
<path d="M130.872 38.1709C131.691 38.1141 132.506 38.3364 133.184 38.8016C133.861 39.2667 134.361 39.9474 134.603 40.7329C136.255 45.1639 137.816 49.6299 139.377 54.0959C140.112 56.1959 139.321 57.8899 137.41 58.6669C135.387 59.4929 133.392 58.9749 132.51 56.7209C130.732 52.0869 128.961 47.4389 127.505 42.7209C126.749 40.1519 128.436 38.2199 130.872 38.1709Z" fill="#FDFDFD"/>
<path d="M220.395 211.631C214.683 214.585 210.693 220.164 204.337 222.131C205.226 220.577 204.96 218.057 207.837 218.113C208.117 218.113 208.432 216.566 208.733 215.733C211.932 215.901 212.716 212.597 214.921 211.456C216.72 210.525 216.321 209.461 215.943 208.152H215.845L216.482 207.802C217.266 205.702 219.394 205.338 221.473 203.889C221.06 206.773 217.805 208.957 220.395 211.631Z" fill="#0C0E0C"/>
<path d="M215.957 208.166C216.314 209.475 216.734 210.539 214.935 211.47C212.73 212.611 211.946 215.915 208.747 215.747C208.936 215.467 209.293 215.18 209.293 214.893C209.258 210.399 212.625 209.307 215.957 208.166Z" fill="#A0A194"/>
<path d="M216.496 207.823L215.859 208.173L216.496 207.823Z" fill="#A0A194"/>
<path d="M138.341 178.29C139.041 176.19 139.51 174.93 139.93 173.642C140.182 172.865 140.539 171.92 139.825 171.36C139.111 170.8 138.306 171.591 137.725 172.06C134.038 174.918 129.635 176.705 124.999 177.226C119.567 177.765 114.415 176.995 109.872 173.726C109.102 173.166 107.499 173.026 107.877 171.71C108.304 170.261 109.858 171.01 110.922 170.905C113.575 170.709 116.298 170.905 118.895 170.471C129.556 168.645 139.309 163.329 146.622 155.358C148.575 153.258 149.632 153.258 150.486 156.163C151.844 160.762 152.404 165.361 151.333 170.24C148.68 167.699 148.715 167.72 146.615 170.898C144.608 174.092 141.74 176.654 138.341 178.29Z" fill="#0C0E0C"/>
<path d="M152.369 221.998C144.746 215.922 142.142 207.746 142.499 198.338C143.899 198.121 144.599 199.122 145.201 200.109C147.894 204.48 151.46 208.249 155.675 211.181C159.891 214.112 164.665 216.143 169.701 217.147C170.443 217.308 171.395 217.231 171.766 218.708C167.335 219.884 163.051 219.24 158.662 217.945C162.645 222.985 168.21 224.665 173.88 226.17C169.092 228.032 161.921 226.641 152.369 221.998Z" fill="#0C0E0C"/>
<path d="M178.837 178.794C182.092 174.72 185.297 170.618 189.63 167.594C189.869 167.354 190.156 167.168 190.473 167.047C190.789 166.926 191.127 166.874 191.465 166.894V168.371L190.527 170.947C189.8 171.708 189.249 172.618 188.912 173.615C188.575 174.611 188.459 175.669 188.574 176.715L188.385 177.891C187.972 178.295 187.698 178.82 187.602 179.39C187.507 179.959 187.594 180.545 187.853 181.062C187.226 184.419 187.226 187.862 187.853 191.219C187.377 192.486 187.258 193.711 188.266 194.81C188.343 195.244 188.413 195.678 188.49 196.112C188.182 197.127 187.874 198.135 186.446 197.799C185.648 196.399 184.845 194.999 184.038 193.599C184.17 193.336 184.198 193.033 184.115 192.75C184.032 192.468 183.844 192.228 183.59 192.08C183.38 191.38 183.17 190.68 182.967 189.98C183.136 188.776 182.954 187.548 182.442 186.445C181.989 186.929 181.665 187.52 181.501 188.162C181.337 188.804 181.338 189.478 181.504 190.12L181.161 191.366C180.538 191.737 180.573 192.213 180.958 192.731L180.79 200.97C179.131 201.376 178.914 199.976 178.452 199.017C175.813 193.417 175.463 187.775 177.815 181.993C178.242 180.978 179.089 180.047 178.837 178.794Z" fill="#0C0E0C"/>
<path d="M148.219 244.986C145.461 243.089 142.493 241.486 140.337 238.784C134.842 231.959 135.591 224.623 138.517 217.084C138.937 216.006 139.455 214.984 139.917 213.906L141.114 213.689C141.191 214.823 141.268 215.964 141.352 217.105C140.61 223.559 143.165 229.096 146.294 234.423C148.699 238.396 151.746 241.944 155.31 244.923C156.185 245.679 157.179 246.323 157.41 247.723C154.001 247.779 151.292 245.749 148.219 244.986Z" fill="#0C0E0C"/>
<path d="M188.594 176.701C188.479 175.655 188.595 174.597 188.932 173.601C189.269 172.605 189.82 171.694 190.547 170.933C190.462 173.003 189.784 175.005 188.594 176.701Z" fill="#A0A194"/>
<path d="M186.452 197.785C187.852 198.121 188.188 197.085 188.496 196.098C189.539 197.183 190.057 198.625 188.699 199.472C187.593 200.165 186.711 199.045 186.452 197.785Z" fill="#A0A194"/>
<path d="M181.51 190.141C181.345 189.499 181.344 188.826 181.508 188.184C181.672 187.541 181.996 186.951 182.448 186.466C182.961 187.569 183.143 188.797 182.973 190.001L181.51 190.141Z" fill="#A0A194"/>
<path d="M191.484 168.357V166.88C191.764 166.397 192.002 165.886 192.317 165.431C192.379 165.308 192.469 165.2 192.58 165.118C192.69 165.035 192.819 164.979 192.954 164.955C193.09 164.931 193.23 164.938 193.362 164.977C193.495 165.016 193.616 165.085 193.717 165.179C194.179 165.599 193.815 166.005 193.444 166.278C192.681 166.866 192.905 168.399 191.484 168.357Z" fill="#A0A194"/>
<path d="M188.272 194.796C187.264 193.697 187.383 192.472 187.859 191.205C189.028 192.29 188.825 193.515 188.272 194.796Z" fill="#A0A194"/>
<path d="M187.873 181.048C187.615 180.531 187.527 179.946 187.623 179.376C187.719 178.806 187.993 178.281 188.405 177.877C188.818 179.032 188.945 180.138 187.873 181.048Z" fill="#A0A194"/>
<path d="M180.964 192.752C180.579 192.234 180.544 191.758 181.167 191.387C181.874 191.961 181.573 192.381 180.964 192.752Z" fill="#A0A194"/>
<path d="M183.596 192.08C183.85 192.229 184.038 192.469 184.121 192.751C184.205 193.033 184.177 193.337 184.044 193.599C183.169 193.305 182.805 192.864 183.596 192.08Z" fill="#A0A194"/>
<path d="M133.434 197.631L129.647 199.99C122.696 204.344 113.085 200.809 109.515 192.99C117.782 196 125.811 197.89 133.875 194.474C134.806 196.035 132.888 196.539 133.413 197.645L133.434 197.631Z" fill="#0C0E0C"/>
<path d="M141.12 213.71L139.923 213.927C139.671 212.744 140.098 211.659 141.323 211.932C142.191 212.128 141.939 213.164 141.12 213.71Z" fill="#A0A194"/>
</svg>
