<svg width="120" height="110" viewBox="0 0 120 110" fill="none" xmlns="http://www.w3.org/2000/svg">
<path d="M88.4904 46.9105C88.7712 50.3761 89.3688 53.8393 88.608 57.3169C88.2792 58.8241 87.972 60.336 87.648 61.8433C87.3744 61.9921 87.3384 62.2921 87.2328 62.5393C85.6416 66.3193 83.7864 69.9409 80.9928 73.0153C80.3544 73.7209 79.752 74.4553 79.1328 75.1753L78.9913 75.3505C77.4961 76.0705 76.5768 77.4817 75.2664 78.4393C73.2416 79.9218 71.0054 81.0917 68.6328 81.9097C68.4072 81.9865 68.1024 82.1305 67.968 81.9097C67.5096 81.1297 66.9577 81.6097 66.4249 81.7393C65.3113 82.0057 64.7088 82.6225 64.308 83.7913C63.828 85.2024 62.6448 86.2825 61.7568 87.5017C58.1184 92.4985 57.8448 93.2377 57.4368 99.3145C56.2872 98.9497 55.4856 98.0881 54.5928 97.3945C51.4416 94.9609 48.4632 92.3425 46.1496 89.0569C45.9648 88.7953 45.8808 88.2457 45.4296 88.4305C45.036 88.5913 45.2976 89.0713 45.2544 89.4073C45.24 89.6847 45.24 89.9626 45.2544 90.2401C45.2544 90.3025 45.1824 90.3624 45.0744 90.5377C43.0344 88.7593 40.908 87.1368 39.3504 84.8808C37.7664 82.5888 36.588 80.1625 36.2928 77.3641C36.2256 76.7449 35.8752 76.5937 35.3184 76.5817C32.832 76.5217 30.4272 76.0681 28.1808 74.9544C25.032 73.3945 22.3032 71.3161 20.2608 68.4097C20.1264 68.2177 19.9008 68.0449 20.0208 67.7881C20.1408 67.5313 20.4096 67.6201 20.6472 67.6393C22.7556 67.7781 24.8716 67.7524 26.976 67.5625C27.456 67.5265 28.0584 67.6129 28.212 67.0825C28.3488 66.6145 27.6936 66.6025 27.4296 66.3361C26.9496 65.8561 26.4696 65.4073 25.8912 64.8673C26.4472 64.6049 27.0753 64.5373 27.6744 64.6753C28.728 64.8601 29.6688 64.3249 30.6936 64.3801C31.2384 64.4089 31.2168 63.9001 31.2552 63.4969C31.4112 61.9945 31.0152 60.5593 30.6624 59.1361C29.088 52.6297 29.772 46.3417 32.3424 40.2073C32.6664 39.4369 32.9184 38.6377 33.204 37.8529C33.6408 37.6729 33.6 37.2961 33.5856 36.9289C34.104 36.8377 34.2072 36.3433 34.4256 35.9977C36.1367 33.2366 38.2912 30.7764 40.8024 28.7161C42.504 27.3289 44.4648 26.3713 46.2432 25.1161L46.896 24.8497C47.0417 24.8877 47.196 24.8746 47.3331 24.8126C47.4703 24.7505 47.582 24.6433 47.6496 24.5089C49.6752 24.1225 51.5952 23.3545 53.6496 23.0065C59.3088 22.0465 64.7161 22.8577 69.9937 24.9649C70.9537 25.3441 71.9352 25.6441 72.8088 26.2033L78.4416 30.1969C79.881 31.7185 81.2427 33.3117 82.5216 34.9705C82.776 35.3017 83.0448 35.3905 83.4384 35.1649C84.2184 34.7185 83.7936 34.1065 83.7096 33.5833C83.1288 36.9289 85.2672 39.2353 86.976 41.7145C87.1488 43.5457 87.8304 45.2257 88.4904 46.9105ZM73.0825 78.7488C74.4957 77.9122 75.7121 76.781 76.6488 75.432C76.7544 75.4128 76.8888 75.3984 76.8072 75.252C76.7856 75.216 76.6152 75.2665 76.512 75.2761C76.0656 75.4969 75.6384 75.6097 75.2952 75.0985C74.9088 74.5249 75.5352 74.4649 75.7608 74.2249C76.1016 73.8385 76.5672 73.548 76.4808 72.9313C76.6302 72.8816 76.7705 72.8079 76.896 72.7129C79.9536 69.3529 82.1424 65.4097 83.6592 61.1929C84.7392 58.1953 85.3584 55.0273 85.0992 51.7129C84.7824 47.6329 83.5033 43.9177 81.5137 40.4329C78.8545 35.7865 74.9856 32.3233 70.2144 29.9473C69.2232 29.4553 68.4648 28.3993 67.1904 28.5073C66.5424 27.4753 65.4048 27.5857 64.4256 27.3289C63.2088 26.9089 61.9392 26.9761 60.6816 26.8921C56.5464 26.6113 52.5672 27.1513 48.8448 29.0833C47.2632 29.5825 45.984 30.6025 44.6544 31.5313C44.5076 31.6475 44.3969 31.8032 44.3352 31.9801C45.0984 32.7889 44.2248 33.1537 43.8552 33.5065C40.7904 36.3625 38.6856 39.7921 37.2576 43.7233C35.9448 47.3233 35.688 51.0001 36.0792 54.7633C36.1416 55.3728 36.228 56.1361 37.2 55.9033C38.4312 55.6081 39.696 55.4953 40.9056 55.0489C44.2032 53.8273 46.9056 51.8569 48.8688 48.9241C49.2312 48.5569 49.5888 48.1897 49.956 47.8153C51.612 46.0825 53.3904 44.4961 55.6176 43.5337C56.7912 43.0249 58.068 42.5953 59.244 43.4497C59.8008 43.8529 60.1152 43.8097 60.5568 43.3921C60.8736 43.0945 61.2768 42.8809 61.5936 42.5881C63.2352 41.0953 65.1624 39.9073 66.4704 38.0593C67.1328 38.0761 67.4496 37.5409 67.788 37.1401C68.3688 36.4513 68.988 36.4033 69.7968 36.6601C71.7744 37.3105 73.2216 39.3745 73.3296 41.7265C73.452 44.4073 72.624 46.8145 71.3496 49.1233C71.064 49.6393 70.3608 50.2441 70.8696 50.8321C71.4456 51.4921 72.348 51.2401 73.1256 51.0529C73.6282 50.9192 74.0974 50.6821 74.5032 50.3569C75.3669 49.7126 76.1396 48.9546 76.8001 48.1033C77.2248 47.5489 77.58 47.4409 78.1152 48.0625C79.6824 49.8793 80.0352 51.8785 79.0944 54.0625C77.9256 56.7745 75.66 58.4881 73.368 60.1705C72.7296 60.6385 71.8776 60.8761 71.448 61.5745C69.2208 65.2993 68.3472 69.1249 70.7904 73.1257C70.878 73.2791 70.9295 73.4504 70.9411 73.6267C70.9528 73.803 70.9242 73.9796 70.8576 74.1432C70.6848 74.664 70.3296 74.2872 70.0608 74.292C69.384 74.292 68.7048 74.28 68.028 74.292C67.5168 74.292 67.3752 74.4961 67.476 75.0553C67.5936 75.7129 68.028 76.1209 68.3304 76.6369C68.412 76.7761 67.7761 77.0641 68.3113 77.2393C68.5513 77.3161 68.8248 77.0904 68.9544 76.812C70.3296 77.448 71.628 75.6481 73.0632 76.6993C73.3344 76.8985 74.0496 76.0777 74.292 76.6993C74.4816 77.1793 73.6968 77.4193 73.392 77.8129C73.2696 77.9689 73.1257 78.1056 72.9913 78.252C71.7625 78.7008 70.8024 79.5625 69.7752 80.3329C71.1024 80.2345 72.0625 79.4305 73.0825 78.7488ZM38.304 77.5825C38.748 80.4265 40.1424 82.8097 41.9352 84.9937C42.156 85.2601 42.396 85.6921 42.7608 85.5817C43.2216 85.4473 43.0608 84.9217 43.0968 84.5545C43.2672 82.8241 43.8624 81.2689 44.9544 79.6441C45.2832 80.9401 45.2376 82.0848 45.7584 83.0808C45.6192 83.5392 45.8232 83.9257 45.9792 84.3361C47.2224 87.6577 49.2792 90.4321 51.8832 92.772C54.7632 95.3568 54.3984 95.5896 55.7232 91.7208C56.6567 88.9798 56.6837 86.0112 55.8 83.2537C55.6968 82.9177 55.4496 82.5145 55.8 82.2625C56.1504 82.0105 56.4984 82.2937 56.7984 82.4761C57.5364 82.8862 58.1147 83.5329 58.44 84.312C58.5672 84.6337 58.6224 85.1209 59.0256 85.1353C59.4912 85.1521 59.592 84.6553 59.7456 84.2953C60.5808 82.4713 61.0416 80.5465 61.3776 78.5737C61.6512 76.9633 61.3776 75.3169 61.8 73.7281C62.4696 75.6817 63.8592 76.9992 65.592 78C65.9136 78.1848 66.312 78.6169 66.6408 78.3025C66.9696 77.9881 66.5136 77.5945 66.3601 77.2585C65.4001 75.1969 64.9872 73.0584 65.484 70.68C65.724 70.7952 65.7936 71.0425 65.9472 71.2105C66.4272 71.7121 67.008 72.3121 67.6776 71.9953C68.3472 71.6785 67.836 70.9296 67.7592 70.392C67.3368 67.4784 67.152 64.5385 68.388 61.8073C68.9304 60.6073 69.2353 59.8201 67.9849 59.0497C67.9513 59.0281 67.9849 58.9057 67.9849 58.7785C68.211 58.7228 68.4414 58.6859 68.6737 58.6681C70.9897 58.6537 72.9288 57.6793 74.6328 56.2273C76.0464 55.0273 77.208 53.6041 77.5128 51.6865C77.58 51.2713 77.6688 50.7265 77.2152 50.4865C76.7616 50.2465 76.5552 50.8033 76.3008 51.0529C75.0816 52.2409 73.6897 53.0089 71.9425 52.9729C69.1081 52.9321 68.3425 51.7585 69.5137 49.1737C70.1209 47.8321 70.788 46.5193 71.2272 45.1081C71.448 44.9473 71.5728 44.7529 71.4264 44.4769C71.4576 44.3305 71.4913 44.1865 71.5225 44.0401C72.0241 43.4329 71.8416 42.8233 71.4288 42.3001C70.896 41.6233 70.1328 41.5393 69.3672 41.7937C68.388 42.1177 67.6488 42.0817 67.3752 40.8817C67.2408 40.2913 66.8952 40.4953 66.588 40.7521C64.908 42.2065 63.2712 43.7185 61.4112 44.9569C61.2336 45.0745 60.9696 45.2281 61.1112 45.5161C61.2528 45.8041 61.5216 45.7561 61.8312 45.7105C62.4768 45.6049 62.9064 44.8441 63.648 45.0937C63.6914 45.19 63.7017 45.298 63.6774 45.4009C63.6531 45.5037 63.5955 45.5957 63.5137 45.6625C62.2993 46.9969 61.5936 48.9289 59.4048 49.1161C59.2839 49.1122 59.1648 49.1456 59.0635 49.2117C58.9622 49.2778 58.8836 49.3734 58.8384 49.4857C57.3192 50.0305 56.1984 51.1273 55.1184 52.2529C54.8136 51.8569 55.092 51.5089 55.1832 51.1321C55.4424 50.0449 55.6632 48.9505 55.1328 47.8729C55.8816 47.2489 56.9856 47.4145 57.7032 46.7137C58.1136 46.3129 58.5576 45.9025 58.2384 45.2737C57.9192 44.6449 57.3336 44.9089 56.8656 45.0673C54.8112 45.7729 53.232 47.1409 51.8472 48.7657C50.9952 49.2457 50.4312 50.0257 49.8576 50.7649C47.7624 53.4625 45.0168 55.2145 41.8584 56.3857C39.96 57.1163 37.9453 57.4984 35.9112 57.5137C35.6424 57.5137 35.3016 57.4465 35.1912 57.7657C35.1658 57.8601 35.1628 57.9592 35.1824 58.055C35.2019 58.1508 35.2436 58.2408 35.304 58.3176C36.2208 59.2248 37.08 60.2376 38.2608 60.792C41.8608 62.5201 45.6144 63.0649 49.4952 61.8049C50.1984 61.5649 50.544 61.5265 50.5896 62.4817C50.7096 64.9873 51.8976 66.9193 53.964 68.3617C55.0368 69.1105 56.2752 69.4537 57.7296 70.0153C54.9096 70.4065 52.7328 69.7753 50.904 67.9585C50.4096 67.4785 50.0712 66.8064 49.404 66.4944C48.9624 65.9113 49.3032 64.8 48.1776 64.6777C48.0245 64.6539 47.8692 64.6466 47.7144 64.6561C44.2224 65.2057 40.7544 65.5297 37.4544 63.7897C37.3314 63.7251 37.1932 63.6953 37.0545 63.7033C36.9158 63.7114 36.782 63.757 36.6672 63.8353C34.908 64.7785 33.0984 65.5849 31.0968 65.8681C30.9048 65.8969 30.6816 65.9688 30.6528 66.192C30.6522 66.2934 30.6854 66.3921 30.7471 66.4725C30.8088 66.5529 30.8956 66.6105 30.9936 66.6361C31.548 66.8761 32.1144 67.0753 32.8272 67.3561C30.0816 69.0937 27.1656 69.2329 24.2424 69.2305C24.2712 69.7633 24.576 69.9217 24.8016 70.1305C28.2648 73.3681 32.28 75.0481 37.0824 74.4769C37.8024 74.3929 38.0736 74.6185 38.0832 75.3769C38.0928 76.1353 37.92 76.8817 38.304 77.5825Z" fill="#0C0E0C"/>
<path d="M69.3192 14.5007C70.2264 14.4263 71.0712 14.5967 71.352 13.7423C71.7456 12.5423 72.3504 11.3543 72.1272 10.0439C71.9928 9.25671 71.1864 9.23751 70.5912 9.13191C69.9168 9.01191 70.044 9.69591 69.9432 10.0463C69.264 12.3767 68.6304 14.7215 67.9824 17.0639C67.7568 17.8775 67.3296 18.7127 68.2968 19.4639C67.116 19.3879 65.9634 19.0701 64.9104 18.5303C66.2256 18.4343 66.2112 17.4167 66.444 16.5791C67.0632 14.3543 67.644 12.1151 68.3136 9.9071C68.5536 9.1559 68.6256 8.55831 67.8336 8.00391C69.6552 8.31831 71.5056 8.40951 72.9216 9.60471C74.1936 10.6775 73.62 13.7543 72.0048 14.7527C71.4336 15.1055 71.3352 15.3047 71.664 15.8879C72.0984 16.6583 71.9352 17.5175 71.7216 18.3359C71.5992 18.8159 71.5008 19.2695 71.7552 19.7255C71.9208 20.0207 72.18 20.2823 72.5016 20.2511C72.9048 20.2127 72.7008 19.8023 72.7416 19.5671C73.0008 18.0791 73.7496 16.7999 74.5032 15.5447C75.3816 14.0783 76.6896 13.7711 78.2016 14.5391C79.6056 15.2591 80.1576 16.5551 79.5624 18.0551C79.1422 19.1315 78.6315 20.1704 78.036 21.1607C76.8816 23.0591 74.3088 23.0231 73.0968 21.1319C72.8568 20.7431 72.8568 20.2439 72.0648 20.6135C71.4312 20.9063 70.2816 19.6823 70.2048 18.7751C70.1721 18.2593 70.2116 17.7415 70.3224 17.2367C70.6392 15.6887 70.6248 15.5951 69.3192 14.5007ZM73.9704 20.3615C73.896 21.1895 74.2344 21.6095 74.8176 21.8015C75.4848 22.0151 76.0176 21.7031 76.3152 21.1295C77.0736 19.6895 77.82 18.2495 78.4944 16.7639C78.7968 16.1063 78.7152 15.4007 77.9688 15.0191C77.1552 14.6039 76.548 15.0191 76.1832 15.6959C75.4464 17.0567 74.7912 18.4607 74.1144 19.8527C74.0459 20.0158 73.9976 20.1867 73.9704 20.3615Z" fill="#0C0E0C"/>
<path d="M81.7704 19.8479C80.9424 20.8679 80.1264 21.8951 79.2816 22.9007C78.8664 23.3975 78.78 23.8775 79.3368 24.4415C78.312 24.3551 77.8968 23.5895 77.1936 23.0831C78.5208 23.3879 78.936 22.3799 79.5216 21.6551C80.2968 20.6951 81.0456 19.7087 81.8016 18.7319C81.9582 18.5532 82.098 18.3604 82.2192 18.1559C82.3824 17.8415 81.8184 16.8479 82.8024 17.3519C83.4048 17.6591 84.4824 17.9591 83.9808 19.1687C83.4696 20.4191 83.0424 21.7031 82.584 22.9751C82.5096 23.1839 82.2936 23.3831 82.584 23.7119C83.724 22.8911 84.9264 22.1159 86.0136 21.2063C86.7528 20.5895 87.3096 20.5823 87.9144 21.2855C88.212 21.6311 88.7784 21.7199 88.908 22.4159C87.948 22.0199 87.5496 22.6559 87.0936 23.2511C86.2272 24.3935 85.3248 25.5095 84.4224 26.6231C84.1272 26.9879 83.6568 27.2999 84.0624 27.8231C84.468 28.3463 84.9384 28.0631 85.3728 27.8831C87.1824 27.1631 88.9728 26.4095 90.7968 25.6919C91.1688 25.5431 91.5816 25.1135 91.9752 25.5911C92.3256 26.0135 91.8696 26.3351 91.6872 26.6423C90.696 28.3223 89.676 29.9831 88.6416 31.6367C88.3008 32.1791 87.9336 32.6903 88.248 33.4439C87.264 32.7479 86.6208 31.8455 85.8216 30.8447C86.5416 30.6887 87.0216 31.6199 87.4704 30.7895C87.8496 30.1055 87.6888 29.5607 87.1704 29.0783C86.7456 28.6847 86.4984 28.0151 85.6296 28.3823C84.8112 28.7279 85.2336 29.2631 85.1496 29.8703C84.0534 28.619 82.8228 27.4922 81.48 26.5103C83.9544 26.2463 84.192 23.9063 85.6632 22.7879L85.3584 22.4327C84.3288 23.1839 83.316 23.9639 82.26 24.6767C81.6936 25.0607 81.0336 26.0231 80.5488 25.6535C79.8672 25.1375 80.748 24.3191 80.9304 23.6375C81.2376 22.4879 81.6816 21.3743 82.068 20.2463C82.2264 20.0711 82.308 19.8671 82.1112 19.6919C81.972 19.5863 81.84 19.6919 81.7704 19.8479ZM90.0792 26.6567L87.3768 27.7199C87.1368 27.8135 86.928 27.9599 87.1368 28.2335C87.432 28.6439 87.6744 29.2055 88.1664 29.3135C88.5768 29.4047 88.7016 28.8335 88.9056 28.5287C89.2392 28.0079 89.5536 27.4847 90.0792 26.6471V26.6567Z" fill="#0C0E0C"/>
<path d="M79.1497 75.1777C79.7689 74.4577 80.3713 73.7209 81.0097 73.0177C83.7937 69.9433 85.6489 66.3217 87.2496 62.5417C87.3552 62.3017 87.3913 61.9945 87.6649 61.8457C87.8938 63.8861 87.8129 65.9495 87.4249 67.9657C87.0745 69.7969 85.6633 70.7977 84.3049 71.8297C83.2179 72.8364 82.4129 74.1096 81.9697 75.5233C81.7081 75.6385 81.4897 75.7969 81.5065 76.1209L81.2665 76.5145L80.5153 76.4521L80.1865 76.1065C80.1865 75.7993 80.0209 75.7273 79.7521 75.8353C79.6657 75.7609 79.5817 75.6841 79.5121 75.6097C79.4905 75.3673 79.3105 75.2881 79.1497 75.1777Z" fill="#DB1C23"/>
<path d="M51.6216 11.0065C53.0232 10.4857 54.3792 10.4545 55.7016 10.3753C56.8512 10.3081 57.6768 10.9513 57.9912 12.0793C58.3998 13.4952 58.5278 14.9774 58.368 16.4425C58.2336 17.6185 57.4368 18.2737 56.316 18.4441C55.1952 18.6145 54.108 18.6577 53.004 18.7585C52.8144 18.7777 52.596 18.8857 52.4904 18.6409C52.3848 18.3961 52.5648 18.2977 52.7688 18.2281C53.3568 18.0289 53.2008 17.5369 53.1648 17.1241C53.0208 15.4633 52.8336 13.8049 52.7064 12.1417C52.6656 11.4793 52.2816 11.1865 51.6216 11.0065ZM54.3144 11.8825C54.4728 13.5745 54.6048 15.2425 54.7944 16.8865C54.8448 17.3089 54.5544 18.0217 55.4256 18.0265C56.184 18.0265 56.9064 17.7337 56.9232 16.9777C56.976 15.1986 56.7953 13.4202 56.3856 11.6881C56.1792 10.8457 55.3584 10.9489 54.6864 11.0017C54.0144 11.0545 54.3888 11.5897 54.3144 11.8825Z" fill="#0C0E0C"/>
<path d="M46.2481 25.128C44.4697 26.376 42.5089 27.3336 40.8073 28.728C38.296 30.7883 36.1415 33.2485 34.4305 36.0096C34.2121 36.3552 34.1089 36.8496 33.5905 36.9408C34.3633 34.4976 34.9921 32.0136 36.2953 29.7408C36.9265 28.6416 38.0257 28.656 38.9113 28.1832C40.1113 27.5448 41.3113 26.9472 42.0937 25.7832C42.1993 25.6272 42.4057 25.3656 42.4921 25.392C43.7833 25.7808 44.9569 24.5544 46.2481 25.128Z" fill="#04AC4D"/>
<path d="M46.0705 20.8465C44.9089 20.9809 44.1505 20.2849 43.7017 19.2913C43.2017 18.2064 42.7907 17.0827 42.4729 15.9313C42.0361 14.3113 42.7441 13.1521 44.3569 12.5881C45.8233 12.0721 47.1529 12.5881 47.8129 14.0497C48.2696 15.0721 48.6475 16.128 48.9433 17.2081C49.5313 19.2889 48.3169 20.8297 46.0705 20.8465ZM44.8705 13.0897C44.0353 13.1041 43.4569 13.7665 43.7233 14.6401C44.2225 16.2649 44.8297 17.8585 45.4393 19.4401C45.7345 20.2129 46.4185 20.4001 47.1193 20.1073C47.7745 19.8409 48.0457 19.2577 47.7937 18.5401C47.2585 17.0089 46.7233 15.4777 46.1569 13.9585C46.0729 13.6892 45.8997 13.4565 45.666 13.2986C45.4322 13.1407 45.1517 13.067 44.8705 13.0897Z" fill="#0C0E0C"/>
<path d="M21.7103 25.848L23.8103 23.34C23.5703 24.78 24.7871 25.1976 25.5503 25.8528C27.5351 27.5616 29.5703 29.2128 31.5863 30.8928C32.8895 28.9248 32.8895 28.9248 32.1719 26.9496C33.0983 27.3312 33.6671 28.0512 34.3511 28.608C34.4903 28.7208 34.5143 28.9296 34.3511 28.9968C32.4311 29.7336 31.8359 31.764 30.4127 32.9784C30.3356 33.0141 30.2552 33.0422 30.1727 33.0624C30.4991 31.728 29.4743 31.2624 28.6991 30.6168C27.0479 29.2416 25.3943 27.8688 23.7647 26.4696C23.1935 25.9776 22.6439 25.6032 21.8447 26.1768L21.7103 25.848Z" fill="#0C0E0C"/>
<path d="M40.0297 20.1743C41.0497 18.8711 40.6705 16.9799 39.3721 16.2071C38.7505 15.8399 38.2297 16.1207 37.7281 16.4855C37.1833 16.8839 37.7041 17.2055 37.8553 17.4839C38.5369 18.7439 39.2641 19.9751 39.9769 21.2183C40.6897 22.4615 40.6753 22.4352 42.1009 22.7232L38.6905 24.672C39.9073 22.6776 38.3713 21.7152 37.7305 20.592C37.0897 19.4688 36.9961 17.7119 34.7881 17.6495C36.3505 16.6895 37.5985 15.6983 39.1417 15.3167C40.4593 14.9927 41.6521 16.0056 42.0025 17.556C42.2641 18.7824 41.6161 19.7303 40.0297 20.1743Z" fill="#0C0E0C"/>
<path d="M28.6896 22.8457C29.4082 21.8822 30.3268 21.0855 31.3824 20.5105C30.7248 21.4705 31.3608 22.0177 31.8792 22.6153C32.7912 23.6665 33.7752 24.6745 34.5408 25.8241C35.1648 26.7601 35.7936 26.1985 36.3672 26.0257C37.0224 25.8241 37.1472 25.2025 37.032 24.5521C36.8963 23.9262 36.5907 23.3499 36.1488 22.8865C35.4528 22.0705 34.7632 21.2481 34.08 20.4193C33.6384 19.8817 33.2616 19.2193 32.3088 19.9393C32.7288 18.9937 33.336 18.5257 34.3992 17.9905C33.6792 19.0153 34.0704 19.5649 34.6008 20.1505C35.4302 21.0627 36.2105 22.0185 36.9384 23.0137C37.9128 24.3529 37.8744 25.5049 36.9384 26.3209C35.4672 27.5953 34.2984 27.6313 32.9952 26.3209C32.1264 25.4473 31.3608 24.4729 30.5712 23.5273C30.096 22.9681 29.6808 22.3489 28.6896 22.8457Z" fill="#0C0E0C"/>
<path d="M62.3545 18.4367C61.3153 18.4367 60.3865 18.4367 59.4577 18.4367C59.2729 18.4367 59.0353 18.4655 58.9777 18.1967C58.9201 17.9279 59.1169 17.8536 59.3233 17.8152C59.9305 17.7072 59.8777 17.2272 59.8993 16.7976C59.9809 15.288 60.0337 13.776 60.1393 12.2688C60.1897 11.5248 60.1729 10.8528 59.3497 10.3488H62.3425C62.5153 10.3488 62.6857 10.428 62.6569 10.608C62.6405 10.6799 62.6072 10.7469 62.5596 10.8033C62.5119 10.8597 62.4515 10.9038 62.3833 10.932C61.7209 11.0424 61.7473 11.5368 61.7257 12.0216C61.6609 13.4616 61.5769 14.88 61.5241 16.3104C61.4761 17.6064 61.4905 17.6063 62.3545 18.4367Z" fill="#0C0E0C"/>
<path d="M78.4392 30.2015L72.8064 26.2079C74.7096 25.5047 74.8008 25.5407 75.6864 27.2279C76.0536 27.9167 76.3272 28.6151 77.3664 28.6511C78.1728 28.6799 78.204 29.5943 78.4392 30.2015Z" fill="#DB1C23"/>
<path d="M68.2224 86.8752C67.5888 86.7624 67.9008 86.2488 67.8336 85.9152C67.7472 85.4904 67.644 85.284 67.2768 85.7112C66.936 86.796 67.1448 87.8712 67.2768 88.9536C67.6488 88.4736 67.9968 87.9936 67.5168 87.432C67.932 87.2832 68.4408 87.0504 68.4528 87.7776C68.4648 88.5048 68.7672 89.3928 67.752 89.6808C67.0968 89.8656 66.8376 89.3496 66.744 88.7976C66.5632 87.8219 66.5721 86.8204 66.7704 85.848C66.8616 85.4448 67.0464 85.0728 67.5072 85.0272C67.968 84.9816 68.2272 85.2672 68.3208 85.7088L68.2224 86.8752Z" fill="#0C0E0C"/>
<path d="M88.4904 46.9103C87.8304 45.2303 87.1488 43.5503 86.9736 41.7191C88.1736 42.1343 88.38 43.2143 88.5504 44.2319C88.7031 45.1202 88.6828 46.0297 88.4904 46.9103Z" fill="#DB1C23"/>
<path d="M72.7152 89.5849C71.8224 89.6737 71.4336 89.6017 71.4648 88.5457C71.484 87.8809 72.4536 87.4729 71.8272 86.7625C71.3472 86.6089 71.5872 87.6049 71.0256 87.2833C70.9584 87.2449 70.9272 87.0625 70.9488 86.9641C70.9684 86.7846 71.0493 86.6174 71.1778 86.4906C71.3063 86.3638 71.4747 86.2852 71.6544 86.2681C71.8342 86.2354 72.0197 86.2739 72.1716 86.3756C72.3235 86.4773 72.4298 86.6342 72.468 86.8129C72.72 87.6937 72.3864 88.6321 72.7152 89.5849Z" fill="#0C0E0C"/>
<path d="M74.3184 85.188C73.1184 85.5888 74.3184 86.4407 73.8384 87.1775C73.452 87.7655 73.7616 88.8119 73.5144 89.6591C73.3344 88.2336 72.8785 86.8271 73.3201 85.3919C73.4353 85.0343 73.8024 84.888 74.3184 85.188Z" fill="#0C0E0C"/>
<path d="M69.5113 86.8271C69.4681 87.8183 69.4249 88.7471 69.3841 89.7071H68.9545C68.9545 88.7183 68.9257 87.7295 68.9545 86.7455C68.9761 86.2271 69.4344 86.5247 69.7056 86.4431C69.9768 86.3615 70.272 86.2703 70.3872 86.6543C70.464 86.9063 70.6273 87.2639 70.3225 87.3983C69.8281 87.6023 70.1137 86.7455 69.5113 86.8271Z" fill="#0C0E0C"/>
<path d="M78.9793 86.3424C79.6993 86.808 79.4305 87.4128 79.4593 87.9288C79.4881 88.4448 79.4593 89.004 79.4593 89.6256C79.1953 89.304 78.1969 90.1248 78.4633 88.8312C78.5377 88.464 78.0841 88.4976 77.7649 88.7184C78.3505 88.7568 78.8593 87.7416 78.9793 86.3424Z" fill="#0C0E0C"/>
<path d="M75.9336 89.2752C75.7128 88.2024 75.6336 87.4368 76.0224 86.6904C76.0645 86.578 76.1376 86.4798 76.2331 86.4072C76.3287 86.3345 76.4428 86.2904 76.5624 86.28C76.9152 86.2656 76.824 86.6256 76.9872 86.76C77.076 86.8344 77.1864 87 77.0496 87C75.3984 86.9328 76.644 88.2888 76.1592 88.7856C76.0684 88.9411 75.9928 89.1051 75.9336 89.2752Z" fill="#0C0E0C"/>
<path d="M74.9761 89.6665C74.6161 88.6249 74.7073 87.5689 74.9041 86.5081C75.3481 87.5281 75.1705 88.6009 74.9761 89.6665Z" fill="#0C0E0C"/>
<path d="M67.4905 87.4273C67.9705 87.9913 67.6345 88.4665 67.2505 88.9489C67.1305 87.8665 66.9217 86.7889 67.2505 85.7065C67.4209 86.2705 67.2073 86.8802 67.4905 87.4273Z" fill="#A0A194"/>
<path d="M84.2904 71.8272C84.516 71.9904 85.1088 71.736 84.9864 72.204C84.864 72.672 84.6696 73.2983 84 73.5263C83.9088 72.8711 84.5856 72.4295 84.2976 71.8199L84.2904 71.8272Z" fill="#A0A194"/>
<path d="M47.6543 24.5136C47.5867 24.648 47.475 24.7552 47.3378 24.8173C47.2007 24.8793 47.0464 24.8924 46.9008 24.8543C46.9824 24.6023 46.9895 24.2447 47.1623 24.1343C47.3351 24.0239 47.5703 24.2616 47.6543 24.5136Z" fill="#04AC4D"/>
<path d="M33.5904 36.9263C33.6048 37.2935 33.6456 37.6703 33.2088 37.8503C33.1774 37.6759 33.1966 37.4961 33.2642 37.3324C33.3319 37.1686 33.4451 37.0277 33.5904 36.9263Z" fill="#04AC4D"/>
<path d="M80.496 76.4424L81.2472 76.5048C81.2428 76.5607 81.2261 76.6149 81.1984 76.6636C81.1706 76.7124 81.1325 76.7544 81.0867 76.7867C81.0408 76.819 80.9885 76.8408 80.9332 76.8506C80.878 76.8603 80.8213 76.8578 80.7672 76.8432C80.5464 76.8072 80.4792 76.6512 80.496 76.4424Z" fill="#A0A194"/>
<path d="M68.2224 86.8752L68.3304 85.704C68.6016 86.124 68.7936 86.5344 68.2224 86.8752Z" fill="#A0A194"/>
<path d="M79.1497 75.1776C79.3105 75.2784 79.4905 75.3672 79.4809 75.6C79.3854 75.6233 79.2848 75.6119 79.1969 75.568C79.109 75.5241 79.0395 75.4504 79.0009 75.36L79.1497 75.1776Z" fill="#A0A194"/>
<path d="M81.4921 76.1112C81.4921 75.7871 81.6937 75.6312 81.9553 75.5135C81.9652 75.6527 81.9235 75.7907 81.838 75.901C81.7525 76.0112 81.6293 76.0861 81.4921 76.1112Z" fill="#A0A194"/>
<path d="M79.7305 75.8255C79.9993 75.7175 80.1553 75.7895 80.1649 76.0967C79.9105 76.1855 79.7497 76.1207 79.7305 75.8255Z" fill="#A0A194"/>
<path d="M67.1808 28.5072C68.4576 28.4064 69.216 29.4672 70.2072 29.9472C74.9784 32.3232 78.8472 35.7864 81.5064 40.4328C83.496 43.9104 84.7752 47.6328 85.092 51.7128C85.3512 55.0272 84.732 58.1928 83.652 61.1928C82.1352 65.4096 79.9465 69.3528 76.8889 72.7128C76.7633 72.8078 76.6231 72.8816 76.4737 72.9312L75.564 72.5592C74.6761 71.6424 75.792 70.8936 75.9384 69.9192C75.2184 70.416 74.4984 70.5408 74.2272 71.2608L74.0089 71.3808H74.0425C72.9001 71.772 71.7457 72.1464 71.7577 73.6872C71.7577 73.7856 71.6352 73.884 71.5704 73.98C71.4672 74.2656 71.3592 74.7984 71.2632 74.796C70.272 74.7768 70.3632 75.6408 70.0632 76.1736C69.9048 76.7496 69.2713 76.4976 68.9617 76.8096C68.8321 77.088 68.5512 77.3136 68.3184 77.2368C67.7832 77.0616 68.4193 76.7736 68.3377 76.6344C68.0353 76.1184 67.6008 75.7104 67.4832 75.0528C67.3824 74.4936 67.5241 74.2968 68.0353 74.2896C68.7121 74.2896 69.3912 74.3064 70.068 74.2896C70.3368 74.2896 70.6921 74.6616 70.8649 74.1408C70.9315 73.9772 70.96 73.8005 70.9484 73.6243C70.9367 73.448 70.8852 73.2766 70.7977 73.1232C68.3545 69.1224 69.2281 65.2968 71.4553 61.572C71.8729 60.8736 72.7249 60.636 73.3753 60.168C75.6673 58.488 77.9352 56.772 79.1016 54.06C80.0448 51.8808 79.6897 49.8816 78.1225 48.06C77.5873 47.4384 77.232 47.5464 76.8072 48.1008C76.1467 48.9521 75.3741 49.7102 74.5104 50.3544C74.1046 50.6797 73.6355 50.9167 73.1329 51.0504C72.3553 51.2376 71.4528 51.4896 70.8768 50.8296C70.3632 50.2416 71.0664 49.6296 71.3568 49.1208C72.6312 46.812 73.4592 44.4048 73.3368 41.724C73.2288 39.372 71.7817 37.308 69.8041 36.6576C69.0049 36.396 68.3641 36.444 67.7953 37.1376C67.4569 37.5384 67.1401 38.0736 66.4777 38.0568C66.5689 37.1544 67.3777 36.6168 67.4137 35.5608C67.4953 33.2064 66.9768 30.9336 66.8472 28.6176L67.1808 28.5072Z" fill="#DB1C23"/>
<path d="M55.1377 47.8872C55.6705 48.9648 55.4473 50.0592 55.1881 51.1464C55.0969 51.5232 54.8185 51.8664 55.1233 52.2672C54.0697 53.5008 53.5609 54.9696 53.2825 56.5392C53.2273 56.844 53.0425 57.1896 53.4001 57.3984C53.7049 57.5784 53.9089 57.2928 54.1201 57.12C56.1769 55.3848 58.4617 54.0288 61.0609 53.3232C62.5009 52.932 63.9841 52.5168 65.5489 52.896C63.1705 54.4728 61.0345 56.2224 59.5297 58.632C58.0249 61.0416 57.4105 63.624 57.9505 66.4392C58.4617 65.5656 58.7401 64.5864 59.2801 63.7824C59.8729 62.9016 60.1225 61.6944 61.3201 61.3008C61.4065 61.7304 61.1161 62.0496 60.9721 62.4048C60.1657 64.3872 60.2857 66.3312 61.1905 68.2416C61.3489 68.5704 61.4305 69.0504 61.9921 68.9112C62.0425 69.1992 62.1289 69.7176 61.6873 69.492C60.9457 69.1176 61.0777 69.576 61.0753 69.96C61.0921 71.2501 61.3417 72.5266 61.8121 73.728C61.3849 75.3168 61.6633 76.9632 61.3897 78.5736C61.0537 80.5464 60.5929 82.4712 59.7577 84.2952C59.5969 84.648 59.4961 85.152 59.0377 85.1352C58.6345 85.1208 58.5793 84.6336 58.4521 84.312C58.1268 83.5329 57.5485 82.8861 56.8105 82.476C56.5105 82.2936 56.1241 82.0344 55.8121 82.2624C55.5001 82.4904 55.7137 82.9176 55.8121 83.2536C56.6957 86.0111 56.6688 88.9798 55.7353 91.7208C54.4057 95.5896 54.7753 95.3568 51.8953 92.772C49.2913 90.432 47.2345 87.6576 45.9913 84.336C45.8353 83.9256 45.6313 83.5392 45.7705 83.0808C46.1809 82.9632 46.4425 83.2152 46.7137 83.4552C47.6737 84.3 48.8065 84.5304 50.0329 84.5064C50.4217 84.5064 50.7529 84.4632 50.8297 83.9952C51.8833 84.2568 52.8121 84.9552 53.9737 84.9408C53.9041 84.4608 53.5633 84.2376 53.2537 83.9808C52.0318 82.9595 50.9873 81.7431 50.1625 80.3808C49.0897 78.5544 48.2137 76.656 48.4681 74.4432C48.8401 74.4648 48.9481 74.8104 49.1881 75.0072C49.9393 75.6456 50.6569 76.3296 51.7033 76.5072C52.1089 76.5744 52.1833 76.4208 52.2457 76.1136C55.5241 77.704 57.9801 78.184 59.6137 77.5536C57.6697 77.0376 55.7737 76.4616 54.3961 74.7336C55.9009 75.1776 57.3697 75.3984 58.8889 74.9952C58.7617 74.4888 58.4353 74.5152 58.1809 74.46C56.4544 74.1159 54.8174 73.4196 53.3722 72.4145C51.9269 71.4094 50.7043 70.1172 49.7809 68.6184C49.5649 68.28 49.3441 67.9368 48.8545 68.0112C48.4729 67.3128 49.7785 67.224 49.3969 66.5232C50.0641 66.8352 50.4025 67.4832 50.8969 67.9872C52.7257 69.8112 54.9025 70.4352 57.7225 70.044C56.2681 69.4824 55.0297 69.1392 53.9569 68.3904C51.8905 66.9504 50.7025 65.016 50.5825 62.5104C50.5369 61.5504 50.1913 61.6032 49.4881 61.8336C45.6073 63.0936 41.8657 62.5536 38.2537 60.8208C37.0729 60.2568 36.2137 59.2536 35.2969 58.3464C35.2365 58.2695 35.1948 58.1796 35.1752 58.0838C35.1556 57.9879 35.1587 57.8889 35.1841 57.7944C35.3041 57.4752 35.6449 57.5424 35.9041 57.5424C37.9382 57.5272 39.9529 57.145 41.8513 56.4144C45.0097 55.2432 47.7553 53.4912 49.8505 50.7936C50.4241 50.0544 50.9881 49.272 51.8401 48.7944C53.0617 48.888 54.1057 48.408 55.1377 47.8872ZM47.4313 61.128C48.5963 60.5615 49.5772 59.6771 50.2609 58.5768C50.9809 57.4872 50.9689 57.48 51.8785 58.3512C52.2457 56.6712 52.0537 55.1016 51.5881 53.5248C51.2953 52.5264 50.9329 52.5264 50.2633 53.2488C47.7562 55.9816 44.4123 57.8043 40.7569 58.4304C39.8665 58.5912 38.9329 58.512 38.0233 58.5792C37.6585 58.6056 37.1257 58.3584 36.9793 58.8552C36.8497 59.2968 37.3993 59.3544 37.6633 59.5464C39.2209 60.6744 40.9873 60.9384 42.8497 60.7464C44.4399 60.5659 45.9496 59.9505 47.2129 58.968C47.4193 58.8168 47.6641 58.5192 47.9329 58.728C48.2017 58.9368 48.0553 59.244 47.9689 59.5104C47.8321 59.9688 47.6761 60.408 47.4313 61.128Z" fill="#A0A194"/>
<path d="M66.8257 28.6128C66.9553 30.9288 67.4737 33.2016 67.3921 35.556C67.3561 36.6024 66.5473 37.1496 66.4561 38.052C65.1481 39.9 63.2209 41.088 61.5793 42.5808C61.2553 42.8736 60.8593 43.0872 60.5425 43.3848C60.1009 43.8024 59.7865 43.8456 59.2297 43.4424C58.0537 42.588 56.7769 43.0176 55.6033 43.5264C53.3761 44.4864 51.5977 46.0752 49.9417 47.808C49.5841 48.1824 49.2217 48.5496 48.8545 48.9168C48.5353 47.928 48.8305 46.9512 48.9937 45.9984C49.3729 43.7808 49.4737 41.6088 48.9745 39.3744C48.5115 37.4803 48.3679 35.5222 48.5497 33.5808C48.7081 32.0976 48.7897 30.5856 48.8377 29.0808C52.5601 27.1488 56.5393 26.6088 60.6745 26.8896C61.9321 26.9736 63.2017 26.9064 64.4185 27.3264C64.0777 27.5808 63.7537 27.8424 64.4545 28.0272C65.2417 28.2336 66.0337 28.4184 66.8257 28.6128Z" fill="#FDFDFD"/>
<path d="M61.8073 73.728C61.3369 72.5266 61.0873 71.2501 61.0705 69.96C61.0705 69.576 60.9409 69.1176 61.6825 69.492C62.1241 69.7176 62.0377 69.1992 61.9873 68.9112L62.0449 66.0864C62.2537 65.9592 62.3569 65.8152 62.1145 65.6184L62.2321 65.1912L62.7337 65.1432C62.8033 65.3832 62.8753 65.6232 62.9473 65.8632C62.6761 66.132 62.8009 66.2832 63.1009 66.384C63.3761 66.864 63.6513 67.344 63.9265 67.824C64.0153 68.256 64.3177 68.64 64.6969 68.4024C65.1625 68.112 64.9849 67.6176 64.6273 67.2456C64.6009 67.0968 64.5769 66.948 64.5505 66.7992C64.7401 66.36 64.8097 65.9376 64.4089 65.568C64.1941 64.4171 64.1941 63.2365 64.4089 62.0856C64.7761 61.7736 64.7329 61.3944 64.5913 60.9984L64.6561 60.5952C65.0641 60.0138 65.2965 59.3273 65.3257 58.6176L65.6473 57.7344C66.1273 57.7488 66.0577 57.2232 66.3241 57.0144C66.4513 56.9208 66.5641 56.7744 66.4177 56.6376C66.383 56.6054 66.3414 56.5816 66.2959 56.5683C66.2505 56.555 66.2026 56.5524 66.1561 56.5608C66.1095 56.5692 66.0655 56.5883 66.0276 56.6166C65.9897 56.6449 65.9589 56.6817 65.9377 56.724C65.8297 56.88 65.7481 57.0552 65.6521 57.2208C65.5362 57.2141 65.4203 57.232 65.3119 57.2734C65.2035 57.3148 65.1052 57.3786 65.0233 57.4608C63.5377 58.5048 62.4385 59.9112 61.3225 61.3008C60.1225 61.6944 59.8825 62.9016 59.2825 63.7824C58.7425 64.5864 58.4641 65.5656 57.9529 66.4392C57.4129 63.624 58.0297 61.0368 59.5321 58.632C61.0345 56.2272 63.1729 54.4728 65.5513 52.896C63.9865 52.5168 62.5009 52.932 61.0633 53.3232C58.4641 54.0288 56.1793 55.3848 54.1225 57.12C53.9161 57.2928 53.7121 57.5784 53.4025 57.3984C53.0473 57.1896 53.2297 56.844 53.2849 56.5392C53.5633 54.9696 54.0721 53.5008 55.1257 52.2672C56.2153 51.1416 57.3265 50.0448 58.8457 49.5C59.8513 49.6752 60.9025 49.1664 61.8769 49.644C62.7313 50.0616 62.9977 49.644 63.1825 48.9048C63.8377 46.2888 65.3569 44.268 67.5625 42.7656C69.5041 41.4456 71.1457 42 71.5369 44.0544C71.5057 44.2008 71.4721 44.3448 71.4409 44.4912C71.3784 44.5101 71.3216 44.5439 71.2752 44.5897C71.2288 44.6356 71.1943 44.692 71.1747 44.7542C71.155 44.8164 71.1509 44.8825 71.1626 44.9466C71.1742 45.0108 71.2014 45.0711 71.2417 45.1224C70.8025 46.5336 70.1353 47.8464 69.5281 49.188C68.3569 51.7728 69.1225 52.9464 71.9569 52.9872C73.7041 53.0136 75.0961 52.2456 76.3153 51.0672C76.5697 50.8272 76.7521 50.256 77.2297 50.5008C77.7073 50.7456 77.5945 51.2808 77.5273 51.7008C77.2129 53.6208 76.0513 55.0368 74.6473 56.2416C72.9433 57.6816 71.0041 58.668 68.6881 58.6824C68.4558 58.7002 68.2255 58.7372 67.9993 58.7928C67.9993 58.92 67.9705 59.0328 67.9993 59.064C69.2497 59.8344 68.9449 60.6288 68.4025 61.8216C67.1665 64.5528 67.3513 67.4928 67.7737 70.4064C67.8505 70.944 68.3761 71.688 67.6921 72.0096C67.0081 72.3312 66.4297 71.7264 65.9617 71.2248C65.8081 71.0568 65.7409 70.8096 65.4985 70.6944C65.0017 73.0728 65.4145 75.2112 66.3745 77.2728C66.5281 77.6088 66.9961 77.9928 66.6553 78.3168C66.3145 78.6408 65.9353 78.1992 65.6065 78.0144C63.8665 76.9992 62.4769 75.6816 61.8073 73.728Z" fill="#E7E7E2"/>
<path d="M48.8376 29.0808C48.7944 30.5856 48.708 32.0976 48.5496 33.5808C48.3679 35.5222 48.5114 37.4803 48.9744 39.3744C49.4808 41.6088 49.3728 43.7808 48.9936 45.9984C48.8304 46.9584 48.5352 47.9184 48.8544 48.9168C46.884 51.8496 44.1888 53.82 40.8912 55.0416C39.6912 55.488 38.4168 55.6008 37.1856 55.896C36.2136 56.136 36.1272 55.3656 36.0648 54.756C35.6736 50.9976 35.9304 47.316 37.2432 43.716C38.6712 39.7848 40.776 36.3552 43.8408 33.4992C44.2176 33.1464 45.0912 32.7792 44.3208 31.9728C44.3825 31.7959 44.4932 31.6403 44.64 31.524C45.9768 30.6 47.256 29.58 48.8376 29.0808Z" fill="#04AC4D"/>
<path d="M38.3041 77.5823C37.9201 76.8815 38.0929 76.1087 38.0833 75.3767C38.0737 74.6447 37.8001 74.3927 37.0825 74.4767C32.2825 75.0455 28.2649 73.3583 24.7969 70.1423C24.5713 69.9335 24.2665 69.7751 24.2377 69.2423C27.1609 69.2423 30.0769 69.1055 32.8225 67.3679C32.1025 67.0943 31.5433 66.8879 30.9889 66.6479C30.8908 66.6223 30.804 66.5647 30.7423 66.4843C30.6806 66.4039 30.6474 66.3052 30.6481 66.2039C30.6769 65.9807 30.8881 65.9087 31.0921 65.8799C33.0937 65.5967 34.9033 64.7903 36.6625 63.8471C36.7772 63.7688 36.9111 63.7232 37.0497 63.7151C37.1884 63.7071 37.3267 63.737 37.4497 63.8015C40.7473 65.5415 44.2177 65.2175 47.7097 64.6679C47.8644 64.6584 48.0197 64.6657 48.1729 64.6895C47.4697 65.7935 46.9465 67.0415 45.7489 67.7543C45.5689 67.3751 46.2289 67.2023 45.9073 66.6671C43.1425 67.8503 40.3873 67.1903 37.5553 66.1583C38.7793 68.8463 42.0745 70.0583 44.4577 68.5583L45.7489 67.7447C45.1777 69.7535 44.3089 71.6807 44.2897 73.8359C44.2897 74.3471 43.8625 74.0903 43.6585 73.8191C43.2385 73.2623 43.1377 72.5807 42.9385 71.9375C42.8689 71.7167 42.8497 71.4263 42.5569 71.3903C42.2641 71.3543 42.1729 71.6303 42.0601 71.8319C40.9572 73.7919 40.5106 76.0534 40.7857 78.2855C40.8193 78.5735 41.1841 78.9191 40.7857 79.1279C40.4569 79.2983 40.2553 78.8591 39.9721 78.7367C39.3361 78.4775 39.2401 77.4311 38.3041 77.5823Z" fill="#A0A194"/>
<path d="M38.3041 77.5824C39.2401 77.4312 39.3361 78.4776 39.9841 78.7512C40.2673 78.8736 40.4641 79.3128 40.7977 79.1424C41.1961 78.9336 40.8313 78.588 40.7977 78.3C40.5161 76.0702 40.9551 73.8088 42.0505 71.8463C42.1633 71.6399 42.2569 71.3663 42.5473 71.4047C42.8377 71.4431 42.8593 71.7311 42.9289 71.9519C43.1281 72.5951 43.2289 73.2767 43.6489 73.8336C43.8529 74.1048 44.2753 74.3616 44.2801 73.8504C44.3017 71.6903 45.1681 69.7703 45.7393 67.7591C46.9393 67.0391 47.4601 65.7983 48.1633 64.6943C49.2889 64.8167 48.9481 65.9279 49.3897 66.5111C49.7713 67.2119 48.4657 67.3007 48.8473 67.9991C48.7249 71.2247 49.6177 74.0279 52.2313 76.1111C52.1785 76.4184 52.0945 76.572 51.6889 76.5048C50.6425 76.3272 49.9249 75.6432 49.1737 75.0048C48.9337 74.808 48.8281 74.4623 48.4537 74.4407C48.4249 74.0495 48.3985 73.6584 48.3721 73.2696C48.6529 73.0824 48.7393 72.7271 48.4369 72.6599C48.0217 72.5663 47.8753 72.9384 47.9569 73.344C47.7961 73.7064 47.6185 74.064 47.4769 74.4336C46.4737 77.0112 46.2169 79.5264 48.1009 81.8736C48.8401 82.7904 49.8577 83.3496 50.8033 84C50.7313 84.48 50.3953 84.504 50.0065 84.5112C48.7801 84.5352 47.6377 84.3048 46.6873 83.46C46.4161 83.22 46.1545 82.98 45.7441 83.0856C45.2233 82.0896 45.2641 80.9448 44.9401 79.6488C43.8481 81.2736 43.2601 82.8288 43.0825 84.5592C43.0465 84.9264 43.2073 85.452 42.7465 85.5864C42.3817 85.6968 42.1417 85.2648 41.9209 84.9984C40.1425 82.8096 38.7481 80.4264 38.3041 77.5824Z" fill="#E7E7E2"/>
<path d="M71.5344 44.0544C71.1432 42 69.5017 41.4456 67.5601 42.7656C65.3545 44.268 63.8353 46.2888 63.1801 48.9048C62.9953 49.6392 62.7289 50.0616 61.8745 49.644C60.9001 49.164 59.8489 49.6752 58.8433 49.5C58.8884 49.3878 58.967 49.2922 59.0683 49.2261C59.1696 49.16 59.2888 49.1266 59.4097 49.1304C61.5937 48.9432 62.3041 47.0112 63.5184 45.6768C63.6003 45.61 63.6579 45.5181 63.6822 45.4153C63.7065 45.3124 63.6962 45.2044 63.6529 45.108C62.9113 44.868 62.4817 45.6192 61.8361 45.7248C61.5337 45.7752 61.2745 45.84 61.1161 45.5304C60.9577 45.2208 61.2385 45.0888 61.4161 44.9712C63.2761 43.7328 64.9105 42.2208 66.5929 40.7664C66.8881 40.5096 67.2457 40.3056 67.3801 40.896C67.6537 42.096 68.3928 42.132 69.372 41.808C70.1376 41.5536 70.9009 41.6376 71.4337 42.3144C71.8537 42.8376 72.036 43.4472 71.5344 44.0544Z" fill="#A0A194"/>
<path d="M68.9568 76.8C69.2664 76.488 69.9 76.74 70.0584 76.164C72.2376 75.4848 73.6056 73.572 75.564 72.564L76.4736 72.936C76.5672 73.5528 76.1016 73.8432 75.7536 74.2296C75.54 74.4696 74.9016 74.5296 75.288 75.1032C75.6312 75.6144 76.0584 75.5015 76.5048 75.2808C76.5446 75.3375 76.5905 75.3899 76.6416 75.4368C75.7048 76.7857 74.4884 77.9169 73.0752 78.7536C73.0464 78.5832 73.0176 78.4128 72.9864 78.2424C73.1208 78.096 73.2648 77.9592 73.3872 77.8032C73.692 77.4144 74.4768 77.1672 74.2872 76.6896C74.0472 76.0704 73.3272 76.8912 73.0584 76.6896C71.6304 75.636 70.332 77.448 68.9568 76.8Z" fill="#E7E7E2"/>
<path d="M55.1377 47.8873C54.1057 48.4177 53.0617 48.8977 51.8521 48.7849C53.2369 47.1601 54.816 45.7921 56.8705 45.0865C57.3505 44.9281 57.9144 44.6521 58.2432 45.2929C58.572 45.9337 58.1185 46.3273 57.708 46.7329C56.9904 47.4289 55.8865 47.2633 55.1377 47.8873Z" fill="#E7E7E2"/>
<path d="M72.9936 78.2375C73.0248 78.4079 73.0536 78.5784 73.0824 78.7487C72.0624 79.4303 71.1024 80.2344 69.7776 80.3184C70.8048 79.548 71.7648 78.6863 72.9936 78.2375Z" fill="#A0A194"/>
<path d="M66.8257 28.6127C66.0337 28.4183 65.2417 28.2335 64.4545 28.0271C63.7537 27.8423 64.0777 27.5807 64.4185 27.3263C65.3977 27.5831 66.5352 27.4727 67.1808 28.5071L66.8257 28.6127Z" fill="#A0A194"/>
<path d="M71.2393 45.1225C71.199 45.0712 71.1718 45.0109 71.1602 44.9467C71.1485 44.8826 71.1526 44.8165 71.1723 44.7544C71.1919 44.6922 71.2264 44.6357 71.2728 44.5899C71.3192 44.544 71.376 44.5102 71.4385 44.4913C71.5849 44.7673 71.4601 44.9617 71.2393 45.1225Z" fill="#A0A194"/>
<path d="M76.512 75.2879C76.6152 75.2879 76.7856 75.2279 76.8072 75.2639C76.8912 75.4103 76.7544 75.4247 76.6488 75.4439C76.5977 75.397 76.5518 75.3447 76.512 75.2879Z" fill="#E7E7E2"/>
<path d="M73.9704 20.3615C73.9972 20.1851 74.0456 20.0126 74.1144 19.8479C74.7912 18.4559 75.4464 17.0519 76.1832 15.6911C76.548 15.0167 77.1432 14.5991 77.9688 15.0143C78.7152 15.3959 78.7968 16.1015 78.4944 16.7591C77.82 18.2399 77.0736 19.6871 76.3152 21.1247C76.0128 21.6983 75.4848 22.0103 74.8176 21.7967C74.2272 21.6095 73.8888 21.1895 73.9704 20.3615Z" fill="#FDFDFD"/>
<path d="M90.0792 26.6472C89.5536 27.4848 89.2392 28.0128 88.8984 28.5192C88.6944 28.8288 88.5696 29.3952 88.1592 29.304C87.6792 29.196 87.4248 28.6344 87.1296 28.224C86.928 27.9432 87.1416 27.804 87.3696 27.7104L90.0792 26.6472Z" fill="#E7E7E2"/>
<path d="M81.7704 19.8481C81.84 19.7017 81.972 19.6081 82.1016 19.7065C82.308 19.8817 82.2168 20.0857 82.0584 20.2609L81.7704 19.8481Z" fill="#FDFDFD"/>
<path d="M54.3145 11.8825C54.3889 11.5897 54.0025 11.0545 54.6865 10.9993C55.3705 10.9441 56.1793 10.8433 56.3857 11.6857C56.7972 13.4151 56.9803 15.1911 56.9305 16.9681C56.9137 17.7241 56.1913 18.0217 55.4329 18.0169C54.5497 18.0169 54.8521 17.2969 54.8017 16.8769C54.6049 15.2329 54.4729 13.5745 54.3145 11.8825Z" fill="#FDFDFD"/>
<path d="M44.8705 13.0872C45.1515 13.0677 45.4309 13.1439 45.6632 13.3034C45.8954 13.4629 46.0669 13.6963 46.1497 13.9656C46.7161 15.4848 47.2513 17.016 47.7865 18.5472C48.0385 19.2672 47.7673 19.848 47.1121 20.1144C46.4185 20.3976 45.7345 20.22 45.4321 19.4472C44.8225 17.8584 44.2153 16.2648 43.7161 14.6472C43.4569 13.7664 44.0353 13.104 44.8705 13.0872Z" fill="#FDFDFD"/>
<path d="M75.564 72.5592C73.6056 73.572 72.2375 75.4848 70.0583 76.1592C70.3631 75.6264 70.2719 74.7624 71.2583 74.7816C71.3543 74.7816 71.4624 74.2512 71.5656 73.9656C72.6624 74.0232 72.9311 72.8904 73.6871 72.4992C74.3039 72.18 74.1672 71.8152 74.0376 71.3664H74.004L74.2224 71.2464C74.4912 70.5264 75.2208 70.4016 75.9336 69.9048C75.792 70.8936 74.676 71.6424 75.564 72.5592Z" fill="#0C0E0C"/>
<path d="M74.0425 71.3713C74.1649 71.8201 74.3088 72.1849 73.692 72.5042C72.936 72.8954 72.6672 74.0282 71.5704 73.9706C71.6352 73.8746 71.7576 73.7761 71.7576 73.6777C71.7456 72.1369 72.9 71.7625 74.0425 71.3713Z" fill="#A0A194"/>
<path d="M74.2272 71.2535L74.0088 71.3735L74.2272 71.2535Z" fill="#A0A194"/>
<path d="M47.4312 61.1279C47.6712 60.4079 47.832 59.9759 47.976 59.5343C48.0624 59.2679 48.1848 58.9439 47.94 58.7519C47.6952 58.5599 47.4192 58.8311 47.22 58.9919C45.9559 59.9719 44.4463 60.5847 42.8568 60.7631C40.9944 60.9479 39.228 60.6839 37.6704 59.5631C37.4064 59.3711 36.8568 59.3231 36.9864 58.8719C37.1328 58.3751 37.6656 58.6319 38.0304 58.5959C38.94 58.5287 39.8736 58.596 40.764 58.4472C44.4194 57.821 47.7633 55.9984 50.2704 53.2655C50.94 52.5455 51.3024 52.5455 51.5952 53.5415C52.0608 55.1183 52.2528 56.6951 51.8856 58.3679C50.976 57.4967 50.988 57.5039 50.268 58.5935C49.58 59.6887 48.5966 60.5672 47.4312 61.1279Z" fill="#0C0E0C"/>
<path d="M52.2407 76.1135C49.6272 74.0303 48.7343 71.2271 48.8567 68.0015C49.3367 67.9271 49.5767 68.2703 49.7831 68.6087C50.7066 70.1074 51.9291 71.3997 53.3744 72.4048C54.8197 73.4099 56.4567 74.1062 58.1831 74.4503C58.4375 74.5055 58.7639 74.4791 58.8911 74.9855C57.3719 75.3887 55.9031 75.1679 54.3983 74.7239C55.7639 76.4519 57.6719 77.0279 59.6159 77.5439C57.9743 78.1823 55.5159 77.7055 52.2407 76.1135Z" fill="#0C0E0C"/>
<path d="M61.3152 61.3007C62.4312 59.9039 63.5304 58.4975 65.016 57.4607C65.0979 57.3786 65.1963 57.3147 65.3047 57.2733C65.413 57.232 65.529 57.214 65.6448 57.2207V57.7271L65.3232 58.6103C65.0742 58.8713 64.8852 59.1834 64.7696 59.5251C64.6539 59.8667 64.6143 60.2294 64.6536 60.5879L64.5888 60.9911C64.4473 61.1297 64.3533 61.3097 64.3206 61.505C64.2878 61.7004 64.3178 61.9011 64.4064 62.0784C64.1916 63.2292 64.1916 64.4099 64.4064 65.5607C64.2432 65.9951 64.2024 66.4151 64.548 66.7919C64.5744 66.9407 64.5984 67.0896 64.6248 67.2384C64.5192 67.5864 64.4136 67.932 63.924 67.8168C63.6504 67.3368 63.3752 66.8568 63.0984 66.3767C63.144 66.2867 63.1534 66.1827 63.1249 66.0859C63.0963 65.9891 63.0319 65.9068 62.9448 65.856C62.8728 65.616 62.8008 65.376 62.7312 65.136C62.7894 64.723 62.7269 64.3021 62.5512 63.924C62.3959 64.09 62.2851 64.2925 62.2288 64.5127C62.1726 64.733 62.1729 64.9638 62.2296 65.184L62.112 65.6111C61.8984 65.7383 61.9104 65.9016 62.0424 66.0792L61.9848 68.904C61.416 69.0432 61.3416 68.5632 61.1832 68.2344C60.2784 66.3143 60.1584 64.3799 60.9648 62.3975C61.1112 62.0495 61.4016 61.7303 61.3152 61.3007Z" fill="#0C0E0C"/>
<path d="M50.8176 83.9952C49.872 83.3448 48.8544 82.7952 48.1152 81.8688C46.2312 79.5288 46.488 77.0136 47.4912 74.4288C47.6352 74.0592 47.8128 73.7088 47.9712 73.3392L48.3816 73.2648C48.408 73.6536 48.4344 74.0448 48.4632 74.436C48.2088 76.6488 49.0848 78.5472 50.1576 80.3736C50.9824 81.7358 52.0269 82.9523 53.2488 83.9736C53.5488 84.2328 53.8896 84.4536 53.9688 84.9336C52.8 84.9528 51.8712 84.2568 50.8176 83.9952Z" fill="#0C0E0C"/>
<path d="M64.6608 60.5832C64.6216 60.2247 64.6612 59.8619 64.7768 59.5203C64.8925 59.1787 65.0814 58.8665 65.3304 58.6056C65.3013 59.3153 65.0688 60.0017 64.6608 60.5832Z" fill="#A0A194"/>
<path d="M63.9264 67.8119C64.4064 67.9271 64.5216 67.5719 64.6272 67.2335C64.9848 67.6055 65.1624 68.0999 64.6968 68.3903C64.3176 68.6279 64.0152 68.2439 63.9264 67.8119Z" fill="#A0A194"/>
<path d="M62.232 65.1913C62.1753 64.9712 62.1751 64.7403 62.2313 64.52C62.2875 64.2998 62.3984 64.0973 62.5537 63.9313C62.7294 64.3094 62.7919 64.7304 62.7337 65.1433L62.232 65.1913Z" fill="#A0A194"/>
<path d="M65.652 57.7224V57.216C65.748 57.0504 65.8296 56.8752 65.9376 56.7192C65.9588 56.6769 65.9896 56.6401 66.0275 56.6118C66.0654 56.5835 66.1094 56.5644 66.156 56.556C66.2026 56.5476 66.2505 56.5502 66.2959 56.5635C66.3413 56.5768 66.383 56.6006 66.4176 56.6328C66.576 56.7768 66.4512 56.916 66.324 57.0096C66.0624 57.2112 66.1392 57.7368 65.652 57.7224Z" fill="#A0A194"/>
<path d="M64.5504 66.7874C64.2048 66.4106 64.2456 65.9906 64.4088 65.5562C64.8096 65.9282 64.74 66.3482 64.5504 66.7874Z" fill="#A0A194"/>
<path d="M64.4137 62.0737C64.3251 61.8965 64.2951 61.6957 64.3278 61.5004C64.3606 61.305 64.4545 61.125 64.5961 60.9865C64.7377 61.3825 64.7809 61.7617 64.4137 62.0737Z" fill="#A0A194"/>
<path d="M62.0448 66.0863C61.9128 65.9087 61.9008 65.7455 62.1144 65.6183C62.3568 65.8151 62.2536 65.9591 62.0448 66.0863Z" fill="#A0A194"/>
<path d="M62.9472 65.8561C63.0344 65.907 63.0988 65.9892 63.1274 66.086C63.1559 66.1828 63.1464 66.2868 63.1009 66.3769C62.8008 66.2761 62.676 66.1249 62.9472 65.8561Z" fill="#A0A194"/>
<path d="M45.7488 67.7593L44.4504 68.5681C42.0672 70.0609 38.772 68.8489 37.548 66.1681C40.3824 67.2001 43.1352 67.8481 45.9 66.6769C46.2192 67.2121 45.5616 67.3849 45.7416 67.7641L45.7488 67.7593Z" fill="#0C0E0C"/>
<path d="M48.384 73.272L47.9736 73.3464C47.8872 72.9408 48.0336 72.5688 48.4536 72.6624C48.7512 72.7296 48.6648 73.0848 48.384 73.272Z" fill="#A0A194"/>
</svg>
