<svg width="150" height="149" viewBox="0 0 150 149" fill="none" xmlns="http://www.w3.org/2000/svg">
<path d="M34.7137 0.0100098H2.79102V46.284H34.7137V0.0100098Z" fill="#E0E0E0"/>
<path d="M33.1161 0.0100098H1.19336V46.284H33.1161V0.0100098Z" fill="#F5F5F5"/>
<path d="M29.152 5.02148H5.16016V41.2695H29.152V5.02148Z" fill="white"/>
<path d="M29.1522 41.2728C29.1522 41.2728 29.1522 41.2086 29.1522 41.0937C29.1522 40.9788 29.1522 40.8031 29.1522 40.58C29.1522 40.1239 29.1522 39.4582 29.1522 38.5931C29.1522 36.8562 29.1522 34.3219 29.132 31.1252C29.132 24.7319 29.1083 15.6825 29.0914 5.02136L29.1725 5.10246H5.18063L5.26511 5.0146C5.26511 18.69 5.26511 31.2975 5.24821 41.266L5.18063 41.195L22.6406 41.2322L27.4661 41.2491H28.7332H29.1725H28.7467H27.4931H22.6846L5.18063 41.2863H5.10967V41.2187C5.10967 31.2502 5.10967 18.6427 5.09277 4.96729V4.88281H5.18401H29.1759H29.2536V4.96053C29.2536 15.642 29.2232 24.7116 29.2164 31.1151C29.2164 34.3084 29.2164 36.8326 29.1928 38.5492C29.1928 39.4075 29.1928 40.0698 29.1928 40.5192C29.1928 40.7389 29.1928 40.9078 29.1928 41.0261C29.1928 41.1444 29.1522 41.2728 29.1522 41.2728Z" fill="#E0E0E0"/>
<path d="M33.2074 0C33.0411 0.291856 32.8501 0.568844 32.6363 0.827889C32.268 1.32462 31.7408 1.99707 31.1393 2.72697C30.5378 3.45686 29.9769 4.10228 29.5613 4.56184C29.3509 4.82295 29.1155 5.06288 28.8584 5.27822C29.0405 4.99635 29.245 4.72965 29.47 4.48074L31.0143 2.62559L32.5484 0.760306C32.7461 0.488663 32.9666 0.234313 33.2074 0Z" fill="#E0E0E0"/>
<path d="M29.2734 41.1545C30.4662 43.0513 31.8696 44.8073 33.4568 46.3888L29.2734 41.1545Z" fill="white"/>
<path d="M33.4568 46.3888C33.1904 46.1898 32.9458 45.9632 32.7269 45.7129C31.6127 44.5793 30.6185 43.3337 29.76 41.9959C29.5673 41.7282 29.4042 41.4404 29.2734 41.1376C29.4889 41.3861 29.6854 41.6504 29.8614 41.9283C30.1993 42.4216 30.7062 43.0975 31.284 43.8172C31.8619 44.537 32.4127 45.1689 32.8182 45.6251C33.0504 45.8628 33.2639 46.1181 33.4568 46.3888Z" fill="#E0E0E0"/>
<path d="M1.18945 46.247L5.36945 41.087L1.18945 46.247Z" fill="white"/>
<path d="M5.36892 41.087C4.73953 42.0004 4.06278 42.8802 3.34144 43.7228C2.666 44.6001 1.94645 45.4426 1.18555 46.247C1.81547 45.334 2.49221 44.4543 3.21303 43.6113C3.88788 42.7334 4.60746 41.8909 5.36892 41.087Z" fill="#E0E0E0"/>
<path d="M1.19336 0C1.91245 0.771582 2.58927 1.58151 3.22084 2.42622C3.8964 3.23662 4.52808 4.08262 5.11316 4.96058C4.39407 4.189 3.71725 3.37907 3.08568 2.53435C2.40919 1.72468 1.77748 0.878637 1.19336 0Z" fill="#E0E0E0"/>
<path d="M21.6738 12.3812H13.6416V35.1904H21.6738V12.3812Z" fill="#E0E0E0"/>
<path d="M150 37.1436H123.42V75.6725H150V37.1436Z" fill="#E0E0E0"/>
<path d="M148.668 37.1436H122.088V75.6725H148.668V37.1436Z" fill="#F5F5F5"/>
<path d="M145.37 41.3169H125.393V71.4994H145.37V41.3169Z" fill="white"/>
<path d="M145.368 71.4991C145.368 71.4991 145.368 71.4484 145.368 71.3504C145.368 71.2524 145.368 71.1105 145.368 70.9247C145.368 70.5428 145.368 69.9886 145.368 69.2689C145.368 67.8226 145.368 65.714 145.351 63.0513C145.351 57.7291 145.33 50.1903 145.32 41.3166L145.384 41.3842H125.393L125.464 41.3133C125.464 52.6976 125.464 63.1966 125.464 71.4957L125.407 71.4383L139.937 71.4687H143.955H145.009H145.374H145.036H143.992H139.988L125.414 71.4991H125.356V71.4417C125.356 63.1425 125.356 52.6435 125.339 41.2592V41.1882H145.455V41.2558C145.455 50.1497 145.428 57.6987 145.422 63.0344C145.422 65.6904 145.422 67.7922 145.405 69.2351C145.405 69.9515 145.405 70.5023 145.405 70.8774C145.405 71.0598 145.405 71.2153 145.405 71.2997C145.405 71.3842 145.368 71.4991 145.368 71.4991Z" fill="#E0E0E0"/>
<path d="M148.746 37.1436C148.608 37.3826 148.448 37.6088 148.27 37.8194C147.962 38.2316 147.523 38.7926 147.023 39.4008C146.522 40.0091 146.056 40.5463 145.708 40.9282C145.532 41.1446 145.336 41.3448 145.124 41.5263C145.274 41.2872 145.445 41.0611 145.634 40.8505L146.911 39.2994L148.192 37.745C148.359 37.529 148.544 37.3278 148.746 37.1436Z" fill="#E0E0E0"/>
<path d="M145.469 71.4012C146.46 72.9806 147.626 74.4429 148.946 75.7603L145.469 71.4012Z" fill="white"/>
<path d="M148.946 75.7603C148.725 75.5977 148.522 75.4119 148.341 75.2062C147.877 74.7355 147.438 74.2403 147.026 73.7227C146.613 73.2068 146.226 72.6699 145.867 72.1142C145.71 71.89 145.574 71.6513 145.462 71.4012C145.643 71.6073 145.807 71.8276 145.952 72.0602C146.246 72.4691 146.658 73.0334 147.138 73.6349C147.618 74.2363 148.077 74.7601 148.415 75.1352C148.608 75.3293 148.786 75.5383 148.946 75.7603Z" fill="#E0E0E0"/>
<path d="M122.085 75.6421L125.565 71.3472L122.085 75.6421Z" fill="white"/>
<path d="M125.565 71.3472C125.041 72.1074 124.477 72.8395 123.876 73.5402C123.313 74.2708 122.713 74.9723 122.078 75.6421C122.602 74.8817 123.166 74.1496 123.768 73.449C124.329 72.7171 124.929 72.0155 125.565 71.3472Z" fill="#E0E0E0"/>
<path d="M122.088 37.1436C122.689 37.7872 123.253 38.4641 123.777 39.171C124.34 39.8457 124.867 40.5496 125.356 41.2796C124.755 40.6358 124.191 39.9589 123.666 39.2521C123.102 38.5782 122.576 37.8743 122.088 37.1436Z" fill="#E0E0E0"/>
<path d="M139.143 47.4465H132.456V66.4373H139.143V47.4465Z" fill="#E0E0E0"/>
<path d="M9.86028 111.258C8.1833 110.207 6.2873 109.555 4.31849 109.352C3.41626 109.258 2.42617 109.285 1.70303 109.832C1.61935 109.881 1.55019 109.951 1.50266 110.035C1.45514 110.12 1.43099 110.215 1.4327 110.312C1.47265 110.453 1.56438 110.574 1.68952 110.65C3.94002 112.366 7.3462 112.583 9.85352 111.268" fill="#E0E0E0"/>
<path d="M9.7249 111.099C8.44246 110.16 7.24604 109.108 6.14977 107.957C5.04989 106.797 4.27688 105.366 3.9094 103.811C3.83824 103.581 3.81711 103.338 3.84741 103.099C3.87772 102.86 3.95876 102.63 4.08511 102.425C6.93373 104.652 9.1741 107.528 9.7249 111.099Z" fill="#E0E0E0"/>
<path d="M9.83013 111.235C9.56399 109.68 9.58575 108.091 9.89434 106.544C10.2124 104.985 11.105 103.603 12.3949 102.672C12.8883 103.821 12.6754 105.149 12.3273 106.352C11.7898 108.214 10.9533 109.976 9.85041 111.569" fill="#E0E0E0"/>
<path d="M12.621 116.242C10.9315 116.448 9.45139 117.341 8.18422 118.489C6.91097 119.646 6.0249 121.167 5.64648 122.845C7.30902 122.744 8.71812 121.571 9.742 120.257C10.7659 118.942 11.4755 117.499 12.5974 116.269" fill="#E0E0E0"/>
<path d="M13.2292 117.04C12.5617 115.345 12.3277 113.511 12.5484 111.703C12.7691 109.895 13.4375 108.171 14.493 106.686C15.456 110.123 15.1046 114.002 13.2292 117.04Z" fill="#E0E0E0"/>
<path d="M16.9193 121.433C15.3696 121.337 13.8259 121.699 12.4802 122.473C11.1344 123.248 10.0459 124.4 9.35005 125.788C9.25881 125.978 9.17434 126.214 9.29936 126.383C9.36528 126.446 9.44553 126.492 9.53322 126.518C9.62091 126.543 9.71344 126.547 9.80285 126.528C11.2931 126.434 12.6143 125.535 13.7058 124.501C14.7972 123.467 15.7332 122.298 16.9531 121.416" fill="#E0E0E0"/>
<path d="M16.8016 121.193C16.0068 118.637 15.9575 115.906 16.6597 113.323C16.9368 112.309 17.4031 111.241 18.3493 110.765C18.387 110.741 18.4292 110.725 18.4733 110.717C18.5174 110.71 18.5625 110.711 18.6061 110.721C18.6823 110.761 18.7403 110.829 18.7683 110.91C19.0842 111.619 19.2212 112.394 19.167 113.168C19.1166 113.938 19.0036 114.703 18.8291 115.455C18.5351 116.851 18.3763 118.354 17.6092 119.557C17.4299 119.849 17.2674 120.15 17.1226 120.46C16.9773 120.767 16.9773 120.875 16.8456 121.119" fill="#E0E0E0"/>
<path d="M26.5665 122.663C25.8434 119.909 26.6105 116.58 28.3473 114.316C28.4724 114.151 28.6447 113.978 28.8508 113.978C29.1888 114.009 29.253 114.435 29.2394 114.752C29.1106 117.588 28.1841 120.33 26.5665 122.663Z" fill="#E0E0E0"/>
<path d="M27.4486 123.251C30.7905 124.122 34.6292 123.274 37.4103 121.223C35.7389 120.384 33.8278 120.151 32.0037 120.564C30.2026 120.973 28.5569 121.781 27.4351 123.251" fill="#E0E0E0"/>
<path d="M28.1924 121.419C30.0644 118.378 33.6531 116.371 37.2316 116.192C36.8193 117.645 35.6231 118.777 34.2748 119.459C32.9266 120.142 31.4195 120.439 29.936 120.73C29.3582 120.841 28.5641 120.963 28.1924 121.406" fill="#E0E0E0"/>
<path d="M26.7526 112.525C27.2594 110.788 27.7663 109.035 27.9082 107.23C28.0501 105.426 27.79 103.54 26.8539 101.992C25.1069 105.372 24.9278 109.332 26.7019 112.708" fill="#E0E0E0"/>
<path d="M32.6426 109.548C34.6903 105.831 38.8636 102.861 43.0875 102.452C41.4587 106.507 37.005 109.646 32.6426 109.548Z" fill="#E0E0E0"/>
<path d="M31.3516 110.278C34.3928 110.741 37.0049 112.691 39.8535 113.87C40.4511 114.159 41.1141 114.286 41.7762 114.239C42.0837 114.235 42.3825 114.137 42.6325 113.958C42.8825 113.779 43.0716 113.527 43.1743 113.237C43.2771 112.948 43.2885 112.633 43.2071 112.337C43.1257 112.04 42.9553 111.776 42.719 111.579C42.3161 111.205 41.8413 110.916 41.3234 110.731C38.218 109.437 34.8861 109.406 31.6151 110.19" fill="#E0E0E0"/>
<path d="M29.5913 112.417C30.2671 112.613 30.5172 112.971 31.0646 113.431C32.9298 115.017 35.1364 116.15 37.512 116.743C37.7587 116.803 38.0797 116.827 38.2047 116.607C38.3298 116.388 38.1743 116.175 38.0358 116.003C37.0002 114.787 35.6551 113.874 34.143 113.36C32.6562 112.806 31.3654 112.14 29.5913 112.282" fill="#E0E0E0"/>
<path d="M27.598 99.4921C28.8498 100.645 30.3288 101.524 31.9401 102.072C33.5514 102.62 35.2595 102.826 36.9548 102.675C37.11 102.675 37.2603 102.621 37.3806 102.523C37.6137 102.266 37.3333 101.871 37.0426 101.655C34.2954 99.5124 30.9602 98.6135 27.5811 99.4921" fill="#E0E0E0"/>
<path d="M29.96 98.6269C31.6164 97.4083 33.5375 96.5985 35.5664 96.2638C37.5954 95.9291 39.6748 96.0788 41.6349 96.7008C40.165 98.1505 38.124 98.9277 36.0728 99.1439C34.0206 99.3307 31.9516 99.1557 29.96 98.6269Z" fill="#E0E0E0"/>
<path d="M29.0197 92.6863C28.7527 89.9425 28.9251 87.7765 28.7358 85.0191C28.7358 84.7961 28.675 84.5325 28.4689 84.4548C28.1817 84.3432 27.9417 84.6947 27.8471 84.9887C27.4466 86.267 27.3438 87.62 27.5464 88.9443C27.7491 90.2685 28.2518 91.5288 29.0163 92.6289" fill="#E0E0E0"/>
<path d="M28.8237 92.9906C30.6856 91.8417 32.0812 90.338 33.3721 88.5707C34.2675 87.3441 35.0278 85.8674 34.8217 84.3637C33.5613 84.3366 32.3617 85.0395 31.5406 85.9924C30.7571 86.9853 30.1886 88.1303 29.8713 89.3547C29.5063 90.5644 29.2495 91.8045 28.8237 92.9906Z" fill="#E0E0E0"/>
<path d="M33.2908 91.7503C37.3843 90.2353 41.1743 88.0016 44.4826 85.1543C43.1309 84.617 41.6137 84.938 40.2789 85.4922C37.2377 86.7256 34.7304 88.8037 33.2334 91.7368" fill="#E0E0E0"/>
<path d="M30.0811 94.4942C32.1457 94.7172 34.2442 94.8659 36.2953 94.5246C38.3464 94.1833 40.2117 93.3892 42.0939 92.5951C42.2585 92.5495 42.3998 92.4433 42.4893 92.2977C42.5196 92.2104 42.5222 92.1158 42.4968 92.0269C42.4714 91.938 42.4192 91.8592 42.3473 91.801C42.2032 91.6861 42.0343 91.6063 41.854 91.5678C39.8062 90.9968 37.5996 91.2637 35.5857 91.9429C33.6668 92.599 31.8219 93.454 30.0811 94.4942Z" fill="#E0E0E0"/>
<path d="M18.2843 99.5866C16.8752 96.7414 16.9664 93.4197 18.1829 90.49C19.0412 91.7943 19.146 93.4569 18.9906 95.0113C18.8351 96.5657 18.3587 98.164 18.3147 99.7421" fill="#E0E0E0"/>
<path d="M12.6548 96.7448C10.8903 96.7215 9.14033 97.0668 7.51691 97.7586C5.89348 98.4505 4.43237 99.4736 3.22705 100.763C4.98082 101.04 6.79204 100.587 8.387 99.8063C9.98195 99.0257 11.4046 97.9308 12.8137 96.8428" fill="#E0E0E0"/>
<path d="M8.87024 95.481C7.14688 95.3391 5.4911 95.1262 3.83532 95.6331C2.17954 96.14 0.675828 97.2922 0 98.8872C1.62847 99.0208 3.2628 98.7126 4.73079 97.9951C6.18685 97.2817 7.57663 96.4404 8.88376 95.481" fill="#E0E0E0"/>
<path d="M14.4729 95.5384C12.9253 94.5247 11.3337 93.4907 9.53262 93.0683C7.73154 92.6459 5.63985 92.9602 4.38281 94.3186C5.8426 95.1769 7.61327 95.2749 9.30284 95.2749C10.9924 95.2749 13.0706 95.2546 14.6655 95.8189" fill="#E0E0E0"/>
<path d="M14.483 95.6297C11.8338 93.0311 10.8302 88.3611 11.898 84.8164C13.9838 88.0136 14.8973 91.8348 14.483 95.6297Z" fill="#E0E0E0"/>
<path d="M21.7617 88.253C22.2618 87.094 22.6133 85.8876 23.0627 84.6914C23.4709 83.4929 24.0976 82.3804 24.9111 81.4103C25.7416 80.4395 26.9196 79.833 28.1922 79.7207C27.7853 81.5119 27.0092 83.1986 25.9136 84.673C24.818 86.1474 23.427 87.377 21.8293 88.2834" fill="#E0E0E0"/>
<path d="M20.4438 89.787C19.6193 88.6516 18.663 87.1074 17.5445 86.2592C16.426 85.411 14.9628 84.9076 13.5977 85.2218C14.3052 86.4627 15.2924 87.5215 16.4809 88.314C17.6693 89.1065 19.0262 89.6109 20.4438 89.787Z" fill="#E0E0E0"/>
<path d="M20.7076 88.3476C20.1152 86.9908 19.6777 85.5716 19.4032 84.1169C19.1836 82.6571 19.3187 81.0925 20.079 79.8186C21.5321 82.5658 21.9984 85.5125 20.7954 88.378" fill="#E0E0E0"/>
<path d="M21.7749 79.8187C22.5994 77.0952 25.0932 75.088 27.7864 74.1688C28.119 74.0327 28.4793 73.9783 28.8373 74.01C29.0164 74.0293 29.1858 74.1013 29.3242 74.2167C29.4625 74.3322 29.5635 74.486 29.6145 74.6588C29.7125 75.1217 29.3307 75.5374 28.9691 75.8449C26.8649 77.6431 24.4174 78.995 21.7749 79.8187Z" fill="#E0E0E0"/>
<path d="M21.8056 77.5918C21.9104 75.8347 22.0185 74.0539 22.5896 72.388C23.1607 70.722 24.2792 69.1643 25.864 68.4377C26.1377 70.2118 25.3537 71.9757 24.411 73.5065C23.4682 75.0372 22.3294 76.4733 21.7617 78.1764" fill="#E0E0E0"/>
<path d="M21.7616 78.7983C21.0857 76.8147 21.0114 74.2939 19.8219 72.5638C18.994 71.354 17.6627 70.5363 16.9463 69.2522C16.5131 70.4804 16.5737 71.8288 17.1152 73.0132C17.6554 74.1836 18.3991 75.2488 19.3117 76.1592C20.1936 77.0986 20.9438 77.8048 21.7616 78.7983Z" fill="#E0E0E0"/>
<path d="M21.7754 137.247C21.7247 137.247 21.6774 124.008 21.674 107.68C21.6706 91.3516 21.7112 78.1088 21.7619 78.1088C21.8126 78.1088 21.8633 91.3449 21.8666 107.68C21.87 124.014 21.8295 137.247 21.7754 137.247Z" fill="#E0E0E0"/>
<path d="M33.3456 97.5862C33.187 97.6662 33.0205 97.7296 32.8489 97.7754L31.4803 98.2384C30.3247 98.6303 28.7365 99.2014 27.0131 99.9076C25.2897 100.614 23.7015 101.232 22.7858 102.026C22.4203 102.331 22.1291 102.714 21.9343 103.148C21.8025 103.459 21.7788 103.652 21.7619 103.648C21.7538 103.603 21.7538 103.556 21.7619 103.51C21.7807 103.377 21.8136 103.247 21.8599 103.121C22.033 102.66 22.3174 102.249 22.6878 101.925C23.2402 101.457 23.8585 101.072 24.5227 100.783C25.2593 100.445 26.0703 100.083 26.9354 99.7286C28.6621 99.0223 30.2605 98.4681 31.4296 98.1066C32.0142 97.9275 32.4907 97.7923 32.8218 97.7045C32.9928 97.6505 33.168 97.6109 33.3456 97.5862Z" fill="#E0E0E0"/>
<path d="M37.14 88.2733C37.0978 88.3276 37.0503 88.3774 36.998 88.422L36.5756 88.8207L34.9874 90.2602L29.7092 94.9539C27.648 96.7887 25.8672 98.5425 24.6405 99.8604C24.0221 100.519 23.5355 101.067 23.2044 101.449L22.8192 101.884C22.7313 101.986 22.6806 102.037 22.6772 102.03C22.7072 101.969 22.7446 101.912 22.7888 101.861C22.8699 101.756 22.9881 101.597 23.1469 101.401C23.4612 101.003 23.9343 100.442 24.5392 99.7691C26.1343 98.0297 27.8194 96.3751 29.5876 94.8119C31.6556 92.9804 33.5378 91.3382 34.9064 90.1521L36.5317 88.7565L36.9811 88.3848C37.096 88.3071 37.1332 88.2666 37.14 88.2733Z" fill="#E0E0E0"/>
<path d="M27.4861 96.826C27.432 96.8023 27.8612 95.8122 28.2903 94.5518C28.7195 93.2914 28.9256 92.2337 28.9661 92.2438C28.9176 93.0537 28.7456 93.8514 28.4559 94.6092C28.2709 95.151 28.0565 95.6823 27.8138 96.2008C27.7337 96.4232 27.6234 96.6336 27.4861 96.826Z" fill="#E0E0E0"/>
<path d="M21.7883 104.841C21.6704 104.729 21.564 104.606 21.4706 104.473L20.6563 103.429C19.9804 102.547 19.0275 101.327 17.9699 99.9921C16.9122 98.6574 15.9424 97.4611 15.2328 96.5961L14.4015 95.5654C14.2921 95.4453 14.1958 95.3139 14.1143 95.1735C14.2382 95.2742 14.3515 95.3874 14.4522 95.5114C14.6617 95.7412 14.9624 96.0791 15.3274 96.5015C16.0606 97.3462 17.0507 98.5289 18.1118 99.8806C19.1728 101.232 20.1021 102.449 20.7576 103.354C21.0956 103.807 21.349 104.175 21.5247 104.436C21.627 104.561 21.7153 104.697 21.7883 104.841Z" fill="#E0E0E0"/>
<path d="M19.2509 101.584C18.7406 101.017 18.3764 100.333 18.1898 99.5935C17.9896 98.9443 17.9072 98.2645 17.9465 97.5863H18.031C17.9939 97.7417 17.9668 97.8228 17.9499 97.8194C17.933 97.8161 17.9499 97.7316 17.9499 97.5728H18.0344C18.078 98.2339 18.1913 98.8885 18.3723 99.5259C18.6126 100.233 18.9063 100.921 19.2509 101.584Z" fill="#E0E0E0"/>
<path d="M15.9771 97.4646C15.7487 97.2894 15.4989 97.144 15.2337 97.0321C14.5669 96.8332 13.8655 96.778 13.1758 96.8699C12.4759 96.9238 11.7818 97.0368 11.101 97.2078C10.8212 97.2955 10.5355 97.3632 10.2461 97.4106C10.5011 97.2594 10.7765 97.1456 11.0638 97.0727C11.7452 96.8629 12.448 96.7303 13.1589 96.6773C13.8756 96.5822 14.6046 96.661 15.2844 96.9071C15.5735 97.0061 15.8186 97.2034 15.9771 97.4646Z" fill="#E0E0E0"/>
<path d="M15.1995 96.4642C15.1995 96.4946 14.7669 96.2918 14.0641 96.0519C13.1459 95.7397 12.1924 95.5433 11.2256 95.4673C10.2591 95.3965 9.28758 95.4453 8.33305 95.6126C7.59978 95.7444 7.15711 95.8829 7.14697 95.8525C7.24023 95.7949 7.34161 95.7516 7.44772 95.7241C7.72863 95.6257 8.01526 95.5445 8.30602 95.4808C10.2447 95.053 12.2666 95.207 14.1181 95.9235C14.3934 96.035 14.662 96.1625 14.9224 96.3053C15.0218 96.3448 15.1151 96.3983 15.1995 96.4642Z" fill="#E0E0E0"/>
<path d="M21.7619 92.2504C21.4249 91.3082 21.1484 90.3454 20.934 89.368C20.6564 88.4076 20.4419 87.4301 20.292 86.4417C20.6272 87.3845 20.9036 88.3471 21.1199 89.3241C21.3956 90.2849 21.6101 91.2623 21.7619 92.2504Z" fill="#E0E0E0"/>
<path d="M21.8157 92.2505C21.5497 91.6543 21.2426 91.0773 20.8966 90.5238C20.5053 90.0046 20.0513 89.5359 19.5449 89.1282C19.737 89.1768 19.9151 89.2694 20.0653 89.3985C20.4494 89.6779 20.783 90.0208 21.052 90.4122C21.4656 90.9461 21.7293 91.5807 21.8157 92.2505Z" fill="#E0E0E0"/>
<path d="M21.7752 130.192C21.7549 130.192 21.7177 129.87 21.5657 129.31C21.3485 128.518 21.053 127.751 20.6837 127.019C19.768 125.146 18.1021 122.778 15.9867 120.406C14.9392 119.206 13.9221 118.077 13.0604 116.996C12.2859 116.044 11.5855 115.034 10.9653 113.975C10.5495 113.26 10.1967 112.511 9.91103 111.735C9.81304 111.458 9.74208 111.245 9.70153 111.093C9.6757 111.019 9.65758 110.943 9.64746 110.866C9.64746 110.866 9.76235 111.167 9.98537 111.708C10.2948 112.467 10.6596 113.202 11.0768 113.907C11.7091 114.95 12.4161 115.945 13.1922 116.884C14.0572 117.956 15.0744 119.078 16.1253 120.264C18.2474 122.646 19.9065 125.045 20.7986 126.944C21.159 127.691 21.4388 128.473 21.6333 129.279C21.6941 129.566 21.7346 129.789 21.7515 129.955C21.7677 130.033 21.7757 130.112 21.7752 130.192Z" fill="#E0E0E0"/>
<path d="M32.2308 118.381C32.0552 118.496 31.8724 118.598 31.6834 118.689C31.188 118.967 30.7136 119.281 30.2642 119.628C29.5978 120.141 28.973 120.706 28.3955 121.318C27.7399 122.011 27.0675 122.811 26.368 123.683C24.9893 125.413 23.7019 126.941 22.9314 128.161C22.5394 128.765 22.2556 129.276 22.0697 129.634C21.9807 129.825 21.8791 130.01 21.7656 130.188C21.7748 130.134 21.7919 130.082 21.8163 130.033C21.8569 129.931 21.9143 129.786 22.0022 129.603C22.2416 129.082 22.5136 128.577 22.8165 128.09C23.5667 126.839 24.844 125.288 26.2193 123.565C26.8952 122.7 27.5913 121.896 28.2468 121.2C28.8346 120.582 29.4745 120.017 30.1594 119.51C30.6216 119.169 31.1123 118.868 31.626 118.611C31.8084 118.52 31.9639 118.466 32.0551 118.422C32.1105 118.397 32.1702 118.383 32.2308 118.381Z" fill="#E0E0E0"/>
<path d="M32.4364 122.213C32.0546 122.297 31.6672 122.352 31.2773 122.379C30.3473 122.477 29.4279 122.658 28.5301 122.92C27.6442 123.211 26.8128 123.647 26.0701 124.211C25.5057 124.65 25.2388 125.011 25.2118 124.991C25.1847 124.971 25.2557 124.886 25.3841 124.724C25.5631 124.498 25.7647 124.291 25.9856 124.106C26.7211 123.501 27.5652 123.042 28.4726 122.754C29.3809 122.483 30.3175 122.317 31.2638 122.261C31.6522 122.207 32.0449 122.191 32.4364 122.213Z" fill="#E0E0E0"/>
<path d="M25.5498 124.572C25.489 124.535 26.0094 123.737 26.4149 122.666C26.8204 121.595 26.8846 120.639 26.9521 120.639C26.9803 120.846 26.9734 121.056 26.9319 121.26C26.8769 121.76 26.7634 122.251 26.594 122.724C26.4182 123.197 26.1916 123.65 25.9181 124.075C25.8215 124.259 25.6973 124.426 25.5498 124.572Z" fill="#E0E0E0"/>
<path d="M35.6161 108.095C35.5601 108.136 35.4987 108.169 35.4337 108.193L34.8896 108.44C34.6497 108.545 34.3591 108.673 34.0347 108.845C33.7103 109.018 33.3251 109.183 32.9263 109.427L32.2944 109.785C32.0782 109.913 31.8585 110.062 31.6186 110.207C31.1523 110.488 30.686 110.836 30.1892 111.19C29.1292 111.991 28.1306 112.87 27.2021 113.819C26.2868 114.78 25.4432 115.807 24.6779 116.891C24.3399 117.401 24.002 117.881 23.7418 118.358C23.6067 118.591 23.4647 118.814 23.3465 119.033L23.0086 119.676C22.7822 120.081 22.6233 120.47 22.4645 120.804C22.3057 121.139 22.184 121.429 22.0894 121.669L21.8901 122.227C21.8663 122.292 21.8358 122.354 21.7988 122.413C21.8069 122.344 21.8252 122.277 21.8529 122.213C21.9036 122.065 21.9678 121.875 22.0489 121.646C22.13 121.416 22.2415 121.102 22.3868 120.764C22.5321 120.426 22.6909 120.03 22.9072 119.618C23.0119 119.412 23.1235 119.192 23.2451 118.966C23.3667 118.739 23.5019 118.513 23.6371 118.29C23.8973 117.807 24.2284 117.324 24.5663 116.807C25.3272 115.707 26.1723 114.667 27.0939 113.698C28.0322 112.743 29.0421 111.862 30.1149 111.062C30.6184 110.724 31.0915 110.363 31.5645 110.086C31.7977 109.944 32.0173 109.795 32.2404 109.673L32.8824 109.335C33.2879 109.102 33.6765 108.937 34.0077 108.774C34.3388 108.612 34.6362 108.491 34.8795 108.399L35.437 108.186C35.4932 108.15 35.5532 108.119 35.6161 108.095Z" fill="#E0E0E0"/>
<path d="M27.3442 113.64C27.421 113.373 27.5793 113.137 27.797 112.965C28.3076 112.523 28.9569 112.274 29.6319 112.262C30.2938 112.259 30.9495 112.388 31.5614 112.64C31.821 112.721 32.067 112.841 32.2913 112.995C32.0275 112.94 31.7687 112.863 31.5175 112.765C30.9121 112.561 30.2776 112.456 29.6387 112.454C29.0033 112.466 28.3885 112.682 27.8849 113.069C27.6899 113.245 27.5091 113.436 27.3442 113.64Z" fill="#E0E0E0"/>
<path d="M26.1074 114.914C26.3514 114.375 26.5262 113.808 26.6278 113.225C26.6648 112.633 26.6251 112.039 26.5095 111.458C26.62 111.602 26.6942 111.771 26.7258 111.951C26.9503 112.804 26.8441 113.71 26.4284 114.489C26.2831 114.779 26.1243 114.928 26.1074 114.914Z" fill="#E0E0E0"/>
<path d="M12.6313 132.087C12.9186 137.156 14.4426 142.292 16.7877 147.496H26.9859C29.2229 142.346 30.6422 137.207 30.8956 132.087H12.6313Z" fill="#E0E0E0"/>
<path d="M29.2398 140.275C29.2398 140.329 25.8843 140.369 21.7415 140.369C17.5986 140.369 14.2432 140.329 14.2432 140.275C14.2432 140.221 17.5986 140.18 21.7415 140.18C25.8843 140.18 29.2398 140.234 29.2398 140.275Z" fill="#FAFAFA"/>
<path d="M29.0127 142.11C29.0127 142.16 25.8634 142.204 21.9808 142.204C18.0981 142.204 14.9521 142.16 14.9521 142.11C14.9521 142.059 18.0981 142.012 21.9808 142.012C25.8634 142.012 29.0127 142.056 29.0127 142.11Z" fill="#FAFAFA"/>
<path d="M16.9501 135.409C17.0807 136.973 17.0807 138.545 16.9501 140.109C16.8239 138.545 16.8239 136.973 16.9501 135.409Z" fill="#FAFAFA"/>
<path d="M22.4173 135.409C22.5435 137.028 22.5435 138.655 22.4173 140.275C22.2867 138.656 22.2867 137.028 22.4173 135.409Z" fill="#FAFAFA"/>
<path d="M27.5472 135.368C27.6734 137.021 27.6734 138.68 27.5472 140.332C27.4166 138.68 27.4166 137.02 27.5472 135.368Z" fill="#FAFAFA"/>
<path d="M30.5715 135.409C30.5715 135.463 26.6314 135.507 21.7858 135.507C16.9401 135.507 13 135.463 13 135.409C13 135.355 16.9367 135.314 21.7858 135.314C26.6348 135.314 30.5715 135.358 30.5715 135.409Z" fill="#FAFAFA"/>
<path d="M144.009 147.645C144.009 147.695 112.478 147.736 73.5941 147.736C34.7104 147.736 3.17285 147.695 3.17285 147.645C3.17285 147.594 34.6968 147.557 73.5941 147.557C112.491 147.557 144.009 147.597 144.009 147.645Z" fill="#263238"/>
<path d="M124.143 4.12939H31.9908C29.8353 4.12939 28.0879 5.87678 28.0879 8.0323V143.674C28.0879 145.83 29.8353 147.577 31.9908 147.577H124.143C126.299 147.577 128.046 145.83 128.046 143.674V8.0323C128.046 5.87678 126.299 4.12939 124.143 4.12939Z" fill="#263238"/>
<path d="M124.704 14.3647H31.0508V134.162H124.704V14.3647Z" fill="white"/>
<path d="M82.2316 140.697C82.198 140.356 82.1427 140.017 82.066 139.683C81.9218 139.129 81.6632 138.61 81.3069 138.161C80.9506 137.713 80.5044 137.343 79.9969 137.077C79.4894 136.811 78.9319 136.653 78.36 136.615C77.7882 136.577 77.2147 136.659 76.6763 136.855C76.3068 136.988 75.9593 137.176 75.6457 137.413C75.3137 137.654 75.0227 137.947 74.784 138.281C74.2687 138.979 73.9906 139.823 73.9906 140.69C73.9906 141.558 74.2687 142.402 74.784 143.1C75.0237 143.432 75.3145 143.724 75.6457 143.965C75.9585 144.202 76.3062 144.391 76.6763 144.522C77.3626 144.773 78.1033 144.836 78.8221 144.705C79.4494 144.593 80.0411 144.333 80.5488 143.948C81.2937 143.39 81.8283 142.597 82.066 141.697C82.1426 141.363 82.1979 141.025 82.2316 140.684C82.2398 140.772 82.2398 140.862 82.2316 140.951C82.2322 141.058 82.2243 141.165 82.2079 141.272C82.1923 141.419 82.1663 141.564 82.1302 141.708C81.9401 142.49 81.5296 143.201 80.9474 143.757C80.3652 144.312 79.6358 144.69 78.8457 144.843C78.1011 144.985 77.332 144.924 76.6188 144.668C75.8295 144.381 75.142 143.869 74.6421 143.194C74.1045 142.467 73.8145 141.586 73.8145 140.682C73.8145 139.778 74.1045 138.897 74.6421 138.17C75.142 137.495 75.8295 136.983 76.6188 136.696C77.3324 136.441 78.101 136.38 78.8457 136.521C79.6358 136.674 80.3652 137.051 80.9474 137.607C81.5296 138.163 81.9401 138.874 82.1302 139.656C82.166 139.8 82.192 139.945 82.2079 140.092C82.2252 140.204 82.2332 140.317 82.2316 140.43C82.2398 140.519 82.2398 140.608 82.2316 140.697Z" fill="#455A64"/>
<path d="M92.7062 8.26196H63.4259C63.1982 8.26196 63.0137 8.44653 63.0137 8.67422V9.43452C63.0137 9.66221 63.1982 9.84678 63.4259 9.84678H92.7062C92.9339 9.84678 93.1184 9.66221 93.1184 9.43452V8.67422C93.1184 8.44653 92.9339 8.26196 92.7062 8.26196Z" fill="#455A64"/>
<path d="M93.7645 32.4532H70.8032V60.2298H93.7645V32.4532Z" fill="#FAFAFA"/>
<path d="M93.7642 60.2298C93.7642 60.2298 93.7642 60.1825 93.7642 60.0946C93.7642 60.0068 93.7642 59.875 93.7642 59.706C93.7642 59.3681 93.7642 58.8545 93.7642 58.1989C93.7642 56.8811 93.7642 54.9584 93.744 52.5186C93.744 47.6425 93.7203 40.7085 93.7034 32.4533L93.7811 32.531H70.8232L70.8875 32.4398C70.8875 42.709 70.8875 52.2618 70.8875 60.2163L70.8131 60.1453L87.4621 60.1825L92.1186 60.1994H93.3486H93.7744C93.7744 60.1994 93.6392 60.1994 93.3655 60.1994H92.149L87.5094 60.2197L70.8131 60.2568H70.7388V60.1825C70.7388 52.228 70.7388 42.6752 70.7388 32.406V32.3181H70.83H93.7879H93.8656V32.4398C93.8656 40.7153 93.8386 47.6662 93.8284 52.5558C93.8284 54.9854 93.8115 56.9047 93.8081 58.2192C93.8081 58.868 93.8081 59.3681 93.8081 59.7094C93.8081 59.875 93.8081 60 93.8081 60.0913C93.8081 60.1825 93.7642 60.2298 93.7642 60.2298Z" fill="#EBEBEB"/>
<path d="M124.704 14.3647H31.0508V23.2046H124.704V14.3647Z" fill="#E0E0E0"/>
<path d="M36.9308 18.9399C36.9189 19.1523 36.8451 19.3565 36.7184 19.5273C36.5917 19.6981 36.4177 19.8281 36.2179 19.9011C36.0181 19.9741 35.8014 19.9869 35.5944 19.9381C35.3874 19.8892 35.1993 19.7807 35.0533 19.6261C34.9072 19.4714 34.8098 19.2774 34.7729 19.0679C34.7359 18.8585 34.7612 18.6428 34.8456 18.4475C34.9299 18.2523 35.0697 18.0861 35.2475 17.9694C35.4253 17.8527 35.6334 17.7907 35.8461 17.791C35.9929 17.795 36.1374 17.8278 36.2714 17.8877C36.4054 17.9477 36.5263 18.0335 36.6271 18.1402C36.7278 18.247 36.8065 18.3725 36.8587 18.5098C36.9108 18.647 36.9353 18.7932 36.9308 18.9399Z" fill="#263238"/>
<path d="M40.965 18.9399C40.9531 19.1523 40.8792 19.3565 40.7525 19.5273C40.6258 19.6981 40.4518 19.8281 40.2521 19.9011C40.0523 19.9741 39.8355 19.9869 39.6286 19.9381C39.4216 19.8892 39.2334 19.7807 39.0874 19.6261C38.9414 19.4714 38.8439 19.2774 38.807 19.0679C38.7701 18.8585 38.7954 18.6428 38.8798 18.4475C38.9641 18.2523 39.1039 18.0861 39.2817 17.9694C39.4595 17.8527 39.6676 17.7907 39.8803 17.791C40.1764 17.7999 40.4569 17.9258 40.6602 18.1412C40.8636 18.3566 40.9732 18.6438 40.965 18.9399Z" fill="#263238"/>
<path d="M44.9997 18.9399C44.9878 19.1523 44.9139 19.3565 44.7872 19.5273C44.6605 19.6981 44.4865 19.8281 44.2868 19.9011C44.087 19.9741 43.8702 19.9869 43.6632 19.9381C43.4562 19.8892 43.2681 19.7807 43.1221 19.6261C42.9761 19.4714 42.8786 19.2774 42.8417 19.0679C42.8048 18.8585 42.8301 18.6428 42.9144 18.4475C42.9988 18.2523 43.1385 18.0861 43.3163 17.9694C43.4942 17.8527 43.7023 17.7907 43.915 17.791C44.211 17.7999 44.4915 17.9258 44.6949 18.1412C44.8982 18.3566 45.0078 18.6438 44.9997 18.9399Z" fill="#263238"/>
<path d="M92.9569 26.3606H71.6108C71.1648 26.3606 70.8032 26.7222 70.8032 27.1682V31.9666C70.8032 32.4126 71.1648 32.7742 71.6108 32.7742H92.9569C93.4029 32.7742 93.7645 32.4126 93.7645 31.9666V27.1682C93.7645 26.7222 93.4029 26.3606 92.9569 26.3606Z" fill="#B00037"/>
<path d="M92.9595 32.7777C93.1517 32.7633 93.3341 32.6875 93.4799 32.5614C93.5645 32.4835 93.6313 32.3882 93.6757 32.2821C93.72 32.1759 93.7408 32.0614 93.7367 31.9464C93.7367 31.666 93.7367 31.345 93.7367 30.9834C93.7367 30.2535 93.7367 29.3648 93.7367 28.3375C93.7367 28.0807 93.7367 27.8138 93.7367 27.5367C93.7367 27.4015 93.7367 27.2562 93.7367 27.121C93.7275 26.9869 93.6833 26.8576 93.6083 26.7459C93.5274 26.6284 93.4163 26.5349 93.2866 26.4754C93.1569 26.4159 93.0135 26.3927 92.8717 26.408H91.9221L71.6473 26.4351C71.537 26.4352 71.4282 26.4605 71.3293 26.5091C71.2303 26.5577 71.1437 26.6283 71.0762 26.7155C71.0111 26.8042 70.965 26.9055 70.9411 27.0129C70.9327 27.1254 70.9327 27.2383 70.9411 27.3508V31.6558C70.9102 31.8731 70.9419 32.0946 71.0323 32.2945C71.0824 32.3844 71.1512 32.4625 71.2339 32.5237C71.3167 32.5849 71.4115 32.6277 71.5121 32.6493C71.6244 32.6625 71.7378 32.6625 71.8501 32.6493H75.5063L84.63 32.6662L90.7766 32.6966H92.4459H92.8818C92.9313 32.6922 92.981 32.6922 93.0305 32.6966H92.8818H92.4459L90.7766 32.7135L84.63 32.7405L75.5063 32.7608H71.7858C71.6661 32.7653 71.5462 32.7585 71.4277 32.7405C71.3027 32.7145 71.1848 32.6622 71.0817 32.587C70.9785 32.5118 70.8926 32.4156 70.8295 32.3046C70.7687 32.1917 70.7319 32.0675 70.7214 31.9397C70.7214 31.8079 70.7214 31.7031 70.7214 31.5815C70.7214 30.6489 70.7214 29.6993 70.7214 28.7329V27.3711C70.71 27.2441 70.71 27.1163 70.7214 26.9892C70.7481 26.8549 70.806 26.7288 70.8904 26.6209C70.9752 26.5143 71.0832 26.4285 71.2061 26.3699C71.3291 26.3114 71.4638 26.2817 71.6 26.283L91.8748 26.3067H92.8514C93.0109 26.2911 93.1716 26.3182 93.3171 26.3853C93.4626 26.4524 93.5876 26.5571 93.6793 26.6885C93.7673 26.8152 93.8187 26.9637 93.828 27.1177C93.828 27.2663 93.828 27.4015 93.828 27.54C93.828 27.8171 93.828 28.0841 93.828 28.3409C93.828 29.3546 93.828 30.2569 93.8111 30.9868C93.8111 31.3483 93.8111 31.6626 93.8111 31.9498C93.8124 32.0712 93.7873 32.1915 93.7378 32.3023C93.6882 32.4131 93.6152 32.5119 93.5238 32.5919C93.4112 32.6876 93.2744 32.7507 93.1285 32.7743C93.0729 32.7861 93.0156 32.7872 92.9595 32.7777Z" fill="#F5F5F5"/>
<path d="M119.632 26.3606H98.2856C97.8396 26.3606 97.478 26.7222 97.478 27.1682V31.9666C97.478 32.4126 97.8396 32.7742 98.2856 32.7742H119.632C120.078 32.7742 120.439 32.4126 120.439 31.9666V27.1682C120.439 26.7222 120.078 26.3606 119.632 26.3606Z" fill="#F5F5F5"/>
<path d="M119.635 32.7777C119.827 32.7633 120.009 32.6875 120.155 32.5614C120.24 32.4837 120.308 32.3885 120.352 32.2824C120.397 32.1762 120.419 32.0616 120.415 31.9464C120.415 31.6648 120.415 31.3438 120.415 30.9834C120.415 30.2535 120.415 29.3648 120.415 28.3375C120.415 28.0807 120.415 27.8138 120.415 27.5367C120.415 27.4015 120.415 27.2562 120.415 27.121C120.408 26.9866 120.363 26.8569 120.287 26.7459C120.206 26.6284 120.095 26.5349 119.965 26.4754C119.836 26.4159 119.692 26.3927 119.55 26.408H118.567L98.2922 26.4351C98.1819 26.4352 98.0731 26.4605 97.9741 26.5091C97.8752 26.5577 97.7886 26.6283 97.7211 26.7155C97.6559 26.8042 97.6099 26.9055 97.5859 27.0129C97.5775 27.1254 97.5775 27.2383 97.5859 27.3508V31.6558C97.5551 31.8731 97.5868 32.0946 97.6772 32.2945C97.7276 32.3841 97.7965 32.462 97.8792 32.5232C97.9619 32.5843 98.0566 32.6273 98.157 32.6493C98.2693 32.6625 98.3827 32.6625 98.4949 32.6493H102.151L111.275 32.6662L117.421 32.6966H119.091H119.527C119.576 32.6922 119.626 32.6922 119.675 32.6966H119.527H119.091L117.421 32.7135L111.275 32.7405L102.151 32.7608H98.4611C98.3414 32.7653 98.2214 32.7585 98.1029 32.7405C97.978 32.7145 97.8601 32.6622 97.757 32.587C97.6538 32.5118 97.5679 32.4156 97.5048 32.3046C97.444 32.1917 97.4072 32.0675 97.3967 31.9397C97.3967 31.8079 97.3967 31.7031 97.3967 31.5815C97.3967 30.6489 97.3967 29.6993 97.3967 28.7329V27.3711C97.391 27.2436 97.3966 27.1158 97.4136 26.9892C97.4417 26.8554 97.4994 26.7295 97.5826 26.6209C97.6674 26.5143 97.7753 26.4285 97.8983 26.3699C98.0213 26.3114 98.156 26.2817 98.2922 26.283L118.567 26.3067H119.517C119.676 26.2911 119.837 26.3182 119.982 26.3853C120.128 26.4524 120.253 26.5571 120.344 26.6885C120.432 26.8152 120.484 26.9637 120.493 27.1177C120.493 27.2663 120.493 27.4015 120.493 27.54C120.493 27.8171 120.493 28.0841 120.493 28.3409C120.493 29.3546 120.493 30.2569 120.476 30.9868C120.476 31.3483 120.476 31.6626 120.476 31.9498C120.478 32.0712 120.452 32.1915 120.403 32.3023C120.353 32.4131 120.28 32.5119 120.189 32.5919C120.076 32.6876 119.94 32.7507 119.794 32.7743C119.741 32.7848 119.688 32.786 119.635 32.7777Z" fill="#263238"/>
<path d="M49.2227 49.807C53.4042 48.5541 55.7782 44.1486 54.5253 39.9671C53.2724 35.7857 48.867 33.4116 44.6855 34.6645C40.504 35.9174 38.1299 40.3229 39.3829 44.5043C40.6358 48.6858 45.0412 51.0599 49.2227 49.807Z" fill="#E0E0E0"/>
<path d="M57.415 60.1486C57.415 60.196 52.7315 60.2365 46.9397 60.2365C41.1478 60.2365 36.4644 60.196 36.4644 60.1486C36.4644 60.1013 41.1478 60.0608 46.9397 60.0608C52.7315 60.0608 57.415 60.098 57.415 60.1486Z" fill="#263238"/>
<path d="M57.415 65.5214C57.415 65.5721 52.7315 65.6093 46.9397 65.6093C41.1478 65.6093 36.4644 65.5721 36.4644 65.5214C36.4644 65.4708 41.1478 65.4336 46.9397 65.4336C52.7315 65.4336 57.415 65.4741 57.415 65.5214Z" fill="#263238"/>
<path d="M57.415 70.8977C57.415 70.9484 52.7315 70.9855 46.9397 70.9855C41.1478 70.9855 36.4644 70.9484 36.4644 70.8977C36.4644 70.847 41.1478 70.8098 46.9397 70.8098C52.7315 70.8098 57.415 70.8504 57.415 70.8977Z" fill="#263238"/>
<path d="M57.415 76.274C57.415 76.3213 52.7315 76.3619 46.9397 76.3619C41.1478 76.3619 36.4644 76.3213 36.4644 76.274C36.4644 76.2267 41.1478 76.1862 46.9397 76.1862C52.7315 76.1862 57.415 76.2267 57.415 76.274Z" fill="#263238"/>
<path d="M41.2078 89.2646C42.6204 88.676 43.2884 87.0537 42.6998 85.6411C42.1112 84.2285 40.4889 83.5605 39.0763 84.1491C37.6637 84.7377 36.9957 86.36 37.5843 87.7726C38.1729 89.1852 39.7952 89.8532 41.2078 89.2646Z" fill="#E0E0E0"/>
<path d="M41.2063 100.893C42.6189 100.305 43.2869 98.6824 42.6983 97.2698C42.1097 95.8572 40.4874 95.1892 39.0748 95.7778C37.6622 96.3664 36.9942 97.9887 37.5828 99.4013C38.1714 100.814 39.7937 101.482 41.2063 100.893Z" fill="#E0E0E0"/>
<path d="M40.1405 112.735C41.6708 112.735 42.9114 111.494 42.9114 109.964C42.9114 108.434 41.6708 107.193 40.1405 107.193C38.6102 107.193 37.3696 108.434 37.3696 109.964C37.3696 111.494 38.6102 112.735 40.1405 112.735Z" fill="#E0E0E0"/>
<path d="M40.1405 124.366C41.6708 124.366 42.9114 123.125 42.9114 121.595C42.9114 120.065 41.6708 118.824 40.1405 118.824C38.6102 118.824 37.3696 120.065 37.3696 121.595C37.3696 123.125 38.6102 124.366 40.1405 124.366Z" fill="#E0E0E0"/>
<path d="M56.4417 86.7087C56.4417 86.756 53.8026 86.7966 50.5519 86.7966C47.3012 86.7966 44.6587 86.756 44.6587 86.7087C44.6587 86.6614 47.2944 86.6208 50.5519 86.6208C53.8094 86.6208 56.4417 86.6614 56.4417 86.7087Z" fill="#263238"/>
<path d="M56.4417 98.333C56.4417 98.3837 53.8026 98.4208 50.5519 98.4208C47.3012 98.4208 44.6587 98.3837 44.6587 98.333C44.6587 98.2823 47.2944 98.2451 50.5519 98.2451C53.8094 98.2451 56.4417 98.289 56.4417 98.333Z" fill="#263238"/>
<path d="M56.4417 109.964C56.4417 110.015 53.8026 110.055 50.5519 110.055C47.3012 110.055 44.6587 110.015 44.6587 109.964C44.6587 109.913 47.2944 109.876 50.5519 109.876C53.8094 109.876 56.4417 109.917 56.4417 109.964Z" fill="#263238"/>
<path d="M56.4417 121.595C56.4417 121.642 53.8026 121.683 50.5519 121.683C47.3012 121.683 44.6587 121.642 44.6587 121.595C44.6587 121.548 47.2944 121.507 50.5519 121.507C53.8094 121.507 56.4417 121.544 56.4417 121.595Z" fill="#263238"/>
<path d="M86.5736 29.5675C86.5736 29.6148 83.7014 29.6553 80.1533 29.6553C76.6052 29.6553 73.7329 29.6148 73.7329 29.5675C73.7329 29.5202 76.6052 29.4796 80.1533 29.4796C83.7014 29.4796 86.5736 29.5168 86.5736 29.5675Z" fill="white"/>
<path d="M88.966 29.2635L89.4594 29.9393C89.4748 29.9645 89.4964 29.9853 89.5221 29.9997C89.5479 30.0141 89.5769 30.0217 89.6064 30.0217C89.6359 30.0217 89.6649 30.0141 89.6906 29.9997C89.7164 29.9853 89.738 29.9645 89.7534 29.9393L90.1622 29.2635C90.1783 29.2364 90.1869 29.2057 90.1872 29.1742C90.1876 29.1428 90.1796 29.1118 90.1642 29.0844C90.1488 29.057 90.1265 29.0342 90.0994 29.0182C90.0724 29.0021 90.0416 28.9935 90.0102 28.9932H89.1113C89.0805 28.9947 89.0505 29.0041 89.0244 29.0206C88.9983 29.0371 88.9769 29.06 88.9623 29.0873C88.9476 29.1145 88.9403 29.145 88.941 29.1759C88.9416 29.2068 88.9503 29.2369 88.966 29.2635Z" fill="white"/>
<path d="M116.411 29.2262L116.901 29.902C116.917 29.9271 116.939 29.9479 116.965 29.9622C116.991 29.9766 117.02 29.9841 117.05 29.9841C117.08 29.9841 117.109 29.9766 117.135 29.9622C117.161 29.9479 117.183 29.9271 117.199 29.902L117.604 29.2262C117.621 29.1993 117.631 29.1683 117.632 29.1365C117.633 29.1046 117.625 29.0731 117.609 29.0454C117.594 29.0176 117.571 28.9946 117.543 28.9788C117.515 28.9631 117.484 28.9551 117.452 28.9559H116.557C116.526 28.9574 116.496 28.9668 116.47 28.9833C116.444 28.9998 116.422 29.0227 116.408 29.0499C116.393 29.0772 116.386 29.1077 116.386 29.1386C116.387 29.1694 116.396 29.1996 116.411 29.2262Z" fill="#263238"/>
<path d="M93.7647 38.2079C93.7647 38.2552 88.669 38.2957 82.3804 38.2957C76.0918 38.2957 70.9961 38.2552 70.9961 38.2079C70.9961 38.1605 76.0918 38.12 82.3804 38.12C88.669 38.12 93.7647 38.1572 93.7647 38.2079Z" fill="#EBEBEB"/>
<path d="M93.7647 45.4528C93.7647 45.5002 88.669 45.5407 82.3804 45.5407C76.0918 45.5407 70.9961 45.5002 70.9961 45.4528C70.9961 45.4055 76.0918 45.365 82.3804 45.365C88.669 45.365 93.7647 45.4055 93.7647 45.4528Z" fill="#EBEBEB"/>
<path d="M93.7647 52.7146C93.7647 52.7653 88.669 52.8024 82.3804 52.8024C76.0918 52.8024 70.9961 52.7653 70.9961 52.7146C70.9961 52.6639 76.0918 52.6267 82.3804 52.6267C88.669 52.6267 93.7647 52.6504 93.7647 52.7146Z" fill="#EBEBEB"/>
<path d="M93.7644 38.2079H70.7153V45.4528H93.7644V38.2079Z" fill="#B00037"/>
<path d="M90.3552 35.9271C90.3552 35.9744 86.8577 36.015 82.546 36.015C78.2342 36.015 74.7334 35.9744 74.7334 35.9271C74.7334 35.8798 78.2308 35.8392 82.546 35.8392C86.8611 35.8392 90.3552 35.8764 90.3552 35.9271Z" fill="#263238"/>
<path d="M87.8614 42.175C87.8614 42.2223 84.9215 42.2629 81.2991 42.2629C77.6766 42.2629 74.7334 42.2223 74.7334 42.175C74.7334 42.1277 77.6732 42.0872 81.2991 42.0872C84.9249 42.0872 87.8614 42.1277 87.8614 42.175Z" fill="white"/>
<path d="M90.3552 49.0752C90.3552 49.1258 86.8577 49.163 82.546 49.163C78.2342 49.163 74.7334 49.1258 74.7334 49.0752C74.7334 49.0245 78.2308 48.9873 82.546 48.9873C86.8611 48.9873 90.3552 49.0279 90.3552 49.0752Z" fill="#263238"/>
<path d="M90.3552 56.4519C90.3552 56.4992 86.8577 56.5397 82.546 56.5397C78.2342 56.5397 74.7334 56.4992 74.7334 56.4519C74.7334 56.4046 78.2308 56.364 82.546 56.364C86.8611 56.364 90.3552 56.4012 90.3552 56.4519Z" fill="#263238"/>
<path d="M89.8616 42.7698L90.5375 42.2764C90.5619 42.2605 90.5819 42.2386 90.5958 42.213C90.6096 42.1873 90.6169 42.1586 90.6169 42.1294C90.6169 42.1003 90.6096 42.0716 90.5958 42.0459C90.5819 42.0202 90.5619 41.9984 90.5375 41.9824L89.8616 41.5736C89.8346 41.5576 89.8038 41.5489 89.7724 41.5486C89.741 41.5482 89.71 41.5562 89.6826 41.5716C89.6552 41.587 89.6323 41.6093 89.6163 41.6364C89.6003 41.6634 89.5917 41.6942 89.5913 41.7256V42.6245C89.5928 42.6553 89.6023 42.6853 89.6187 42.7114C89.6352 42.7375 89.6582 42.7589 89.6854 42.7735C89.7126 42.7882 89.7431 42.7955 89.774 42.7949C89.8049 42.7942 89.8351 42.7856 89.8616 42.7698Z" fill="white"/>
<path d="M116.745 38.2079H93.7842V67.1198H116.745V38.2079Z" fill="#FAFAFA"/>
<path d="M116.749 67.1165C116.749 67.1165 116.749 67.0692 116.749 66.978C116.749 66.8868 116.749 66.7482 116.749 66.5725C116.749 66.2109 116.749 65.6838 116.749 65.0012C116.749 63.6225 116.749 61.6221 116.729 59.0776C116.729 54.0089 116.705 46.7843 116.688 38.208L116.769 38.2857H93.7911L93.879 38.1979C93.879 48.903 93.879 58.8512 93.879 67.1064L93.8047 67.0354L110.46 67.0726L115.114 67.0929H116.34H116.769H116.357H115.144L110.504 67.1132L93.8047 67.1503H93.7337V67.076C93.7337 58.8207 93.7337 48.8726 93.7168 38.1674V38.0796H93.808H116.786H116.844V38.1607C116.827 46.7572 116.813 53.992 116.803 59.0843C116.803 61.6153 116.786 63.6157 116.783 64.9843C116.783 65.6601 116.783 66.1839 116.783 66.5421C116.783 66.7144 116.783 66.8462 116.783 66.9374C116.783 67.0287 116.749 67.1165 116.749 67.1165Z" fill="#EBEBEB"/>
<path d="M116.749 52.7146C116.749 52.7653 111.65 52.8024 105.361 52.8024C99.0728 52.8024 93.9771 52.7653 93.9771 52.7146C93.9771 52.6639 99.0728 52.6267 105.361 52.6267C111.65 52.6267 116.749 52.6504 116.749 52.7146Z" fill="#EBEBEB"/>
<path d="M116.749 60.2298C116.749 60.2805 111.65 60.3176 105.361 60.3176C99.0728 60.3176 93.9771 60.2805 93.9771 60.2298C93.9771 60.1791 99.0728 60.1487 105.355 60.1487C111.636 60.1487 116.749 60.1825 116.749 60.2298Z" fill="#EBEBEB"/>
<path d="M116.749 45.4528C116.749 45.5002 111.65 45.5407 105.361 45.5407C99.0728 45.5407 93.9771 45.5002 93.9771 45.4528C93.9771 45.4055 99.0728 45.365 105.361 45.365C111.65 45.365 116.749 45.4055 116.749 45.4528Z" fill="#EBEBEB"/>
<path d="M113.337 42.175C113.337 42.2223 109.839 42.2629 105.527 42.2629C101.216 42.2629 97.7183 42.2223 97.7183 42.175C97.7183 42.1277 101.212 42.0872 105.527 42.0872C109.843 42.0872 113.337 42.1277 113.337 42.175Z" fill="#263238"/>
<path d="M113.337 49.0752C113.337 49.1258 109.839 49.163 105.527 49.163C101.216 49.163 97.7183 49.1258 97.7183 49.0752C97.7183 49.0245 101.212 48.9873 105.527 48.9873C109.843 48.9873 113.337 49.0279 113.337 49.0752Z" fill="#263238"/>
<path d="M116.789 59.7837H93.7402V67.3158H116.789V59.7837Z" fill="#B00037"/>
<path d="M112.042 63.94C112.042 63.9873 108.836 64.0279 104.879 64.0279C100.922 64.0279 97.7183 63.9873 97.7183 63.94C97.7183 63.8927 100.925 63.8522 104.879 63.8522C108.832 63.8522 112.042 63.8893 112.042 63.94Z" fill="white"/>
<path d="M113.337 56.4519C113.337 56.4992 109.839 56.5397 105.527 56.5397C101.216 56.5397 97.7183 56.4992 97.7183 56.4519C97.7183 56.4046 101.212 56.364 105.527 56.364C109.843 56.364 113.337 56.4012 113.337 56.4519Z" fill="#263238"/>
<path d="M115.395 65.8594L115.888 70.2962L116.864 69.6204L117.953 71.0126L119.118 70.1779L118.111 68.9006L119.176 68.2011L115.395 65.8594Z" fill="#263238"/>
<path d="M115.661 65.1532C115.686 64.8898 115.768 64.635 115.901 64.4064C116.08 64.0144 116.259 63.7306 116.303 63.7306C116.278 63.994 116.196 64.2488 116.063 64.4774C115.884 64.8795 115.705 65.1735 115.661 65.1532Z" fill="#263238"/>
<path d="M114.921 65.5214C114.599 65.1484 114.323 64.7376 114.1 64.2981C113.825 63.8874 113.598 63.4464 113.424 62.9836C114.017 63.7691 114.516 64.6207 114.911 65.5214H114.921Z" fill="#263238"/>
<path d="M114.373 66.1332C114.131 66.1703 113.884 66.1634 113.644 66.1129C113.397 66.1196 113.152 66.0807 112.92 65.9981C113.156 65.9055 113.413 65.8844 113.66 65.9372C113.912 65.9334 114.159 66.0014 114.373 66.1332Z" fill="#263238"/>
<path d="M63.4336 135.182C63.3829 135.182 63.3457 110.113 63.3457 79.1935C63.3457 48.2743 63.3829 23.1978 63.4336 23.1978C63.4843 23.1978 63.5214 48.2642 63.5214 79.1935C63.5214 110.123 63.4809 135.182 63.4336 135.182Z" fill="#263238"/>
<path d="M118.118 86.3437C118.118 86.3944 107.734 86.4316 94.9303 86.4316C82.1267 86.4316 71.7393 86.3944 71.7393 86.3437C71.7393 86.293 82.12 86.2559 94.9303 86.2559C107.741 86.2559 118.118 86.2964 118.118 86.3437Z" fill="#E0E0E0"/>
<path d="M118.118 75.855C118.118 75.9023 107.734 75.9428 94.9303 75.9428C82.1267 75.9428 71.7393 75.9023 71.7393 75.855C71.7393 75.8076 82.12 75.7671 94.9303 75.7671C107.741 75.7671 118.118 75.8043 118.118 75.855Z" fill="#E0E0E0"/>
<path d="M118.118 95.5688C118.118 95.6161 107.734 95.6567 94.9303 95.6567C82.1267 95.6567 71.7393 95.6161 71.7393 95.5688C71.7393 95.5215 82.12 95.481 94.9303 95.481C107.741 95.481 118.118 95.5181 118.118 95.5688Z" fill="#E0E0E0"/>
<path d="M118.118 105.504C118.118 105.554 107.734 105.591 94.9303 105.591C82.1267 105.591 71.7393 105.554 71.7393 105.504C71.7393 105.453 82.12 105.416 94.9303 105.416C107.741 105.416 118.118 105.456 118.118 105.504Z" fill="#E0E0E0"/>
<path d="M118.118 115.442C118.118 115.489 107.734 115.529 94.9303 115.529C82.1267 115.529 71.7393 115.489 71.7393 115.442C71.7393 115.394 82.12 115.354 94.9303 115.354C107.741 115.354 118.118 115.394 118.118 115.442Z" fill="#E0E0E0"/>
<path d="M114.776 29.4592C114.776 29.5065 111.674 29.5471 107.852 29.5471C104.03 29.5471 100.925 29.5065 100.925 29.4592C100.925 29.4119 104.023 29.3713 107.852 29.3713C111.681 29.3713 114.776 29.3984 114.776 29.4592Z" fill="#263238"/>
<path d="M128.59 125.897C128.884 124.883 129.509 123.903 130.479 123.484C131.449 123.065 132.655 123.298 133.686 123.673C134.716 124.048 135.73 124.548 136.825 124.616C137.92 124.684 139.157 124.167 139.484 123.119C139.795 122.132 139.2 121.091 138.471 120.368C137.685 119.613 136.723 119.068 135.671 118.782C134.62 118.496 133.513 118.48 132.454 118.734C131.394 118.988 130.416 119.505 129.608 120.236C128.801 120.967 128.19 121.89 127.833 122.92" fill="#B00037"/>
<g opacity="0.3">
<path opacity="0.3" d="M138.471 120.368C137.685 119.613 136.723 119.068 135.671 118.782C134.62 118.496 133.513 118.48 132.454 118.734C131.394 118.988 130.416 119.505 129.608 120.236C128.801 120.967 128.19 121.89 127.833 122.92L128.603 125.897C128.897 124.883 129.523 123.903 130.492 123.484C131.462 123.065 132.669 123.298 133.699 123.673C134.73 124.048 135.744 124.548 136.838 124.616C137.933 124.684 139.17 124.167 139.498 123.119C139.795 122.132 139.2 121.081 138.471 120.368Z" fill="black"/>
</g>
<path d="M119.909 130.3C118.303 128.772 118.381 126.113 119.185 124.045C119.99 121.977 121.737 120.392 123.69 119.344C125.599 118.343 127.709 117.787 129.863 117.718C132.018 117.649 134.159 118.069 136.128 118.946C135.164 118.987 134.225 119.264 133.393 119.753C132.561 120.242 131.862 120.928 131.357 121.75C130.475 123.21 130.279 124.988 129.553 126.532C128.731 128.274 127.274 129.635 125.481 130.336C123.687 131.038 121.693 131.026 119.909 130.303" fill="#B00037"/>
<path d="M119.139 121.125C117.358 119.023 117.111 115.651 117.382 112.911C117.652 110.17 118.281 107.413 117.848 104.693C117.591 103.081 116.966 101.543 116.757 99.9279C116.547 98.3127 116.845 96.4812 118.108 95.4371C119.548 94.2375 121.825 94.5213 123.316 95.6466C124.806 96.7718 125.681 98.5425 126.316 100.306C127.708 104.182 128.222 108.481 127.077 112.438C125.931 116.394 123.245 119.929 119.305 121.125" fill="#B00037"/>
<path d="M118.283 138.359C118.276 138.279 118.276 138.199 118.283 138.119C118.283 137.96 118.283 137.724 118.283 137.423C118.307 136.821 118.364 135.95 118.5 134.878C118.655 133.628 118.88 132.387 119.175 131.161C119.541 129.653 120.11 128.202 120.865 126.846C121.627 125.493 122.561 124.244 123.643 123.129C124.525 122.221 125.501 121.408 126.556 120.706C127.002 120.399 127.431 120.166 127.802 119.949C128.174 119.733 128.512 119.588 128.782 119.456L129.424 119.186C129.498 119.153 129.574 119.125 129.651 119.101C129.582 119.145 129.51 119.183 129.435 119.216L128.809 119.507C128.542 119.645 128.215 119.818 127.84 120.024C127.465 120.23 127.052 120.483 126.613 120.794C124.296 122.377 122.373 124.47 120.993 126.914C119.358 129.776 118.909 132.787 118.584 134.895C118.435 135.963 118.365 136.828 118.324 137.43L118.283 138.122C118.289 138.201 118.289 138.28 118.283 138.359Z" fill="#263238"/>
<path d="M102.932 112.836C99.6408 114.823 99.6509 116.631 100.202 118.337C100.753 120.044 102.773 121.23 104.446 120.591C105.395 120.23 106.081 119.409 106.666 118.581C107.251 117.753 107.801 116.867 108.623 116.273C109.444 115.678 110.65 115.452 111.461 116.043" fill="#B00037"/>
<g opacity="0.3">
<path opacity="0.3" d="M102.932 112.836C99.6408 114.823 99.6509 116.631 100.202 118.337C100.753 120.044 102.773 121.23 104.446 120.591C105.395 120.23 106.081 119.409 106.666 118.581C107.251 117.753 107.801 116.867 108.623 116.273C109.196 115.849 109.907 115.654 110.616 115.725L102.932 112.836Z" fill="black"/>
</g>
<path d="M110.616 115.725L111.461 116.043C111.21 115.869 110.92 115.76 110.616 115.725Z" fill="black"/>
<path d="M100.469 115.016C101.33 113.826 103.456 113.482 104.801 114.076C106.146 114.671 107.126 115.847 108.008 117.02C108.89 118.192 109.744 119.436 110.964 120.253C112.184 121.071 113.887 121.369 115.104 120.544C115.491 120.255 115.815 119.89 116.057 119.472C116.299 119.054 116.453 118.591 116.51 118.111C116.616 117.15 116.551 116.177 116.317 115.239C116.026 113.857 115.55 112.417 114.445 111.539C113.215 110.559 111.505 110.525 109.934 110.565C108.129 110.623 106.301 110.761 104.608 111.387C102.915 112.012 101.189 113.36 100.469 115.016Z" fill="#B00037"/>
<path d="M115.546 135.723C115.546 135.723 115.546 135.7 115.546 135.649C115.546 135.598 115.546 135.524 115.546 135.439C115.546 135.24 115.529 134.966 115.519 134.622C115.499 133.898 115.468 132.875 115.431 131.614C115.394 130.354 115.34 128.836 115.249 127.16C115.158 125.484 115.029 123.646 114.776 121.727C114.668 120.795 114.486 119.873 114.232 118.969C113.969 118.134 113.63 117.326 113.218 116.553C112.852 115.852 112.426 115.184 111.944 114.556C111.522 114.012 111.058 113.502 110.555 113.032C109.821 112.351 108.991 111.782 108.092 111.343C107.93 111.272 107.791 111.197 107.663 111.147L107.342 111.022L107.146 110.941C107.102 110.924 107.078 110.914 107.081 110.91L107.149 110.927L107.352 110.995L107.69 111.106C107.818 111.153 107.963 111.221 108.126 111.292C109.042 111.713 109.889 112.271 110.636 112.948C111.148 113.418 111.621 113.929 112.052 114.475C112.541 115.107 112.975 115.78 113.35 116.486C113.761 117.264 114.101 118.078 114.363 118.919C114.623 119.83 114.807 120.762 114.914 121.703C115.171 123.626 115.289 125.471 115.377 127.147C115.465 128.823 115.502 130.337 115.529 131.607C115.556 132.878 115.566 133.902 115.57 134.611V135.429C115.57 135.517 115.57 135.588 115.57 135.642C115.566 135.67 115.558 135.697 115.546 135.723Z" fill="#263238"/>
<path d="M116.733 137.21C116.576 136.749 116.455 136.277 116.371 135.797C116.143 134.486 116.092 133.149 116.219 131.824C116.422 129.861 116.843 127.927 117.476 126.059C118.152 123.943 119.068 121.666 119.842 119.243C120.601 116.958 121.079 114.588 121.264 112.187C121.415 110.229 121.45 108.263 121.369 106.301C121.312 104.611 121.224 103.26 121.166 102.334C121.139 101.871 121.119 101.509 121.102 101.253C121.102 101.138 121.102 101.043 121.102 100.972C121.098 100.941 121.098 100.909 121.102 100.877C121.106 100.909 121.106 100.941 121.102 100.972C121.102 101.043 121.119 101.134 121.129 101.253C121.153 101.506 121.183 101.868 121.22 102.327C121.295 103.263 121.399 104.618 121.47 106.298C121.566 108.265 121.541 110.237 121.396 112.201C121.306 113.361 121.152 114.515 120.936 115.658C120.695 116.885 120.379 118.095 119.99 119.284C119.206 121.727 118.284 123.987 117.605 126.099C116.968 127.961 116.538 129.888 116.324 131.844C116.187 133.161 116.222 134.49 116.429 135.797C116.51 136.257 116.581 136.615 116.648 136.852C116.675 136.967 116.696 137.058 116.713 137.125C116.721 137.153 116.728 137.181 116.733 137.21Z" fill="#263238"/>
<path d="M126.623 136.788H107.078L106.632 133.027H126.623V136.788Z" fill="#455A64"/>
<path d="M109.177 136.359L111.62 147.645H122.241L124.528 136.359H109.177Z" fill="#455A64"/>
<path d="M126.623 136.788C126.623 136.838 122.328 136.869 117.026 136.855C111.725 136.842 107.43 136.784 107.43 136.734C107.43 136.683 111.728 136.652 117.026 136.669C122.325 136.686 126.623 136.737 126.623 136.788Z" fill="#455A64"/>
<path d="M123.264 142.36C122.733 141.96 122.154 141.629 121.541 141.373C120.874 141.11 120.166 140.967 119.449 140.951C118.569 140.954 117.697 141.114 116.874 141.424C115.985 141.724 115.151 142.076 114.343 142.268C113.623 142.423 112.881 142.446 112.153 142.336C111.669 142.262 111.199 142.112 110.761 141.89C110.644 141.826 110.531 141.754 110.423 141.674C110.349 141.62 110.315 141.586 110.319 141.583C110.322 141.579 110.484 141.677 110.795 141.822C111.238 142.018 111.707 142.147 112.187 142.204C112.898 142.295 113.62 142.261 114.319 142.103C115.103 141.907 115.935 141.552 116.834 141.248C117.676 140.931 118.569 140.772 119.469 140.778C120.205 140.804 120.93 140.964 121.608 141.251C122.064 141.441 122.492 141.69 122.882 141.991C122.989 142.073 123.09 142.161 123.186 142.255C123.24 142.319 123.264 142.353 123.264 142.36Z" fill="#263238"/>
<path d="M123.122 143.113C122.61 142.728 122.056 142.401 121.47 142.14C120.826 141.877 120.138 141.735 119.442 141.721C118.594 141.724 117.752 141.876 116.955 142.171C116.094 142.458 115.286 142.792 114.512 142.998C113.831 143.198 113.119 143.278 112.41 143.235C111.796 143.221 111.199 143.02 110.701 142.661C110.631 142.606 110.597 142.576 110.599 142.569C110.599 142.569 110.761 142.664 111.062 142.802C111.49 142.985 111.949 143.087 112.414 143.103C113.107 143.124 113.8 143.034 114.465 142.836C115.219 142.623 116.023 142.285 116.891 141.995C117.708 141.693 118.572 141.543 119.442 141.552C120.64 141.587 121.793 142.009 122.73 142.755C122.832 142.835 122.929 142.921 123.021 143.012C123.093 143.073 123.127 143.107 123.122 143.113Z" fill="white"/>
<path d="M123.464 141.61C122.914 141.199 122.322 140.85 121.696 140.569C121.016 140.276 120.29 140.101 119.551 140.052C118.643 140.034 117.741 140.193 116.895 140.522C116.038 140.857 115.162 141.142 114.272 141.377C113.525 141.507 112.76 141.507 112.012 141.377C111.507 141.298 111.017 141.143 110.559 140.917C110.441 140.852 110.329 140.78 110.221 140.701C110.179 140.675 110.141 140.643 110.109 140.606C110.109 140.589 110.282 140.704 110.603 140.853C111.064 141.049 111.549 141.182 112.046 141.248C112.779 141.354 113.524 141.339 114.252 141.204C115.132 140.962 115.998 140.675 116.847 140.343C117.709 140.015 118.627 139.864 119.547 139.896C120.305 139.953 121.046 140.144 121.737 140.461C122.201 140.669 122.638 140.934 123.038 141.248C123.149 141.331 123.253 141.422 123.352 141.518C123.393 141.543 123.431 141.574 123.464 141.61Z" fill="white"/>
<path d="M126.623 136.787C126.623 136.828 122.23 136.862 116.844 136.862C111.457 136.862 107.064 136.828 107.064 136.787C107.064 136.747 111.44 136.713 116.844 136.713C122.247 136.713 126.623 136.747 126.623 136.787Z" fill="#263238"/>
<path d="M65.2637 137.943L64.7602 144.34C64.7602 144.34 71.069 146.868 71.0893 148.057L58.6777 147.669L59.0528 137.666L65.2637 137.943Z" fill="#B00037"/>
<path d="M61.0205 143.664C60.8985 143.695 60.7923 143.771 60.7224 143.875C60.6525 143.98 60.6239 144.107 60.642 144.232C60.6682 144.356 60.7412 144.464 60.8457 144.536C60.9502 144.607 61.0783 144.635 61.203 144.614C61.3323 144.58 61.4444 144.499 61.5175 144.388C61.5906 144.276 61.6194 144.141 61.5983 144.009C61.5585 143.882 61.4709 143.776 61.3542 143.713C61.2375 143.65 61.1009 143.635 60.9732 143.671" fill="#E0E0E0"/>
<path d="M58.6777 147.668L58.7082 146.871L70.748 147.499C70.8553 147.572 70.9465 147.666 71.0157 147.775C71.0849 147.884 71.1307 148.007 71.1501 148.135L58.6777 147.668Z" fill="#F5F5F5"/>
<path d="M64.8721 144.387C64.8721 144.448 64.5612 144.462 64.2503 144.647C63.9394 144.833 63.7705 145.08 63.7164 145.053C63.6623 145.026 63.7671 144.678 64.1456 144.462C64.524 144.245 64.889 144.33 64.8721 144.387Z" fill="#263238"/>
<path d="M66.1569 144.985C66.1569 145.046 65.9001 145.137 65.6804 145.387C65.4608 145.638 65.3898 145.908 65.3425 145.905C65.2952 145.901 65.2581 145.567 65.5351 145.246C65.8122 144.925 66.1569 144.928 66.1569 144.985Z" fill="#263238"/>
<path d="M66.8324 146.59C66.7783 146.59 66.7039 146.293 66.8763 145.962C67.0486 145.631 67.3392 145.512 67.3629 145.567C67.3865 145.621 67.2007 145.79 67.0655 146.06C66.9303 146.33 66.9033 146.587 66.8324 146.59Z" fill="#263238"/>
<path d="M64.8253 142.904C64.7983 142.958 64.5212 142.863 64.1732 142.873C63.8251 142.884 63.5514 142.978 63.5244 142.924C63.4973 142.87 63.7609 142.664 64.1698 142.657C64.5786 142.65 64.8591 142.857 64.8253 142.904Z" fill="#263238"/>
<path d="M65.1089 141.535C64.9003 141.58 64.6838 141.569 64.4804 141.505C64.256 141.454 64.0382 141.377 63.8316 141.275C63.7152 141.213 63.6024 141.144 63.4937 141.069C63.4256 141.026 63.3641 140.974 63.3112 140.913C63.2723 140.866 63.251 140.806 63.251 140.744C63.251 140.683 63.2723 140.623 63.3112 140.576C63.3438 140.534 63.3854 140.501 63.4329 140.479C63.4804 140.457 63.5325 140.446 63.585 140.447C63.6641 140.45 63.7425 140.464 63.8181 140.488C63.9506 140.527 64.0794 140.578 64.2033 140.64C64.411 140.744 64.6005 140.881 64.7643 141.045C65.0447 141.326 65.1326 141.559 65.1022 141.569C65.0718 141.579 64.94 141.39 64.6528 141.157C64.4869 141.021 64.304 140.907 64.1087 140.819C63.9925 140.769 63.8728 140.727 63.7505 140.694C63.6221 140.653 63.5072 140.646 63.4701 140.694C63.4329 140.741 63.4701 140.724 63.4701 140.765C63.5088 140.809 63.5531 140.847 63.6019 140.88C63.7097 140.955 63.8226 141.023 63.9398 141.082C64.1302 141.188 64.3305 141.276 64.5379 141.343C64.7326 141.393 64.9234 141.458 65.1089 141.535Z" fill="#263238"/>
<path d="M49.5986 137.943L49.0951 144.34C49.0951 144.34 55.4005 146.868 55.4242 148.057L43.0059 147.669L43.3809 137.666L49.5986 137.943Z" fill="#B00037"/>
<path d="M45.3478 143.664C45.2266 143.697 45.1213 143.772 45.0517 143.877C44.982 143.981 44.9528 144.107 44.9694 144.232C44.9932 144.36 45.0671 144.474 45.1748 144.548C45.2825 144.623 45.4152 144.651 45.5438 144.627C45.6734 144.594 45.7858 144.513 45.8595 144.401C45.9332 144.29 45.9628 144.155 45.9426 144.022C45.902 143.896 45.8138 143.789 45.6966 143.726C45.5793 143.663 45.4422 143.648 45.3141 143.684" fill="#E0E0E0"/>
<path d="M43.0059 147.668L43.0363 146.871L55.0795 147.499C55.1863 147.572 55.277 147.666 55.3461 147.776C55.4153 147.885 55.4614 148.007 55.4816 148.135L43.0059 147.668Z" fill="#F5F5F5"/>
<path d="M49.2038 144.387C49.2038 144.448 48.8929 144.462 48.582 144.647C48.2711 144.833 48.1022 145.08 48.0447 145.053C47.9873 145.026 48.0954 144.678 48.4739 144.462C48.8523 144.245 49.2173 144.33 49.2038 144.387Z" fill="#263238"/>
<path d="M50.4938 144.985C50.4938 145.046 50.2336 145.137 50.0174 145.387C49.8011 145.638 49.7268 145.908 49.6794 145.905C49.6321 145.901 49.595 145.567 49.8721 145.246C50.1491 144.925 50.4938 144.928 50.4938 144.985Z" fill="#263238"/>
<path d="M51.1739 146.59C51.1164 146.59 51.0455 146.293 51.2178 145.962C51.3901 145.631 51.6807 145.512 51.7044 145.567C51.728 145.621 51.5422 145.79 51.407 146.06C51.2719 146.33 51.2347 146.587 51.1739 146.59Z" fill="#263238"/>
<path d="M49.1558 142.904C49.1254 142.958 48.8483 142.863 48.5036 142.873C48.1589 142.884 47.8819 142.978 47.8514 142.924C47.821 142.87 48.0914 142.664 48.5002 142.657C48.9091 142.65 49.1862 142.857 49.1558 142.904Z" fill="#263238"/>
<path d="M49.4362 141.535C49.2287 141.58 49.0132 141.569 48.811 141.505C48.5865 141.454 48.3688 141.377 48.1622 141.275C48.045 141.214 47.9321 141.145 47.8243 141.069C47.755 141.027 47.6924 140.974 47.6385 140.913C47.6006 140.865 47.5801 140.806 47.5801 140.744C47.5801 140.683 47.6006 140.624 47.6385 140.576C47.671 140.534 47.7126 140.501 47.7601 140.479C47.8077 140.457 47.8597 140.446 47.9122 140.447C47.9925 140.45 48.072 140.464 48.1487 140.488C48.2801 140.527 48.4078 140.578 48.5305 140.64C48.7397 140.743 48.9304 140.88 49.0949 141.045C49.3719 141.326 49.4632 141.559 49.4328 141.569C49.4024 141.579 49.274 141.39 48.9867 141.157C48.8196 141.021 48.6356 140.907 48.4393 140.819C48.3297 140.769 48.2168 140.728 48.1014 140.694C47.9696 140.653 47.8581 140.646 47.8209 140.694C47.7838 140.741 47.8209 140.724 47.8209 140.765C47.8609 140.809 47.9063 140.847 47.9561 140.88C48.0639 140.955 48.1768 141.023 48.294 141.082C48.4836 141.188 48.6827 141.275 48.8887 141.343C49.0756 141.394 49.2585 141.458 49.4362 141.535Z" fill="#263238"/>
<path d="M58.79 82.478C59.3745 83.2079 71.1982 110.795 71.1982 113.566C71.1982 116.337 66.7782 142.208 66.7782 142.208L58.6683 141.927C58.6683 141.927 58.0668 128.019 58.7967 123.93C59.5266 119.841 60.0605 114.37 60.0605 114.37L48.4363 93.8624C48.4363 93.8624 47.1218 85.9822 48.4363 83.6472C49.7508 81.3122 58.79 82.478 58.79 82.478Z" fill="#455A64"/>
<path d="M59.5195 103.787C59.5195 104.081 55.2956 115.884 54.6063 119.534C53.9169 123.183 50.8183 142.512 50.8183 142.512L42.7354 141.924C42.7354 141.924 43.4652 121.446 44.7797 115.905C46.0942 110.363 47.1147 105.686 47.1147 102.476C47.1147 99.2657 46.101 99.2556 46.5436 94.6633C46.9863 90.0711 51.7847 88.6079 51.7847 88.6079L59.5195 103.787Z" fill="#455A64"/>
<path d="M53.7412 102.124C53.7718 102.304 53.8217 102.479 53.8899 102.648C53.9946 102.986 54.167 103.456 54.3934 104.037C54.9834 105.555 55.6604 107.037 56.4209 108.477C57.1838 109.916 58.03 111.31 58.9552 112.65C59.3134 113.164 59.6108 113.573 59.8237 113.85C59.9246 113.998 60.0376 114.137 60.1616 114.266C60.0856 114.099 59.9904 113.943 59.8777 113.799L59.0667 112.569C58.3909 111.522 57.4887 110.055 56.5966 108.376C55.7045 106.696 54.9949 105.128 54.5117 103.983C54.2853 103.435 54.096 102.969 53.944 102.631C53.8933 102.456 53.8254 102.286 53.7412 102.124Z" fill="#263238"/>
<path d="M44.9832 37.0726C44.9496 38.5533 45.2305 40.0242 45.8071 41.3884C46.3838 42.7525 47.2431 43.9789 48.3285 44.9866L49.8221 40.6545" fill="#263238"/>
<path d="M56.2556 28.4557C54.9345 27.7944 53.4246 27.6128 51.9844 27.9421C50.5574 28.2745 49.1944 28.8384 47.9497 29.6114C47.218 29.9874 46.5635 30.4974 46.0202 31.1151C45.0876 32.2877 44.1651 34.2138 44.0772 35.7074C44.0029 36.9171 44.4658 39.9448 44.9794 41.043C45.4458 42.0568 47.6422 42.8171 48.7235 43.0705L58.665 31.5105C58.4855 30.8672 58.1802 30.2659 57.7666 29.7415C57.353 29.2172 56.8394 28.7801 56.2556 28.4557Z" fill="#263238"/>
<path d="M57.9687 30.017L55.5864 29.5879C56.8874 32.6899 57.2422 39.7861 57.9856 43.0673C58.8642 41.7933 60.9052 37.9107 60.7937 36.3664C60.6822 34.8222 60.8004 29.7535 57.9687 30.017Z" fill="#263238"/>
<path d="M59.3306 35.0721C59.1751 32.7067 57.5903 29.7736 55.2182 30.0304L49.7338 31.426C48.8879 31.638 48.1329 32.1171 47.5808 32.7922C47.0287 33.4672 46.7089 34.3023 46.6689 35.1735C46.6689 35.2613 46.6689 35.1532 46.6689 35.2208L47.8956 49.43L52.0147 57.6042L55.6507 49.0313V46.97C55.6507 46.97 58.6919 46.4564 59.3137 42.4893C59.6077 40.5091 59.5029 37.7179 59.3306 35.0721Z" fill="#FFBE9D"/>
<path d="M58.3844 38.0695C58.3863 38.2026 58.3361 38.3311 58.2446 38.4277C58.153 38.5242 58.0274 38.5813 57.8944 38.5865C57.8298 38.5911 57.7649 38.5828 57.7034 38.5621C57.642 38.5415 57.5853 38.5088 57.5366 38.4661C57.4879 38.4233 57.4481 38.3714 57.4197 38.3131C57.3912 38.2549 57.3745 38.1917 57.3707 38.127C57.3688 37.9942 57.4191 37.8661 57.5107 37.7701C57.6023 37.674 57.728 37.6177 57.8606 37.6133C57.9252 37.6078 57.9902 37.6153 58.0518 37.6354C58.1134 37.6555 58.1703 37.6878 58.2192 37.7304C58.2681 37.773 58.3079 37.8249 58.3363 37.8832C58.3646 37.9414 58.381 38.0048 58.3844 38.0695Z" fill="#263238"/>
<path d="M58.7224 36.6266C58.6582 36.6942 58.273 36.4103 57.7256 36.4103C57.1781 36.4103 56.776 36.6908 56.7118 36.6232C56.6476 36.5556 56.749 36.4745 56.9213 36.3461C57.1575 36.1798 57.4401 36.0923 57.7289 36.0961C58.0137 36.0948 58.2916 36.1835 58.523 36.3495C58.7224 36.4948 58.7663 36.5962 58.7224 36.6266Z" fill="#263238"/>
<path d="M53.6202 38.0695C53.6221 38.2026 53.5719 38.3311 53.4804 38.4277C53.3889 38.5242 53.2632 38.5813 53.1303 38.5865C53.0655 38.5916 53.0004 38.5836 52.9388 38.5631C52.8772 38.5426 52.8203 38.51 52.7715 38.4672C52.7227 38.4243 52.6829 38.3722 52.6546 38.3137C52.6263 38.2553 52.6099 38.1918 52.6065 38.127C52.6046 37.9948 52.6545 37.8672 52.7454 37.7712C52.8363 37.6753 52.961 37.6186 53.0931 37.6133C53.1578 37.6078 53.223 37.6153 53.2848 37.6354C53.3466 37.6555 53.4038 37.6877 53.4529 37.7302C53.502 37.7727 53.5422 37.8247 53.5709 37.8829C53.5996 37.9412 53.6164 38.0047 53.6202 38.0695Z" fill="#263238"/>
<path d="M53.5349 36.6266C53.4707 36.6942 53.0821 36.4103 52.5212 36.4137C51.9602 36.4171 51.575 36.6908 51.5074 36.6232C51.4398 36.5556 51.5412 36.4745 51.7169 36.3461C51.9531 36.1798 52.2357 36.0923 52.5246 36.0961C52.8093 36.0948 53.0873 36.1835 53.3187 36.3495C53.5079 36.4948 53.5653 36.5962 53.5349 36.6266Z" fill="#263238"/>
<path d="M55.2457 40.9281C55.5341 40.8372 55.8326 40.7827 56.1345 40.7659C56.2764 40.7659 56.4082 40.722 56.4318 40.6274C56.4415 40.4826 56.4086 40.3381 56.3372 40.2118L55.9216 39.1507C55.3437 37.6335 54.9078 36.39 54.9856 36.3663C55.0633 36.3427 55.5634 37.5524 56.1412 39.0696C56.2831 39.4447 56.4149 39.7995 56.54 40.1408C56.6289 40.3087 56.6552 40.5027 56.6143 40.6882C56.5951 40.7384 56.5643 40.7832 56.5243 40.8191C56.4844 40.8549 56.4364 40.8807 56.3845 40.8944C56.3075 40.9158 56.228 40.9271 56.148 40.9281C55.8484 40.9653 55.5453 40.9653 55.2457 40.9281Z" fill="#263238"/>
<path d="M50.376 45.5508C50.376 45.5508 51.6668 48.2777 55.6373 47.8959V46.97C53.7859 46.9939 51.9642 46.5025 50.376 45.5508Z" fill="#EB996E"/>
<path d="M53.363 34.6497C53.3089 34.7984 52.7615 34.7275 52.1195 34.8086C51.4774 34.8897 50.957 35.062 50.8726 34.9302C50.8354 34.866 50.9232 34.7241 51.1327 34.5923C51.4093 34.4085 51.7254 34.2927 52.0553 34.2544C52.3839 34.2129 52.7177 34.2512 53.0284 34.3659C53.265 34.4673 53.3833 34.5788 53.363 34.6497Z" fill="#263238"/>
<path d="M58.5566 34.9538C58.4586 35.0754 58.0835 34.9538 57.6273 34.9538C57.1711 34.9538 56.7893 35.0383 56.7014 34.9099C56.6643 34.8457 56.7251 34.7206 56.8907 34.6024C57.1147 34.4579 57.3778 34.3859 57.6442 34.3962C57.9109 34.4007 58.1695 34.4881 58.3843 34.6463C58.5465 34.7646 58.5971 34.893 58.5566 34.9538Z" fill="#263238"/>
<path d="M58.2521 31.4496C58.1117 31.1584 57.8934 30.9117 57.6214 30.7369C57.3495 30.5622 57.0344 30.4661 56.7112 30.4595C56.0624 30.4601 55.4272 30.6453 54.8797 30.9934C52.5143 32.3451 51.3012 35.66 48.9662 37.0759C48.3917 37.4138 47.6449 37.1063 47.155 37.5658C46.665 38.0254 46.3507 38.762 46.6211 39.3771C46.2865 38.9609 46.0134 38.4989 45.8101 38.0051C45.7111 37.7571 45.6659 37.4908 45.6776 37.224C45.6892 36.9572 45.7574 36.6959 45.8776 36.4575C46.0804 36.1196 46.4352 35.8425 46.5332 35.4437C46.6312 35.045 46.4825 34.7375 46.4994 34.3827C46.5389 34.0211 46.6627 33.6739 46.861 33.3689C47.7428 31.7261 49.0544 30.3537 50.6557 29.3985C51.7119 28.7863 52.9157 28.4754 54.1363 28.4996C55.3629 28.5272 56.539 28.9936 57.4512 29.8141C57.975 30.3007 58.5224 30.8042 58.2521 31.4665" fill="#263238"/>
<path d="M47.2135 38.0525C47.1729 37.941 45.1015 37.1942 45.0745 39.4041C45.0474 41.5398 47.2067 41.1207 47.2101 41.0599C47.2135 40.9991 47.2135 38.0525 47.2135 38.0525Z" fill="#FFBE9D"/>
<path d="M46.5575 40.232C46.5575 40.232 46.5203 40.259 46.4561 40.2861C46.3674 40.3225 46.2678 40.3225 46.1791 40.2861C46.0415 40.1974 45.9302 40.0735 45.8565 39.9274C45.7829 39.7813 45.7496 39.6181 45.76 39.4548C45.7559 39.2721 45.7928 39.0908 45.8682 38.9243C45.8893 38.8577 45.9261 38.7971 45.9755 38.7477C46.0249 38.6983 46.0854 38.6615 46.152 38.6404C46.1951 38.6299 46.2405 38.6346 46.2805 38.6537C46.3205 38.6728 46.3527 38.7051 46.3717 38.7452C46.3987 38.806 46.3717 38.8466 46.3953 38.8499C46.419 38.8533 46.4426 38.8161 46.4257 38.7283C46.4152 38.6752 46.3865 38.6274 46.3446 38.5931C46.2859 38.5481 46.212 38.5276 46.1385 38.5357C46.0494 38.5529 45.9663 38.5932 45.8975 38.6524C45.8288 38.7117 45.7767 38.788 45.7465 38.8736C45.6532 39.0577 45.6068 39.262 45.6114 39.4683C45.5992 39.6585 45.6433 39.8481 45.7383 40.0134C45.8332 40.1787 45.9748 40.3123 46.1453 40.3976C46.202 40.4145 46.2619 40.4184 46.3204 40.409C46.3789 40.3996 46.4345 40.3773 46.4832 40.3435C46.5575 40.2827 46.5575 40.2354 46.5575 40.232Z" fill="#EB996E"/>
<path d="M46.3643 36.9544C46.4091 36.9346 46.4521 36.9109 46.4927 36.8834C46.5738 36.8327 46.6988 36.7618 46.8509 36.657C47.2705 36.3478 47.6567 35.9956 48.0031 35.6061C48.5088 35.0221 48.9804 34.4095 49.4156 33.7712C49.9417 32.9915 50.5317 32.2568 51.1795 31.5748C51.5249 31.2342 51.9068 30.9327 52.3183 30.6759C52.704 30.4406 53.1171 30.2533 53.5483 30.1184C54.2789 29.8849 55.047 29.7909 55.8123 29.8413C56.329 29.8726 56.8393 29.9726 57.3296 30.1387C57.5053 30.1927 57.6337 30.2502 57.7249 30.284C57.7692 30.3057 57.8156 30.3227 57.8635 30.3347C57.8223 30.3071 57.7781 30.2845 57.7317 30.2671C57.6042 30.2046 57.4734 30.1493 57.3397 30.1015C56.8501 29.9179 56.3371 29.8041 55.8157 29.7636C55.0411 29.7033 54.2621 29.7928 53.5213 30.0272C53.0815 30.1608 52.6603 30.3493 52.2676 30.5881C51.8497 30.8483 51.4621 31.1543 51.1119 31.5005C50.4577 32.1846 49.8652 32.9253 49.3413 33.7138C48.9131 34.3521 48.4495 34.9658 47.9525 35.552C47.6136 35.9444 47.2367 36.302 46.8272 36.6199C46.6819 36.728 46.5603 36.8023 46.4893 36.8598C46.4445 36.887 46.4026 36.9187 46.3643 36.9544Z" fill="#455A64"/>
<path d="M46.8951 37.5591C46.8099 38.1409 46.8822 38.7348 47.1046 39.2791C47.3749 39.7995 48.0541 40.1509 48.561 39.8603C48.9766 39.6238 49.0983 39.0933 49.1692 38.6236C49.372 37.2719 49.4632 35.8831 49.6795 34.5247L46.8951 37.5591Z" fill="#263238"/>
<path d="M53.9002 41.969C53.796 42.104 53.7262 42.2623 53.6966 42.4303C53.6671 42.5982 53.6787 42.7709 53.7305 42.9334C53.7824 43.0959 53.8729 43.2433 53.9942 43.3632C54.1156 43.483 54.2642 43.5716 54.4273 43.6214C54.5566 43.6651 54.6968 43.6651 54.8261 43.6214C54.9305 43.5629 55.022 43.484 55.0951 43.3894C55.1683 43.2947 55.2216 43.1863 55.2519 43.0706C55.3228 42.8847 55.3972 42.7022 55.4715 42.5164C55.4879 42.4874 55.4981 42.4553 55.5016 42.4222C55.5051 42.389 55.5018 42.3556 55.4918 42.3238C55.4713 42.2943 55.4447 42.2697 55.4138 42.2517C55.3828 42.2336 55.3483 42.2224 55.3127 42.219L53.9407 41.8811" fill="#EB996E"/>
<path d="M54.7959 43.5605C54.5854 43.5903 54.3708 43.5635 54.1741 43.4828C53.943 43.4085 53.7478 43.2506 53.6267 43.0402C53.5574 42.9096 53.5291 42.7612 53.5456 42.6144C53.5522 42.4622 53.5889 42.3129 53.6537 42.1751C53.7136 42.0402 53.801 41.9193 53.9105 41.8203L53.9477 41.7865H53.9916C54.9006 42.1244 55.6103 42.2697 55.6035 42.3103C55.0336 42.2745 54.4727 42.1502 53.941 41.9419H54.0221C53.9302 42.0298 53.8557 42.1341 53.8024 42.2494C53.7449 42.3602 53.7115 42.482 53.7045 42.6067C53.6975 42.7313 53.7171 42.856 53.7619 42.9726C53.8622 43.1566 54.0235 43.3 54.218 43.3781C54.556 43.5132 54.8026 43.5301 54.7959 43.5605Z" fill="#263238"/>
<path d="M57.7257 30.4325C57.7257 30.4325 57.5364 30.3953 57.1951 30.3852C56.7109 30.3771 56.2298 30.4644 55.7793 30.642C55.4695 30.7637 55.1728 30.9165 54.8939 31.0982C54.5758 31.3125 54.2712 31.5461 53.9816 31.7977C53.3086 32.3659 52.7072 33.0138 52.1906 33.7272C51.9203 34.109 51.677 34.501 51.4168 34.8626C51.1715 35.2167 50.8844 35.54 50.5619 35.8256C50.0072 36.2963 49.4007 36.7022 48.754 37.0353C48.2066 37.326 47.7403 37.5253 47.4362 37.6672L47.0712 37.8227C47.0288 37.8424 46.9847 37.8583 46.9395 37.87C46.9774 37.8422 47.0182 37.8184 47.0611 37.799L47.399 37.6233C47.7065 37.4713 48.1593 37.2584 48.6966 36.9475C49.331 36.6086 49.9259 36.2006 50.4707 35.731C50.7901 35.4572 51.076 35.1464 51.3222 34.8051C51.579 34.4469 51.8189 34.0549 52.0926 33.6663C52.6164 32.9474 53.2257 32.2949 53.9072 31.7233C54.2028 31.4714 54.5143 31.2389 54.8399 31.0272C55.1254 30.8435 55.4302 30.6917 55.7489 30.5744C56.21 30.3993 56.7026 30.3221 57.1951 30.348C57.3291 30.3569 57.4624 30.3749 57.5939 30.4021C57.6386 30.4082 57.6827 30.4184 57.7257 30.4325Z" fill="#455A64"/>
<path d="M46.8413 36.2413C46.7843 36.2916 46.7207 36.3337 46.652 36.3663L46.1114 36.6839L45.9289 36.7887C45.8579 36.8315 45.7782 36.8581 45.6957 36.8664C45.6448 36.8727 45.5933 36.8608 45.5504 36.8326C45.5272 36.8167 45.5081 36.7956 45.4946 36.7709C45.4811 36.7463 45.4736 36.7188 45.4727 36.6907C45.4768 36.5926 45.511 36.4982 45.5707 36.4204L46.1992 35.4066L46.2837 35.4843C46.0799 35.6355 45.8511 35.7499 45.6079 35.8223C45.361 35.8989 45.1022 35.9298 44.8442 35.9135C44.7774 35.9135 44.7111 35.9021 44.6482 35.8797C44.612 35.8694 44.5784 35.8514 44.5498 35.8269C44.5212 35.8024 44.4983 35.772 44.4826 35.7378C44.4709 35.7014 44.4681 35.6627 44.4746 35.6251C44.4811 35.5874 44.4966 35.5519 44.5198 35.5215C44.5551 35.472 44.596 35.4267 44.6414 35.3863C44.9225 35.1129 45.1668 34.8039 45.368 34.4672C45.5476 34.152 45.7023 33.8232 45.8309 33.4839C45.8221 33.5823 45.7993 33.6791 45.7633 33.7711C45.6777 34.0293 45.5644 34.2774 45.4254 34.5111C45.2302 34.8611 44.9868 35.1819 44.7023 35.4641C44.6212 35.5418 44.5434 35.6296 44.5739 35.6938C44.6043 35.7581 44.7192 35.7952 44.834 35.7952C45.0784 35.8092 45.3233 35.7795 45.5572 35.7074C45.7922 35.6325 46.0127 35.5182 46.2094 35.3694L46.4628 35.1836L46.2938 35.4472L45.6518 36.4609C45.6017 36.5191 45.5699 36.5908 45.5606 36.667C45.5616 36.6817 45.5659 36.696 45.573 36.7089C45.5802 36.7218 45.59 36.733 45.6019 36.7417C45.6138 36.7503 45.6275 36.7563 45.6419 36.7592C45.6564 36.7621 45.6713 36.7617 45.6856 36.7583C45.8215 36.7307 45.951 36.678 46.0674 36.6028L46.625 36.3156C46.6931 36.2805 46.766 36.2555 46.8413 36.2413Z" fill="#455A64"/>
<path d="M74.0903 49.3761C74.3218 48.3332 74.7837 47.3553 75.442 46.5139C76.4997 45.2062 79.2435 43.2294 79.2435 43.2294C79.2435 43.2294 82.8051 41.5398 83.0856 41.7662C83.3661 41.9926 83.3897 42.3812 82.8896 42.6549C82.3895 42.9287 80.3485 44.4594 80.3485 44.4594C80.3485 44.4594 80.9736 44.8717 80.8689 45.3447C80.8312 45.5888 80.7231 45.8166 80.558 46.0003C80.8432 46.2192 81.0638 46.5111 81.1967 46.8451C81.2415 47.0818 81.2415 47.3248 81.1967 47.5615C81.3089 47.616 81.3998 47.7064 81.4549 47.8184C81.51 47.9304 81.5261 48.0576 81.5008 48.1798C81.4656 48.4839 81.3824 48.7805 81.2541 49.0584C81.2541 49.0584 79.8112 50.1161 79.3043 50.1702C78.7975 50.2242 78.1284 50.2648 78.1284 50.2648L77.5945 50.7277L77.2566 52.2382L74.0903 49.3761Z" fill="#FFBE9D"/>
<path d="M42.9011 64.464C43.1411 61.8722 43.0093 61.0511 43.408 57.8848C43.7662 55.0632 45.2294 50.3223 47.1251 48.2002L55.6168 49.2646C55.7611 49.8013 55.9325 50.3302 56.1305 50.8494C56.5324 51.923 57.0289 52.9589 57.6139 53.9447C59.0332 56.3101 61.1485 59.0371 61.5236 60.4192C61.5641 60.5746 61.9561 72.7665 61.9561 72.7665C61.9561 72.7665 62.9192 81.9105 63.7977 85.0227C64.6763 88.1349 65.6225 90.9058 65.4873 91.9195C65.3521 92.9332 63.7977 93.8862 63.7977 93.8862L60.9221 90.0475C60.8346 89.9307 60.7211 89.8358 60.5906 89.7705C60.4601 89.7052 60.3162 89.6712 60.1702 89.6712C60.0243 89.6712 59.8804 89.7052 59.7499 89.7705C59.6194 89.8358 59.5059 89.9307 59.4184 90.0475C58.6995 90.999 58.1088 92.0408 57.6612 93.1461C56.5731 95.8224 54.3699 101.006 53.0352 102.54C51.2104 104.635 50.3319 103.351 50.3319 103.351C50.3319 103.351 44.1616 95.4541 43.5601 92.2507V92.2811C42.5463 90.872 42.6511 67.1605 42.9011 64.464Z" fill="#B00037"/>
<path d="M73.9684 48.6595C73.9684 48.6595 66.3012 59.6215 66.0376 59.6215C65.774 59.6215 56.8092 53.3092 56.8092 53.3092C56.8092 53.3092 52.3386 50.0484 50.4293 51.5622C46.5974 54.6035 50.0036 59.7803 50.0036 59.7803C50.0036 59.7803 63.4525 68.9344 67.5954 69.2723C71.7382 69.6102 77.0739 53.0727 77.0739 53.0727L77.7767 52.1265L73.9684 48.6595Z" fill="#B00037"/>
<path d="M66.318 63.6596C66.7037 62.311 66.6081 60.8702 66.0477 59.5844C65.9902 59.5844 66.2741 60.4832 66.345 61.6118C66.416 62.7405 66.2605 63.6495 66.318 63.6596Z" fill="#263238"/>
<path d="M68.0179 63.0311C67.9884 62.3452 67.7748 61.6799 67.3996 61.105C67.0797 60.5029 66.6152 59.9897 66.0479 59.6115C66.004 59.6588 66.6899 60.2569 67.2441 61.203C67.7983 62.1492 67.9571 63.0447 68.0179 63.0311Z" fill="#263238"/>
<path d="M55.9917 50.3897L55.9208 51.0318L46.3916 49.18L46.5606 46.5071C46.5606 46.5071 46.5606 45.7637 47.4594 45.7637C47.9055 45.7637 55.62 47.6999 55.9073 47.8993C56.6709 48.396 55.9917 50.3897 55.9917 50.3897Z" fill="#B00037"/>
<path d="M53.3394 51.0588C53.5192 51.1481 53.6921 51.2509 53.8564 51.3663L55.2283 52.2551C56.384 53.012 57.9722 54.0663 59.7124 55.2523C61.4527 56.4384 63.0104 57.5434 64.1053 58.3679C64.6595 58.7802 65.1021 59.1181 65.4063 59.358C65.5689 59.476 65.7225 59.6059 65.8658 59.7466C65.6923 59.6444 65.5253 59.5315 65.3657 59.4087L64.031 58.4625C62.9057 57.6651 61.3276 56.577 59.6009 55.3909L55.1472 52.3497L53.7955 51.4136C53.6355 51.306 53.4831 51.1874 53.3394 51.0588Z" fill="#263238"/>
<path d="M50.835 60.5576C50.9901 60.6241 51.1383 60.7056 51.2776 60.8009L52.4569 61.5139C53.4504 62.1188 54.8223 62.9568 56.3531 63.8489C57.8838 64.741 59.2896 65.5385 60.3101 66.0791L61.5198 66.7381C61.6734 66.8101 61.8194 66.8972 61.9557 66.9983C61.7945 66.9461 61.6385 66.8794 61.4894 66.7989C61.1954 66.6603 60.773 66.461 60.2526 66.1906C59.2152 65.6635 57.7994 64.8998 56.2652 64.001C54.7311 63.1021 53.3659 62.2539 52.3894 61.6187C51.9028 61.3044 51.5074 61.0408 51.2405 60.8584C51.097 60.7698 50.9614 60.6692 50.835 60.5576Z" fill="#263238"/>
<path d="M48.4021 57.6549C48.3411 57.5646 48.2944 57.4654 48.2635 57.3609C48.1598 57.0798 48.085 56.7888 48.0405 56.4925C47.8855 55.5043 48.0349 54.4924 48.4689 53.5912C48.9029 52.6901 49.6009 51.9423 50.4701 51.4474C50.7291 51.2965 51.0032 51.173 51.2878 51.0791C51.3901 51.037 51.4985 51.0119 51.6089 51.0048C51.6089 51.0386 51.1662 51.1602 50.5343 51.5556C49.7116 52.0645 49.0518 52.7981 48.6327 53.6699C48.2135 54.5417 48.0526 55.5153 48.1689 56.4756C48.2466 57.2122 48.4359 57.6448 48.4021 57.6549Z" fill="#263238"/>
<path d="M46.3813 49.1326C46.4909 49.062 46.6105 49.0085 46.7362 48.9737C47.077 48.8655 47.4301 48.8008 47.7871 48.7811C48.316 48.7547 48.8461 48.7944 49.3651 48.8994C49.9951 49.0313 50.6151 49.2074 51.2203 49.4266C51.8657 49.6496 52.4739 49.8726 53.0383 50.0382C53.534 50.1916 54.0414 50.3046 54.5555 50.3761C55.0328 50.4219 55.513 50.4298 55.9916 50.3997C55.8694 50.4473 55.7406 50.4758 55.6098 50.4842C55.2559 50.5216 54.8992 50.5216 54.5453 50.4842C54.0204 50.4342 53.5012 50.3358 52.9943 50.1902C52.4199 50.0314 51.8082 49.8118 51.1628 49.5888C50.5644 49.3718 49.9526 49.1934 49.3313 49.0548C48.3581 48.8244 47.3417 48.85 46.3813 49.1292V49.1326Z" fill="#263238"/>
<path d="M75.8107 50.7209C75.8107 50.7209 75.8107 50.7547 75.787 50.8223L75.7059 51.1129C75.6316 51.3697 75.5201 51.7414 75.368 52.2247C75.0673 53.1877 74.6077 54.5732 73.9792 56.2627C73.3507 57.9523 72.5431 59.946 71.5462 62.1154C71.3037 62.6784 71.0307 63.2277 70.7285 63.761C70.4118 64.3385 69.9308 64.809 69.3464 65.1127C68.7178 65.3825 68.0166 65.4325 67.3561 65.2546C66.6892 65.0857 66.0482 64.8277 65.4502 64.4876C63.2023 63.1999 61.0448 61.7604 58.9927 60.1792C57.0801 58.7599 55.3466 57.4758 53.8125 56.5533C52.6113 55.794 51.35 55.134 50.0414 54.5799C49.5818 54.3704 49.2033 54.2623 48.96 54.1575L48.6796 54.0494C48.6468 54.039 48.6151 54.0254 48.585 54.0088C48.6186 54.0118 48.6517 54.0198 48.683 54.0325L48.9702 54.1237C49.2202 54.2184 49.6021 54.3164 50.065 54.5157C51.3885 55.0431 52.6639 55.6842 53.8767 56.4317C55.4277 57.3643 57.1714 58.6214 59.0907 60.0339C61.1406 61.6045 63.2934 63.036 65.5347 64.3186C66.1175 64.6514 66.7427 64.9038 67.3933 65.0688C68.0167 65.241 68.6802 65.1969 69.2754 64.9437C69.8295 64.6571 70.285 64.211 70.5832 63.663C70.8846 63.1362 71.1575 62.5937 71.4009 62.0377C72.4147 59.875 73.2155 57.8915 73.8609 56.2087C74.5063 54.5259 74.9828 53.1472 75.3038 52.1943C75.4593 51.7246 75.5843 51.3562 75.6721 51.0926C75.7127 50.9744 75.7431 50.8798 75.7701 50.8054C75.7803 50.7758 75.794 50.7474 75.8107 50.7209Z" fill="white"/>
<path d="M46.3747 97.5591C46.3747 97.5591 46.3578 97.5388 46.3341 97.4983L46.2192 97.3192C46.128 97.1435 45.9759 96.8934 45.8137 96.5521C45.3833 95.5541 45.044 94.5193 44.8 93.4602C44.1512 90.7569 43.6916 86.8134 43.7187 82.2009C43.5733 79.5855 43.4686 76.7098 43.4551 73.7057C43.4551 72.0162 43.4551 70.3976 43.499 68.8195C43.5429 67.2415 43.5733 65.7208 43.6713 64.2712C43.8247 61.7038 44.1738 59.1519 44.7155 56.6377C45.0807 54.9424 45.5639 53.2746 46.1618 51.6467C46.378 51.0723 46.5537 50.633 46.6855 50.3356C46.7464 50.1937 46.797 50.0822 46.8342 49.9977C46.8489 49.9579 46.867 49.9195 46.8883 49.8828C46.8805 49.9246 46.868 49.9654 46.8511 50.0045L46.7193 50.3424C46.5977 50.6431 46.4321 51.0858 46.226 51.6636C45.654 53.2961 45.1901 54.9645 44.8371 56.658C44.3107 59.1682 43.9718 61.7141 43.8234 64.2746C43.7288 65.7208 43.6984 67.2415 43.6612 68.8195C43.624 70.3976 43.6105 72.0263 43.6207 73.699C43.6207 76.6997 43.7355 79.5686 43.8741 82.184C43.8335 86.7796 44.2694 90.713 44.8878 93.4163C45.1217 94.4729 45.4462 95.5073 45.8576 96.5082C46.0097 96.8461 46.1516 97.1063 46.2361 97.2854C46.2733 97.3699 46.3071 97.4341 46.3307 97.4881L46.3747 97.5591Z" fill="white"/>
<path d="M48.9229 81.1299C48.9054 81.062 48.8919 80.9932 48.8823 80.9238C48.8621 80.7717 48.835 80.5859 48.7979 80.3291L48.7438 79.8999C48.7269 79.7411 48.7201 79.562 48.7066 79.3863C48.683 79.0146 48.6424 78.5956 48.6492 78.1292C48.6492 77.8927 48.6492 77.6494 48.6492 77.396C48.6492 77.1425 48.6661 76.8756 48.6728 76.6019C48.6728 76.0544 48.737 75.4699 48.781 74.8549C48.8925 73.6282 49.0648 72.2833 49.2743 70.8776C49.4838 69.4719 49.69 68.1371 49.8758 66.9206C50.0617 65.7041 50.1766 64.6025 50.2509 63.6767C50.3016 63.2137 50.3151 62.7947 50.3388 62.4264C50.3624 62.0581 50.3759 61.7506 50.3793 61.4802C50.3827 61.2099 50.3793 61.0342 50.3962 60.8787C50.3943 60.8094 50.4011 60.7402 50.4165 60.6726C50.424 60.7411 50.424 60.8102 50.4165 60.8787C50.4165 61.0342 50.4165 61.2335 50.4165 61.4802C50.4165 61.7269 50.4165 62.0581 50.4165 62.4298C50.4165 62.8015 50.3962 63.2205 50.3557 63.6868C50.2982 64.6161 50.1766 65.7143 50.0177 66.9409C49.8589 68.1675 49.646 69.4989 49.4331 70.9046C49.2203 72.3104 49.0479 73.6485 48.9263 74.8684C48.879 75.48 48.8181 76.0612 48.8012 76.6086C48.8012 76.8823 48.7742 77.1459 48.7675 77.3993C48.7607 77.6528 48.7675 77.8927 48.7675 78.1259C48.7675 78.5922 48.7877 79.0112 48.8012 79.3795C48.8012 79.562 48.8012 79.7174 48.8249 79.8931C48.8486 80.0689 48.8519 80.1905 48.8655 80.3223C48.8857 80.5656 48.9026 80.765 48.9161 80.9204C48.928 80.9896 48.9302 81.0601 48.9229 81.1299Z" fill="white"/>
<path d="M52.0012 101.574C51.9591 101.52 51.9239 101.461 51.8965 101.398L51.6228 100.878C51.5011 100.651 51.3626 100.371 51.2206 100.036C51.0787 99.7016 50.8827 99.3299 50.7442 98.9007C50.6056 98.4716 50.4063 98.0052 50.2475 97.4882C50.0886 96.9712 49.9332 96.4204 49.7778 95.8358C49.1484 93.2813 48.9204 90.6445 49.1019 88.0199C49.156 87.4184 49.1965 86.8439 49.281 86.31C49.3655 85.7761 49.4398 85.2963 49.5311 84.8367C49.6223 84.3772 49.7203 83.9852 49.8048 83.6338C49.8893 83.2823 49.9771 82.9816 50.0548 82.7383C50.1326 82.495 50.19 82.3227 50.2339 82.1774C50.2535 82.1113 50.2784 82.0469 50.3083 81.9847C50.3042 82.0539 50.2905 82.1221 50.2677 82.1875C50.2306 82.3362 50.1833 82.5254 50.1224 82.7552C50.0616 82.985 49.9737 83.3026 49.8994 83.6574C49.8251 84.0122 49.7203 84.411 49.6527 84.8604C49.5851 85.3098 49.4838 85.7998 49.4263 86.3303C49.3689 86.8608 49.3114 87.4319 49.2641 88.0199C49.193 89.3227 49.2088 90.6288 49.3114 91.9295C49.4317 93.232 49.6405 94.5247 49.9366 95.7987C50.0853 96.3799 50.217 96.9374 50.386 97.4443C50.555 97.9512 50.7036 98.4276 50.8591 98.8568C51.0145 99.2859 51.1767 99.661 51.3119 99.9989C51.4471 100.337 51.5721 100.617 51.6836 100.847L51.9269 101.384C51.9572 101.445 51.982 101.508 52.0012 101.574Z" fill="white"/>
<path d="M58.8337 86.2458C58.8184 86.1725 58.8116 86.0977 58.8134 86.0228C58.8134 85.8606 58.8134 85.6477 58.7897 85.3841C58.7897 84.8097 58.7492 84.0156 58.7222 83.0424C58.6613 81.0622 58.5566 78.3319 58.3842 75.3177C58.2119 72.3035 57.9686 69.5732 57.7828 67.6065C57.6915 66.6367 57.6172 65.8426 57.5631 65.2715C57.5395 65.0113 57.5192 64.7984 57.5057 64.6362C57.4975 64.5621 57.4975 64.4873 57.5057 64.4132C57.5279 64.4847 57.5427 64.5583 57.5496 64.6329C57.5699 64.7951 57.6003 65.0046 57.6374 65.2648C57.7118 65.8122 57.8064 66.6164 57.9145 67.593C58.1308 69.563 58.3809 72.2866 58.5667 75.3042C58.7526 78.3218 58.8404 81.0487 58.8675 83.039C58.8675 84.0291 58.8675 84.83 58.8675 85.3841C58.8675 85.6477 58.8675 85.8572 58.8675 86.0228C58.862 86.0979 58.8507 86.1725 58.8337 86.2458Z" fill="white"/>
<path d="M58.1372 91.8551C57.964 91.6073 57.8285 91.3351 57.7351 91.0475C57.4683 90.3658 57.2845 89.6544 57.1877 88.9288C57.0919 88.2036 57.0851 87.4693 57.1674 86.7425C57.1846 86.4392 57.2449 86.14 57.3465 85.8538C57.3437 86.1542 57.3246 86.4543 57.2891 86.7526C57.1993 88.1925 57.3898 89.6362 57.85 91.0036C57.9605 91.2822 58.0564 91.5664 58.1372 91.8551Z" fill="white"/>
<g opacity="0.3">
<path opacity="0.3" d="M61.7631 66.907C59.418 66.6975 57.5899 66.4711 55.4407 65.5046C53.2916 64.5382 51.2675 62.879 50.835 60.5643C54.6669 62.6222 57.9278 64.8356 61.7631 66.907Z" fill="black"/>
</g>
<path d="M50.3858 51.4508C50.2655 51.0665 50.1651 50.6762 50.085 50.2816C49.9059 49.6463 49.6728 49.1563 49.7201 49.1327C49.9843 49.4514 50.1675 49.8294 50.254 50.2343C50.3939 50.6236 50.439 51.0406 50.3858 51.4508Z" fill="white"/>
<g opacity="0.3">
<path opacity="0.3" d="M55.8836 50.721C55.7822 50.4473 55.4038 50.4439 55.1098 50.4642C53.6601 50.5588 52.2645 49.9877 50.896 49.4977C49.5274 49.0077 48.0372 48.5921 46.645 49.0077V49.1024C47.9774 49.778 49.421 50.2073 50.9061 50.3695C52.1767 50.5081 53.5081 50.4574 54.6637 51.0048C54.8965 51.1494 55.1609 51.2352 55.4342 51.2549C55.6977 51.2414 55.9782 50.9778 55.8836 50.721Z" fill="black"/>
</g>
<g opacity="0.3">
<path opacity="0.3" d="M68.0929 61.1624C67.6584 60.43 66.9689 59.8837 66.1566 59.6283L66.1025 59.7162C67.1964 60.6993 67.8883 62.052 68.0455 63.5143C68.0455 63.6731 68.13 63.8826 68.2855 63.8522C68.4409 63.8218 68.4578 63.7035 68.4848 63.5886C68.6545 62.7592 68.5151 61.8963 68.0929 61.1624Z" fill="black"/>
</g>
<path d="M60.4627 87.8577C60.3018 87.7575 60.1492 87.6445 60.0065 87.5198C59.8679 87.3948 59.6922 87.2528 59.4827 87.0839C59.2732 86.9149 59.0434 86.7257 58.7765 86.5263C58.2493 86.1141 57.5971 85.6579 56.8673 85.1747C56.1374 84.6915 55.3027 84.1812 54.414 83.6811C53.5253 83.181 52.6535 82.7518 51.856 82.3767C51.0585 82.0017 50.3185 81.7009 49.69 81.4678C49.3825 81.3427 49.0952 81.2447 48.8452 81.1569C48.5951 81.069 48.3789 80.9947 48.1998 80.9406C48.0127 80.8889 47.8297 80.8234 47.6523 80.7446C47.8449 80.771 48.0349 80.814 48.22 80.873C48.4025 80.917 48.6222 80.9845 48.8756 81.0656C49.129 81.1467 49.4196 81.2346 49.7339 81.3495C50.3692 81.5658 51.1092 81.8733 51.9236 82.2281C52.7379 82.5829 53.6131 83.0289 54.5019 83.5257C55.3906 84.0224 56.2218 84.5394 56.9585 85.0395C57.6951 85.5396 58.3338 86.0161 58.8542 86.4419C59.1178 86.648 59.3475 86.8474 59.5469 87.0231C59.7463 87.1988 59.9186 87.361 60.0538 87.4826C60.1987 87.5979 60.3353 87.7232 60.4627 87.8577Z" fill="#263238"/>
<g opacity="0.3">
<path opacity="0.3" d="M47.9091 80.7615C47.8522 80.7136 47.8065 80.6539 47.7752 80.5865C47.7438 80.5191 47.7275 80.4456 47.7275 80.3712C47.7275 80.2969 47.7438 80.2234 47.7752 80.156C47.8065 80.0886 47.8522 80.0288 47.9091 79.981C48.0318 79.8922 48.1758 79.8373 48.3265 79.8219C48.4772 79.8064 48.6292 79.831 48.7674 79.8931C49.0409 80.023 49.2937 80.1927 49.5176 80.3966C51.9337 82.343 55.0661 83.2114 57.5667 85.0463C58.2425 85.5531 58.9184 86.1411 59.753 86.3337C60.0368 86.4013 60.395 86.4757 60.4592 86.7595C60.5234 87.0434 60.2058 87.2698 59.9287 87.2461C59.6525 87.1952 59.3982 87.0621 59.1988 86.8643C55.8738 84.107 52.0372 82.0331 47.9091 80.7615Z" fill="black"/>
</g>
</svg>
