<svg width="302" height="347" viewBox="0 0 302 347" fill="none" xmlns="http://www.w3.org/2000/svg">
<path d="M292.177 166.299L244.451 173.687C242.628 173.969 241.379 175.676 241.661 177.499L246.161 206.568C246.444 208.391 248.15 209.64 249.973 209.358L297.699 201.97C299.522 201.687 300.771 199.981 300.489 198.158L295.989 169.089C295.707 167.266 294 166.017 292.177 166.299Z" stroke="#263238" stroke-linecap="round" stroke-linejoin="round"/>
<path d="M242.391 182.192L296.718 173.782" stroke="#263238" stroke-linecap="round" stroke-linejoin="round"/>
<path d="M292.469 183.318L283.693 184.677L285.65 197.313L294.426 195.955L292.469 183.318Z" stroke="#263238" stroke-linecap="round" stroke-linejoin="round"/>
<path d="M287.255 186.746C289.11 184.539 292.155 186.01 291.442 192.86L294.157 194.206L294.422 195.928L285.652 197.289L285.291 194.986L288.602 193.699C288.602 193.699 285.512 188.828 287.255 186.746Z" stroke="#263238" stroke-linecap="round" stroke-linejoin="round"/>
<path d="M268.223 202.196C268.223 202.196 274.565 202.248 272.747 200.982C270.93 199.717 270.658 198.437 272.203 198.415C273.748 198.393 276.338 201.358 276.132 199.548C275.926 197.738 277.044 198.915 277.258 199.033C277.471 199.15 279.303 198.415 279.391 198.628C279.48 198.841 279.354 199.437 285.321 198.518" stroke="#263238" stroke-linecap="round" stroke-linejoin="round"/>
<path d="M246.996 187.835L273.601 183.715" stroke="#263238" stroke-linecap="round" stroke-linejoin="round"/>
<path d="M247.467 190.851L263.138 188.423" stroke="#263238" stroke-linecap="round" stroke-linejoin="round"/>
<path d="M248.291 196.171L270.15 192.786" stroke="#263238" stroke-linecap="round" stroke-linejoin="round"/>
<path d="M255.074 176.276L281.752 172.141" stroke="#263238" stroke-linecap="round" stroke-linejoin="round"/>
<path d="M1 157.64L60.6467 145.728L81.4756 245.73L18.0766 259.327L1 157.64Z" stroke="#263238" stroke-linecap="round" stroke-linejoin="round"/>
<path d="M15.6777 245.061L78.9517 233.605" stroke="#263238" stroke-linecap="round" stroke-linejoin="round"/>
<path d="M71.4553 225.1L41.2383 230.677" stroke="#263238" stroke-linecap="round" stroke-linejoin="round"/>
<path d="M66.9735 220.083L58.1445 221.385" stroke="#263238" stroke-linecap="round" stroke-linejoin="round"/>
<path d="M68.3198 209.87L23.2188 218.331" stroke="#263238" stroke-linecap="round" stroke-linejoin="round"/>
<path d="M8.79883 204.095L70.5351 193.198" stroke="#263238" stroke-linecap="round" stroke-linejoin="round" stroke-dasharray="1 2"/>
<path d="M74.3973 242.493L36.8965 250.351" stroke="#263238" stroke-linecap="round" stroke-linejoin="round"/>
<path d="M73.2788 239.329L55.6504 242.493" stroke="#263238" stroke-linecap="round" stroke-linejoin="round"/>
<path d="M63.7436 186.606L32.8203 192.735" stroke="#263238" stroke-linecap="round" stroke-linejoin="round"/>
<path d="M61.3008 179.741L51.4492 181.676" stroke="#263238" stroke-linecap="round" stroke-linejoin="round"/>
<path d="M60.72 174.974L15.6777 183.656" stroke="#263238" stroke-linecap="round" stroke-linejoin="round"/>
<path d="M56.6286 151.769L44.4668 154.285" stroke="#263238" stroke-linecap="round" stroke-linejoin="round"/>
<path d="M15.6773 160.414L5.18555 162.452" stroke="#263238" stroke-linecap="round" stroke-linejoin="round"/>
<path d="M9.00391 168.235C9.2227 167.489 9.5985 166.798 10.1061 166.209C10.6137 165.621 11.2413 165.147 11.9469 164.821" stroke="#263238" stroke-linecap="round" stroke-linejoin="round"/>
<path d="M13.6698 174.974C12.367 174.82 11.1627 174.203 10.2757 173.237C9.38876 172.27 8.8779 171.017 8.83594 169.706" stroke="#263238" stroke-linecap="round" stroke-linejoin="round"/>
<path d="M17.7606 173.723C17.0137 174.395 16.0842 174.83 15.0898 174.974" stroke="#263238" stroke-linecap="round" stroke-linejoin="round"/>
<path d="M14.1836 164.32C15.1309 164.351 16.054 164.627 16.8631 165.121C17.6722 165.615 18.3396 166.309 18.8004 167.138C19.2612 167.966 19.4996 168.899 19.4926 169.847C19.4855 170.795 19.2331 171.725 18.7599 172.546" stroke="#263238" stroke-linecap="round" stroke-linejoin="round"/>
<path d="M24.9117 165.704C23.9332 165.395 22.962 165.042 21.9688 164.821" stroke="#263238" stroke-linecap="round" stroke-linejoin="round"/>
<path d="M33.255 166.41C32.4236 168.389 27.7737 166.587 26.4199 166.175" stroke="#263238" stroke-linecap="round" stroke-linejoin="round"/>
<path d="M25.2949 161.157L33.9914 163.202C33.8516 163.783 33.7413 164.372 33.6309 164.953" stroke="#263238" stroke-linecap="round" stroke-linejoin="round"/>
<path d="M20.9902 163.202C21.9173 160.995 21.5494 160.259 23.8596 160.796" stroke="#263238" stroke-linecap="round" stroke-linejoin="round"/>
<path d="M127.107 319.378L138.622 322.91L130.065 312.83C134.756 307.615 137.442 300.904 137.643 293.892" stroke="#263238" stroke-linecap="round" stroke-linejoin="round"/>
<path d="M113.135 323.822C116.994 322.591 120.636 320.761 123.928 318.4" stroke="#263238" stroke-linecap="round" stroke-linejoin="round"/>
<path d="M68.7031 302.412C72.0949 318.753 90.1501 328.818 109.037 324.904" stroke="#263238" stroke-linecap="round" stroke-linejoin="round"/>
<path d="M71.4546 283.989C70.7297 285.366 70.1147 286.797 69.6152 288.271" stroke="#263238" stroke-linecap="round" stroke-linejoin="round"/>
<path d="M137.091 288.227C133.706 271.886 115.644 261.821 96.7647 265.743C88.1918 267.426 80.4657 272.025 74.8984 278.758" stroke="#263238" stroke-linecap="round" stroke-linejoin="round"/>
<path d="M117.057 282.238C111.62 276.315 104.211 280.421 101.128 286.432C96.037 282.017 87.6274 280.936 84.7875 288.462C79.9904 301.139 96.3975 308.872 103.99 311.668C104.851 311.992 105.558 312.264 106.146 312.462C106.624 312.058 107.183 311.543 107.86 310.925C113.864 305.502 126.225 292.229 117.057 282.238Z" stroke="#263238" stroke-linecap="round" stroke-linejoin="round"/>
<path d="M162.266 41.0685L151.149 36.4407L158.691 47.3003C153.536 52.0386 150.23 58.4522 149.361 65.3995" stroke="#263238" stroke-linecap="round" stroke-linejoin="round"/>
<path d="M176.585 37.9712C172.626 38.8293 168.826 40.2988 165.32 42.3268" stroke="#263238" stroke-linecap="round" stroke-linejoin="round"/>
<path d="M218.764 63.5604C216.962 46.9546 199.959 35.1827 180.785 37.2943" stroke="#263238" stroke-linecap="round" stroke-linejoin="round"/>
<path d="M214.254 81.6302C215.095 80.3286 215.833 78.9634 216.461 77.5469" stroke="#263238" stroke-linecap="round" stroke-linejoin="round"/>
<path d="M149.361 71.0942C151.164 87.6853 168.167 99.4424 187.34 97.3603C196.034 96.5061 204.165 92.6721 210.354 86.5081" stroke="#263238" stroke-linecap="round" stroke-linejoin="round"/>
<path d="M192.126 81.2475C200.627 76.6969 203.829 66.1164 199.279 57.6153C194.728 49.1142 184.148 45.9117 175.647 50.4623C167.145 55.0129 163.943 65.5934 168.494 74.0945C173.044 82.5956 183.625 85.7981 192.126 81.2475Z" stroke="#263238" stroke-linecap="round" stroke-linejoin="round"/>
<path d="M177.254 68.0631L182.478 72.9925L191.189 57.9907" stroke="#263238" stroke-linecap="round" stroke-linejoin="round"/>
<path opacity="0.2" d="M205.714 232.149C205.714 232.149 203.095 263.844 206.884 271.533C210.673 279.222 212.571 331.754 210.872 338.361C210.872 338.361 223.07 341.436 227.897 337.066C232.723 332.695 240.147 336.904 252.375 332.651C264.603 328.399 255.781 234.01 255.781 234.01L256.157 199.673L235.99 181.706L205.714 232.149Z" fill="black" fill-opacity="0.7"/>
<path d="M221.973 247.393C221.897 247.62 221.774 247.828 221.613 248.004C219.008 250.469 207.891 253.206 198.341 255.177C190.432 256.818 183.626 257.929 183.626 257.929C183.626 257.929 178.388 214.395 178.388 209.819C178.388 205.242 169.941 131.153 169.941 131.153L190.189 130.277L217.051 129.115C217.051 129.115 217.213 131.094 217.485 134.552C219.258 156.58 225.35 238.704 221.973 247.393Z" fill="#B00037"/>
<path opacity="0.2" d="M221.973 247.393L198.341 252.227L189.416 254.059C186.995 251.683 185.149 251.639 185.149 251.639L184.413 244.98L183.258 234.084L173.09 138.216C175.297 136.693 176.386 133.36 176.386 133.36L189.997 132.867L213.578 132.007L217.47 134.523C219.258 156.58 225.35 238.704 221.973 247.393Z" fill="black" fill-opacity="0.7"/>
<path d="M221.973 247.393L198.341 252.227L189.416 254.059C186.995 251.683 185.149 251.639 185.149 251.639L184.413 244.98L183.258 234.084L173.09 138.216C175.297 136.693 176.386 133.36 176.386 133.36L189.997 132.867L213.578 132.007L217.47 134.523C219.258 156.58 225.35 238.704 221.973 247.393Z" stroke="#263238" stroke-linecap="round" stroke-linejoin="round"/>
<path d="M186.4 219.17L194.288 219.155L194.295 221.62L192.102 222.4L187.048 222.952L186.4 219.17Z" fill="#B00037" stroke="#263238" stroke-linecap="round" stroke-linejoin="round"/>
<path d="M186.885 224.247L192.682 224.048L194.169 224.754L194.095 228.028L187.326 228.102L186.885 224.247Z" fill="#B00037" stroke="#263238" stroke-linecap="round" stroke-linejoin="round"/>
<path d="M187.812 229.478L194.434 229L194.36 231.479L191.16 232.612L187.775 232.421L187.812 229.478Z" fill="#B00037" stroke="#263238" stroke-linecap="round" stroke-linejoin="round"/>
<path d="M188.21 233.657L193.559 233.929L194.044 235.297L193.265 236.806L188.482 237.115L187.658 234.782L188.21 233.657Z" fill="#B00037" stroke="#263238" stroke-linecap="round" stroke-linejoin="round"/>
<path d="M194.375 238.447L195.111 240.588C195.228 240.815 195.289 241.067 195.289 241.323C195.289 241.579 195.228 241.832 195.111 242.059C194.974 242.215 194.799 242.334 194.603 242.404C194.407 242.473 194.197 242.491 193.992 242.456C193.58 242.42 193.176 242.28 192.764 242.258C191.52 242.206 190.38 243.229 189.158 242.993C188.68 241.669 187.474 239.727 189.107 239.131C189.409 239.035 194.551 238.932 194.375 238.447Z" fill="#B00037" stroke="#263238" stroke-linecap="round" stroke-linejoin="round"/>
<path d="M194.352 244.472C194.469 244.981 194.552 245.497 194.602 246.017C194.677 246.346 194.666 246.688 194.571 247.012C194.476 247.335 194.299 247.628 194.058 247.864C193.744 248.036 193.393 248.13 193.035 248.136L188.783 248.519C188.721 247.716 188.708 246.91 188.746 246.106C188.996 245.149 188.819 245.23 189.724 244.84C191.159 244.229 192.881 245.201 194.352 244.472Z" fill="#B00037" stroke="#263238" stroke-linecap="round" stroke-linejoin="round"/>
<path d="M178.887 140.394C178.887 140.394 180.491 155.896 180.564 158.964" stroke="#263238" stroke-linecap="round" stroke-linejoin="round"/>
<path d="M182.346 140.563L183.096 149.105" stroke="#263238" stroke-linecap="round" stroke-linejoin="round"/>
<path d="M194.33 137.333L195.301 147.347L196.662 147.479L196.221 137.429L194.33 137.333Z" fill="#B00037" stroke="#263238" stroke-linecap="round" stroke-linejoin="round"/>
<path opacity="0.2" d="M221.973 247.393C221.897 247.62 221.774 247.828 221.612 248.004C219.008 250.469 207.891 253.206 198.341 255.177V248.556L184.443 244.995L182.346 244.458L183.287 234.098L186.885 194.515L190.027 132.897L190.159 130.277L217.051 129.115C217.051 129.115 217.213 131.094 217.485 134.552C219.258 156.58 225.35 238.704 221.973 247.393Z" fill="black" fill-opacity="0.7"/>
<path d="M221.973 247.393C221.897 247.62 221.774 247.828 221.613 248.004C219.008 250.469 207.891 253.206 198.341 255.177C190.432 256.818 183.626 257.929 183.626 257.929C183.626 257.929 178.388 214.395 178.388 209.819C178.388 205.242 169.941 131.153 169.941 131.153L190.189 130.277L217.051 129.115C217.051 129.115 217.213 131.094 217.485 134.552C219.258 156.58 225.35 238.704 221.973 247.393Z" stroke="#263238" stroke-linecap="round" stroke-linejoin="round"/>
<path d="M236.225 346.181C236.394 344.629 233.951 322.358 233.907 319.937C233.79 313.316 231.913 304.627 231.913 304.627C229.294 297.931 227.256 282.503 220.267 272.607C213.277 262.711 213.284 251.072 212.122 241.191C210.959 231.31 211.246 232.163 211.541 223.393C211.753 216.805 211.46 210.211 210.665 203.668C210.084 197.841 208.921 187.592 210.665 182.817C212.409 178.042 216.97 176.931 221.966 181.713C226.962 186.496 229 206.103 229 208.524C229 210.944 229 218.508 230.751 221.421C230.751 221.421 240.647 216.359 240.647 214.962C240.647 213.564 240.352 201.21 241.809 200.548L235.989 181.713L247.026 177.792C249.103 179.655 250.897 181.811 252.352 184.193C253.598 186.164 254.641 188.257 255.465 190.439C260.122 202.792 267.604 211.408 269.149 214.962C270.694 218.515 269.149 246.738 269.149 251.984C269.149 257.23 265.765 281.414 265.853 285.483C265.919 288.426 267.906 299.373 269.885 307.768C270.621 311.006 275.087 334.461 275.771 336.322L236.225 346.181Z" fill="white"/>
<path opacity="0.4" d="M244.936 199.305C244.862 200.887 246.753 213.497 246.753 213.497C248.063 216.639 240.912 227.351 240.912 227.351C239.366 228.22 238.704 233.605 238.704 233.605C233.863 232.531 222.775 221.385 222.775 221.385C222.775 221.385 221.466 225.954 219.994 237.262C218.523 248.57 227.852 275.432 231.825 293.98C235.798 312.528 233.907 319.915 233.907 319.915C233.79 313.294 231.913 304.605 231.913 304.605C229.294 297.909 227.256 282.481 220.267 272.585C213.277 262.689 213.284 251.072 212.122 241.191C210.959 231.31 211.246 232.163 211.541 223.393C211.753 216.805 211.46 210.211 210.665 203.668C210.084 197.841 208.921 187.592 210.665 182.817C212.409 178.042 216.97 176.931 221.966 181.713C226.962 186.496 229 206.103 229 208.524C229 210.944 229 218.508 230.751 221.421C230.751 221.421 240.647 216.359 240.647 214.962C240.647 213.564 240.352 201.21 241.809 200.548L235.989 181.713L247.026 177.792C249.103 179.655 250.897 181.811 252.352 184.193C248.784 191.329 245.01 198.319 244.936 199.305Z" fill="#B00037"/>
<path opacity="0.4" d="M263.491 287.432C263.976 283.018 265.426 272.526 266.345 265.978C265.22 271.091 263.402 273.681 263.402 273.681C263.402 273.681 266.537 236.158 266.846 233.87C267.155 231.582 270.318 221.296 269.156 214.925C270.701 218.471 269.156 246.702 269.156 251.947C269.156 257.193 265.771 281.377 265.86 285.446C265.926 288.389 269.082 307.143 271.061 315.538C266.809 309.358 263.005 291.869 263.491 287.432Z" fill="#B00037"/>
<path d="M275.756 336.286C273.432 329.591 265.964 289.493 265.875 285.446C265.787 281.399 269.172 257.186 269.172 251.948C269.172 246.709 270.717 218.471 269.172 214.925C267.626 211.379 260.144 202.756 255.487 190.403C253.726 185.572 250.832 181.235 247.048 177.755L236.012 181.677L241.831 200.512C240.36 201.174 240.669 213.527 240.669 214.925C240.669 216.323 230.773 221.385 230.773 221.385C229.022 218.442 229.022 210.908 229.022 208.487C229.022 206.067 226.984 186.452 221.988 181.677C216.993 176.902 212.424 177.998 210.687 182.78C208.951 187.563 210.106 197.804 210.687 203.631C211.484 210.182 211.776 216.783 211.563 223.379C211.269 232.149 210.974 231.28 212.144 241.176C213.314 251.072 213.307 262.711 220.289 272.607C227.271 282.503 229.316 297.932 231.936 304.627C231.936 304.627 236.88 340.362 236.247 346.182" stroke="#263238" stroke-linecap="round" stroke-linejoin="round"/>
<path d="M230.75 221.385C230.75 221.385 232.494 229.529 236.423 233.605" stroke="#263238" stroke-linecap="round" stroke-linejoin="round"/>
<path d="M231.811 225.1C231.811 225.1 239.168 227.351 242.243 227.491" stroke="#263238" stroke-linecap="round" stroke-linejoin="round"/>
<path d="M240.646 214.925C240.646 214.925 245.885 212.504 249.233 213.961" stroke="#263238" stroke-linecap="round" stroke-linejoin="round"/>
<path d="M241.809 200.512C241.809 200.512 245.885 200.136 246.753 198.098" stroke="#263238" stroke-linecap="round" stroke-linejoin="round"/>
<path d="M221.613 274.682C221.613 274.682 229.442 284.401 231.767 289.345" stroke="#263238" stroke-linecap="round" stroke-linejoin="round"/>
<path d="M267.134 232.149C265.825 239.867 264.073 260.968 263.492 264.749" stroke="#263238" stroke-linecap="round" stroke-linejoin="round"/>
<path d="M269.636 217.595C269.856 224.585 268.164 228.22 268.164 228.22" stroke="#263238" stroke-linecap="round" stroke-linejoin="round"/>
<path d="M209.457 119.793L263.402 134.022C263.402 134.022 244.442 191.565 240.594 198.702L234.164 248.865C234.164 248.865 199.701 247.349 183.854 242.559C183.854 242.559 193.874 190.322 194.411 183.354C194.949 176.387 209.457 119.793 209.457 119.793Z" fill="#B00037"/>
<path opacity="0.2" d="M197.856 180.264L209.745 129.431C209.745 129.431 214.859 126.893 216.838 124.575L255.486 135.567C255.486 135.567 255.604 139.357 257.819 141.784L238.314 197.988L233.583 239.418C233.583 239.418 227.293 239.918 226.689 244.568C226.689 244.568 206.295 245.672 192.617 242.066C192.617 242.066 191.006 237.041 188.541 233.863L197.856 180.264Z" fill="black" fill-opacity="0.7"/>
<path d="M197.856 180.264L209.745 129.431C209.745 129.431 214.859 126.893 216.838 124.575L255.486 135.567C255.486 135.567 255.604 139.357 257.819 141.784L238.314 197.988L233.583 239.418C233.583 239.418 227.293 239.918 226.689 244.568C226.689 244.568 206.295 245.672 192.617 242.066C192.617 242.066 191.006 237.041 188.541 233.863L197.856 180.264Z" stroke="#263238" stroke-linecap="round" stroke-linejoin="round"/>
<path d="M207.752 182.905C207.752 182.905 211.261 169.662 223.622 172.038C235.982 174.415 229 190.734 229 190.734C229 190.734 229.074 203.903 219.046 202.086C210.349 200.512 205.714 195.737 207.752 182.905Z" fill="#B00037" stroke="#263238" stroke-linecap="round" stroke-linejoin="round"/>
<path d="M214.447 134.265C214.447 134.265 210.71 149.4 209.746 152.313" stroke="#263238" stroke-linecap="round" stroke-linejoin="round"/>
<path d="M217.647 135.575L215.469 143.874" stroke="#263238" stroke-linecap="round" stroke-linejoin="round"/>
<path d="M244.936 141.395L252.374 144.014L251.558 146.346H249.233L244.281 145.184L244.936 141.395Z" fill="#B00037" stroke="#263238" stroke-linecap="round" stroke-linejoin="round"/>
<path d="M243.7 146.346L249.233 148.09L250.395 149.252L249.233 152.313L242.824 150.128L243.7 146.346Z" fill="#B00037" stroke="#263238" stroke-linecap="round" stroke-linejoin="round"/>
<path d="M242.824 151.585L249.232 153.35L248.327 155.661H244.936L241.809 154.351L242.824 151.585Z" fill="#B00037" stroke="#263238" stroke-linecap="round" stroke-linejoin="round"/>
<path d="M241.81 155.661L246.754 157.699V159.148L245.518 160.318L240.912 159.008V156.529L241.81 155.661Z" fill="#B00037" stroke="#263238" stroke-linecap="round" stroke-linejoin="round"/>
<path d="M246.024 162.231V164.497C246.062 164.747 246.041 165.002 245.963 165.242C245.886 165.482 245.752 165.701 245.575 165.88C245.392 165.98 245.187 166.032 244.979 166.032C244.771 166.032 244.566 165.98 244.383 165.88C244.008 165.704 243.647 165.439 243.294 165.284C242.139 164.821 240.719 165.402 239.615 164.784C239.615 163.379 239.122 161.149 240.859 161.105C241.146 161.127 246.024 162.746 246.024 162.231Z" fill="#B00037" stroke="#263238" stroke-linecap="round" stroke-linejoin="round"/>
<path d="M243.986 167.903C243.931 168.422 243.837 168.936 243.707 169.441C243.545 170.096 243.229 170.824 242.574 171.001C242.221 171.059 241.859 171.029 241.522 170.913L237.387 169.824C237.587 169.05 237.832 168.288 238.122 167.543C238.682 166.726 238.49 166.741 239.469 166.675C241.058 166.609 242.353 168.102 243.986 167.903Z" fill="#B00037" stroke="#263238" stroke-linecap="round" stroke-linejoin="round"/>
<path d="M230.022 136.598L227.543 146.346L228.779 146.928L231.766 137.319L230.022 136.598Z" fill="#B00037" stroke="#263238" stroke-linecap="round" stroke-linejoin="round"/>
<path d="M198.952 202.064L206.589 204.043L205.971 206.427L203.654 206.633L198.621 205.89L198.952 202.064Z" fill="#B00037" stroke="#263238" stroke-linecap="round" stroke-linejoin="round"/>
<path d="M198.142 207.104L203.8 208.369L205.065 209.429L204.168 212.578L197.598 210.945L198.142 207.104Z" fill="#B00037" stroke="#263238" stroke-linecap="round" stroke-linejoin="round"/>
<path d="M197.723 212.401L204.257 213.608L203.55 215.984L200.173 216.279L196.943 215.241L197.723 212.401Z" fill="#B00037" stroke="#263238" stroke-linecap="round" stroke-linejoin="round"/>
<path d="M197.053 216.543L202.159 218.155L202.284 219.604L201.151 220.87L196.45 219.957L196.236 217.493L197.053 216.543Z" fill="#B00037" stroke="#263238" stroke-linecap="round" stroke-linejoin="round"/>
<path d="M201.814 222.731L202.013 224.99C202.073 225.236 202.075 225.493 202.017 225.739C201.96 225.986 201.845 226.216 201.682 226.41C201.509 226.525 201.309 226.594 201.102 226.61C200.895 226.627 200.687 226.591 200.497 226.505C200.107 226.366 199.762 226.13 199.357 226.013C198.172 225.645 196.804 226.344 195.678 225.821C195.546 224.423 194.876 222.246 196.598 222.076C196.863 222.062 201.858 223.246 201.814 222.731Z" fill="#B00037" stroke="#263238" stroke-linecap="round" stroke-linejoin="round"/>
<path d="M200.276 228.558C200.265 229.093 200.216 229.627 200.128 230.155C200.018 230.817 199.768 231.575 199.135 231.803C198.787 231.891 198.423 231.891 198.076 231.803L193.867 231.067C194.009 230.276 194.198 229.495 194.434 228.727C194.919 227.867 194.728 227.896 195.699 227.749C197.244 227.521 198.657 228.897 200.276 228.558Z" fill="#B00037" stroke="#263238" stroke-linecap="round" stroke-linejoin="round"/>
<path d="M230.75 235.702C230.75 235.702 232.501 216.176 232.501 214.211" stroke="#263238" stroke-linecap="round" stroke-linejoin="round"/>
<path d="M227.256 234.827C227.256 234.827 227.992 224.673 228.124 222.908" stroke="#263238" stroke-linecap="round" stroke-linejoin="round"/>
<path d="M213.608 227.491L211.246 239.05H213.608L215.322 227.491H213.608Z" fill="#B00037" stroke="#263238" stroke-linecap="round" stroke-linejoin="round"/>
<path opacity="0.2" d="M240.721 198.415C235.615 197.348 231.06 195.781 227.691 193.522C227.691 193.522 230.133 200.541 238.793 212.504L234.136 248.865C234.136 248.865 211.644 247.879 194.648 244.973C199.872 230.258 209.363 202.373 208.238 196.848C206.715 189.262 212.093 180.308 212.093 180.308C229.096 177.247 245.584 164.394 256.9 153.527C251.139 170.56 243.274 193.368 240.721 198.415Z" fill="black" fill-opacity="0.7"/>
<path d="M209.457 119.793L263.402 134.022C263.402 134.022 244.442 191.565 240.594 198.702L234.164 248.865C234.164 248.865 199.701 247.349 183.854 242.559C183.854 242.559 193.874 190.322 194.411 183.354C194.949 176.387 209.457 119.793 209.457 119.793Z" stroke="#263238" stroke-linecap="round" stroke-linejoin="round"/>
<path d="M239.366 234.341L231.766 289.345C230.074 285.747 225.461 279.611 223.077 276.543C222.194 275.396 221.606 274.682 221.606 274.682L220.259 272.607C213.277 262.711 213.277 251.072 212.115 241.176C210.952 231.28 211.239 232.149 211.533 223.378C211.747 216.796 211.457 210.206 210.665 203.668C210.084 197.841 208.921 187.592 210.665 182.817C211.519 180.477 213.056 179.02 214.984 178.711C216.912 178.402 219.398 179.285 221.966 181.713C226.962 186.488 229 206.103 229 208.524C229 210.944 229 218.508 230.751 221.421C230.751 221.385 235.445 230.265 239.366 234.341Z" fill="white"/>
<path opacity="0.4" d="M219.685 268.686C221.274 270.716 222.356 273.644 223.077 276.543C222.194 275.395 221.606 274.682 221.606 274.682L220.259 272.607C213.277 262.711 213.277 251.072 212.115 241.176C210.952 231.28 211.239 232.148 211.533 223.378C211.747 216.796 211.457 210.206 210.665 203.668C210.084 197.841 208.921 187.592 210.665 182.817C211.519 180.477 213.056 179.02 214.984 178.711C218.663 179.756 222.341 183.501 223.622 189.909C225.829 200.666 215.874 191.977 213.571 201.093C211.268 210.209 214.616 212.666 215.992 214.962C217.368 217.257 215.609 222.319 213.571 229.117C211.533 235.915 215.322 263.101 219.685 268.686Z" fill="#B00037"/>
<path d="M239.365 234.341C235.436 230.265 230.75 221.385 230.75 221.385C228.999 218.442 228.999 210.908 228.999 208.487C228.999 206.067 226.961 186.452 221.965 181.677C216.969 176.902 212.4 177.998 210.664 182.78C208.927 187.563 210.083 197.804 210.664 203.631C211.46 210.182 211.753 216.783 211.539 223.379C211.245 232.149 210.951 231.281 212.121 241.176C213.29 251.072 213.283 262.711 220.265 272.607L221.612 274.682C221.612 274.682 229.44 284.401 231.765 289.345" stroke="#263238" stroke-linecap="round" stroke-linejoin="round"/>
<path d="M213.607 211.062C213.607 211.062 220.281 207.611 223.621 207.906" stroke="#263238" stroke-linecap="round" stroke-linejoin="round"/>
<path opacity="0.2" d="M111.701 116.71C111.701 116.71 94.8227 98.1255 93.6603 96.9851C92.4978 95.8447 91.6223 76.0238 88.4144 67.2978C85.2066 58.5719 83.6542 7.33472 83.6542 7.33472C83.6542 7.33472 80.6008 3.553 71.9926 5.59101C63.3844 7.62902 54.9454 3.83994 45.344 9.37273C35.7425 14.9055 54.3642 94.0421 54.3642 94.0421L73.2655 154.277L111.701 116.71Z" fill="black" fill-opacity="0.7"/>
<path d="M123.295 116.85C123.295 116.85 115.731 165.166 107.844 171.567C103.29 175.246 96.1898 176.938 89.8919 176.718C85.3302 176.556 81.1806 175.408 78.738 173.326C72.9182 168.374 64.7589 165.755 60.6975 162.555C56.6362 159.354 56.6215 148.002 54.0023 138.393C51.383 128.784 47.5939 128.497 46.7258 118.896C45.8576 109.294 42.3555 79.9012 36.0281 71.7418C29.7007 63.5824 29.5535 57.1887 26.9343 48.8896C24.315 40.5904 5.15625 10.5647 5.15625 10.5647L51.8613 1C51.8613 1 56.4523 20.0043 61.3671 35.5064C63.6994 42.8638 66.1053 49.4414 68.1212 52.8111C71.9921 59.329 75.3452 66.1408 78.1494 73.1838C83.432 78.7166 86.3235 90.9741 87.199 101.709L99.7067 108.683C109.323 111.31 123.295 116.85 123.295 116.85Z" fill="white"/>
<path opacity="0.4" d="M123.295 116.85C123.295 116.85 115.732 165.166 107.845 171.567C103.29 175.246 96.1905 176.938 89.8925 176.718C74.9569 173.039 70.9398 164.71 68.9165 162.694C66.2237 160.009 62.6847 143.646 64.6271 134.125C66.5695 124.605 65.1715 121.081 63.5676 116.431C60.014 106.13 70.8515 100.583 71.9698 96.6834C73.0881 92.7839 72.7056 70.9765 67.8276 63.8839C65.2378 60.1096 58.5646 40.6565 61.3751 35.521C63.7074 42.8784 66.1133 49.456 68.1292 52.8257C72.0002 59.3436 75.3532 66.1555 78.1574 73.1984C83.4401 78.7312 86.3315 90.9887 87.2071 101.723L99.7147 108.698C109.324 111.31 123.295 116.85 123.295 116.85Z" fill="#B00037"/>
<path d="M66.2597 113.451C66.2597 113.451 63.6257 116.549 61.3008 116.549" stroke="#263238" stroke-linecap="round" stroke-linejoin="round"/>
<path d="M71.9922 123.921C71.9922 123.921 69.1596 129.939 64.6348 131.278" stroke="#263238" stroke-linecap="round" stroke-linejoin="round"/>
<path d="M66.959 159.192C66.959 159.192 73.3673 156.426 74.3826 151.769" stroke="#263238" stroke-linecap="round" stroke-linejoin="round"/>
<path d="M99.7231 108.691C99.7231 108.691 98.1191 110.729 98.1191 112.37" stroke="#263238" stroke-linecap="round" stroke-linejoin="round"/>
<path d="M51.8907 1C51.8907 1 61.8821 42.3267 68.1506 52.8405C72.0216 59.3584 75.3746 66.1703 78.1788 73.2132C83.4615 78.746 86.3529 91.0109 87.2285 101.745L99.7361 108.72C109.338 111.339 123.28 116.872 123.28 116.872C123.28 116.872 115.716 165.189 107.829 171.59C99.9421 177.991 84.6166 178.255 78.7306 173.311C72.8447 168.367 64.7515 165.74 60.6902 162.54C56.6289 159.339 56.6142 147.987 53.9949 138.378C51.3757 128.769 47.5866 128.482 46.7184 118.881C45.8502 109.279 42.3481 79.8864 36.0207 71.727C29.6933 63.5676 29.5462 57.174 26.9269 48.8748C24.3077 40.5757 5.15625 10.5647 5.15625 10.5647" stroke="#263238" stroke-linecap="round" stroke-linejoin="round"/>
<path d="M140.99 113.716L63.7441 232.62L81.9759 234.65L137.37 236.953L143.043 131.19L140.99 113.716Z" fill="#263238" stroke="#263238" stroke-linecap="round" stroke-linejoin="round"/>
<path d="M140.99 113.708L133.853 234.922L63.7441 232.619L69.2769 139.739L70.9986 110.898L101.547 112.127L140.99 113.708Z" fill="#757575"/>
<path d="M123.363 220.966C128.076 220.966 131.897 217.144 131.897 212.431C131.897 207.717 128.076 203.896 123.363 203.896C118.649 203.896 114.828 207.717 114.828 212.431C114.828 217.144 118.649 220.966 123.363 220.966Z" fill="#BFBFBF" stroke="#263238" stroke-miterlimit="10"/>
<path d="M120.957 206.766L126.74 207.523" stroke="#263238" stroke-linecap="round" stroke-linejoin="round"/>
<path d="M119.404 208.171L128.093 209.017" stroke="#263238" stroke-linecap="round" stroke-linejoin="round"/>
<path d="M118.441 216.735L127.138 217.581" stroke="#263238" stroke-linecap="round" stroke-linejoin="round"/>
<path d="M122.244 210.106C122.483 210.165 122.736 210.131 122.95 210.009C123.163 209.887 123.322 209.687 123.392 209.451L124.04 209.517L123.385 215.661L122.421 215.558L122.921 210.871L122.186 210.79L122.244 210.106Z" fill="#263238"/>
<path d="M125.459 210.363C125.842 210.363 126.018 210.65 125.974 211.055V211.129L125.599 211.092V211.026C125.599 210.849 125.555 210.768 125.43 210.753C125.305 210.739 125.224 210.805 125.209 210.981C125.194 211.158 125.253 211.313 125.489 211.563C125.608 211.664 125.702 211.792 125.762 211.937C125.822 212.081 125.847 212.238 125.834 212.394C125.79 212.799 125.57 213.005 125.18 212.961C124.79 212.916 124.62 212.666 124.657 212.269V212.114L125.025 212.151V212.335C125.025 212.512 125.077 212.585 125.202 212.6C125.327 212.615 125.415 212.556 125.43 212.379C125.445 212.203 125.386 212.048 125.15 211.798C125.031 211.697 124.937 211.569 124.877 211.424C124.817 211.28 124.792 211.123 124.804 210.967C124.856 210.525 125.084 210.29 125.459 210.363Z" fill="#263238"/>
<path d="M126.152 210.466L127.373 210.591L127.329 210.952L126.917 210.908L126.689 213.056L126.299 213.019L126.527 210.864L126.115 210.819L126.152 210.466Z" fill="#263238"/>
<path d="M105.469 119.09L91.7823 116.103C91.429 116.026 91.0801 116.25 91.003 116.603L89.141 125.136C89.0639 125.489 89.2879 125.838 89.6412 125.915L103.328 128.902C103.681 128.979 104.03 128.755 104.107 128.401L105.969 119.869C106.046 119.516 105.822 119.167 105.469 119.09Z" fill="white" stroke="#263238" stroke-linecap="round" stroke-linejoin="round"/>
<path d="M96.2065 124.399C96.2032 124.34 96.1882 124.283 96.1624 124.23C96.1552 124.201 96.1552 124.171 96.1624 124.142C96.1736 124.119 96.1917 124.101 96.2138 124.09C96.4125 123.914 96.1697 123.678 95.9784 123.634C95.9123 123.617 95.843 123.618 95.7773 123.636C95.7116 123.654 95.6516 123.689 95.6032 123.737L95.7577 123.163L96.4346 123.31L96.5082 122.957L95.4928 122.736C95.4714 122.786 95.4565 122.838 95.4487 122.891C95.4487 122.942 95.5149 122.957 95.5149 123.016C95.5149 123.075 95.5149 123.067 95.5149 123.097C95.5283 123.14 95.5571 123.177 95.5958 123.2C95.6326 123.2 95.6694 123.266 95.662 123.31C95.6671 123.324 95.6671 123.34 95.662 123.354C95.6342 123.422 95.5851 123.479 95.5223 123.516C95.4933 123.522 95.4672 123.537 95.4487 123.56V123.605C95.4487 123.656 95.3898 123.685 95.3457 123.715C95.3015 123.744 95.1912 123.98 95.147 124.142L95.5149 124.223V124.149C95.5517 123.972 95.6473 123.928 95.765 123.95C95.8828 123.972 95.9563 124.061 95.9122 124.237L95.7945 124.782C95.7945 124.951 95.6694 125.002 95.5443 124.973C95.4193 124.944 95.3604 124.87 95.3972 124.693L95.4487 124.465L95.0808 124.384L95.0367 124.59C95.0082 124.67 94.997 124.755 95.004 124.84C95.0109 124.924 95.0358 125.006 95.077 125.08C95.1182 125.154 95.1747 125.219 95.2428 125.269C95.3108 125.32 95.3889 125.355 95.4718 125.373C95.5546 125.391 95.6404 125.391 95.7232 125.373C95.8061 125.356 95.8842 125.32 95.9524 125.27C96.0205 125.219 96.0771 125.155 96.1184 125.081C96.1597 125.007 96.1847 124.925 96.1918 124.841C96.2179 124.695 96.2229 124.546 96.2065 124.399Z" fill="#263238"/>
<path d="M101.012 125.429C101.005 125.371 100.99 125.314 100.967 125.26C100.96 125.231 100.96 125.201 100.967 125.172C100.979 125.149 100.997 125.131 101.019 125.12C101.21 124.944 100.967 124.708 100.783 124.664C100.717 124.648 100.648 124.648 100.582 124.666C100.517 124.684 100.457 124.719 100.408 124.767L100.563 124.193L101.24 124.34L101.313 123.987L100.298 123.766C100.273 123.814 100.258 123.867 100.254 123.921C100.254 123.972 100.313 123.987 100.32 124.046C100.327 124.105 100.32 124.097 100.32 124.127C100.333 124.17 100.362 124.207 100.401 124.23C100.438 124.23 100.474 124.296 100.467 124.34C100.46 124.384 100.467 124.34 100.467 124.384C100.439 124.454 100.387 124.512 100.32 124.546C100.294 124.554 100.271 124.569 100.254 124.59C100.254 124.59 100.254 124.59 100.254 124.635C100.254 124.679 100.202 124.715 100.158 124.745C100.114 124.774 100.004 125.01 99.9594 125.172L100.327 125.253V125.179C100.364 125.002 100.46 124.958 100.577 124.98C100.695 125.002 100.761 125.091 100.725 125.267L100.607 125.812C100.607 125.981 100.482 126.032 100.357 126.003C100.232 125.974 100.173 125.9 100.21 125.723L100.261 125.495L99.8932 125.414L99.849 125.62C99.8268 125.698 99.8207 125.779 99.8311 125.859C99.8415 125.939 99.8681 126.016 99.9094 126.085C99.9507 126.154 100.006 126.214 100.071 126.261C100.136 126.308 100.211 126.341 100.289 126.358C100.368 126.375 100.449 126.376 100.528 126.36C100.607 126.345 100.682 126.313 100.749 126.268C100.815 126.222 100.871 126.163 100.914 126.095C100.957 126.027 100.985 125.95 100.997 125.871C101.026 125.725 101.031 125.576 101.012 125.429Z" fill="#263238"/>
<path d="M98.8552 124.885H98.892C98.892 124.848 98.892 124.811 98.892 124.76H99.0538L99.1789 124.193C99.2072 124.113 99.218 124.027 99.2107 123.942C99.2034 123.857 99.1782 123.774 99.1366 123.7C99.0951 123.625 99.0382 123.56 98.9697 123.509C98.9012 123.458 98.8227 123.423 98.7393 123.404C98.656 123.386 98.5696 123.385 98.4861 123.403C98.4025 123.42 98.3237 123.455 98.2546 123.506C98.1856 123.556 98.128 123.62 98.0857 123.694C98.0434 123.768 98.0173 123.851 98.0091 123.936V124.039C98.0606 124.083 98.09 124.156 98.1415 124.193C98.193 124.23 98.274 124.193 98.2519 124.318C98.2298 124.443 98.2077 124.421 98.2519 124.458C98.296 124.495 98.3034 124.458 98.3107 124.51C98.3197 124.521 98.3245 124.535 98.3245 124.55C98.3245 124.565 98.3197 124.579 98.3107 124.59C98.3107 124.59 98.2592 124.59 98.2519 124.657C98.2445 124.723 98.2519 124.767 98.2077 124.782C98.1636 124.796 98.0679 124.693 97.987 124.701C97.958 124.709 97.9318 124.725 97.9111 124.747C97.8904 124.769 97.876 124.796 97.8693 124.826C97.8318 124.951 97.8047 125.079 97.7884 125.208C97.7615 125.286 97.7522 125.369 97.7611 125.451C97.7699 125.533 97.7968 125.612 97.8396 125.682C97.8825 125.752 97.9404 125.812 98.0091 125.858C98.0778 125.903 98.1557 125.932 98.2372 125.944C98.3208 125.967 98.4083 125.97 98.4935 125.955C98.5787 125.94 98.6595 125.906 98.7301 125.856C98.7953 125.8 98.8501 125.732 98.892 125.657C98.9251 125.62 98.9434 125.571 98.9434 125.521C98.9434 125.471 98.9251 125.423 98.892 125.385H98.8552L98.8037 125.208C98.8037 125.208 98.8037 125.208 98.8552 125.164C98.9067 125.12 98.8552 125.025 98.9288 124.973C99.0023 124.922 98.8405 124.899 98.8552 124.885ZM98.5462 125.385C98.5094 125.562 98.4138 125.613 98.2887 125.584C98.1636 125.554 98.1047 125.473 98.1415 125.297L98.4358 123.972C98.4726 123.796 98.5609 123.744 98.686 123.774C98.811 123.803 98.8699 123.884 98.8331 124.061L98.5462 125.385Z" fill="#263238"/>
<path d="M99.5109 125.797L99.4299 126.172L99.0547 126.091L99.1356 125.716L99.5109 125.797Z" fill="#263238"/>
<path d="M102.585 125.142C102.629 125.142 102.629 124.973 102.644 124.914C102.672 124.834 102.683 124.748 102.676 124.663C102.668 124.578 102.643 124.495 102.601 124.421C102.56 124.346 102.503 124.281 102.435 124.23C102.366 124.179 102.287 124.144 102.204 124.125C102.121 124.107 102.034 124.106 101.951 124.124C101.867 124.141 101.788 124.176 101.719 124.227C101.65 124.277 101.593 124.341 101.551 124.415C101.508 124.489 101.482 124.572 101.474 124.657L101.364 125.15C101.459 125.238 101.364 125.378 101.408 125.481C101.452 125.584 101.408 125.481 101.408 125.525C101.408 125.569 101.297 125.591 101.297 125.65C101.297 125.709 101.297 125.65 101.297 125.65C101.297 125.65 101.238 125.738 101.202 125.782C101.178 125.817 101.166 125.858 101.165 125.9C101.137 125.981 101.126 126.066 101.133 126.151C101.14 126.236 101.166 126.319 101.207 126.393C101.249 126.468 101.306 126.533 101.374 126.584C101.443 126.635 101.521 126.671 101.604 126.689C101.688 126.707 101.774 126.708 101.858 126.69C101.941 126.673 102.02 126.638 102.089 126.588C102.158 126.537 102.216 126.473 102.258 126.399C102.3 126.325 102.327 126.242 102.335 126.158L102.423 125.753C102.423 125.65 102.555 125.378 102.423 125.297C102.291 125.216 102.364 125.297 102.349 125.245C102.34 125.228 102.336 125.209 102.336 125.19C102.336 125.171 102.34 125.152 102.349 125.135C102.438 125.061 102.504 125.186 102.585 125.142ZM102.136 125.79C102.136 125.834 102.062 125.848 102.026 125.907C101.997 125.98 101.98 126.057 101.974 126.135C101.937 126.312 101.842 126.356 101.724 126.334C101.606 126.312 101.533 126.224 101.577 126.047C101.577 125.996 101.643 125.848 101.628 125.804C101.614 125.76 101.555 125.804 101.525 125.716C101.503 125.639 101.503 125.558 101.525 125.481C101.529 125.464 101.529 125.446 101.525 125.429C101.525 125.429 101.489 125.363 101.525 125.333C101.562 125.304 101.525 125.333 101.525 125.333C101.525 125.333 101.525 125.238 101.525 125.172C101.525 125.105 101.525 125.172 101.525 125.172C101.761 125.26 101.753 124.899 101.79 124.752C101.827 124.605 101.923 124.524 102.04 124.554C102.158 124.583 102.224 124.664 102.188 124.833C102.138 124.983 102.108 125.139 102.099 125.297C102.13 125.301 102.158 125.316 102.18 125.339C102.201 125.362 102.214 125.391 102.217 125.422C102.21 125.461 102.21 125.501 102.217 125.539C102.217 125.539 102.217 125.606 102.217 125.635C102.217 125.665 102.173 125.635 102.143 125.635C102.123 125.643 102.105 125.656 102.091 125.673C102.077 125.689 102.067 125.709 102.062 125.731L102.136 125.79Z" fill="#263238"/>
<path d="M98.4727 119.793L100.959 120.338" stroke="#263238" stroke-linecap="round" stroke-linejoin="round"/>
<path d="M92.8223 118.557L97.2367 119.529" stroke="#263238" stroke-linecap="round" stroke-linejoin="round"/>
<path d="M92.4551 120.264L95.3686 120.897" stroke="#263238" stroke-linecap="round" stroke-linejoin="round"/>
<path opacity="0.4" d="M66.9609 231.545C70.8272 230.534 74.8029 230 78.7991 229.956C85.9799 229.78 90.571 231.141 96.4569 228.227C102.343 225.314 106.161 230.56 111.79 227.646C117.418 224.732 120.03 220.068 123.282 220.171C126.534 220.274 131.375 168.161 132.935 159.192C134.495 150.224 137.813 125.223 138.953 120.146L132.545 233.135L66.9609 231.545Z" fill="white"/>
<path d="M67.2697 209.311L85.2145 231.141L66.2617 229.964L67.2697 209.311Z" fill="#B00037" stroke="#263238" stroke-linecap="round" stroke-linejoin="round"/>
<path d="M114.895 166.145L114.608 174.452C114.568 175.611 114.3 176.75 113.82 177.806C113.339 178.861 112.655 179.812 111.808 180.603C110.96 181.394 109.964 182.011 108.878 182.417C107.792 182.823 106.636 183.012 105.477 182.972L96.9426 182.67C95.7804 182.63 94.6375 182.361 93.5795 181.878C92.5216 181.395 91.5694 180.708 90.7778 179.857C89.9861 179.005 89.3705 178.005 88.9664 176.914C88.5622 175.824 88.3774 174.665 88.4227 173.503L88.8053 162.687C88.8878 160.348 89.8959 158.137 91.6081 156.54C93.3203 154.944 95.5964 154.093 97.9359 154.175L106.47 154.469C106.706 154.469 106.941 154.469 107.206 154.52C106.012 155.669 105.258 157.2 105.076 158.847C104.894 160.494 105.294 162.153 106.208 163.535C107.123 164.917 108.492 165.935 110.079 166.412C111.666 166.889 113.37 166.795 114.895 166.145Z" fill="#B00037" stroke="#263238" stroke-linecap="round" stroke-linejoin="round"/>
<path d="M116.432 158.972C116.405 159.77 116.142 160.543 115.676 161.192C115.21 161.841 114.562 162.338 113.814 162.618C113.066 162.899 112.252 162.952 111.474 162.77C110.696 162.588 109.989 162.179 109.444 161.595C108.898 161.011 108.538 160.279 108.409 159.491C108.279 158.702 108.387 157.893 108.717 157.166C109.048 156.438 109.587 155.825 110.266 155.404C110.945 154.983 111.734 154.773 112.532 154.8C113.602 154.838 114.613 155.299 115.343 156.081C116.074 156.862 116.465 157.902 116.432 158.972Z" fill="#B00037" stroke="#263238" stroke-linecap="round" stroke-linejoin="round"/>
<path opacity="0.4" d="M90.8496 174.533L103.394 163.805C103.394 163.805 101.805 158.059 103.394 156.242H97.3683C95.9171 156.237 94.5189 156.787 93.4592 157.778C92.3994 158.769 91.7581 160.128 91.6663 161.576L90.8496 174.533Z" fill="white"/>
<path opacity="0.4" d="M110.686 159.192L113.371 156.249C113.371 156.249 111.701 155.124 110.686 156.249C109.67 157.375 110.686 159.192 110.686 159.192Z" fill="white"/>
<path d="M109.377 223.283L129.603 224.158" stroke="#263238" stroke-linecap="round" stroke-linejoin="round"/>
<path d="M102.371 225.321L129.601 226.778" stroke="#263238" stroke-linecap="round" stroke-linejoin="round"/>
<path d="M122.473 231.141H129.602" stroke="#263238" stroke-linecap="round" stroke-linejoin="round"/>
<path opacity="0.2" d="M97.6844 156.853C87.2516 161.871 75.9505 144.294 71.9922 141.873C71.0164 141.257 70.1066 140.542 69.2773 139.739L70.999 110.898L101.54 112.127C101.341 116.424 101.407 121.169 102.364 123.899C104.424 129.851 108.11 151.842 97.6844 156.853Z" fill="black" fill-opacity="0.7"/>
<path opacity="0.4" d="M85.9941 157.75C85.9941 157.75 94.3375 161.37 98.1192 159.222C101.901 157.073 105.977 152.968 106.558 143.852C106.558 143.852 111.524 156.691 101.511 160.539C91.4975 164.387 85.9941 157.75 85.9941 157.75Z" fill="white"/>
<path opacity="0.4" d="M82.7422 162.886C82.7422 162.886 99.6643 167.433 106.904 159.207C106.904 159.207 105.933 163.776 98.1192 165.093C90.3056 166.41 82.7422 162.886 82.7422 162.886Z" fill="white"/>
<path opacity="0.4" d="M109.958 133.493C108.67 131.205 110.252 151.769 110.252 151.769C110.252 151.769 112.577 138.187 109.958 133.493Z" fill="white"/>
<path d="M140.99 113.708L133.853 234.922L63.7441 232.619L69.2769 139.739L70.9986 110.898L101.547 112.127L140.99 113.708Z" stroke="#263238" stroke-linecap="round" stroke-linejoin="round"/>
<path opacity="0.4" d="M137.444 235.57L134.891 234.922L140.99 123.921L142.071 131.249L137.444 235.57Z" fill="white"/>
<path d="M97.6833 156.853C96.7185 157.365 95.6457 157.641 94.5532 157.658C93.4608 157.675 92.38 157.431 91.4001 156.948C89.704 156.058 88.3356 154.651 87.4933 152.931C84.5871 147.693 76.722 135.759 75.2726 132.33C73.8231 128.902 70.6153 119.205 67.4148 115.136C64.2143 111.067 62.4633 104.946 62.4633 104.946L61.3008 45.5713C63.0445 54.1574 67.8489 63.906 67.8489 63.906C72.023 66.078 75.5697 69.2852 78.1493 73.2205C78.9002 74.0202 79.5728 74.8899 80.1579 75.8177C84.9108 83.1752 87.2137 96.4185 87.4638 106.719C87.7581 118.366 91.5399 123.641 97.6539 133.787C103.768 143.933 101.656 154.594 97.6833 156.853Z" fill="white"/>
<path opacity="0.4" d="M97.6835 156.853C96.7148 157.353 95.6433 157.622 94.5531 157.639C93.4629 157.655 92.3837 157.419 91.4002 156.948C94.7405 156.036 99.1256 154.322 98.1176 151.798C96.5357 147.766 91.9079 153.748 89.583 151.798C87.258 149.848 78.8117 138.665 84.1752 133.743C89.5388 128.821 87.8539 120.566 84.1752 118.241C80.4965 115.916 82.8877 110.376 84.0502 101.657C84.7859 96.3819 82.2623 84.4335 80.1875 75.8105C84.9404 83.168 87.2433 96.4114 87.4934 106.712C87.7877 118.359 91.5695 123.634 97.6835 133.78C103.798 143.926 101.657 154.734 97.6835 156.853Z" fill="#B00037"/>
<path d="M61.3008 45.5347C63.0445 54.1208 67.8489 63.8694 67.8489 63.8694C72.023 66.0414 75.5697 69.2486 78.1493 73.1839C84.2634 79.5849 87.1769 95.0134 87.4638 106.653C87.7508 118.292 91.5399 123.575 97.6539 133.721C103.768 143.867 102.068 154.447 97.6539 156.853C94.5785 158.538 90.3774 158.17 87.4638 152.931C84.5503 147.693 76.6925 135.759 75.2431 132.33C73.7937 128.902 70.5859 119.205 67.3854 115.136C64.1849 111.067 62.4338 104.946 62.4338 104.946" stroke="#263238" stroke-linecap="round" stroke-linejoin="round"/>
<path d="M80.2031 131.249C80.2031 131.249 84.956 130.822 87.1338 129.042" stroke="#263238" stroke-linecap="round" stroke-linejoin="round"/>
<path d="M60.7212 106.116C60.7212 106.116 59.7941 108.323 64.65 110.53" stroke="#263238" stroke-linecap="round" stroke-linejoin="round"/>
</svg>
