<svg width="309" height="300" viewBox="0 0 309 300" fill="none" xmlns="http://www.w3.org/2000/svg">
<path d="M231.839 225C274.454 183.579 274.454 116.421 231.839 75C189.224 33.5786 120.131 33.5786 77.5159 75C34.9008 116.421 34.9008 183.579 77.5159 225C120.131 266.421 189.224 266.421 231.839 225Z" fill="white" stroke="#263238" stroke-miterlimit="10"/>
<path d="M154.679 256.066H154.782V43.9341H154.679C125.738 43.9341 97.9819 55.1089 77.5174 75.0001C57.053 94.8913 45.5562 121.87 45.5562 150C45.5562 178.131 57.053 205.109 77.5174 225C97.9819 244.891 125.738 256.066 154.679 256.066Z" fill="#808080" stroke="#263238" stroke-miterlimit="10"/>
<path d="M201.821 158.261C201.821 158.261 199.993 152.499 195.381 152.002C190.769 151.504 188.43 154.003 188.174 156.259C187.918 158.516 186.626 159.013 184.567 158.261C182.508 157.509 179.693 159.511 179.693 161.518C179.693 163.526 179.181 165.018 176.604 163.768C174.027 162.519 173.253 163.52 172.741 164.769L172.224 166.025H210.35C210.35 166.025 211.38 161.518 208.523 160.511C205.665 159.505 203.198 161.447 201.821 158.261Z" fill="white" stroke="#263238" stroke-miterlimit="10"/>
<path d="M188.174 156.259C187.79 158.912 189.965 161.891 192.847 161.879C193.431 161.891 194.006 161.739 194.504 161.441C195.978 160.505 196.118 158.066 194.906 156.858C193.694 155.649 191.415 156.721 191.799 158.397C191.853 158.618 191.962 158.823 192.116 158.995C192.27 159.166 192.464 159.298 192.682 159.38" stroke="#263238" stroke-miterlimit="10" stroke-linecap="round"/>
<path d="M179.686 161.79C179.443 163.454 180.807 165.344 182.611 165.344C182.978 165.35 183.339 165.256 183.653 165.071C183.869 164.902 184.048 164.693 184.178 164.455C184.308 164.217 184.388 163.956 184.411 163.687C184.434 163.419 184.401 163.148 184.314 162.892C184.226 162.637 184.086 162.401 183.902 162.199C183.165 161.465 181.715 162.11 181.959 163.158C181.996 163.293 182.065 163.417 182.162 163.52C182.258 163.623 182.379 163.702 182.513 163.751" stroke="#263238" stroke-miterlimit="10" stroke-linecap="round"/>
<path d="M194.041 161.79C193.803 163.454 195.162 165.344 196.971 165.344C197.336 165.35 197.695 165.255 198.007 165.071C198.223 164.902 198.402 164.693 198.532 164.455C198.663 164.217 198.742 163.956 198.765 163.687C198.788 163.419 198.755 163.148 198.668 162.892C198.581 162.637 198.441 162.401 198.257 162.199C197.519 161.465 196.069 162.11 196.313 163.158C196.35 163.293 196.42 163.417 196.516 163.52C196.613 163.623 196.733 163.702 196.868 163.751" stroke="#263238" stroke-miterlimit="10" stroke-linecap="round"/>
<path d="M236.072 117.691C236.072 117.691 232.862 107.434 224.613 106.516C216.363 105.598 212.22 110.069 211.763 114.096C211.307 118.123 209.01 119.005 205.336 117.649C201.662 116.293 196.587 119.923 196.587 123.488C196.587 127.053 195.667 129.736 191.104 127.503C186.541 125.27 185.133 127.059 184.219 129.28L183.299 131.506H251.218C251.218 131.506 253.046 123.476 248.008 121.694C242.969 119.911 238.522 123.37 236.072 117.691Z" fill="white" stroke="#263238" stroke-miterlimit="10"/>
<path d="M211.752 114.12C211.07 118.857 214.945 124.187 220.081 124.139C221.12 124.158 222.142 123.888 223.03 123.364C225.662 121.694 225.911 117.341 223.749 115.191C221.586 113.042 217.528 114.943 218.217 117.933C218.309 118.333 218.501 118.704 218.776 119.014C219.052 119.324 219.401 119.563 219.794 119.71" stroke="#263238" stroke-miterlimit="10" stroke-linecap="round"/>
<path d="M196.63 123.979C196.204 126.94 198.635 130.268 201.845 130.257C202.49 130.267 203.124 130.099 203.673 129.771C205.324 128.723 205.501 125.999 204.124 124.655C202.747 123.31 200.225 124.495 200.657 126.372C200.717 126.619 200.838 126.848 201.01 127.039C201.182 127.23 201.4 127.377 201.644 127.467" stroke="#263238" stroke-miterlimit="10" stroke-linecap="round"/>
<path d="M222.206 123.979C221.779 126.94 224.21 130.268 227.421 130.257C228.065 130.265 228.699 130.097 229.249 129.771C230.894 128.723 231.077 125.999 229.694 124.655C228.311 123.31 225.8 124.495 226.233 126.372C226.293 126.619 226.414 126.848 226.586 127.039C226.758 127.23 226.976 127.377 227.22 127.467" stroke="#263238" stroke-miterlimit="10" stroke-linecap="round"/>
<path d="M249.232 176.654C249.232 176.654 248.105 173.06 245.211 172.746C242.317 172.432 240.874 173.995 240.709 175.405C240.545 176.814 239.746 177.122 238.461 176.654C237.175 176.186 235.415 177.436 235.415 178.685C235.415 179.935 235.092 180.877 233.483 180.095C231.875 179.313 231.394 179.935 231.046 180.717L230.729 181.498H254.527C254.527 181.498 255.173 178.685 253.406 178.064C251.639 177.442 250.091 178.644 249.232 176.654Z" fill="white" stroke="#263238" stroke-miterlimit="10"/>
<path d="M240.709 175.405C240.472 177.063 241.83 178.922 243.627 178.916C243.992 178.92 244.35 178.826 244.663 178.644C244.879 178.475 245.056 178.266 245.186 178.029C245.316 177.791 245.395 177.531 245.418 177.263C245.442 176.995 245.409 176.725 245.322 176.47C245.235 176.215 245.096 175.979 244.913 175.778C244.74 175.617 244.521 175.513 244.284 175.479C244.048 175.445 243.807 175.483 243.594 175.589C243.381 175.694 243.207 175.861 243.096 176.067C242.986 176.273 242.943 176.507 242.976 176.737C243.013 176.871 243.083 176.995 243.18 177.098C243.276 177.201 243.396 177.28 243.53 177.329" stroke="#263238" stroke-miterlimit="10" stroke-linecap="round"/>
<path d="M235.415 178.857C235.379 179.12 235.398 179.387 235.471 179.642C235.545 179.897 235.671 180.135 235.842 180.341C236.013 180.547 236.225 180.717 236.466 180.841C236.707 180.965 236.972 181.039 237.243 181.06C237.471 181.061 237.694 181.001 237.889 180.888C238.021 180.783 238.131 180.653 238.211 180.506C238.291 180.359 238.34 180.198 238.354 180.033C238.369 179.867 238.35 179.7 238.297 179.542C238.244 179.384 238.159 179.238 238.047 179.112C237.941 179.009 237.803 178.941 237.655 178.918C237.506 178.895 237.354 178.917 237.219 178.983C237.085 179.048 236.975 179.153 236.905 179.282C236.835 179.412 236.808 179.559 236.829 179.704C236.848 179.79 236.89 179.87 236.949 179.936C237.009 180.002 237.085 180.053 237.17 180.083" stroke="#263238" stroke-miterlimit="10" stroke-linecap="round"/>
<path d="M244.377 178.857C244.341 179.12 244.36 179.387 244.433 179.642C244.506 179.897 244.632 180.135 244.804 180.341C244.975 180.547 245.187 180.717 245.428 180.841C245.669 180.965 245.933 181.039 246.205 181.06C246.432 181.061 246.656 181.001 246.851 180.888C246.983 180.783 247.093 180.653 247.173 180.506C247.253 180.359 247.301 180.198 247.316 180.033C247.331 179.867 247.311 179.7 247.259 179.542C247.206 179.384 247.121 179.238 247.009 179.112C246.903 179.009 246.765 178.941 246.617 178.918C246.468 178.895 246.316 178.917 246.181 178.983C246.047 179.048 245.937 179.153 245.867 179.282C245.797 179.412 245.77 179.559 245.791 179.704C245.81 179.79 245.852 179.87 245.911 179.936C245.971 180.002 246.047 180.053 246.132 180.083" stroke="#263238" stroke-miterlimit="10" stroke-linecap="round"/>
<path d="M198.975 60.5981C198.975 60.5981 197.848 57.0035 194.954 56.6956C192.06 56.3877 190.61 57.9451 190.452 59.3486C190.293 60.752 189.489 61.0718 188.197 60.5981C186.906 60.1243 185.151 61.3798 185.151 62.6352C185.151 63.8906 184.828 64.8203 183.22 64.0387C181.611 63.257 181.13 63.8847 180.783 64.6664L180.46 65.4481H204.263C204.263 65.4481 204.909 62.6352 203.136 62.0075C201.363 61.3798 199.834 62.5937 198.975 60.5981Z" fill="white" stroke="#263238" stroke-miterlimit="10"/>
<path d="M190.452 59.3486C190.214 61.0067 191.573 62.8662 193.37 62.8603C193.735 62.8664 194.094 62.7719 194.406 62.5879C194.622 62.4202 194.8 62.2116 194.93 61.9747C195.061 61.7378 195.14 61.4776 195.163 61.2099C195.187 60.9423 195.154 60.6729 195.066 60.418C194.979 60.1632 194.839 59.9283 194.656 59.7276C194.484 59.5632 194.264 59.4554 194.026 59.4194C193.789 59.3835 193.545 59.4214 193.331 59.5276C193.116 59.6338 192.942 59.8029 192.832 60.011C192.722 60.2192 192.682 60.4557 192.718 60.687C192.755 60.8216 192.825 60.9456 192.921 61.0487C193.018 61.1517 193.138 61.2308 193.273 61.2792" stroke="#263238" stroke-miterlimit="10" stroke-linecap="round"/>
<path d="M185.153 62.8069C185.118 63.0688 185.138 63.3348 185.212 63.5889C185.286 63.843 185.413 64.0798 185.583 64.2851C185.754 64.4905 185.966 64.66 186.206 64.7836C186.446 64.9071 186.71 64.982 186.98 65.0039C187.21 65.0109 187.437 64.9511 187.632 64.8322C187.765 64.727 187.874 64.5971 187.954 64.4501C188.034 64.3031 188.083 64.142 188.098 63.9764C188.112 63.8108 188.093 63.6439 188.04 63.4858C187.987 63.3276 187.903 63.1814 187.791 63.0556C187.683 62.9563 187.546 62.8916 187.399 62.8705C187.252 62.8493 187.101 62.8726 186.968 62.9373C186.835 63.0019 186.726 63.1048 186.655 63.2319C186.584 63.359 186.555 63.5042 186.572 63.6478C186.597 63.7331 186.641 63.812 186.701 63.8786C186.761 63.9452 186.836 63.9979 186.919 64.0327" stroke="#263238" stroke-miterlimit="10" stroke-linecap="round"/>
<path d="M194.115 62.8069C194.08 63.0688 194.1 63.3348 194.174 63.5889C194.248 63.843 194.374 64.0798 194.545 64.2851C194.716 64.4905 194.928 64.66 195.168 64.7836C195.408 64.9071 195.672 64.982 195.942 65.0039C196.172 65.0109 196.399 64.9511 196.594 64.8322C196.727 64.727 196.836 64.5971 196.916 64.4501C196.996 64.3031 197.045 64.142 197.059 63.9764C197.074 63.8108 197.055 63.6439 197.002 63.4858C196.949 63.3276 196.864 63.1814 196.753 63.0556C196.645 62.9563 196.508 62.8916 196.361 62.8705C196.213 62.8493 196.063 62.8726 195.93 62.9373C195.797 63.0019 195.688 63.1048 195.617 63.2319C195.546 63.359 195.517 63.5042 195.534 63.6478C195.559 63.7331 195.603 63.812 195.663 63.8786C195.723 63.9452 195.798 63.9979 195.881 64.0327" stroke="#263238" stroke-miterlimit="10" stroke-linecap="round"/>
<path d="M70.6988 86.2279L73.7024 88.7802L77.1264 86.7905L75.5545 90.3554L78.5581 92.9137L74.5858 92.5583L73.0139 96.1233L72.1305 92.3452L68.1582 91.9899L71.5822 90.006L70.6988 86.2279Z" fill="#D9D9D9"/>
<path d="M66.0439 195.059L68.487 197.138L71.2773 195.521L69.9979 198.423L72.441 200.501L69.2059 200.217L67.9325 203.113L67.2075 200.04L63.9785 199.755L66.7689 198.139L66.0439 195.059Z" fill="#D9D9D9"/>
<path d="M65.5375 172.805L63.8925 174.309L64.8613 176.299L62.8751 175.245L61.2301 176.749L61.6505 174.593L59.6704 173.539L61.9064 173.255L62.3268 171.1L63.2955 173.083L65.5375 172.805Z" fill="#D9D9D9"/>
<path d="M130.234 160.577L128.589 162.087L129.558 164.07L127.572 163.016L125.933 164.526L126.347 162.365L124.367 161.311L126.609 161.033L127.024 158.871L127.992 160.861L130.234 160.577Z" fill="#D9D9D9"/>
<path d="M136.63 116.998L134.985 118.508L135.954 120.492L133.974 119.438L132.329 120.948L132.749 118.786L130.763 117.732L133.005 117.454L133.426 115.292L134.388 117.282L136.63 116.998Z" fill="#D9D9D9"/>
<path d="M91.9311 70.1559L90.2861 71.666L91.2548 73.6498L89.2747 72.5957L87.6298 74.1058L88.044 71.9443L86.064 70.8902L88.306 70.6119L88.7264 68.4504L89.689 70.4402L91.9311 70.1559Z" fill="#D9D9D9"/>
<path d="M121.673 53.2018L121.052 55.3159L122.928 56.5417L120.674 56.6187L120.053 58.7328L119.273 56.672L117.019 56.7549L118.791 55.3929L118.018 53.3321L119.894 54.5579L121.673 53.2018Z" fill="#D9D9D9"/>
<path d="M113.4 203.978L111.755 205.488L112.723 207.472L110.737 206.418L109.092 207.928L109.513 205.766L107.526 204.712L109.768 204.434L110.189 202.272L111.157 204.262L113.4 203.978Z" fill="#D9D9D9"/>
<path d="M55.8017 158.297L54.1628 159.801L55.1254 161.79L53.1453 160.736L51.5004 162.241L51.9207 160.085L49.9346 159.031L52.1766 158.747L52.597 156.591L53.5657 158.575L55.8017 158.297Z" fill="#D9D9D9"/>
<path d="M110.933 137.375L108.716 139.4L110.019 142.077L107.351 140.656L105.133 142.687L105.7 139.779L103.031 138.358L106.047 137.985L106.614 135.077L107.911 137.748L110.933 137.375Z" fill="#D9D9D9"/>
<path d="M128.637 188.012L125.658 187.42L124.153 189.99L123.812 187.053L120.833 186.455L123.605 185.235L123.263 182.292L125.317 184.477L128.089 183.257L126.584 185.827L128.637 188.012Z" fill="#D9D9D9"/>
<path d="M233.144 210.048C223.786 208.23 218.918 211.321 204.51 211.866C190.101 212.41 174.553 205.5 171.373 197.12C168.192 188.741 165.518 162.91 166.127 155.839C167.638 137.754 173.237 131.459 184.465 125.46C195.694 119.461 211.041 121.64 221.148 127.829C227.393 131.648 234.667 135.651 234.552 143.682C234.503 147.276 233.528 151.131 231.036 153.873C228.545 156.615 224.109 158.077 220.679 155.934C219.925 155.474 219.287 154.854 218.815 154.121C218.342 153.388 218.046 152.56 217.95 151.7C217.639 148.65 220.021 146.962 221.678 144.901C221.861 144.67 222.05 144.41 221.879 144.078C221.822 143.978 221.744 143.891 221.651 143.821C221.558 143.751 221.452 143.7 221.338 143.671C221.224 143.643 221.105 143.636 220.989 143.653C220.873 143.671 220.761 143.71 220.661 143.77C218.331 145.041 216.456 146.973 215.287 149.307C214.746 150.333 214.454 151.466 214.436 152.619C214.418 153.772 214.673 154.913 215.183 155.954C215.692 156.996 216.441 157.909 217.372 158.623C218.303 159.338 219.391 159.834 220.551 160.073C225.98 161.471 232.419 158.551 235.947 154.572C241.747 148.022 241.936 138.198 232.389 128.557C226.58 122.766 218.932 119.049 210.681 118.004C210.681 118.004 213.673 117.098 218.352 115.274C223.031 113.451 224.341 111.455 226.96 108.002C229.58 104.55 229.397 103.638 223.78 108.547C218.163 113.456 213.673 112.006 197.954 114.185C182.235 116.364 176.429 128.012 169.13 126.917C161.832 125.821 173.249 113.297 181.486 110.549C189.723 107.801 201.134 110.182 208.811 108.364C216.487 106.546 219.29 104.183 220.996 102.181C222.702 100.18 214.824 105.634 207.897 106.362C200.97 107.09 189.888 105.628 189.888 105.628C189.888 105.628 197.491 102.175 202.426 99.8066C206.081 98.0597 211.949 93.8433 222.617 93.6597C233.284 93.4762 235.368 95.8094 235.74 94.8974C236.111 93.9855 233.68 93.6242 228.63 92.351C223.579 91.0778 215.129 90.7817 203.925 95.6258C195.624 99.1764 187.126 102.274 178.47 104.905C178.47 104.905 179.031 103.81 181.468 100.168C183.905 96.5259 187.079 89.9823 189.516 87.0687C191.953 84.1552 198.874 83.0656 204.863 81.4312C210.852 79.7967 212.345 77.2444 213.283 75.2428C214.221 73.2413 208.975 78.8848 199.057 80.7028C189.138 82.5208 189.699 82.7043 179.78 93.4347C169.862 104.165 170.032 104.899 166.87 102.714C163.708 100.529 165 96.7095 168.369 92.7063C171.738 88.7032 178.47 85.7955 179.945 83.4327C181.419 81.0699 182.564 77.0668 179.195 81.2476C175.826 85.4284 171.884 85.7955 166.285 89.7987C162.794 92.3438 159.813 95.4889 157.488 99.0782C157.488 99.0782 157.488 94.8915 157.677 92.1615C158.094 86.4857 159.161 80.8727 160.857 75.4264C163.099 68.5156 166.285 63.2393 167.406 60.6929C168.527 58.1465 164.598 63.4228 160.857 68.5156C157.116 73.6084 154.551 85.6179 154.551 84.8954C154.551 84.173 150.621 71.9799 148.751 67.6096C146.881 63.2393 145.01 61.972 147.63 69.6112C149.89 75.928 151.029 82.5721 150.999 89.2598C151.087 93.7036 151.459 98.1378 152.114 102.537C152.114 102.537 147.063 92.7122 142.945 87.6195C138.826 82.5267 134.336 77.2503 130.967 75.2488C127.598 73.2472 135.086 80.8923 139.198 88.3479C143.311 95.8035 145.376 102.175 145.187 104.177C144.998 106.179 141.075 99.4395 137.876 95.8094C134.677 92.1793 129.651 87.8327 119.355 84.0131C109.058 80.1935 105.872 81.6443 107.365 82.3431C108.857 83.0419 115.23 82.7103 125.892 91.0778C136.554 99.4454 135.439 102.175 135.439 102.175C135.439 102.175 129.261 100.719 120.47 95.8094C111.678 90.9002 105.494 88.1643 97.0746 89.6211C88.6547 91.0778 85.6572 93.263 85.0967 94.3585C84.5362 95.4541 91.3476 92.4695 98.4576 92.653C105.567 92.8366 103.886 92.653 110.996 95.0218C115.206 96.403 119.209 98.3207 122.901 100.724C121.107 101.834 119.23 102.808 117.283 103.638C113.92 105.089 108.114 104.544 104.373 104.361C100.633 104.177 98.945 103.454 102.503 105.456C106.061 107.458 107.834 107.884 113.262 107.884C118.691 107.884 120.281 105.817 123.461 104.331C126.641 102.845 130.388 102.88 135.25 108.701C140.112 114.522 141.806 123.097 137.492 125.093C132.131 127.586 127.171 121.238 123.284 118.733C118.075 115.363 111.544 115.002 105.488 114.588C101.528 114.309 97.4401 113.954 93.6689 112.645C90.2449 111.461 87.6799 108.885 84.1585 108.008C78.2548 106.54 76.4819 106.007 69.7436 107.28C63.0053 108.553 65.4362 109.098 67.1239 108.737C68.8115 108.376 75.3609 108.553 78.5412 109.643C81.7215 110.732 85.6511 112.734 86.4005 117.104C87.1499 121.475 82.0931 125.65 75.5437 128.747C68.9943 131.844 63.5658 132.566 60.5744 137.629C57.583 142.693 58.1374 147.104 59.4473 147.27C60.7572 147.436 61.1349 142.906 65.2535 139.809C69.372 136.712 77.609 132.572 77.609 132.572C77.609 132.572 72.5584 143.303 75.7386 151.854C78.9189 160.405 85.9192 164.289 91.835 162.768C96.8552 161.494 99.3227 155.312 97.8239 152.582C96.3252 149.852 93.7054 151.125 94.8264 152.943C95.9474 154.761 94.8264 158.22 88.8375 156.402C82.8486 154.584 79.6988 141.668 86.7782 129.842C93.8577 118.016 109.241 118.745 118.593 124.566C125.051 128.581 132.307 138.743 136.188 144.659C138.458 148.114 139.925 152.008 140.49 156.07C141.708 164.698 141.592 177.193 138.619 187.509C134.69 201.129 129.261 211.7 114.664 213.701C100.066 215.703 99.8832 210.794 84.1585 212.428C77.0851 213.162 72.7472 215.117 70.1031 217.041C71.2282 218.38 72.3857 219.692 73.5758 220.979L74.4288 220.251C78.7301 216.615 90.1474 214.613 92.3955 216.431C94.6437 218.249 86.2177 220.434 79.4794 223.342C78.6426 223.701 77.8288 224.108 77.0424 224.562C77.6801 225.194 78.33 225.819 78.992 226.439C79.6803 225.966 80.4009 225.538 81.1488 225.16C85.9131 222.762 85.182 225.213 82.7328 229.773C83.4436 230.381 84.1666 230.983 84.9018 231.579C86.5711 229.276 87.4728 227.363 92.7489 224.254C98.9267 220.612 104.544 221.524 104.166 223.887C103.788 226.25 101.924 226.8 96.3069 228.624C93.8699 229.418 91.0369 231.923 88.6486 234.487C89.4285 235.079 90.2083 235.624 91.0003 236.175C93.9857 233.895 98.0372 231.644 100.986 231.532C105.86 231.354 102.485 233.534 100.797 236.447C99.4263 238.816 98.0494 238.532 95.46 239.136C96.3008 239.661 97.1497 240.18 98.0067 240.693L98.7378 240.45L98.4332 240.942C99.6882 241.676 100.958 242.385 102.241 243.068C103.411 241.143 104.355 239.355 104.355 239.355L108.845 238.082C108.845 238.082 106.78 241.238 104.745 244.365C105.602 244.799 106.467 245.219 107.34 245.626C109.777 242.073 114.463 238.082 114.463 238.082C114.463 238.082 113.488 242.819 112.141 247.74C113.311 248.22 114.499 248.676 115.693 249.12C118.039 244.258 118.392 241.901 118.392 241.901C119.762 244.748 120.627 247.799 120.951 250.926C124.164 251.937 127.435 252.805 130.766 253.532C130.693 253.348 130.626 253.17 130.553 252.999L129.621 250.63L132.24 248.445C132.24 248.445 132.661 251.376 132.941 253.982C134.342 254.254 135.744 254.497 137.163 254.722C137.165 253.531 137.271 252.342 137.48 251.169C137.949 248.741 140.892 253.65 141.854 255.35C143.512 255.539 145.187 255.693 146.869 255.806C147.725 254.727 148.409 253.529 148.897 252.252C149.236 253.535 149.697 254.784 150.274 255.983C151.73 256.037 153.193 256.072 154.661 256.072H154.984C153.473 251.98 151.669 246.307 151.889 242.979C152.266 237.335 156.007 241.522 158.816 246.798C160.235 249.469 159.736 253.076 158.895 255.989C159.927 255.946 160.942 255.892 161.941 255.829C162.649 254.458 163.464 253.142 164.378 251.891C164.378 251.891 164.957 252.738 165.554 255.545C169.357 255.176 173.138 254.615 176.88 253.863C176.691 253.691 176.515 253.52 176.356 253.348C175.046 251.891 175.424 250.618 177.666 249.345C179.311 248.415 182.54 249.434 184.764 251.968C187.579 251.187 190.351 250.286 193.074 249.292C191.711 248.19 190.497 246.924 189.461 245.525C185.903 240.61 192.641 241.161 196.772 244.43C197.647 245.126 198.343 246.01 198.807 247.012C203.382 245.041 207.812 242.766 212.064 240.202L208.189 239.337C208.189 239.337 204.82 232.787 208.001 234.067C210.084 234.901 212.326 237.531 213.63 239.242C214.672 238.591 215.695 237.916 216.713 237.235C211.888 232.059 210.523 231.644 205.564 228.79C200.513 225.877 203.882 222.785 210.243 224.971C216.603 227.156 219.418 230.241 221.288 233.516C221.349 233.622 221.404 233.741 221.465 233.847C223.447 232.351 225.374 230.792 227.247 229.169C224.28 227.73 221.733 226.208 221.288 225.148C220.289 222.732 225.772 224.888 230.025 226.676C230.724 226.025 231.416 225.363 232.103 224.692C230.884 223.899 229.714 223.117 228.776 222.424C224.097 218.966 219.028 215.691 219.028 215.691C222.003 215.218 225.003 214.913 228.014 214.779C232.693 214.601 235.325 216.052 235.496 216.603C235.642 217.023 235.795 217.462 236.648 219.943C238.492 217.902 240.258 215.792 241.948 213.612C239.276 211.887 236.287 210.676 233.144 210.048ZM116.912 231.875C112.604 235.879 106.804 234.783 106.804 234.783C106.804 234.783 105.494 231.875 109.241 229.145C112.988 226.415 117.85 224.781 122.901 223.324C127.951 221.868 121.219 227.872 116.912 231.875ZM124.582 250.973C124.582 250.973 122.712 245.336 121.591 240.243C120.47 235.15 123.65 233.693 123.65 233.693C123.65 233.693 124.582 234.605 125.892 243.168C127.202 251.731 124.582 250.973 124.582 250.973ZM131.32 241.498C130.061 239.656 129.115 237.628 128.518 235.494C127.769 232.402 127.769 230.401 127.951 229.856C128.134 229.311 132.448 224.763 132.448 224.763C132.774 230.377 132.396 236.009 131.32 241.534V241.498ZM143.859 252.75L139.746 246.935C137.687 244.021 136.938 240.563 136.938 234.564C136.938 228.565 141.239 223.65 141.239 223.65C141.239 223.65 142.549 226.925 145.735 238.2C148.922 249.475 143.859 252.785 143.859 252.785V252.75ZM149.104 231.289C148.166 226.013 152.656 221.465 152.656 221.465C152.656 221.465 153.777 223.834 155.093 227.647C156.409 231.461 156.988 239.698 156.988 239.698C156.988 239.698 150.037 236.607 149.104 231.331V231.289ZM172.494 244.382C172.494 244.382 166.322 242.203 163.324 238.2C160.327 234.197 159.584 224.195 159.584 224.195C163.519 226.779 167.103 229.835 170.252 233.291C175.113 238.786 172.494 244.424 172.494 244.424V244.382ZM177.368 244.749C177.815 243.571 178.445 242.467 179.238 241.475C180.548 239.834 185.605 248.753 185.605 248.753L177.368 244.749ZM178.677 236.566C176.807 235.837 170.818 230.922 170.258 227.286C169.697 223.65 170.44 226.196 178.489 229.832C186.537 233.468 188.407 236.015 188.407 236.015C188.407 236.015 180.542 237.329 178.671 236.607L178.677 236.566ZM204.15 240.711C204.01 240.432 196.303 238.934 192.715 235.648C188.974 232.189 187.097 230.555 196.833 234.013C206.027 237.329 204.351 240.432 204.144 240.758L204.15 240.711Z" fill="#263238"/>
<path d="M139.716 141.633C140.518 145.089 141.498 148.504 142.653 151.865C144.858 158.528 145.346 164.479 144.615 171.621C143.883 178.762 141.672 193.277 137.754 199.222" stroke="#A1A1A1" stroke-miterlimit="10"/>
<path d="M143.389 137.351C144.095 141.788 145.159 146.163 146.569 150.438C148.774 156.864 149.006 168.287 148.287 174.718" stroke="#A1A1A1" stroke-miterlimit="10"/>
<path d="M139.472 108.553C139.472 108.553 143.877 113.788 143.128 119.266C142.378 124.744 140.435 125.928 140.435 125.928" stroke="#A1A1A1" stroke-miterlimit="10"/>
<path d="M167.381 117.122C167.381 117.122 163.726 120.93 163.464 124.974C163.202 129.019 165.669 129.712 166.65 129.712" stroke="#A1A1A1" stroke-miterlimit="10"/>
<path d="M175.807 209.248C177.316 210.129 178.925 210.838 180.601 211.362" stroke="#A1A1A1" stroke-miterlimit="10"/>
<path d="M161.806 157.829C161.751 159.255 161.814 160.682 161.995 162.098C163.463 173.048 164.688 192.3 166.649 198.275C167.977 202.181 170.522 205.589 173.93 208.028" stroke="#A1A1A1" stroke-miterlimit="10"/>
<path d="M167.382 135.924C167.382 135.924 162.916 145.849 161.966 155.43" stroke="#A1A1A1" stroke-miterlimit="10"/>
<path d="M153.837 143.776C153.466 136.155 151.955 131.281 151.955 130.446" stroke="#A1A1A1" stroke-miterlimit="10"/>
<path d="M150.03 201.141C150.602 199.601 151.328 197.588 152.205 194.941C154.898 186.852 151.224 183.755 151.224 170.188C151.224 156.621 153.917 156.627 153.917 147.093" stroke="#A1A1A1" stroke-miterlimit="10"/>
<path d="M148.288 205.411C148.288 205.411 148.592 204.819 149.238 203.208" stroke="#A1A1A1" stroke-miterlimit="10"/>
<path d="M157.157 130.488C157.2 130.938 157.267 131.406 157.34 131.873C158.558 139.252 159.058 144.967 157.833 150.912C156.609 156.858 154.403 163.526 155.872 169.003" stroke="#A1A1A1" stroke-miterlimit="10"/>
<path d="M159.06 119.74C158.004 121.703 157.362 123.851 157.171 126.058" stroke="#A1A1A1" stroke-miterlimit="10"/>
<path d="M137.492 138.778C137.492 138.778 138.229 138.778 134.311 134.041C130.394 129.303 125.008 125.235 124.271 124.998" stroke="#A1A1A1" stroke-miterlimit="10"/>
<path d="M141.184 135.444C140.372 133.786 139.299 132.262 138.003 130.926" stroke="#A1A1A1" stroke-miterlimit="10"/>
<path d="M157.097 172.568C158.435 174.575 159.27 176.859 159.534 179.236C159.827 181.843 159.909 184.469 159.777 187.089" stroke="#A1A1A1" stroke-miterlimit="10"/>
<path d="M147.793 178.993C147.793 178.993 146.325 186.372 145.101 190.896" stroke="#A1A1A1" stroke-miterlimit="10"/>
<path d="M149.756 108.293C149.756 108.293 153.674 112.337 152.693 117.809C151.712 123.281 151.225 126.141 151.225 126.141" stroke="#A1A1A1" stroke-miterlimit="10"/>
<path d="M60.3242 134.076C55.7914 133.087 53.0132 128.397 53.0132 128.397C53.0132 128.397 57.5886 125.312 62.1154 126.301C66.6421 127.29 69.4263 131.98 69.4263 131.98C69.4263 131.98 64.8509 135.065 60.3242 134.076Z" fill="#00B04D" stroke="#263238" stroke-miterlimit="10"/>
<path d="M53.0132 128.397L69.4263 131.98" stroke="#263238" stroke-miterlimit="10"/>
<path d="M68.9455 125.697C65.5398 122.629 65.5581 117.217 65.5581 117.217C65.5581 117.217 71.1084 116.779 74.5202 119.846C77.932 122.914 77.9015 128.326 77.9015 128.326C77.9015 128.326 72.3513 128.764 68.9455 125.697Z" fill="#00B04D" stroke="#263238" stroke-miterlimit="10"/>
<path d="M65.5581 117.217L77.9015 128.326" stroke="#263238" stroke-miterlimit="10"/>
<path d="M76.9931 118.626C73.5874 115.559 73.6118 110.152 73.6118 110.152C73.6118 110.152 79.156 109.714 82.5677 112.781C85.9795 115.849 85.949 121.261 85.949 121.261C85.949 121.261 80.3988 121.694 76.9931 118.626Z" fill="#00B04D" stroke="#263238" stroke-miterlimit="10"/>
<path d="M73.6118 110.152L85.949 121.261" stroke="#263238" stroke-miterlimit="10"/>
<path d="M65.5998 103.739C62.188 100.671 62.2124 95.2587 62.2124 95.2587C62.2124 95.2587 67.7627 94.8205 71.1745 97.888C74.5863 100.955 74.5558 106.368 74.5558 106.368C74.5558 106.368 68.9751 106.806 65.5998 103.739Z" fill="#00B04D" stroke="#263238" stroke-miterlimit="10"/>
<path d="M62.1821 95.2587L74.5255 106.368" stroke="#263238" stroke-miterlimit="10"/>
<path d="M64.1504 111.846C59.514 112.13 55.499 108.381 55.499 108.381C55.499 108.381 58.9961 104.177 63.6325 103.893C68.2689 103.608 72.2838 107.357 72.2838 107.357C72.2838 107.357 68.7867 111.567 64.1504 111.846Z" fill="#00B04D" stroke="#263238" stroke-miterlimit="10"/>
<path d="M55.499 108.387L72.2838 107.363" stroke="#263238" stroke-miterlimit="10"/>
<path d="M67.3245 117.027C64.9789 120.924 59.5384 122.067 59.5384 122.067C59.5384 122.067 57.9056 116.891 60.2512 113C62.5968 109.11 68.0374 107.961 68.0374 107.961C68.0374 107.961 69.6762 113.137 67.3245 117.027Z" fill="#00B04D" stroke="#263238" stroke-miterlimit="10"/>
<path d="M59.5381 122.067L68.0432 107.961" stroke="#263238" stroke-miterlimit="10"/>
<path d="M75.7005 100.192C75.2436 95.6969 78.96 91.67 78.96 91.67C78.96 91.67 83.4075 94.9211 83.834 99.4158C84.2605 103.91 80.5745 107.937 80.5745 107.937C80.5745 107.937 76.1514 104.686 75.7005 100.192Z" fill="#00B04D" stroke="#263238" stroke-miterlimit="10"/>
<path d="M78.9609 91.67L80.5998 107.937" stroke="#263238" stroke-miterlimit="10"/>
<path d="M86.7522 101.186C88.1413 96.8754 93.1798 94.5718 93.1798 94.5718C93.1798 94.5718 95.9641 99.256 94.5811 103.567C93.1981 107.878 88.1413 110.2 88.1413 110.2C88.1413 110.2 85.3631 105.515 86.7522 101.186Z" fill="#00B04D" stroke="#263238" stroke-miterlimit="10"/>
<path d="M93.1801 94.5955L88.1538 110.2" stroke="#263238" stroke-miterlimit="10"/>
<path d="M92.7413 93.4881C96.671 91.0838 102.045 92.505 102.045 92.505C102.045 92.505 101.045 97.8347 97.1158 100.203C93.1861 102.572 87.8125 101.192 87.8125 101.192C87.8125 101.192 88.8117 95.9101 92.7413 93.4881Z" fill="#00B04D" stroke="#263238" stroke-miterlimit="10"/>
<path d="M102.045 92.5168L87.8125 101.234" stroke="#263238" stroke-miterlimit="10"/>
<path d="M92.2071 82.0292C93.5962 77.7181 98.6347 75.4146 98.6347 75.4146C98.6347 75.4146 101.419 80.0987 100.036 84.4098C98.653 88.7209 93.6267 91.0186 93.6267 91.0186C93.6267 91.0186 90.818 86.3344 92.2071 82.0292Z" fill="#00B04D" stroke="#263238" stroke-miterlimit="10"/>
<path d="M98.6337 75.4146L93.6074 91.0186" stroke="#263238" stroke-miterlimit="10"/>
<path d="M101.474 81.4667C97.55 79.0446 96.5996 73.7209 96.5996 73.7209C96.5996 73.7209 101.973 72.3174 105.897 74.7335C109.82 77.1496 110.771 82.4734 110.771 82.4734C110.771 82.4734 105.397 83.8828 101.474 81.4667Z" fill="#00B04D" stroke="#263238" stroke-miterlimit="10"/>
<path d="M96.5674 73.7209L110.769 82.4734" stroke="#263238" stroke-miterlimit="10"/>
<path d="M111.032 75.3672C110.423 70.8962 113.932 66.7213 113.932 66.7213C113.932 66.7213 118.514 69.7947 119.153 74.2657C119.793 78.7367 116.259 82.9116 116.259 82.9116C116.259 82.9116 111.678 79.8678 111.032 75.3672Z" fill="#00B04D" stroke="#263238" stroke-miterlimit="10"/>
<path d="M113.933 66.7213L116.26 82.9116" stroke="#263238" stroke-miterlimit="10"/>
<path d="M107.107 83.2196C111.439 81.5792 116.435 83.9598 116.435 83.9598C116.435 83.9598 114.418 89.0052 110.093 90.6456C105.767 92.2859 100.765 89.9349 100.765 89.9349C100.765 89.9349 102.763 84.8599 107.107 83.2196Z" fill="#00B04D" stroke="#263238" stroke-miterlimit="10"/>
<path d="M116.435 83.9597L100.765 89.9052" stroke="#263238" stroke-miterlimit="10"/>
<path d="M116.978 88.7505C121.303 87.1043 126.305 89.4908 126.305 89.4908C126.305 89.4908 124.289 94.5303 119.963 96.1765C115.637 97.8228 110.635 95.4363 110.635 95.4363C110.635 95.4363 112.652 90.4146 116.978 88.7505Z" fill="#00B04D" stroke="#263238" stroke-miterlimit="10"/>
<path d="M126.305 89.5144L110.635 95.4599" stroke="#263238" stroke-miterlimit="10"/>
<path d="M103.288 110.01C106.505 106.753 112.067 106.871 112.067 106.871C112.067 106.871 112.421 112.272 109.204 115.529C105.987 118.786 100.425 118.668 100.425 118.668C100.425 118.668 100.071 113.267 103.288 110.01Z" fill="#00B04D" stroke="#263238" stroke-miterlimit="10"/>
<path d="M112.068 106.871L100.425 118.668" stroke="#263238" stroke-miterlimit="10"/>
<path d="M111.592 97.4674C114.133 101.246 112.756 106.486 112.756 106.486C112.756 106.486 107.273 105.604 104.726 101.826C102.179 98.0478 103.556 92.801 103.556 92.801C103.556 92.801 109.052 93.6834 111.592 97.4674Z" fill="#00B04D" stroke="#263238" stroke-miterlimit="10"/>
<path d="M112.756 106.486L103.556 92.801" stroke="#263238" stroke-miterlimit="10"/>
<path d="M130.547 66.9286C133.087 70.7067 131.71 75.9535 131.71 75.9535C131.71 75.9535 126.227 75.0652 123.681 71.2871C121.134 67.509 122.511 62.2622 122.511 62.2622C122.511 62.2622 128.006 63.1446 130.547 66.9286Z" fill="#00B04D" stroke="#263238" stroke-miterlimit="10"/>
<path d="M131.71 75.9535L122.511 62.2622" stroke="#263238" stroke-miterlimit="10"/>
<path d="M143.406 76.4806C143.041 80.9811 138.66 84.3211 138.66 84.3211C138.66 84.3211 134.865 80.3653 135.224 75.8647C135.584 71.3641 139.964 68.0242 139.964 68.0242C139.964 68.0242 143.766 71.98 143.406 76.4806Z" fill="#00B04D" stroke="#263238" stroke-miterlimit="10"/>
<path d="M138.661 84.3211L139.964 68.0242" stroke="#263238" stroke-miterlimit="10"/>
<path d="M150.755 85.9376C150.39 90.4382 146.009 93.7782 146.009 93.7782C146.009 93.7782 142.213 89.8224 142.573 85.3218C142.932 80.8212 147.313 77.499 147.313 77.499C147.313 77.499 151.115 81.437 150.755 85.9376Z" fill="#00B04D" stroke="#263238" stroke-miterlimit="10"/>
<path d="M146.009 93.7782L147.313 77.4813" stroke="#263238" stroke-miterlimit="10"/>
<path d="M130.79 88.4604C126.763 86.2042 125.551 80.9219 125.551 80.9219C125.551 80.9219 130.863 79.2993 134.884 81.5555C138.906 83.8118 140.124 89.094 140.124 89.094C140.124 89.094 134.799 90.7166 130.79 88.4604Z" fill="#00B04D" stroke="#263238" stroke-miterlimit="10"/>
<path d="M125.537 80.9219L140.11 89.094" stroke="#263238" stroke-miterlimit="10"/>
<path d="M134.769 52.7754C139.003 54.6349 140.745 59.7691 140.745 59.7691C140.745 59.7691 135.628 61.9009 131.393 60.0415C127.159 58.182 125.417 53.0419 125.417 53.0419C125.417 53.0419 130.534 50.9159 134.769 52.7754Z" fill="#00B04D" stroke="#263238" stroke-miterlimit="10"/>
<path d="M140.745 59.7691L125.417 53.0419" stroke="#263238" stroke-miterlimit="10"/>
<path d="M137.424 68.0241C132.806 67.5326 129.503 63.1741 129.503 63.1741C129.503 63.1741 133.695 59.621 138.313 60.1007C142.931 60.5804 146.233 64.9566 146.233 64.9566C146.233 64.9566 142.042 68.4919 137.424 68.0241Z" fill="#00B04D" stroke="#263238" stroke-miterlimit="10"/>
<path d="M129.51 63.1504L146.228 64.9329" stroke="#263238" stroke-miterlimit="10"/>
<path d="M156.341 62.0489C153.368 65.5191 147.812 65.7797 147.812 65.7797C147.812 65.7797 147.075 60.4145 150.048 56.9443C153.021 53.4741 158.577 53.2195 158.577 53.2195C158.577 53.2195 159.315 58.5787 156.341 62.0489Z" fill="#00B04D" stroke="#263238" stroke-miterlimit="10"/>
<path d="M147.805 65.7797L158.571 53.2195" stroke="#263238" stroke-miterlimit="10"/>
<path d="M174.259 60.0297C171.286 63.4999 165.73 63.7604 165.73 63.7604C165.73 63.7604 164.986 58.3952 167.959 54.925C170.933 51.4548 176.489 51.2002 176.489 51.2002C176.489 51.2002 177.232 56.5595 174.259 60.0297Z" fill="#00B04D" stroke="#263238" stroke-miterlimit="10"/>
<path d="M165.723 63.7604L176.489 51.2002" stroke="#263238" stroke-miterlimit="10"/>
<path d="M170.52 74.4967C165.889 74.9112 161.765 71.2752 161.765 71.2752C161.765 71.2752 165.14 66.97 169.764 66.5377C174.388 66.1054 178.519 69.8007 178.519 69.8007C178.519 69.8007 175.144 74.0822 170.52 74.4967Z" fill="#00B04D" stroke="#263238" stroke-miterlimit="10"/>
<path d="M161.765 71.2752L178.519 69.777" stroke="#263238" stroke-miterlimit="10"/>
<path d="M152.88 64.3052C151.016 60.1599 153.258 55.2152 153.258 55.2152C153.258 55.2152 158.528 56.9918 160.393 61.1015C162.257 65.2113 160.021 70.1856 160.021 70.1856C160.021 70.1856 154.751 68.4387 152.88 64.3052Z" fill="#00B04D" stroke="#263238" stroke-miterlimit="10"/>
<path d="M153.259 55.2152L160.021 70.1856" stroke="#263238" stroke-miterlimit="10"/>
<path d="M149.767 75.16C147.903 71.0147 150.139 66.0699 150.139 66.0699C150.139 66.0699 155.409 67.8465 157.279 71.9503C159.149 76.0542 156.901 81.0404 156.901 81.0404C156.901 81.0404 151.637 79.2756 149.767 75.16Z" fill="#00B04D" stroke="#263238" stroke-miterlimit="10"/>
<path d="M150.14 66.0699L156.903 81.0404" stroke="#263238" stroke-miterlimit="10"/>
<path d="M166.686 85.2567C162.165 86.3108 157.547 83.2847 157.547 83.2847C157.547 83.2847 160.252 78.5472 164.766 77.505C169.281 76.4628 173.905 79.471 173.905 79.471C173.905 79.471 171.2 84.2026 166.686 85.2567Z" fill="#00B04D" stroke="#263238" stroke-miterlimit="10"/>
<path d="M157.547 83.2846L173.905 79.4709" stroke="#263238" stroke-miterlimit="10"/>
<path d="M186.962 80.3416C184.184 83.9657 178.646 84.4869 178.646 84.4869C178.646 84.4869 177.61 79.1572 180.388 75.5508C183.167 71.9444 188.699 71.4055 188.699 71.4055C188.699 71.4055 189.734 76.7233 186.962 80.3416Z" fill="#00B04D" stroke="#263238" stroke-miterlimit="10"/>
<path d="M178.646 84.5165L188.698 71.4055" stroke="#263238" stroke-miterlimit="10"/>
<path d="M174.326 82.5919C173.26 86.9859 168.404 89.6329 168.404 89.6329C168.404 89.6329 165.279 85.156 166.345 80.7502C167.411 76.3443 172.267 73.7091 172.267 73.7091C172.267 73.7091 175.392 78.1979 174.326 82.5919Z" fill="#00B04D" stroke="#263238" stroke-miterlimit="10"/>
<path d="M168.404 89.6329L172.266 73.7209" stroke="#263238" stroke-miterlimit="10"/>
<path d="M181.357 77.4279C180.291 81.8219 175.435 84.469 175.435 84.469C175.435 84.469 172.31 79.9921 173.376 75.5862C174.442 71.1804 179.298 68.5452 179.298 68.5452C179.298 68.5452 182.411 73.0339 181.357 77.4279Z" fill="#00B04D" stroke="#263238" stroke-miterlimit="10"/>
<path d="M175.423 84.4691L179.285 68.5571" stroke="#263238" stroke-miterlimit="10"/>
<path d="M217.431 70.9851C216.365 75.3791 211.509 78.0261 211.509 78.0261C211.509 78.0261 208.378 73.5492 209.444 69.1434C210.51 64.7375 215.372 62.1023 215.372 62.1023C215.372 62.1023 218.522 66.5851 217.431 70.9851Z" fill="#00B04D" stroke="#263238" stroke-miterlimit="10"/>
<path d="M211.51 78.0201L215.372 62.1082" stroke="#263238" stroke-miterlimit="10"/>
<path d="M206.782 73.7564C205.728 78.1504 200.854 80.7975 200.854 80.7975C200.854 80.7975 197.729 76.3206 198.795 71.9147C199.861 67.5089 204.717 64.8737 204.717 64.8737C204.717 64.8737 207.848 69.3624 206.782 73.7564Z" fill="#00B04D" stroke="#263238" stroke-miterlimit="10"/>
<path d="M200.86 80.7975L204.723 64.8855" stroke="#263238" stroke-miterlimit="10"/>
<path d="M211.522 84.013C214.958 87.0509 214.989 92.4576 214.989 92.4576C214.989 92.4576 209.444 92.9491 206.008 89.9112C202.572 86.8733 202.542 81.4666 202.542 81.4666C202.542 81.4666 208.086 80.987 211.522 84.013Z" fill="#00B04D" stroke="#263238" stroke-miterlimit="10"/>
<path d="M214.989 92.4694L202.542 81.4785" stroke="#263238" stroke-miterlimit="10"/>
<path d="M193.604 72.9215C197.046 75.9534 197.071 81.366 197.071 81.366C197.071 81.366 191.526 81.8575 188.09 78.8196C184.654 75.7817 184.624 70.3928 184.624 70.3928C184.624 70.3928 190.168 69.8835 193.604 72.9215Z" fill="#00B04D" stroke="#263238" stroke-miterlimit="10"/>
<path d="M197.071 81.3661L184.624 70.3751" stroke="#263238" stroke-miterlimit="10"/>
<path d="M200.39 90.7167C199.506 95.1521 194.766 97.9887 194.766 97.9887C194.766 97.9887 191.458 93.6361 192.329 89.2007C193.2 84.7652 197.953 81.9346 197.953 81.9346C197.953 81.9346 201.273 86.2871 200.39 90.7167Z" fill="#00B04D" stroke="#263238" stroke-miterlimit="10"/>
<path d="M194.767 97.9887L197.966 81.9346" stroke="#263238" stroke-miterlimit="10"/>
<path d="M243.622 95.0099C247.643 97.2779 248.837 102.56 248.837 102.56C248.837 102.56 243.5 104.147 239.504 101.903C235.507 99.6585 234.294 94.3526 234.294 94.3526C234.294 94.3526 239.607 92.7418 243.622 95.0099Z" fill="#00B04D" stroke="#263238" stroke-miterlimit="10"/>
<path d="M248.837 102.56L234.294 94.3525" stroke="#263238" stroke-miterlimit="10"/>
<path d="M227.994 83.6341C231.546 80.7205 237.066 81.4075 237.066 81.4075C237.066 81.4075 236.835 86.8141 233.283 89.7276C229.731 92.6412 224.211 91.9483 224.211 91.9483C224.211 91.9483 224.449 86.5417 227.994 83.6341Z" fill="#00B04D" stroke="#263238" stroke-miterlimit="10"/>
<path d="M237.066 81.4075L224.211 91.9483" stroke="#263238" stroke-miterlimit="10"/>
<path d="M226.045 100.967C222.926 97.6214 223.432 92.2325 223.432 92.2325C223.432 92.2325 229 92.2681 232.12 95.6139C235.239 98.9597 234.733 104.343 234.733 104.343C234.733 104.343 229.165 104.313 226.045 100.967Z" fill="#00B04D" stroke="#263238" stroke-miterlimit="10"/>
<path d="M223.432 92.2325L234.733 104.343" stroke="#263238" stroke-miterlimit="10"/>
<path d="M227.605 118.887C224.486 115.541 224.991 110.152 224.991 110.152C224.991 110.152 230.56 110.188 233.679 113.533C236.798 116.879 236.293 122.262 236.293 122.262C236.293 122.262 230.706 122.233 227.605 118.887Z" fill="#00B04D" stroke="#263238" stroke-miterlimit="10"/>
<path d="M224.993 110.152L236.294 122.262" stroke="#263238" stroke-miterlimit="10"/>
<path d="M235.294 110.869C230.657 110.525 227.221 106.267 227.221 106.267C227.221 106.267 231.291 102.578 235.921 102.922C240.552 103.265 243.994 107.523 243.994 107.523C243.994 107.523 239.924 111.218 235.294 110.869Z" fill="#00B04D" stroke="#263238" stroke-miterlimit="10"/>
<path d="M227.221 106.267L243.994 107.523" stroke="#263238" stroke-miterlimit="10"/>
<path d="M216.736 103.952C217.912 99.5816 222.786 97.0411 222.786 97.0411C222.786 97.0411 225.832 101.583 224.65 105.924C223.468 110.265 218.558 112.841 218.558 112.841C218.558 112.841 215.572 108.322 216.736 103.952Z" fill="#00B04D" stroke="#263238" stroke-miterlimit="10"/>
<path d="M222.811 97.0352L218.601 112.864" stroke="#263238" stroke-miterlimit="10"/>
<path d="M204.795 98.1485C205.953 93.7782 210.888 91.2318 210.888 91.2318C210.888 91.2318 213.934 95.7739 212.752 100.144C211.57 104.514 206.659 107.061 206.659 107.061C206.659 107.061 203.631 102.519 204.795 98.1485Z" fill="#00B04D" stroke="#263238" stroke-miterlimit="10"/>
<path d="M210.869 91.2318L206.659 107.061" stroke="#263238" stroke-miterlimit="10"/>
<path d="M195.705 115.055C196.868 110.685 201.797 108.139 201.797 108.139C201.797 108.139 204.843 112.681 203.661 117.021C202.48 121.362 197.569 123.938 197.569 123.938C197.569 123.938 194.541 119.432 195.705 115.055Z" fill="#00B04D" stroke="#263238" stroke-miterlimit="10"/>
<path d="M201.78 108.139L197.57 123.968" stroke="#263238" stroke-miterlimit="10"/>
<path d="M122.108 110.069C123.266 105.699 128.201 103.152 128.201 103.152C128.201 103.152 131.247 107.695 130.065 112.065C128.883 116.435 123.972 118.982 123.972 118.982C123.972 118.982 120.944 114.457 122.108 110.069Z" fill="#00B04D" stroke="#263238" stroke-miterlimit="10"/>
<path d="M128.182 103.17L123.972 118.999" stroke="#263238" stroke-miterlimit="10"/>
<path d="M110.015 128.545C111.179 124.175 116.108 121.629 116.108 121.629C116.108 121.629 119.154 126.171 117.972 130.511C116.79 134.852 111.879 137.428 111.879 137.428C111.879 137.428 108.858 132.921 110.015 128.545Z" fill="#00B04D" stroke="#263238" stroke-miterlimit="10"/>
<path d="M116.089 121.629L111.879 137.458" stroke="#263238" stroke-miterlimit="10"/>
<path d="M212.063 131.465C213.227 127.094 218.156 124.548 218.156 124.548C218.156 124.548 221.202 129.084 220.02 133.46C218.838 137.837 213.927 140.377 213.927 140.377C213.927 140.377 210.899 135.835 212.063 131.465Z" fill="#00B04D" stroke="#263238" stroke-miterlimit="10"/>
<path d="M218.137 124.548L213.927 140.377" stroke="#263238" stroke-miterlimit="10"/>
<path d="M220.959 137.167C222.123 132.797 227.052 130.251 227.052 130.251C227.052 130.251 230.098 134.793 228.916 139.133C227.734 143.474 222.823 146.05 222.823 146.05C222.823 146.05 219.795 141.538 220.959 137.167Z" fill="#00B04D" stroke="#263238" stroke-miterlimit="10"/>
<path d="M227.033 130.251L222.823 146.08" stroke="#263238" stroke-miterlimit="10"/>
<path d="M238.688 131.038C234.052 131.317 230.037 127.568 230.037 127.568C230.037 127.568 233.54 123.364 238.176 123.085C242.813 122.807 246.828 126.556 246.828 126.556C246.828 126.556 243.318 130.76 238.688 131.038Z" fill="#00B04D" stroke="#263238" stroke-miterlimit="10"/>
<path d="M230.037 127.568L246.828 126.556" stroke="#263238" stroke-miterlimit="10"/>
<path d="M227.258 123.719C222.622 123.997 218.613 120.249 218.613 120.249C218.613 120.249 222.116 116.044 226.752 115.766C231.389 115.488 235.398 119.236 235.398 119.236C235.398 119.236 231.925 123.441 227.258 123.719Z" fill="#00B04D" stroke="#263238" stroke-miterlimit="10"/>
<path d="M218.613 120.249L235.398 119.236" stroke="#263238" stroke-miterlimit="10"/>
<path d="M245.695 143.409C241.058 143.687 237.049 139.933 237.049 139.933C237.049 139.933 240.552 135.728 245.189 135.45C249.825 135.172 253.858 138.92 253.858 138.92C253.858 138.92 250.331 143.125 245.695 143.409Z" fill="#00B04D" stroke="#263238" stroke-miterlimit="10"/>
<path d="M237.049 139.933L253.834 138.92" stroke="#263238" stroke-miterlimit="10"/>
<path d="M238.426 160.357C235.801 156.632 237.056 151.362 237.056 151.362C237.056 151.362 242.569 152.126 245.189 155.851C247.809 159.576 246.548 164.846 246.548 164.846C246.548 164.846 241.065 164.082 238.426 160.357Z" fill="#00B04D" stroke="#263238" stroke-miterlimit="10"/>
<path d="M237.055 151.362L246.559 164.846" stroke="#263238" stroke-miterlimit="10"/>
<path d="M223.822 166.196C223.706 161.684 227.709 157.906 227.709 157.906C227.709 157.906 231.907 161.459 232.022 165.971C232.138 170.484 228.141 174.262 228.141 174.262C228.141 174.262 223.944 170.709 223.822 166.196Z" fill="#00B04D" stroke="#263238" stroke-miterlimit="10"/>
<path d="M227.709 157.923L228.142 174.268" stroke="#263238" stroke-miterlimit="10"/>
<path d="M211.417 159.511C214.847 156.467 220.392 156.941 220.392 156.941C220.392 156.941 220.392 162.347 216.949 165.397C213.507 168.447 207.975 167.973 207.975 167.973C207.975 167.973 207.987 162.56 211.417 159.511Z" fill="#00B04D" stroke="#263238" stroke-miterlimit="10"/>
<path d="M220.392 156.94L207.975 167.973" stroke="#263238" stroke-miterlimit="10"/>
<path d="M210.454 147.377C214.792 148.993 216.845 154.021 216.845 154.021C216.845 154.021 211.862 156.437 207.524 154.826C203.186 153.216 201.133 148.182 201.133 148.182C201.133 148.182 206.116 145.76 210.454 147.377Z" fill="#00B04D" stroke="#263238" stroke-miterlimit="10"/>
<path d="M216.845 154.015L201.133 148.176" stroke="#263238" stroke-miterlimit="10"/>
<path d="M215.675 138.903C218.417 142.55 217.32 147.856 217.32 147.856C217.32 147.856 211.788 147.264 209.053 143.604C206.317 139.945 207.408 134.651 207.408 134.651C207.408 134.651 212.94 135.255 215.675 138.903Z" fill="#00B04D" stroke="#263238" stroke-miterlimit="10"/>
<path d="M217.321 147.856L207.408 134.651" stroke="#263238" stroke-miterlimit="10"/>
<path d="M228.562 144.226C231.609 140.815 237.177 140.673 237.177 140.673C237.177 140.673 237.786 146.05 234.74 149.455C231.694 152.86 226.125 153.008 226.125 153.008C226.125 153.008 225.516 147.631 228.562 144.226Z" fill="#00B04D" stroke="#263238" stroke-miterlimit="10"/>
<path d="M237.178 140.673L226.138 153.008" stroke="#263238" stroke-miterlimit="10"/>
<path d="M139.721 59.4197C137.662 55.3691 139.679 50.3237 139.679 50.3237C139.679 50.3237 145.022 51.8456 147.075 55.8903C149.128 59.9349 147.118 64.9862 147.118 64.9862C147.118 64.9862 141.756 63.4702 139.721 59.4197Z" fill="#00B04D" stroke="#263238" stroke-miterlimit="10"/>
<path d="M139.679 50.3237L147.118 64.9862" stroke="#263238" stroke-miterlimit="10"/>
<path d="M121.176 77.197C121.925 72.7616 126.586 69.8007 126.586 69.8007C126.586 69.8007 130.022 74.0644 129.267 78.5176C128.511 82.9708 123.857 85.9377 123.857 85.9377C123.857 85.9377 120.433 81.6443 121.176 77.197Z" fill="#00B04D" stroke="#263238" stroke-miterlimit="10"/>
<path d="M126.586 69.777L123.857 85.914" stroke="#263238" stroke-miterlimit="10"/>
<path d="M116.863 62.9965C121.127 64.85 122.839 69.9902 122.839 69.9902C122.839 69.9902 117.722 72.1161 113.487 70.2626C109.253 68.4091 107.511 63.2867 107.511 63.2867C107.511 63.2867 112.635 61.137 116.863 62.9965Z" fill="#00B04D" stroke="#263238" stroke-miterlimit="10"/>
<path d="M122.839 69.9901L107.511 63.2629" stroke="#263238" stroke-miterlimit="10"/>
<path d="M174.046 61.3028C178.639 61.9838 181.747 66.4785 181.747 66.4785C181.747 66.4785 177.403 69.8658 172.827 69.2085C168.252 68.5511 165.132 64.0387 165.132 64.0387C165.132 64.0387 169.458 60.6277 174.046 61.3028Z" fill="#00B04D" stroke="#263238" stroke-miterlimit="10"/>
<path d="M181.747 66.4785L165.114 64.015" stroke="#263238" stroke-miterlimit="10"/>
<path d="M168.033 55.0908C168.856 59.5381 165.487 63.8433 165.487 63.8433C165.487 63.8433 160.783 60.9475 159.961 56.5061C159.138 52.0648 162.508 47.7537 162.508 47.7537C162.508 47.7537 167.211 50.6494 168.033 55.0908Z" fill="#00B04D" stroke="#263238" stroke-miterlimit="10"/>
<path d="M165.488 63.8433L162.508 47.7537" stroke="#263238" stroke-miterlimit="10"/>
<path d="M220.088 76.4094C224.395 78.0912 226.357 83.1544 226.357 83.1544C226.357 83.1544 221.337 85.4876 217.029 83.7998C212.722 82.1121 210.754 77.0549 210.754 77.0549C210.754 77.0549 215.78 74.7217 220.088 76.4094Z" fill="#00B04D" stroke="#263238" stroke-miterlimit="10"/>
<path d="M226.357 83.1544L210.754 77.0549" stroke="#263238" stroke-miterlimit="10"/>
<path d="M80.8986 86.743C78.9368 82.651 81.057 77.6471 81.057 77.6471C81.057 77.6471 86.3697 79.2756 88.3315 83.3676C90.2933 87.4596 88.1731 92.4635 88.1731 92.4635C88.1731 92.4635 82.8665 90.8291 80.8986 86.743Z" fill="#00B04D" stroke="#263238" stroke-miterlimit="10"/>
<path d="M81.0566 77.6471L88.1726 92.4635" stroke="#263238" stroke-miterlimit="10"/>
<path d="M54.9505 139.578C50.3445 138.986 47.1338 134.586 47.1338 134.586C47.1338 134.586 51.3985 131.098 55.9923 131.672C60.586 132.246 63.8151 136.664 63.8151 136.664C63.8151 136.664 59.5564 140.152 54.9505 139.578Z" fill="#00B04D" stroke="#263238" stroke-miterlimit="10"/>
<path d="M47.1338 134.586L63.8151 136.664" stroke="#263238" stroke-miterlimit="10"/>
<path d="M57.9898 149.988C55.3944 153.731 49.8868 154.53 49.8868 154.53C49.8868 154.53 48.5952 149.272 51.1906 145.529C53.786 141.787 59.2997 140.981 59.2997 140.981C59.2997 140.981 60.5913 146.246 57.9898 149.988Z" fill="#00B04D" stroke="#263238" stroke-miterlimit="10"/>
<path d="M49.8867 154.53L59.2996 140.981" stroke="#263238" stroke-miterlimit="10"/>
<path d="M69.6637 146.784C71.0893 151.084 68.3416 155.792 68.3416 155.792C68.3416 155.792 63.2788 153.529 61.8531 149.23C60.4275 144.931 63.1752 140.229 63.1752 140.229C63.1752 140.229 68.238 142.491 69.6637 146.784Z" fill="#00B04D" stroke="#263238" stroke-miterlimit="10"/>
<path d="M68.3412 155.792L63.1748 140.229" stroke="#263238" stroke-miterlimit="10"/>
<path d="M92.7727 166.475C94.1983 170.768 91.4506 175.476 91.4506 175.476C91.4506 175.476 86.3877 173.214 84.9621 168.92C83.5365 164.627 86.3146 159.913 86.3146 159.913C86.3146 159.913 91.347 162.181 92.7727 166.475Z" fill="#00B04D" stroke="#263238" stroke-miterlimit="10"/>
<path d="M91.4496 175.476L86.2832 159.913" stroke="#263238" stroke-miterlimit="10"/>
<path d="M104.147 158.19C108.46 159.86 110.44 164.917 110.44 164.917C110.44 164.917 105.426 167.286 101.112 165.592C96.7989 163.899 94.8433 158.865 94.8433 158.865C94.8433 158.865 99.833 156.514 104.147 158.19Z" fill="#00B04D" stroke="#263238" stroke-miterlimit="10"/>
<path d="M110.44 164.917L94.8193 158.865" stroke="#263238" stroke-miterlimit="10"/>
<path d="M80.9477 162.969C80.436 167.458 75.9459 170.667 75.9459 170.667C75.9459 170.667 72.2904 166.587 72.7961 162.098C73.3017 157.61 77.804 154.4 77.804 154.4C77.804 154.4 81.4412 158.48 80.9477 162.969Z" fill="#00B04D" stroke="#263238" stroke-miterlimit="10"/>
<path d="M75.9448 170.656L77.803 154.406" stroke="#263238" stroke-miterlimit="10"/>
<path d="M90.3048 145.144C94.6792 143.634 99.602 146.169 99.602 146.169C99.602 146.169 97.4209 151.149 93.0403 152.683C88.6598 154.216 83.7432 151.652 83.7432 151.652C83.7432 151.652 85.9243 146.654 90.3048 145.144Z" fill="#00B04D" stroke="#263238" stroke-miterlimit="10"/>
<path d="M99.602 146.169L83.7432 151.629" stroke="#263238" stroke-miterlimit="10"/>
<path d="M90.7076 134.828C95.3318 135.195 98.7558 139.459 98.7558 139.459C98.7558 139.459 94.6738 143.143 90.0435 142.775C85.4132 142.408 81.9893 138.145 81.9893 138.145C81.9893 138.145 86.0773 134.467 90.7076 134.828Z" fill="#00B04D" stroke="#263238" stroke-miterlimit="10"/>
<path d="M98.7558 139.459L81.9893 138.145" stroke="#263238" stroke-miterlimit="10"/>
<path d="M98.1341 127.012C102.015 129.493 102.904 134.834 102.904 134.834C102.904 134.834 97.5065 136.155 93.6256 133.65C89.7447 131.145 88.8491 125.827 88.8491 125.827C88.8491 125.827 94.2349 124.53 98.1341 127.012Z" fill="#00B04D" stroke="#263238" stroke-miterlimit="10"/>
<path d="M102.904 134.834L88.8491 125.851" stroke="#263238" stroke-miterlimit="10"/>
<path d="M213.32 181.528C213.833 181.825 214.32 182.164 214.776 182.541L214.575 182.635C215.655 183.541 216.545 184.641 217.195 185.875C217.398 185.619 217.622 185.379 217.865 185.158C217.932 185.111 218.011 185.028 218.078 184.986L218.176 184.915C218.224 184.886 218.218 184.862 218.316 184.832L219.23 184.477C220.5 183.996 221.701 183.355 222.8 182.57C223.841 181.792 224.744 180.854 225.474 179.793C224.95 180.129 224.402 180.43 223.835 180.693C223.286 180.934 222.717 181.132 222.136 181.285C220.986 181.56 219.804 181.688 218.62 181.664H218.169C218.199 181.567 218.221 181.468 218.236 181.368L218.364 180.48C218.509 179.339 218.808 178.222 219.254 177.158C219.491 176.617 219.777 176.098 220.107 175.606C220.455 175.099 220.84 174.616 221.258 174.161C220.072 174.711 218.987 175.447 218.048 176.34C217.095 177.283 216.276 178.345 215.611 179.497L215.111 180.332C215.068 180.415 215.044 180.409 215.014 180.45L214.922 180.539C214.857 180.603 214.788 180.662 214.715 180.717C214.366 180.989 213.988 181.225 213.588 181.421L213.32 181.528Z" fill="#263238" stroke="#263238" stroke-miterlimit="10"/>
<path d="M197.9 180.906L198.655 181.498C198.735 181.558 198.722 181.581 198.759 181.617L198.832 181.718C198.888 181.791 198.939 181.868 198.984 181.948C199.194 182.326 199.366 182.723 199.496 183.133C199.496 183.21 199.539 183.299 199.563 183.376C200.597 182.311 201.84 181.459 203.219 180.871L203.097 180.746C203.495 180.586 203.901 180.448 204.315 180.332L204.126 180.16C203.806 179.853 203.52 179.514 203.273 179.147C203.237 179.076 203.17 178.988 203.133 178.916L203.079 178.804C203.079 178.757 203.036 178.757 203.024 178.662L202.817 177.72C202.553 176.422 202.113 175.163 201.507 173.978C200.903 172.844 200.11 171.816 199.161 170.934C199.403 171.493 199.606 172.066 199.77 172.651C199.924 173.222 200.028 173.804 200.081 174.392C200.166 175.538 200.092 176.689 199.862 177.815L199.728 178.52L199.313 178.389C198.206 178.056 197.147 177.584 196.164 176.986C195.656 176.664 195.179 176.3 194.738 175.896C194.285 175.475 193.861 175.024 193.471 174.546C193.825 175.776 194.382 176.942 195.122 177.999C195.914 179.081 196.848 180.059 197.9 180.906Z" fill="#263238" stroke="#263238" stroke-miterlimit="10"/>
<path d="M189.949 187.308C189.343 187.379 188.731 187.399 188.121 187.367C187.495 187.326 186.872 187.245 186.257 187.124C187.34 187.846 188.538 188.39 189.803 188.735C191.122 189.065 192.48 189.226 193.842 189.215H194.829C194.933 189.215 194.933 189.215 194.987 189.215L195.109 189.244C195.188 189.244 195.292 189.309 195.377 189.333C195.786 189.489 196.176 189.688 196.541 189.925C196.665 188.5 197.079 187.113 197.759 185.845L197.394 185.798L197.443 185.691C197.571 185.466 197.705 185.241 197.851 185.022C197.997 184.803 198.155 184.578 198.314 184.365H197.924C197.477 184.331 197.036 184.25 196.608 184.122C196.519 184.098 196.431 184.068 196.346 184.033L196.23 183.98C196.181 183.98 196.163 183.98 196.09 183.903L195.31 183.311C194.249 182.48 193.08 181.791 191.831 181.262C190.618 180.771 189.329 180.479 188.018 180.397C188.579 180.668 189.12 180.977 189.638 181.321C190.133 181.661 190.598 182.042 191.027 182.458C191.848 183.284 192.553 184.212 193.123 185.217L193.58 185.993C193.629 186.079 193.686 186.16 193.751 186.236L193.342 186.396C192.257 186.843 191.116 187.149 189.949 187.308Z" fill="#263238" stroke="#263238" stroke-miterlimit="10"/>
<path d="M207.66 180.024C207.965 180.024 208.27 180.024 208.556 180.065C209.637 180.186 210.694 180.459 211.694 180.877C211.647 180.453 211.647 180.027 211.694 179.603C211.694 179.52 211.724 179.408 211.742 179.337L211.773 179.218C211.78 179.166 211.799 179.115 211.828 179.07L212.291 178.224C212.947 177.062 213.442 175.822 213.765 174.534C214.05 173.289 214.122 172.007 213.978 170.738C213.797 171.322 213.577 171.894 213.32 172.45C213.062 172.981 212.759 173.49 212.413 173.972C211.718 174.903 210.898 175.739 209.976 176.459L209.653 176.719L209.244 176.092C208.599 175.127 208.089 174.084 207.727 172.989C207.553 172.426 207.428 171.849 207.356 171.265C207.286 170.66 207.26 170.051 207.277 169.442C206.734 170.603 206.39 171.844 206.259 173.113C206.155 174.433 206.229 175.761 206.478 177.063L206.649 178.01C206.649 178.105 206.649 178.111 206.649 178.164V178.289C206.649 178.366 206.649 178.472 206.606 178.555C206.516 178.982 206.381 179.399 206.204 179.799C206.156 179.911 206.095 180.03 206.034 180.142C206.308 180.107 206.582 180.077 206.856 180.059C207.13 180.042 207.392 180.024 207.66 180.024Z" fill="#263238" stroke="#263238" stroke-miterlimit="10"/>
<path d="M197.016 197.487C197.089 197.416 197.114 197.434 197.156 197.404L197.266 197.351C197.339 197.316 197.449 197.286 197.528 197.25C197.842 197.149 198.164 197.071 198.49 197.02C197.68 195.878 197.103 194.595 196.791 193.241C196.681 193.307 196.577 193.378 196.468 193.455C196.284 192.739 196.176 192.007 196.145 191.269L195.913 191.441C195.547 191.692 195.155 191.904 194.744 192.075C194.658 192.075 194.561 192.152 194.482 192.17L194.36 192.205C194.305 192.205 194.305 192.235 194.201 192.235L193.214 192.264C191.853 192.291 190.501 192.49 189.193 192.856C187.941 193.239 186.764 193.821 185.708 194.58C186.31 194.437 186.92 194.336 187.536 194.278C188.144 194.23 188.756 194.23 189.364 194.278C190.541 194.399 191.696 194.67 192.8 195.083L193.659 195.397C193.759 195.428 193.861 195.453 193.964 195.474L194.311 195.551H194.378L194.006 196.238C193.469 197.261 192.795 198.211 192.002 199.063C191.586 199.494 191.134 199.89 190.649 200.247C190.144 200.605 189.615 200.929 189.065 201.218C190.371 201.095 191.647 200.765 192.843 200.241C194.071 199.669 195.218 198.945 196.255 198.085L197.016 197.487Z" fill="#263238" stroke="#263238" stroke-miterlimit="10"/>
<path d="M223.744 197.985C222.621 197.241 221.402 196.644 220.119 196.208L219.193 195.883C219.096 195.853 219.102 195.829 219.053 195.806L218.949 195.734C218.876 195.693 218.797 195.616 218.73 195.569C218.474 195.354 218.24 195.116 218.029 194.858C217.701 195.66 217.276 196.422 216.762 197.126L216.561 196.842C215.793 197.969 214.814 198.946 213.673 199.72C213.907 199.842 214.131 199.98 214.344 200.134C214.404 200.194 214.502 200.253 214.557 200.312L214.642 200.395C214.679 200.436 214.703 200.43 214.752 200.513L215.276 201.331C215.98 202.463 216.836 203.498 217.822 204.41C218.789 205.274 219.897 205.976 221.1 206.489C220.658 206.049 220.251 205.578 219.882 205.079C219.534 204.598 219.23 204.089 218.974 203.557C218.494 202.505 218.158 201.396 217.975 200.259L217.822 199.382C217.802 199.28 217.776 199.179 217.743 199.08L217.7 198.962L217.993 199.009H218.346C218.452 199.02 218.558 199.02 218.663 199.009L219.577 198.98C220.758 198.918 221.942 199.01 223.098 199.252C223.688 199.386 224.265 199.568 224.823 199.797C225.397 200.043 225.952 200.328 226.486 200.65C225.729 199.621 224.803 198.72 223.744 197.985Z" fill="#263238" stroke="#263238" stroke-miterlimit="10"/>
<path d="M213.398 202.657L212.904 201.822C212.849 201.745 212.868 201.727 212.849 201.68L212.813 201.562C212.813 201.485 212.776 201.378 212.758 201.295C212.715 201.041 212.693 200.783 212.691 200.525C211.894 200.916 211.051 201.21 210.181 201.402C210.184 201.36 210.184 201.319 210.181 201.277L209.742 201.39C208.512 201.662 207.243 201.728 205.989 201.585C206.116 201.889 206.22 202.202 206.3 202.521C206.3 202.604 206.343 202.71 206.349 202.787V202.912C206.349 202.965 206.349 202.971 206.349 203.066L206.215 204.019C206.003 205.326 205.975 206.655 206.129 207.969C206.297 209.236 206.68 210.466 207.263 211.611C207.217 211.004 207.217 210.394 207.263 209.787C207.314 209.201 207.42 208.62 207.579 208.052C207.904 206.945 208.379 205.886 208.993 204.902L209.456 204.132C209.509 204.043 209.554 203.95 209.59 203.853L209.724 203.539C209.724 203.474 209.767 203.421 209.785 203.362C209.821 203.403 209.852 203.445 209.895 203.486L210.144 203.729C210.215 203.806 210.292 203.878 210.376 203.942L211.101 204.487C212.045 205.182 212.891 205.994 213.617 206.903C213.978 207.374 214.298 207.873 214.574 208.395C214.848 208.943 215.086 209.506 215.286 210.083C215.386 208.812 215.271 207.534 214.945 206.299C214.599 205.023 214.078 203.799 213.398 202.657Z" fill="#263238" stroke="#263238" stroke-miterlimit="10"/>
<path d="M201.05 199.803C200.308 199.326 199.629 198.763 199.027 198.127C198.914 198.549 198.755 198.958 198.552 199.347C198.509 199.418 198.46 199.519 198.418 199.584L198.345 199.684C198.308 199.72 198.345 199.744 198.241 199.803L197.51 200.448C196.485 201.315 195.584 202.311 194.829 203.409C194.125 204.485 193.606 205.665 193.294 206.903C193.667 206.415 194.074 205.952 194.512 205.517C194.942 205.103 195.407 204.725 195.902 204.386C196.882 203.744 197.945 203.23 199.064 202.858L199.929 202.556C200.038 202.532 200.144 202.496 200.245 202.45L200.562 202.296C200.654 202.249 200.733 202.195 200.812 202.148V202.237C200.818 202.34 200.831 202.443 200.849 202.545L201.044 203.415C201.309 204.537 201.422 205.688 201.379 206.838C201.34 207.424 201.255 208.006 201.123 208.579C200.971 209.171 200.779 209.752 200.55 210.32C201.467 209.406 202.226 208.354 202.798 207.205C203.361 205.999 203.761 204.727 203.986 203.421L204.157 202.479C204.163 202.427 204.182 202.376 204.212 202.331L204.26 202.219C204.291 202.148 204.352 202.053 204.394 201.976C204.531 201.759 204.681 201.552 204.845 201.354C203.495 201.013 202.224 200.426 201.098 199.625C201.079 199.684 201.063 199.743 201.05 199.803Z" fill="#263238" stroke="#263238" stroke-miterlimit="10"/>
<path d="M224.731 192.975C223.668 192.471 222.678 191.831 221.788 191.074L221.148 190.553L221.234 190.505L221.52 190.31C221.609 190.255 221.695 190.193 221.776 190.126L222.458 189.534C223.321 188.75 224.289 188.081 225.334 187.545C225.874 187.278 226.436 187.058 227.015 186.887C227.615 186.717 228.225 186.586 228.843 186.496C227.573 186.179 226.258 186.065 224.95 186.159C223.594 186.288 222.26 186.588 220.984 187.053L220.058 187.379C219.966 187.42 219.948 187.379 219.899 187.408H219.771C219.692 187.408 219.583 187.408 219.491 187.408C219.046 187.395 218.603 187.338 218.169 187.237C218.419 187.944 218.594 188.674 218.693 189.416L218.315 189.315C218.51 190.658 218.442 192.024 218.114 193.342C218.372 193.294 218.632 193.265 218.894 193.253C218.985 193.253 219.095 193.253 219.174 193.253H219.302C219.351 193.253 219.369 193.253 219.461 193.253L220.399 193.549C221.688 193.978 223.03 194.237 224.39 194.319C225.7 194.377 227.012 194.223 228.27 193.863C227.654 193.795 227.043 193.685 226.443 193.532C225.856 193.395 225.284 193.209 224.731 192.975Z" fill="#263238" stroke="#263238" stroke-miterlimit="10"/>
<path d="M222.739 191.121C222.74 193.963 221.887 196.743 220.285 199.12C218.683 201.498 216.402 203.368 213.722 204.503C211.042 205.638 208.079 205.987 205.197 205.508C202.315 205.029 199.64 203.743 197.5 201.807C195.36 199.871 193.848 197.37 193.15 194.61C192.451 191.851 192.598 188.953 193.57 186.273C194.542 183.593 196.298 181.248 198.623 179.524C200.947 177.801 203.739 176.774 206.655 176.571C207.008 176.542 207.368 176.53 207.727 176.53C211.709 176.53 215.527 178.067 218.342 180.804C221.158 183.54 222.739 187.252 222.739 191.121Z" fill="white" stroke="#263238" stroke-miterlimit="10"/>
<path d="M108.181 191.121C108.181 193.963 107.329 196.743 105.727 199.12C104.125 201.498 101.844 203.368 99.1634 204.503C96.483 205.638 93.5201 205.987 90.6383 205.508C87.7566 205.029 85.0815 203.743 82.9413 201.807C80.8012 199.871 79.2893 197.37 78.5911 194.61C77.8929 191.851 78.0389 188.953 79.0112 186.273C79.9834 183.593 81.7396 181.248 84.0641 179.524C86.3886 177.801 89.1803 176.774 92.0964 176.571C92.4497 176.542 92.8092 176.53 93.1686 176.53C97.15 176.53 100.968 178.067 103.784 180.804C106.599 183.54 108.181 187.252 108.181 191.121Z" fill="#263238"/>
<path d="M108.18 191.121C108.194 194.635 106.895 198.033 104.525 200.685C104.171 200.715 103.812 200.727 103.452 200.727C100.573 200.727 97.7551 199.922 95.3337 198.409C92.9123 196.895 90.99 194.736 89.7961 192.19C88.6021 189.644 88.187 186.817 88.6002 184.048C89.0134 181.279 90.2374 178.683 92.1263 176.571C92.4797 176.542 92.8391 176.53 93.1986 176.53C97.1747 176.538 100.985 178.079 103.794 180.814C106.603 183.55 108.18 187.257 108.18 191.121Z" fill="white" stroke="#263238" stroke-miterlimit="10"/>
<path d="M154.679 36.5437C90.2141 36.5437 37.9526 87.3412 37.9526 150C37.9526 212.659 90.2141 263.445 154.679 263.445C219.143 263.445 271.405 212.659 271.405 150C271.405 87.3412 219.131 36.5437 154.679 36.5437ZM154.679 256.066C133.096 256.066 111.999 249.846 94.0534 238.191C76.1083 226.536 62.1218 209.971 53.8625 190.59C45.6033 171.209 43.4423 149.883 47.6528 129.308C51.8634 108.733 62.2563 89.8338 77.5174 75.0002C92.7784 60.1666 112.222 50.0648 133.39 45.9722C154.558 41.8796 176.499 43.9801 196.438 52.0079C216.378 60.0358 233.42 73.6306 245.411 91.073C257.401 108.516 263.801 129.022 263.801 150C263.801 178.131 252.305 205.109 231.84 225C211.376 244.891 183.62 256.066 154.679 256.066Z" fill="#00B04D" stroke="#263238" stroke-miterlimit="10"/>
<path d="M283.632 150C283.632 146.483 285.916 142.894 285.624 139.453C285.331 136.013 282.474 132.779 281.889 129.386C281.304 125.993 282.949 122.025 282.078 118.662C281.207 115.298 277.813 112.598 276.674 109.311C275.535 106.025 276.467 101.891 275.029 98.7111C273.591 95.5311 269.814 93.417 268.108 90.3614C266.402 87.3057 266.646 83.0775 264.684 80.1639C262.722 77.2504 258.646 75.7818 256.447 73.0577C254.248 70.3337 253.772 66.1174 251.341 63.5828C248.91 61.0483 244.64 60.2192 242.014 57.8564C239.388 55.4936 238.212 51.4371 235.379 49.2875C232.546 47.1379 228.22 47.0431 225.211 45.1422C222.201 43.2413 220.385 39.4158 217.223 37.7518C214.061 36.0877 209.785 36.6799 206.488 35.2764C203.192 33.8729 200.755 30.4028 197.35 29.2658C193.944 28.1288 189.838 29.4138 186.341 28.5551C182.843 27.6965 179.87 24.6763 176.306 24.1019C172.742 23.5275 168.934 25.458 165.34 25.1678C161.745 24.8777 158.309 22.3787 154.69 22.3787C151.071 22.3787 147.568 24.7948 144.022 25.079C140.476 25.3633 136.559 23.4446 133.056 24.0131C129.552 24.5816 126.476 27.6195 123.015 28.4663C119.555 29.3131 115.387 28.0518 112.012 29.1769C108.637 30.3021 106.145 33.79 102.873 35.1876C99.6017 36.5851 95.2822 36.0048 92.1384 37.6629C88.9947 39.321 87.1426 43.1465 84.1451 45.0534C81.1476 46.9602 76.8036 47.0727 73.9767 49.1987C71.1498 51.3246 69.9861 55.4047 67.3481 57.7676C64.71 60.1304 60.4392 60.918 58.0083 63.5058C55.5774 66.0937 55.1143 70.2626 52.9089 72.9808C50.7034 75.6989 46.6397 77.1912 44.6718 80.087C42.7039 82.9827 42.9598 87.1932 41.2417 90.2844C39.5237 93.3756 35.7585 95.4304 34.3268 98.6342C32.895 101.838 33.8455 105.924 32.6757 109.234C31.5059 112.545 28.1612 115.192 27.2777 118.585C26.3943 121.978 28.0576 125.845 27.4666 129.309C26.8756 132.774 24.0244 135.894 23.7319 139.376C23.4395 142.858 25.7242 146.406 25.7242 149.923C25.7242 153.441 23.4395 157.029 23.7319 160.47C24.0244 163.911 26.8817 167.144 27.4666 170.537C28.0515 173.93 26.4065 177.898 27.2777 181.256C28.149 184.613 31.5425 187.326 32.6818 190.606C33.8211 193.887 32.8889 198.032 34.3268 201.212C35.7646 204.392 39.5358 206.595 41.2296 209.663C42.9233 212.73 42.6978 216.947 44.6596 219.86C46.6214 222.774 50.6973 224.242 52.8967 226.966C55.0961 229.69 55.5713 233.907 57.9961 236.471C60.4209 239.035 64.6978 239.829 67.3298 242.191C69.9618 244.554 71.1315 248.617 73.9645 250.76C76.7975 252.904 81.1232 253.011 84.1329 254.906C87.1426 256.8 88.9582 260.632 92.1202 262.296C95.2822 263.96 99.5591 263.362 102.855 264.771C106.151 266.181 108.582 269.645 111.994 270.782C115.406 271.919 119.506 270.634 122.997 271.493C126.488 272.351 129.473 275.371 133.037 275.946C136.601 276.52 140.409 274.59 144.004 274.88C147.598 275.17 151.041 277.669 154.66 277.669C158.279 277.669 161.763 275.158 165.309 274.88C168.855 274.602 172.773 276.508 176.276 275.946C179.779 275.383 182.856 272.339 186.316 271.493C189.777 270.646 193.944 271.907 197.319 270.782C200.695 269.657 203.186 266.169 206.458 264.771C209.73 263.374 214.049 263.954 217.193 262.296C220.337 260.638 222.189 256.806 225.18 254.9C228.172 252.993 232.528 252.886 235.349 250.754C238.169 248.622 239.345 244.548 241.983 242.185C244.621 239.823 248.886 239.029 251.317 236.465C253.748 233.901 254.211 229.708 256.416 226.954C258.622 224.201 262.686 222.75 264.654 219.848C266.621 216.947 266.366 212.742 268.084 209.657C269.802 206.571 273.567 204.511 274.999 201.307C276.43 198.103 275.474 194.017 276.644 190.701C277.813 187.385 281.164 184.75 282.048 181.35C282.931 177.951 281.268 174.09 281.859 170.632C282.45 167.173 285.301 164.041 285.593 160.565C285.886 157.089 283.632 153.518 283.632 150Z" stroke="#263238" stroke-width="4" stroke-linecap="round" stroke-linejoin="round"/>
<path d="M266.751 150C266.751 146.939 269.053 143.806 268.804 140.81C268.554 137.813 265.757 135.036 265.24 132.063C264.722 129.09 266.458 125.596 265.709 122.671C264.959 119.746 261.718 117.477 260.707 114.617C259.695 111.757 260.823 108.05 259.567 105.278C258.312 102.507 254.748 100.807 253.262 98.1723C251.775 95.5371 252.263 91.6583 250.551 89.1474C248.839 86.6365 245.067 85.5114 243.124 83.119C241.18 80.7266 241.04 76.8774 238.926 74.6448C236.812 72.4123 232.882 71.9385 230.579 69.9074C228.276 67.8762 227.478 64.0803 225.011 62.209C222.543 60.3377 218.595 60.5035 215.982 58.8394C213.368 57.1754 211.936 53.5927 209.189 52.1418C206.441 50.691 202.572 51.4431 199.709 50.2172C196.845 48.9914 194.835 45.687 191.868 44.6981C188.901 43.7091 185.245 45.1245 182.199 44.3724C179.153 43.6203 176.63 40.7009 173.529 40.2271C170.428 39.7534 167.071 41.7135 163.94 41.4648C160.808 41.2161 157.847 38.7289 154.679 38.7289C151.511 38.7289 148.507 41.2161 145.418 41.4648C142.33 41.7135 138.887 39.706 135.829 40.1916C132.77 40.6772 130.169 43.6322 127.159 44.3369C124.15 45.0416 120.458 43.6855 117.484 44.6626C114.511 45.6397 112.513 48.9973 109.649 50.2172C106.786 51.4371 102.905 50.6495 100.17 52.0945C97.434 53.5394 95.984 57.134 93.3764 58.7921C90.7688 60.4502 86.8026 60.3258 84.3412 62.1616C81.8799 63.9974 81.0696 67.7992 78.7727 69.86C76.4758 71.9208 72.5462 72.3886 70.4321 74.5974C68.318 76.8063 68.1535 80.6792 66.2343 83.0716C64.3152 85.464 60.5135 86.5596 58.8015 89.1C57.0895 91.6405 57.583 95.4542 56.0964 98.1308C54.6099 100.807 51.0457 102.477 49.7907 105.237C48.5356 107.997 49.6688 111.698 48.6514 114.576C47.6339 117.454 44.3866 119.669 43.6495 122.629C42.9123 125.59 44.6303 129.007 44.1186 132.021C43.6068 135.036 40.8104 137.718 40.5545 140.768C40.2986 143.818 42.6076 146.897 42.6076 149.959C42.6076 153.02 40.3047 156.194 40.5545 159.22C40.8043 162.247 43.6007 164.994 44.1186 167.967C44.6364 170.94 42.9001 174.434 43.6495 177.359C44.3988 180.284 47.64 182.553 48.6514 185.413C49.6627 188.273 48.5417 191.95 49.7907 194.752C51.0397 197.553 54.6342 199.193 56.0964 201.858C57.5586 204.523 57.0956 208.372 58.8015 210.889C60.5074 213.405 64.2847 214.525 66.2343 216.917C68.1839 219.309 68.318 223.159 70.4321 225.391C72.5462 227.624 76.4758 228.097 78.7727 230.129C81.0696 232.16 81.8799 235.95 84.3412 237.827C86.8026 239.704 90.7627 239.532 93.3764 241.196C95.9901 242.861 97.4157 246.443 100.17 247.894C102.923 249.345 106.78 248.545 109.649 249.771C112.519 250.997 114.523 254.296 117.49 255.285C120.458 256.273 124.113 254.864 127.159 255.61C130.206 256.356 132.728 259.288 135.829 259.791C138.93 260.294 142.287 258.305 145.418 258.553C148.55 258.802 151.511 261.289 154.679 261.289C157.847 261.289 160.851 258.802 163.94 258.553C167.029 258.305 170.471 260.283 173.529 259.791C176.588 259.3 179.189 256.35 182.199 255.61C185.209 254.87 188.931 256.268 191.868 255.285C194.804 254.301 196.857 250.985 199.709 249.771C202.56 248.557 206.453 249.339 209.189 247.894C211.924 246.449 213.374 242.855 215.982 241.196C218.589 239.538 222.556 239.686 225.017 237.827C227.478 235.967 228.289 232.189 230.585 230.129C232.882 228.068 236.812 227.594 238.926 225.391C241.04 223.188 241.205 219.315 243.124 216.923C245.043 214.53 248.839 213.435 250.557 210.894C252.275 208.354 251.775 204.54 253.262 201.864C254.748 199.187 258.312 197.517 259.567 194.757C260.823 191.998 259.689 188.297 260.707 185.413C261.724 182.529 264.941 180.32 265.709 177.365C266.476 174.41 264.728 170.987 265.24 167.973C265.751 164.959 268.548 162.276 268.804 159.226C269.06 156.177 266.751 153.062 266.751 150Z" stroke="#263238" stroke-width="4" stroke-linecap="round" stroke-linejoin="round"/>
</svg>
