<svg width="45" height="45" viewBox="0 0 45 45" fill="none" xmlns="http://www.w3.org/2000/svg">
<path d="M15.4688 25.3125L17.4516 27.2953L21.0938 23.6672V40.7812H23.9062V23.6672L27.5484 27.2953L29.5312 25.3125L22.5 18.2812L15.4688 25.3125Z" fill="#B00037"/>
<path d="M33.0466 30.9375H32.3435V28.125H33.0466C34.7249 28.1922 36.3612 27.5898 37.5954 26.4506C38.8296 25.3113 39.5607 23.7284 39.6279 22.05C39.695 20.3717 39.0927 18.7355 37.9534 17.5012C36.8141 16.267 35.2312 15.5359 33.5529 15.4688H32.3435L32.2029 14.3157C31.8909 11.9482 30.7289 9.7748 28.9335 8.20042C27.138 6.62604 24.8315 5.758 22.4435 5.758C20.0555 5.758 17.749 6.62604 15.9535 8.20042C14.1581 9.7748 12.9961 11.9482 12.6841 14.3157L12.656 15.4688H11.4466C9.76829 15.5359 8.18538 16.267 7.04609 17.5012C5.90681 18.7355 5.30448 20.3717 5.37162 22.05C5.43875 23.7284 6.16984 25.3113 7.40407 26.4506C8.63829 27.5898 10.2745 28.1922 11.9529 28.125H12.656V30.9375H11.9529C9.69781 30.9233 7.52763 30.0759 5.85956 28.5583C4.1915 27.0407 3.1433 24.9601 2.91649 22.7164C2.68968 20.4728 3.30027 18.2244 4.63088 16.4037C5.96148 14.583 7.91817 13.3185 10.1247 12.8532C10.7318 10.0217 12.2915 7.48406 14.5436 5.66367C16.7957 3.84327 19.6039 2.85022 22.4997 2.85022C25.3955 2.85022 28.2038 3.84327 30.4559 5.66367C32.7079 7.48406 34.2677 10.0217 34.8747 12.8532C37.0813 13.3185 39.038 14.583 40.3686 16.4037C41.6992 18.2244 42.3098 20.4728 42.083 22.7164C41.8562 24.9601 40.808 27.0407 39.1399 28.5583C37.4719 30.0759 35.3017 30.9233 33.0466 30.9375Z" fill="#B00037"/>
</svg>
